<svg width="180" height="180" viewBox="0 0 180 180" fill="none" xmlns="http://www.w3.org/2000/svg">
<circle cx="90" cy="90" r="90" fill="#283593"/>
<mask id="mask0" mask-type="alpha" maskUnits="userSpaceOnUse" x="0" y="0" width="180" height="180">
<circle cx="90" cy="90" r="90" fill="#30AF73"/>
</mask>
<g mask="url(#mask0)">
<g clip-path="url(#clip0)">
<path d="M37 231H145.129V173.38C145.129 148.661 125.036 128.545 100.345 128.545H81.7842C57.0933 128.545 37 148.661 37 173.38V231Z" fill="#F3C355"/>
<path d="M89.9577 154.798C100.175 154.798 108.518 146.445 108.518 136.216V87.6309H71.397V136.387C71.397 146.615 79.7408 154.798 89.9577 154.798Z" fill="#FF9300"/>
<path d="M71.5671 103.996C62.0313 103.996 54.3687 96.3251 54.3687 86.7785V64.6169C54.3687 55.0703 62.0313 47.3989 71.5671 47.3989V103.996Z" fill="#DBDBDB"/>
<path d="M108.007 101.61H80.4217C69.5236 101.61 60.6689 92.7452 60.6689 81.8348L60.8392 42.6257C60.8392 39.5571 63.3935 37 66.4585 37H95.9173C112.946 37 126.738 50.9789 126.738 68.0264V82.8576C126.738 93.2566 118.395 101.61 108.007 101.61Z" fill="#DBDBDB"/>
<path d="M88.9358 120.532C71.3968 120.532 57.2634 106.213 57.4337 88.8242V70.413C57.4337 58.1388 67.6506 48.0808 79.9109 48.0808H98.4716C110.902 48.0808 120.779 58.1388 120.779 70.5834V88.9947C120.608 106.554 106.305 120.703 88.9358 120.532Z" fill="#FF9300"/>
<path d="M90.0096 93.3306C90.0096 93.3306 88.0951 95.6316 83 94.9999C77.5865 94.3681 78.705 91.9092 78.705 91.9092L90.0096 93.3306Z" fill="#134351"/>
<path d="M70.7156 81.8349C71.9076 81.8349 72.9293 80.812 72.9293 79.6187V75.1864C72.9293 73.9931 71.9076 72.9702 70.7156 72.9702C69.5236 72.9702 68.502 73.9931 68.502 75.1864V79.6187C68.502 80.812 69.5236 81.8349 70.7156 81.8349Z" fill="#134351"/>
<path d="M96.5984 81.8349C97.7904 81.8349 98.8121 80.812 98.8121 79.6187V75.1864C98.8121 73.9931 97.7904 72.9702 96.5984 72.9702C95.4065 72.9702 94.3848 73.9931 94.3848 75.1864V79.6187C94.2145 80.812 95.2362 81.8349 96.5984 81.8349Z" fill="#134351"/>
<path d="M175.269 186.847L145.129 175.766V142.524L181.058 156.673C187.018 159.06 190.935 164.856 190.935 171.334C190.935 179.858 183.953 186.847 175.269 186.847Z" fill="#FF9300"/>
<path d="M156.197 192.302L101.707 171.163L108.689 155.139C114.308 142.012 129.122 135.534 142.575 140.308L170.331 150.195L156.197 192.302Z" fill="#F3C355"/>
<path d="M112.435 125.988L104.943 123.601C103.921 123.26 103.41 122.237 103.751 121.214L118.565 74.1635C118.906 73.1407 119.927 72.6292 120.949 72.9702L128.441 75.3568C129.463 75.6978 129.974 76.7206 129.633 77.7435L114.819 124.794C114.478 125.817 113.457 126.329 112.435 125.988Z" fill="#00696B"/>
<path d="M124.866 112.179L118.395 108.599C116.351 107.406 115.67 104.849 116.692 102.803C117.884 100.757 120.438 100.075 122.482 101.098L128.952 104.678L124.866 112.179Z" fill="#FF9300"/>
<path d="M125.547 107.747L122.311 97.8595C121.63 95.6433 122.822 93.0862 125.036 92.4043C127.25 91.7224 129.804 92.9158 130.485 95.1319L133.72 105.019L125.547 107.747Z" fill="#FF9300"/>
<path d="M120.268 118.828L113.797 115.248C111.754 114.055 111.073 111.497 112.094 109.452C113.286 107.406 115.841 106.724 117.884 107.747L124.355 111.327L120.268 118.828Z" fill="#FF9300"/>
<path d="M116.522 125.647L110.051 122.067C108.008 120.873 107.327 118.316 108.348 116.271C109.54 114.225 112.095 113.543 114.138 114.566L120.609 118.146L116.522 125.647Z" fill="#FF9300"/>
<path d="M189.232 183.267C182.932 189.063 172.374 187.87 165.904 180.71L111.754 120.873L132.528 101.951L188.551 159.23C195.533 166.39 195.873 177.3 189.232 183.267Z" fill="#FF9300"/>
</g>
</g>
<defs>
<clipPath id="clip0">
<rect x="37" y="37" width="157" height="194" fill="white"/>
</clipPath>
</defs>
</svg>
