<svg width="200" height="200" viewBox="0 0 200 200" fill="none" xmlns="http://www.w3.org/2000/svg">
<g clip-path="url(#clip0)">
<g filter="url(#filter0_ddd)">
<g clip-path="url(#clip1)">
<rect x="3" y="59.0005" width="140.667" height="80" rx="8" fill="#DCFFEA"/>
<rect x="3" y="122.467" width="140.935" height="16.5333" fill="white"/>
<g clip-path="url(#clip2)">
<path d="M60.1295 122.467H59.5029V152.067H60.1295V122.467Z" fill="#DBE0E1"/>
<path d="M62.0094 122.467H61.3828V152.067H62.0094V122.467Z" fill="#DBE0E1"/>
<path d="M63.8888 122.467H63.2622V152.067H63.8888V122.467Z" fill="#DBE0E1"/>
<path d="M65.7687 122.467H64.5156V152.067H65.7687V122.467Z" fill="#DBE0E1"/>
<path d="M67.0221 122.467H66.3955V152.067H67.0221V122.467Z" fill="#DBE0E1"/>
<path d="M68.9016 122.467H67.6484V152.067H68.9016V122.467Z" fill="#DBE0E1"/>
<path d="M70.7809 122.467H70.1543V152.067H70.7809V122.467Z" fill="#DBE0E1"/>
<path d="M72.6607 122.467H72.0342V152.067H72.6607V122.467Z" fill="#DBE0E1"/>
<path d="M73.9142 122.467H73.2876V152.067H73.9142V122.467Z" fill="#DBE0E1"/>
<path d="M75.1671 122.467H74.5405V152.067H75.1671V122.467Z" fill="#DBE0E1"/>
<path d="M77.0465 122.467H76.4199V152.067H77.0465V122.467Z" fill="#DBE0E1"/>
<path d="M79.5529 122.467H78.2998V152.067H79.5529V122.467Z" fill="#DBE0E1"/>
<path d="M80.8058 122.467H80.1792V152.067H80.8058V122.467Z" fill="#DBE0E1"/>
<path d="M82.0592 122.467H81.4326V152.067H82.0592V122.467Z" fill="#DBE0E1"/>
<path d="M84.5651 122.467H83.312V152.067H84.5651V122.467Z" fill="#DBE0E1"/>
<path d="M86.4449 122.467H85.8184V152.067H86.4449V122.467Z" fill="#DBE0E1"/>
<path d="M87.6978 122.467H87.0713V152.067H87.6978V122.467Z" fill="#DBE0E1"/>
<path d="M89.5777 122.467H88.9512V152.067H89.5777V122.467Z" fill="#DBE0E1"/>
<path d="M91.4576 122.467H90.8311V152.067H91.4576V122.467Z" fill="#DBE0E1"/>
<path d="M93.3371 122.467H92.084V152.067H93.3371V122.467Z" fill="#DBE0E1"/>
<path d="M94.5904 122.467H93.9639V152.067H94.5904V122.467Z" fill="#DBE0E1"/>
<path d="M96.4699 122.467H95.2168V152.067H96.4699V122.467Z" fill="#DBE0E1"/>
<path d="M98.3492 122.467H97.7227V152.067H98.3492V122.467Z" fill="#DBE0E1"/>
<path d="M100.229 122.467H99.6025V152.067H100.229V122.467Z" fill="#DBE0E1"/>
</g>
<rect x="51.2285" y="77.667" width="32.6883" height="4.26667" rx="2.13333" fill="#DBE0E1"/>
<rect x="51.2285" y="100.067" width="32.6883" height="4.26667" rx="2.13334" fill="#DBE0E1"/>
<rect x="51.2285" y="86.2002" width="50.9079" height="4.26667" rx="2.13333" fill="#DBE0E1"/>
<rect x="51.2285" y="108.601" width="50.9079" height="4.26667" rx="2.13333" fill="#DBE0E1"/>
<rect x="9.96631" y="73.4009" width="34.2959" height="43.2" rx="6" fill="white"/>
<path d="M12.1099 116.6C12.1099 112.667 13.6907 108.894 16.5046 106.113C19.3184 103.331 23.1349 101.769 27.1143 101.769C31.0937 101.769 34.9102 103.331 37.7241 106.113C40.5379 108.894 42.1188 112.667 42.1188 116.6H12.1099ZM27.1143 99.9146C20.8968 99.9146 15.861 94.9367 15.861 88.7908C15.861 82.6449 20.8968 77.667 27.1143 77.667C33.3318 77.667 38.3676 82.6449 38.3676 88.7908C38.3676 94.9367 33.3318 99.9146 27.1143 99.9146Z" fill="#DBE0E1" fill-opacity="0.5"/>
</g>
<rect x="2.5" y="58.5005" width="141.667" height="81" rx="8.5" stroke="#DBE0E1"/>
</g>
<path fill-rule="evenodd" clip-rule="evenodd" d="M191.004 164.044C181.479 169.818 162.895 174.878 145.337 172.789C125.821 170.466 107.924 162.609 100.479 156.521C95.5243 152.471 92.8737 146.941 97.5625 141.211C109.202 126.988 139.874 120.446 161.451 125.708C177.484 129.619 180.503 132.66 188.857 141.25C194.28 146.827 198.779 159.33 191.004 164.044Z" fill="#87E9CF"/>
<path d="M122.244 149.641C121.175 149.641 120.31 148.776 120.31 147.707C120.31 146.639 121.175 145.773 122.244 145.773C123.312 145.773 124.178 146.639 124.178 147.707C124.178 148.776 123.312 149.641 122.244 149.641Z" fill="white" fill-opacity="0.75"/>
<path d="M117.465 157.553C116.397 157.553 115.531 156.687 115.531 155.619C115.531 154.55 116.397 153.685 117.465 153.685C118.533 153.685 119.399 154.55 119.399 155.619C119.399 156.687 118.533 157.553 117.465 157.553Z" fill="white" fill-opacity="0.75"/>
<path fill-rule="evenodd" clip-rule="evenodd" d="M154.125 122.273C150.69 127.186 142.364 141.997 129.791 138.225C124.9 136.757 124.789 132.418 124.242 128.812C123.63 124.774 123.519 122.441 122.575 117.363" fill="#C27251"/>
<path fill-rule="evenodd" clip-rule="evenodd" d="M179.983 109.73C200.074 84.9798 196.759 60.3428 172.871 45.1207C159.913 36.8631 146.43 40.2141 132.048 50.2124C126.145 54.316 128.988 66.2931 121.156 76.2837C111.768 88.2595 108.657 103.74 111.222 111.208C116.749 127.294 127.091 127.374 142.295 126.668C153.13 126.163 161.871 124.661 169.642 119.508C172.861 117.374 178.582 111.455 179.983 109.73Z" fill="#D97E59"/>
<path fill-rule="evenodd" clip-rule="evenodd" d="M174.543 69.6644C172.471 65.9791 167.397 66.8792 164.732 67.9308C152.524 72.7502 148.091 72.5208 139.946 69.4136C136.867 68.2421 131.144 66.3448 127.008 58.1257C125.84 55.8024 125.718 50.088 125.718 50.088C125.718 50.088 128.045 52.582 138.155 44.0299C151.457 32.7777 175.518 37.0435 187.383 50.3676C190.787 54.1883 189.798 58.9216 189.798 58.9216C189.798 58.9216 194.242 59.4308 196.648 65.0906C198.613 69.7168 197.633 75.3883 197.062 83.0529C196.343 92.6921 192.637 97.8795 185.754 105.09C185.106 105.769 183.533 110.519 182.252 110.21C177.989 109.178 182.738 103.433 184.484 97.9419C185.632 94.3337 184.602 90.4555 181.97 89.4251C175.391 86.8472 174.536 105.209 169.207 97.9423C168.801 97.3881 172.104 90.835 173.056 84.699" fill="#194858"/>
<path fill-rule="evenodd" clip-rule="evenodd" d="M138.132 107.905C136.956 106.446 130.938 105.718 126.383 103.084C123.43 101.381 122.247 99.0279 121.437 98.9573C119.972 98.8278 118.689 106.698 121.042 109.047C123.982 111.984 130.058 111.852 134.436 110.972C137.059 110.447 138.694 108.601 138.132 107.905Z" fill="white"/>
<path fill-rule="evenodd" clip-rule="evenodd" d="M138.515 107.596C138.906 108.03 138.812 108.859 138.106 109.703C137.436 110.505 136.195 111.338 134.593 111.755C133.025 112.147 131.243 112.462 129.443 112.557C128.244 112.619 127.04 112.585 125.898 112.41C125.07 112.284 124.275 112.079 123.539 111.798C122.29 111.319 121.204 110.632 120.366 109.724C119.253 108.498 118.876 106.135 119.071 103.852C119.146 102.959 119.301 102.091 119.481 101.321C119.755 100.154 120.136 99.2281 120.532 98.7805C120.83 98.445 121.166 98.3269 121.493 98.3349C121.764 98.3405 122.072 98.4924 122.435 98.7601C123.272 99.3809 124.598 100.952 126.976 102.058C127.487 102.319 128.026 102.526 128.554 102.762C128.911 102.921 129.262 103.089 129.614 103.253C132.014 104.378 134.433 105.253 136.15 106.024C137.319 106.549 138.167 107.056 138.524 107.589L138.515 107.596ZM121.438 99.6407C121.444 99.6552 121.452 99.6669 121.463 99.6759C121.588 99.7837 121.715 99.9358 121.862 100.117C122.311 100.667 122.866 101.442 123.653 102.276C124.233 102.894 124.935 103.512 125.789 104.113C126.354 104.481 126.932 104.842 127.548 105.131C128.154 105.415 128.789 105.63 129.419 105.831C131.666 106.54 133.886 106.924 135.543 107.357C136.577 107.628 137.375 107.842 137.739 108.22L137.749 108.213C137.757 108.225 137.729 108.231 137.727 108.246C137.72 108.306 137.685 108.364 137.649 108.431C137.47 108.769 137.059 109.12 136.511 109.443C135.918 109.794 135.154 110.066 134.28 110.19C132.785 110.416 131.098 110.523 129.413 110.485C128.341 110.46 127.274 110.359 126.255 110.189C125.562 110.074 124.895 109.926 124.266 109.726C123.296 109.414 122.411 109.006 121.717 108.372C120.768 107.512 120.447 105.673 120.438 103.906C120.433 103.028 120.502 102.16 120.657 101.413C120.783 100.803 120.957 100.278 121.162 99.9079C121.232 99.7826 121.374 99.71 121.438 99.6407Z" fill="#AA5B3C"/>
<path fill-rule="evenodd" clip-rule="evenodd" d="M132.74 79.548C133.327 78.418 133.682 76.3979 132.346 75.8173C130.918 75.195 129.613 77.1111 129.297 77.726C128.625 79.0353 128.021 81.5994 129.402 82.093C131.178 82.7251 132.26 80.4735 132.74 79.548Z" fill="#133844"/>
<path fill-rule="evenodd" clip-rule="evenodd" d="M149.212 87.0202C149.799 85.8901 150.154 83.8701 148.817 83.2895C147.39 82.6672 146.085 84.5832 145.769 85.1981C145.097 86.5075 144.493 89.0716 145.874 89.5652C147.65 90.1973 148.731 87.9457 149.212 87.0202Z" fill="#133844"/>
<path fill-rule="evenodd" clip-rule="evenodd" d="M139.527 83.7579C138.901 84.4742 138.202 85.149 137.465 85.7952C135.709 87.339 133.739 88.6993 132.054 89.9538C130.717 90.9509 129.571 91.8618 128.925 92.7613C128.389 93.4988 128.799 94.2161 129.355 94.9406C129.745 95.4482 130.236 95.9505 130.75 96.4402C131.61 97.2641 132.517 98.0623 133.207 98.738C133.561 99.0447 133.596 99.583 133.286 99.9366C132.976 100.29 132.437 100.327 132.085 100.017C131.198 99.3106 129.959 98.5146 128.929 97.5896C128.134 96.8738 127.47 96.0763 127.069 95.289C126.436 94.0422 126.392 92.7696 127.347 91.5672C127.889 90.8912 128.675 90.2049 129.63 89.513C132.202 87.6536 136.026 85.6576 138.677 82.9663C138.895 82.7318 139.262 82.7186 139.497 82.9357C139.731 83.1559 139.745 83.5235 139.527 83.7579Z" fill="#476B76"/>
<path fill-rule="evenodd" clip-rule="evenodd" d="M177.568 95.3367C178.064 94.766 178.646 94.2529 179.225 93.891C179.736 93.5727 180.25 93.3811 180.709 93.3514C181.602 93.2941 182.351 93.7917 182.59 95.2576C182.662 95.754 182.618 96.3021 182.459 96.8524C182.322 97.3258 182.105 97.7996 181.834 98.2426C181.568 98.6766 181.253 99.0808 180.913 99.4276C180.527 99.8199 180.117 100.139 179.718 100.35C179.595 100.426 179.433 100.389 179.355 100.266C179.278 100.143 179.315 99.9814 179.438 99.9036C179.757 99.6694 180.063 99.3325 180.355 98.9463C180.616 98.602 180.852 98.2121 181.057 97.8092C181.259 97.4117 181.421 96.9978 181.533 96.5911C181.648 96.1713 181.715 95.7591 181.67 95.3792C181.582 94.5217 181.252 94.1415 180.732 94.1372C179.892 94.1325 178.8 94.8262 177.924 95.6761C177.831 95.7747 177.675 95.7782 177.577 95.6849C177.478 95.5916 177.474 95.4353 177.568 95.3367Z" fill="#476B76"/>
<path fill-rule="evenodd" clip-rule="evenodd" d="M174.536 89.2724L175.28 88.2485L171.939 88.854C171.027 88.9774 170.115 89.3784 169.303 90.0706L142.346 113.065C139.95 115.107 139.321 118.921 140.941 121.574L146.81 131.189C147.448 132.234 148.339 132.944 149.332 133.296L152.207 134.343L152.043 133.393C152.752 133.202 153.448 132.837 154.085 132.296L181.043 109.303C183.438 107.26 184.066 103.448 182.447 100.793L176.578 91.1773C176.045 90.3039 175.334 89.6657 174.536 89.2724Z" fill="#438093"/>
<path fill-rule="evenodd" clip-rule="evenodd" d="M173.199 89.1191C174.866 87.6969 177.137 88.0421 178.266 89.891L185.915 102.422C187.044 104.271 186.605 106.928 184.938 108.35L155.348 133.589C153.677 135.014 151.406 134.669 150.277 132.82L142.628 120.288C141.499 118.439 141.938 115.782 143.609 114.357L173.199 89.1191Z" fill="#FFD500"/>
<path fill-rule="evenodd" clip-rule="evenodd" d="M172.193 103.482C171.924 103.028 172.02 102.381 172.407 102.037L176.929 98.0157C177.315 97.6718 177.847 97.7605 178.116 98.2139L179.091 99.8585C179.359 100.312 179.263 100.959 178.877 101.303L174.355 105.324C173.968 105.668 173.436 105.58 173.168 105.126L172.193 103.482Z" fill="#438093"/>
<path fill-rule="evenodd" clip-rule="evenodd" d="M176.195 99.659C176.724 99.1798 177.407 99.2514 177.719 99.8076C178.022 100.349 177.854 101.169 177.339 101.636C176.81 102.115 176.127 102.043 175.815 101.487C175.512 100.946 175.679 100.125 176.195 99.659ZM176.291 99.7657C175.825 100.188 175.665 100.926 175.94 101.417C176.206 101.892 176.791 101.938 177.243 101.529C177.709 101.107 177.868 100.367 177.593 99.8775C177.327 99.4018 176.743 99.3566 176.291 99.7657Z" fill="white"/>
<path fill-rule="evenodd" clip-rule="evenodd" d="M188.894 173.262C191.77 167.694 185.424 142.278 184.215 136.624C183.074 131.283 183.634 120.475 182.978 115.093C182.707 112.87 180.07 108.166 176.674 103.931C174.518 101.239 169.411 98.5924 166.403 97.4396C163.636 96.3769 161.859 98.8722 164.316 101.242C165.228 102.121 170.101 104.268 172.029 106.864C174.963 110.818 177.288 116.243 176.319 116.551C175.7 116.747 174.677 111.408 170.732 106.943C167.903 103.743 162.908 101.546 160.204 101.304C156.701 100.988 156.114 101.808 156.523 103.521C156.934 105.243 159.958 105.724 162.153 106.692C163.443 107.258 164.7 107.642 166.509 109.91C168.556 112.478 172.195 118.886 171.385 119.389C170.658 119.84 169.504 114.377 165.258 109.833C162.792 107.192 153.801 104.091 153.515 108.128C153.357 110.351 158.109 110.329 161.763 113.294C162.921 114.233 167.47 122.116 166.647 122.642C165.918 123.106 163.64 116.293 161.416 114.032C157.766 110.323 151.206 110.21 151.751 112.858C152.293 115.486 154.315 114.498 157.027 116.902C159.57 119.157 159.176 120.085 160.163 123.471C161.642 128.538 160.759 125.561 160.581 130.479C160.365 136.47 163.366 144.604 166.961 149.959C168.833 152.75 164.244 171.628 168.213 174.766C172.183 177.903 186.019 178.834 188.894 173.262Z" fill="#D97E59"/>
<path fill-rule="evenodd" clip-rule="evenodd" d="M153.721 111.073C152.389 111.225 151.541 111.834 151.751 112.856C152.293 115.486 154.315 114.499 157.027 116.901C159.079 118.722 159.219 119.678 159.715 121.756C159.757 121.897 159.798 122.04 159.838 122.182C159.941 122.555 160.037 122.933 160.118 123.314L160.163 123.47C161.449 127.878 160.949 126.201 160.68 128.923C161.705 126.889 161.425 124.28 160.766 121.924C160.199 119.892 159.386 118.012 158.685 117.281C157.495 116.043 155.861 115.255 154.549 114.557C153.781 114.15 153.127 113.793 152.815 113.354C152.555 112.987 152.6 112.538 152.774 112.135C152.968 111.686 153.327 111.283 153.721 111.073ZM155.275 106.284C154.27 106.496 153.59 107.064 153.515 108.127C153.357 110.352 158.109 110.327 161.763 113.292C162.921 114.233 167.47 122.115 166.647 122.641C166.597 122.672 166.54 122.67 166.476 122.637C166.463 122.896 166.66 123.12 166.92 123.141C167.185 123.16 167.417 122.961 167.438 122.697C167.501 121.87 166.935 120.195 166.082 118.417C164.832 115.808 162.992 112.964 161.938 112.243C159.632 110.66 156.432 109.667 155.875 109.403C155.471 109.214 154.974 108.996 154.609 108.684C154.345 108.457 154.156 108.173 154.237 107.776C154.314 107.402 154.61 106.976 154.943 106.613C155.051 106.496 155.163 106.384 155.275 106.284ZM157.572 101.365C156.417 101.647 156.252 102.389 156.523 103.521C156.934 105.244 159.958 105.726 162.154 106.692C163.443 107.259 164.7 107.641 166.509 109.91C168.556 112.478 172.196 118.886 171.385 119.389C171.322 119.427 171.257 119.421 171.186 119.379C171.224 119.689 171.229 119.921 171.208 120.04C171.16 120.301 171.333 120.553 171.595 120.602C171.857 120.65 172.108 120.474 172.156 120.214C172.235 119.782 172.061 118.018 171.321 116.177C170.713 114.667 169.681 113.163 168.684 111.599C165.663 106.86 163.332 106.141 161.579 105.628C160.344 105.267 159.11 104.739 158.259 104.238C157.943 104.051 157.682 103.87 157.501 103.704C157.425 103.634 157.364 103.575 157.337 103.515C156.939 102.645 157.07 101.774 157.572 101.365ZM164.128 97.4048C162.928 97.9871 162.658 99.6413 164.315 101.242C165.228 102.121 170.101 104.267 172.029 106.864C172.854 107.976 173.631 109.205 174.3 110.402C174.504 110.762 174.697 111.121 174.875 111.476C176.224 114.104 176.933 116.356 176.319 116.551C176.31 116.554 176.301 116.554 176.292 116.556C176.272 116.676 176.244 116.788 176.207 116.89C176.117 117.141 176.247 117.416 176.497 117.507C176.748 117.598 177.024 117.466 177.114 117.218C177.299 116.703 177.351 116.005 177.208 115.164C176.772 112.604 174.773 108.696 172.21 105.811C170.04 103.368 168.033 102.485 166.461 101.625C165.522 101.11 164.746 100.615 164.231 99.7011C163.817 98.9684 163.562 98.0449 164.128 97.4048Z" fill="#476B76"/>
<path d="M49 112C49 108.688 46.3125 106 43 106C39.6875 106 37 108.688 37 112C37 115.312 39.6875 118 43 118C46.3125 118 49 115.312 49 112Z" fill="#2E7D32"/>
<path d="M46 109.5L41.8 114.5L40 112.5" stroke="white" stroke-linecap="round" stroke-linejoin="round"/>
</g>
<defs>
<filter id="filter0_ddd" x="-1" y="56.0005" width="148.667" height="88" filterUnits="userSpaceOnUse" color-interpolation-filters="sRGB">
<feFlood flood-opacity="0" result="BackgroundImageFix"/>
<feColorMatrix in="SourceAlpha" type="matrix" values="0 0 0 0 0 0 0 0 0 0 0 0 0 0 0 0 0 0 127 0"/>
<feOffset dy="1"/>
<feGaussianBlur stdDeviation="1.5"/>
<feColorMatrix type="matrix" values="0 0 0 0 0 0 0 0 0 0 0 0 0 0 0 0 0 0 0.2 0"/>
<feBlend mode="normal" in2="BackgroundImageFix" result="effect1_dropShadow"/>
<feColorMatrix in="SourceAlpha" type="matrix" values="0 0 0 0 0 0 0 0 0 0 0 0 0 0 0 0 0 0 127 0"/>
<feOffset dy="2"/>
<feGaussianBlur stdDeviation="1"/>
<feColorMatrix type="matrix" values="0 0 0 0 0 0 0 0 0 0 0 0 0 0 0 0 0 0 0.12 0"/>
<feBlend mode="normal" in2="effect1_dropShadow" result="effect2_dropShadow"/>
<feColorMatrix in="SourceAlpha" type="matrix" values="0 0 0 0 0 0 0 0 0 0 0 0 0 0 0 0 0 0 127 0"/>
<feOffset/>
<feGaussianBlur stdDeviation="1"/>
<feColorMatrix type="matrix" values="0 0 0 0 0 0 0 0 0 0 0 0 0 0 0 0 0 0 0.14 0"/>
<feBlend mode="normal" in2="effect2_dropShadow" result="effect3_dropShadow"/>
<feBlend mode="normal" in="SourceGraphic" in2="effect3_dropShadow" result="shape"/>
</filter>
<clipPath id="clip0">
<rect width="200" height="200" fill="white"/>
</clipPath>
<clipPath id="clip1">
<rect x="3" y="59.0005" width="140.667" height="80" rx="8" fill="white"/>
</clipPath>
<clipPath id="clip2">
<rect width="40.7264" height="16.5333" fill="white" transform="translate(59.5029 122.467)"/>
</clipPath>
</defs>
</svg>
