<svg width="42" height="42" viewBox="0 0 42 42" fill="none" xmlns="http://www.w3.org/2000/svg">
<path d="M21.0046 0C9.40573 0 0 9.40983 0 21.0138C0 28.8997 4.3404 35.7666 10.7638 39.3652C10.9565 39.0439 11.1676 38.7043 11.4153 38.337C11.9843 37.52 13.2873 36.5193 14.6821 35.4544C16.2421 34.261 17.8571 33.0308 18.2976 32.122C18.9399 30.7908 19.0776 29.4505 19.0592 28.1836C19.0409 28.1836 19.0133 28.1836 18.995 28.1836C17.0496 28.1836 14.9299 27.0911 14.5078 24.64C14.4894 24.5115 14.4619 24.3646 14.4435 24.1993C13.2047 22.9875 12.4156 21.1056 12.1311 19.141C12.021 18.3882 11.9017 17.4977 11.8191 16.5246C10.4243 16.442 9.03868 15.8636 9.06621 14.3672C9.09373 12.8984 10.6354 10.9613 12.3972 9.43738C12.6817 8.58361 13.0763 7.78492 13.5993 7.07803C14.8473 5.39803 17.5268 3.05705 20.4081 3.85574C20.6742 3.74557 20.9587 3.63541 21.2615 3.52524C24.0328 2.56131 28.0428 3.84656 29.0339 6.80262C29.5845 8.4459 29.5753 10.5757 29.1532 12.2649C28.7953 13.697 27.7859 15.1659 28.1805 16.7541C28.6026 18.4525 32.1538 17.9292 31.8235 20.2793C31.5115 22.4918 28.4007 23.2538 28.8136 25.2826C29.3183 27.8256 31.6491 27.9174 32.5025 29.9279C33.8514 33.0767 31.5849 33.9489 31.5849 37.3088C31.5849 37.8138 31.8235 38.3003 32.0896 38.8603C38.0358 35.1515 42 28.5416 42 21.0138C42.0092 9.40065 32.6035 0 21.0046 0Z" fill="#CBE8F1"/>
<path d="M19.9404 38.7868C19.8395 36.7396 18.1143 34.7108 19.4724 31.9842C20.3074 30.3226 21.0324 30.2675 21.5004 28.4131C21.5738 28.1285 21.6472 27.7429 21.7206 27.3022C21.0874 27.7704 20.335 28.0459 19.5825 28.1468C19.61 29.4872 19.4632 30.9101 18.7658 32.3606C18.2703 33.3888 16.6002 34.6649 14.9944 35.895C13.7005 36.8773 12.3608 37.9055 11.8469 38.6491C11.6083 38.9888 11.4064 39.3193 11.2229 39.6222C13.5537 40.8524 16.1506 41.6603 18.9035 41.9265C19.3439 40.6413 20.023 40.4209 19.9404 38.7868Z" fill="white"/>
<path d="M15.003 35.8768C16.618 34.6466 18.2881 33.3706 18.7745 32.3424C19.4719 30.901 19.6187 29.4781 19.5911 28.1286C20.3436 28.0368 21.0961 27.7522 21.7292 27.284C21.7476 27.1555 21.7751 27.0178 21.8027 26.8801C21.8302 26.7332 21.8485 26.5863 21.8761 26.4394C21.2612 27.1004 20.417 27.4768 19.582 27.5961C19.4902 27.6053 19.4076 27.6145 19.3159 27.6237C19.2333 27.6328 19.1507 27.6329 19.0681 27.6329C19.0589 27.6329 19.0497 27.6329 19.0406 27.6329C17.7651 27.642 15.5719 27.0361 15.0672 24.7135C15.0581 24.6584 15.0397 24.5942 15.0305 24.5391C14.8195 23.2997 14.6726 19.903 14.7736 15.9463C14.6818 15.983 14.5901 16.0197 14.5075 16.0565C14.4157 16.0932 14.3239 16.1299 14.2414 16.1574C14.1679 19.6735 14.2689 22.7122 14.4524 24.1994C14.4708 24.3647 14.4891 24.5115 14.5166 24.6401C14.9388 27.1004 17.0677 28.1837 19.0039 28.1837C19.0222 28.1837 19.0497 28.1837 19.0681 28.1837C19.0865 29.4506 18.9396 30.7909 18.3065 32.122C17.866 33.0309 16.251 34.2702 14.691 35.4545C13.3054 36.5102 11.9932 37.5109 11.4242 38.3371C11.1765 38.6951 10.9562 39.0348 10.7727 39.3653C10.8461 39.4112 10.9287 39.4571 11.0021 39.4938C11.0847 39.5397 11.1581 39.5765 11.2407 39.6224C11.4242 39.3102 11.6261 38.9889 11.8647 38.6492C12.3694 37.8873 13.7091 36.8683 15.003 35.8768Z" fill="#133844"/>
<path d="M15.0311 24.5482C15.0403 24.6125 15.0587 24.6675 15.0678 24.7226C15.5725 27.0452 17.7657 27.6603 19.0412 27.642C19.0504 27.642 19.0595 27.642 19.0687 27.642C19.1513 27.642 19.2339 27.6328 19.3165 27.6328C19.4082 27.6236 19.4908 27.6144 19.5826 27.6052C20.4268 27.4859 21.2619 27.1095 21.8767 26.4485C21.9409 26.0629 21.996 25.6682 22.0602 25.2643C22.1795 24.5023 22.2896 23.722 22.4089 23.0518C22.4456 22.8223 22.4823 22.602 22.5282 22.3908C22.5832 22.0787 22.6383 21.8125 22.6934 21.6013C22.7209 21.5095 22.7392 21.4177 22.7576 21.3351C22.6475 21.28 22.5924 21.1423 22.6291 21.023C22.6383 20.9954 22.6567 20.9679 22.6658 20.9403C22.7117 20.8761 22.776 20.8393 22.8585 20.8302C22.8677 20.8302 22.8769 20.8302 22.8861 20.8302C22.8952 20.8302 22.9136 20.8302 22.9228 20.8302C22.9319 20.8302 22.9503 20.8302 22.9595 20.8393C23.0421 20.8669 23.1246 20.8761 23.1889 20.8761C23.2898 20.8761 23.3816 20.8577 23.455 20.821C23.5009 20.7934 23.5468 20.7659 23.5835 20.7292C23.7028 20.619 23.767 20.4721 23.7853 20.3987C23.8129 20.3069 23.8312 20.2151 23.8312 20.1233C23.8312 19.857 23.7211 19.5908 23.455 19.4623C23.4366 19.4531 23.4091 19.4439 23.3908 19.4348C23.3357 19.4164 23.2715 19.4072 23.2164 19.4072C23.2072 19.4072 23.198 19.4072 23.1889 19.4072C23.0879 19.4072 22.9962 19.4439 22.9228 19.4807C22.8952 19.4898 22.8769 19.5082 22.8494 19.5174C22.8126 19.5449 22.7668 19.5633 22.7209 19.5633C22.6291 19.5725 22.5374 19.5357 22.4731 19.4531C22.3905 19.3338 22.4181 19.1685 22.5374 19.0767C22.6567 18.9941 22.7851 18.939 22.9136 18.9023C22.9044 17.5069 22.8769 16.139 22.831 15.0833C22.3171 13.8807 21.2068 12.6872 20.4085 11.8885C20.2616 11.7416 20.0873 11.6131 19.9038 11.4938C19.6927 11.7233 19.4908 11.9528 19.289 12.1731C18.3897 13.1646 17.3803 14.2479 16.3158 15.0649C15.8754 15.4046 15.3248 15.6984 14.765 15.9371C14.6824 19.9121 14.8201 23.2997 15.0311 24.5482ZM19.2798 17.3784C19.4541 17.3784 19.5918 17.5344 19.5918 17.7272C19.5918 17.92 19.4541 18.0761 19.2798 18.0761C19.1054 18.0761 18.9678 17.92 18.9678 17.7272C18.9678 17.5344 19.1054 17.3784 19.2798 17.3784ZM17.4445 18.1403C17.5455 18.0393 17.7198 18.0393 17.8207 18.1403C17.9217 18.2413 17.9217 18.4157 17.8207 18.5167C17.4629 18.8748 16.9949 19.7836 17.1142 19.9856C17.1233 20.0039 17.2426 20.059 17.6005 19.9489C17.7382 19.9121 17.8941 19.9948 17.9309 20.1325C17.9676 20.2702 17.885 20.4262 17.7473 20.4629C17.5546 20.518 17.3894 20.5456 17.2426 20.5456C16.9673 20.5456 16.7655 20.4446 16.6553 20.2518C16.2975 19.6367 17.1876 18.3974 17.4445 18.1403ZM16.1782 17.2498C16.3525 17.2498 16.4902 17.4059 16.4902 17.5987C16.4902 17.7915 16.3525 17.9475 16.1782 17.9475C16.0038 17.9475 15.8662 17.7915 15.8662 17.5987C15.8662 17.4059 16.0038 17.2498 16.1782 17.2498Z" fill="white"/>
<path d="M18.5365 23.0335C18.4814 22.9784 18.408 22.9142 18.3254 22.8407C18.1052 22.6387 17.8299 22.4092 17.6831 22.3817C17.3986 22.3266 17.2518 22.9142 17.2518 22.9142C17.2518 22.9142 17.1142 22.3909 16.7471 22.3909C16.5177 22.3909 16.0405 23.0519 16.0405 23.0886C16.169 23.7679 17.1876 23.9515 17.9125 23.7404C17.9676 23.722 18.0226 23.7037 18.0685 23.6669C18.197 23.5935 18.3163 23.4833 18.4172 23.3823C18.5457 23.2446 18.6282 23.1253 18.6282 23.1253C18.6282 23.1253 18.5915 23.0794 18.5365 23.0335Z" fill="#133844"/>
<path d="M17.251 20.5454C17.3978 20.5454 17.563 20.5179 17.7557 20.4628C17.9025 20.4261 17.9759 20.27 17.9392 20.1323C17.9025 19.9854 17.7465 19.912 17.6089 19.9487C17.251 20.0497 17.1317 20.0038 17.1226 19.9854C17.0033 19.7835 17.4713 18.8746 17.8291 18.5166C17.9301 18.4156 17.9301 18.2412 17.8291 18.1402C17.7282 18.0392 17.5538 18.0392 17.4529 18.1402C17.196 18.3972 16.2967 19.6366 16.6637 20.2517C16.7739 20.4445 16.9666 20.5454 17.251 20.5454Z" fill="#133844"/>
<path d="M19.2793 18.076C19.4536 18.076 19.5913 17.9199 19.5913 17.7271C19.5913 17.5344 19.4536 17.3783 19.2793 17.3783C19.1049 17.3783 18.9673 17.5344 18.9673 17.7271C18.9673 17.9199 19.1049 18.076 19.2793 18.076Z" fill="#133844"/>
<path d="M16.1775 17.9475C16.3518 17.9475 16.4895 17.7914 16.4895 17.5986C16.4895 17.4058 16.3518 17.2498 16.1775 17.2498C16.0031 17.2498 15.8655 17.4058 15.8655 17.5986C15.8655 17.7914 16.0031 17.9475 16.1775 17.9475Z" fill="#133844"/>
<path d="M32.5119 29.9188C31.6493 27.9083 29.3277 27.8165 28.823 25.2735C28.4193 23.2447 31.5209 22.4827 31.8329 20.2703C32.1724 17.9201 28.612 18.4434 28.1899 16.745C27.7953 15.1568 28.8047 13.688 29.1626 12.2558C29.5847 10.5667 29.5938 8.43682 29.0433 6.79354C28.0522 3.8283 24.0422 2.55223 21.2709 3.51616C20.9681 3.62633 20.6836 3.72731 20.4175 3.84665C17.5362 3.04796 14.8567 5.38895 13.6087 7.06895C13.0765 7.78502 12.6911 8.5837 12.4066 9.42829C10.6448 10.9614 9.10313 12.8985 9.0756 14.3581C9.04807 15.8545 10.4337 16.4329 11.8285 16.5155C11.9111 17.4886 12.0304 18.3791 12.1405 19.1319C12.425 21.0965 13.2141 22.9785 14.4529 24.1903C14.2786 22.7122 14.1685 19.6644 14.2419 16.1483C14.3336 16.1116 14.4254 16.084 14.508 16.0473C14.5997 16.0106 14.6915 15.9739 14.7741 15.9371C15.3338 15.6985 15.8844 15.4047 16.3249 15.065C17.3893 14.248 18.3987 13.1647 19.298 12.1732C19.4999 11.9437 19.7109 11.7234 19.9128 11.4939C20.0964 11.6132 20.2707 11.7509 20.4175 11.8886C21.225 12.6965 22.3262 13.8808 22.8401 15.0834C22.9594 15.3588 23.042 15.625 23.0878 15.8912C23.1154 16.0381 23.1337 16.1758 23.1521 16.3135C23.3356 17.507 23.3815 18.1955 23.3081 18.8657C23.3631 18.8657 23.409 18.8749 23.4641 18.8932C23.5008 18.9024 23.5466 18.9116 23.5834 18.9299C23.8036 19.0126 23.9779 19.1411 24.0972 19.288C24.3909 19.646 24.4368 20.1509 24.2991 20.564C24.1798 20.9404 23.877 21.2801 23.4457 21.3719C23.3723 21.3903 23.2989 21.3994 23.2163 21.3994C23.2071 21.3994 23.198 21.3994 23.198 21.3994C23.1888 21.3994 23.1888 21.3994 23.1796 21.3994C23.097 21.3994 23.0053 21.3903 22.9135 21.3719C22.886 21.3627 22.8584 21.3627 22.8309 21.3535C22.8217 21.3535 22.8125 21.3535 22.8034 21.3444C22.785 21.3352 22.7667 21.3352 22.7575 21.326C22.7391 21.4178 22.7116 21.5004 22.6933 21.5922C22.6382 21.8034 22.5831 22.0788 22.5281 22.3817C22.4914 22.5837 22.4547 22.804 22.4088 23.0427C22.2987 23.7129 22.1794 24.4932 22.0601 25.2552C21.9959 25.6591 21.9408 26.063 21.8766 26.4394C21.849 26.5863 21.8307 26.7424 21.8032 26.8801C21.7756 27.0178 21.7573 27.1555 21.7297 27.284C21.6563 27.7247 21.5737 28.1103 21.5095 28.3949C21.0415 30.2493 20.3166 30.3044 19.4815 31.966C18.1234 34.6834 19.8486 36.7214 19.9495 38.7686C20.0321 40.4027 19.3531 40.6231 18.9218 41.8991C19.61 41.9634 20.3074 42.0001 21.014 42.0001C22.005 42.0001 22.9869 41.9266 23.9504 41.7981C24.0513 41.7798 24.1615 41.7706 24.2624 41.7522C24.3725 41.7339 24.4735 41.7155 24.5744 41.6971C26.5657 41.3575 28.4652 40.7332 30.2178 39.8794C30.4381 39.7693 30.6583 39.6591 30.8785 39.5398C31.3006 39.3194 31.7136 39.0807 32.1082 38.8237C31.8421 38.2637 31.6035 37.7771 31.6035 37.2722C31.5943 33.9398 33.8608 33.0768 32.5119 29.9188Z" fill="#133844"/>
<path d="M22.5465 19.0858C22.4272 19.1684 22.3997 19.3337 22.4823 19.4622C22.5373 19.5448 22.6383 19.5815 22.7301 19.5724C22.7759 19.5724 22.8218 19.554 22.8585 19.5265C22.8769 19.5081 22.9044 19.4989 22.9319 19.4897C23.0053 19.453 23.0971 19.4255 23.198 19.4163C23.2072 19.4163 23.2164 19.4163 23.2256 19.4163C23.2806 19.4163 23.3357 19.4255 23.3999 19.4438C23.4274 19.453 23.4458 19.4622 23.4641 19.4714C23.7303 19.5999 23.8404 19.8661 23.8404 20.1324C23.8404 20.2242 23.822 20.316 23.7945 20.4078C23.767 20.4812 23.7119 20.6281 23.5926 20.7383C23.5559 20.775 23.51 20.8025 23.4641 20.8301C23.3907 20.8668 23.299 20.8852 23.198 20.8852C23.1246 20.8852 23.0512 20.876 22.9686 20.8484C22.9595 20.8484 22.9411 20.8393 22.9319 20.8393C22.9227 20.8393 22.9044 20.8393 22.8952 20.8393C22.886 20.8393 22.8769 20.8393 22.8677 20.8393C22.7943 20.8484 22.7209 20.8852 22.675 20.9494C22.6566 20.977 22.6475 20.9953 22.6383 21.032C22.6016 21.1514 22.6566 21.2891 22.7668 21.3442C22.7851 21.3534 22.8035 21.3625 22.8126 21.3625C22.8218 21.3625 22.831 21.3717 22.8402 21.3717C22.8677 21.3809 22.8952 21.3901 22.9228 21.3901C23.0145 21.4084 23.1063 21.4176 23.1889 21.4176C23.198 21.4176 23.198 21.4176 23.2072 21.4176C23.2164 21.4176 23.2256 21.4176 23.2256 21.4176C23.3082 21.4176 23.3816 21.4084 23.455 21.3901C23.8863 21.2891 24.1799 20.9494 24.3084 20.5822C24.446 20.1691 24.4001 19.6642 24.1065 19.3061C23.978 19.1501 23.8129 19.0215 23.5926 18.9481C23.5559 18.9297 23.5192 18.9206 23.4733 18.9114C23.4183 18.9022 23.3724 18.893 23.3173 18.8838C23.3907 18.2137 23.354 17.5252 23.1613 16.3317C23.143 16.194 23.1154 16.0563 23.0971 15.9094C23.0512 15.6432 22.9686 15.3678 22.8493 15.1016C22.8952 16.1573 22.9319 17.5252 22.9319 18.9206C22.7943 18.9481 22.6658 19.0032 22.5465 19.0858Z" fill="#133844"/>
</svg>
