<svg width="42" height="42" viewBox="0 0 42 42" fill="none" xmlns="http://www.w3.org/2000/svg">
<path d="M11.3119 39.633C11.8807 39.1468 12.5596 38.633 13.2569 38.1009C13.5229 37.8991 13.789 37.6973 14.0551 37.4954C10.4863 36.4587 7.44038 35.2477 6.68809 34.211C4.42203 31.0642 6.5046 27.6881 8.52295 25.0183C8.87157 24.5596 12 21.422 10.6881 20.6239C9.38532 19.8349 8.23854 18.4771 8.55964 17.1101C8.88074 15.7431 2.81653 17.4495 5.6147 11.3578C8.01837 6.11927 14.9725 3.46789 20.6147 3.0734C28.1376 2.54128 27.3028 6.78899 25.7248 10.2385C26.2294 10.5138 26.6605 10.8532 26.9725 11.2477C27.4679 11.8716 27.633 12.6789 27.6697 13.5046C30.2752 12.7798 33.3762 12.1468 34.422 13.7064C38.3486 19.5688 34.9358 37.3762 28.3395 39.7523C28.578 39.9725 28.789 40.1927 28.9725 40.4312C36.6147 37.2936 42 29.7706 42 21C42 9.40367 32.5963 0 21 0C9.40368 0 0 9.40367 0 21C0 29.1009 4.58716 36.1284 11.3119 39.633Z" fill="#CBE8F1"/>
<path d="M16.8718 34.7708C17.5506 33.3671 17.6699 31.9451 17.6332 30.6148C17.5231 30.624 17.413 30.624 17.3029 30.6332C17.2754 30.6332 17.2387 30.6332 17.2112 30.6332C15.5782 30.6332 13.7617 29.9818 13.2846 28.5047C12.9818 27.5781 12.7708 26.0919 12.624 24.4314C12.6149 24.3396 12.6057 24.2479 12.5965 24.1561C12.5873 24.0644 12.5782 23.9726 12.569 23.8809C12.5231 23.3121 12.4864 22.7249 12.4497 22.1286C12.4406 22.0369 12.4405 21.9451 12.4314 21.8534C12.4222 21.7616 12.4222 21.6699 12.413 21.5873C12.2662 18.7891 12.2479 16.0369 12.2387 14.8075C12.3305 14.835 12.413 14.8625 12.5048 14.8901C12.5965 14.9176 12.6791 14.9451 12.7708 14.9635C13.6516 15.1928 14.5873 15.3213 15.4405 15.3396C16.5782 15.3671 19.4589 15.2479 19.9635 16.2479C21.1561 18.5965 20.7525 19.9084 20.9084 20.5506C20.9451 20.7158 21.0277 20.835 21.1837 20.9176C21.2571 20.9543 21.3488 20.9818 21.4589 21.0002C21.4589 21.046 21.4589 21.0827 21.4589 21.1286C21.7892 21.1745 22.0461 21.413 22.1378 21.5506C22.6883 22.3121 22.4864 23.2479 21.9727 23.7249C21.8167 23.8625 21.6516 23.9543 21.4681 24.0002C21.4405 25.5965 21.3488 27.046 21.147 28.0093C21.1561 30.0185 21.3672 32.3855 22.1286 34.2203C22.936 36.1561 24.7341 37.3121 26.3121 38.3304C27.0369 38.7983 27.7433 39.2479 28.3029 39.7525C34.8993 37.3763 38.3121 19.5781 34.3855 13.7066C33.3396 12.1469 30.2387 12.78 27.6332 13.5047C27.5965 12.6791 27.4314 11.8717 26.936 11.2479C26.6149 10.8534 26.1928 10.5139 25.6882 10.2387C27.2662 6.79832 28.1011 2.54144 20.5782 3.07355C14.9451 3.47722 7.99101 6.1286 5.57817 11.358C2.78 17.4589 8.84423 15.7525 8.52313 17.1103C8.20203 18.4772 9.34881 19.835 10.6516 20.624C11.9543 21.413 8.82587 24.5598 8.48642 25.0185C6.47724 27.6791 4.39468 31.0552 6.65156 34.2112C7.40385 35.2479 10.4405 36.4589 14.0185 37.4956C15.3305 36.5047 16.5048 35.5231 16.8718 34.7708Z" fill="#133844"/>
<path d="M27.7248 39.9175C27.2477 39.5321 26.6697 39.1652 26.055 38.7707C24.4037 37.7156 22.5321 36.5138 21.6605 34.422C21.0092 32.8624 20.7431 30.9725 20.6606 29.2202C20.1376 29.8991 19.2569 30.3762 18.1651 30.5505C18.211 31.9633 18.0917 33.4679 17.3486 35C16.9725 35.789 15.8899 36.7248 14.6789 37.6789C14.3119 37.9633 13.9449 38.2477 13.5688 38.5321C12.9633 38.9909 12.3578 39.4587 11.8257 39.8991C14.5963 41.2477 17.7064 42 20.9908 42C23.6147 42 26.1284 41.5138 28.4495 40.6331C28.2569 40.3854 28.0092 40.1468 27.7248 39.9175Z" fill="white"/>
<path d="M28.3396 39.7431C27.78 39.2385 27.0736 38.7798 26.3488 38.3211C24.7617 37.3027 22.9635 36.156 22.1653 34.211C21.4039 32.3761 21.1928 30 21.1837 28C21.3855 27.0367 21.4773 25.5872 21.5048 23.9908C21.6791 23.945 21.8534 23.8624 22.0094 23.7156C22.5231 23.2477 22.725 22.3028 22.1745 21.5413C22.0736 21.4037 21.8167 21.1651 21.4956 21.1193C21.4956 21.0734 21.4956 21.0367 21.4956 20.9908C21.3855 20.9725 21.2938 20.9449 21.2204 20.9083C21.0644 20.8257 20.9818 20.7064 20.9451 20.5413C20.9543 20.7706 20.9543 21 20.9635 21.2385C20.7892 21.3394 20.6332 21.5138 20.4956 21.7431C20.4222 21.8716 20.4589 22.0367 20.5873 22.1101C20.6332 22.1376 20.6791 22.1468 20.725 22.1468C20.8167 22.1468 20.9084 22.1009 20.9543 22.0183C20.9635 22.0092 20.9635 22 20.9727 21.9908C21.0369 21.8807 21.1286 21.7615 21.2387 21.6972C21.2846 21.6697 21.3305 21.6514 21.3763 21.6514H21.3855C21.4222 21.6514 21.4681 21.6605 21.5048 21.6789C21.6149 21.7248 21.7066 21.8165 21.7433 21.8624C22.1194 22.3853 21.991 23.0183 21.6516 23.3303C21.6149 23.367 21.569 23.3945 21.5139 23.4312C21.4405 23.4679 21.3488 23.5046 21.2479 23.4954C21.1653 23.4862 21.0736 23.4587 20.9818 23.4037C20.9451 23.3853 20.9176 23.3578 20.8809 23.3303C20.835 23.2844 20.7708 23.2661 20.7066 23.2661C20.6516 23.2661 20.5873 23.2844 20.5415 23.3211C20.5231 23.3303 20.5139 23.3486 20.5048 23.3578C20.4497 23.422 20.4314 23.5046 20.4405 23.578C20.4497 23.633 20.4773 23.6972 20.5231 23.7339C20.6607 23.8532 20.8167 23.9358 20.9635 23.9908C20.936 25.6239 20.8442 27.0917 20.6332 28.0092C20.6149 28.1101 20.5873 28.2018 20.5598 28.2844C20.2662 29.3211 19.202 29.844 18.1378 30.0275C18.0461 30.0459 17.9635 30.055 17.8717 30.0642C17.78 30.0734 17.6974 30.0826 17.6057 30.0917C17.4956 30.1009 17.3947 30.1009 17.2938 30.1101C15.8993 30.1376 14.1928 29.5963 13.7984 28.3578C13.5139 27.4771 13.3121 26.0459 13.1653 24.4312C13.147 24.2752 13.1378 24.1101 13.1286 23.9541C13.1103 23.7523 13.1011 23.5505 13.0828 23.3486C13.0644 23.0917 13.046 22.844 13.0277 22.5872C13.0185 22.4037 13.0094 22.2294 12.991 22.0459C12.9818 21.945 12.9818 21.844 12.9727 21.7431C12.8259 19.0183 12.7984 16.3027 12.7892 14.9816C12.6974 14.9541 12.6057 14.9358 12.5231 14.9083C12.4314 14.8807 12.3396 14.8532 12.2571 14.8257C12.2571 16.055 12.2846 18.8073 12.4314 21.6055C12.4405 21.6972 12.4406 21.789 12.4497 21.8716C12.4589 21.9633 12.4589 22.055 12.4681 22.1468C12.5048 22.7339 12.5415 23.3211 12.5873 23.8991C12.5965 23.9908 12.6057 24.0826 12.6149 24.1743C12.624 24.2661 12.6332 24.3578 12.6424 24.4495C12.7892 26.1101 13.0093 27.5963 13.3029 28.5229C13.7708 30 15.5965 30.6514 17.2295 30.6514C17.2571 30.6514 17.2938 30.6514 17.3213 30.6514C17.4314 30.6514 17.5415 30.6422 17.6516 30.633C17.6883 31.9725 17.569 33.3853 16.8901 34.789C16.5231 35.5413 15.3488 36.5229 14.0644 37.5138C13.7983 37.7156 13.5323 37.9174 13.2662 38.1193C12.569 38.6514 11.8993 39.1651 11.3213 39.6514C11.4039 39.6972 11.4956 39.7431 11.5782 39.7798C11.6699 39.8257 11.7525 39.8716 11.8442 39.9083C12.3763 39.4679 12.991 39 13.5873 38.5413C13.9635 38.2569 14.3305 37.9725 14.6974 37.6881C15.9084 36.7339 16.9818 35.8073 17.3672 35.0092C18.1011 33.4771 18.2296 31.9725 18.1837 30.5596C19.2754 30.3853 20.1653 29.9083 20.6791 29.2294C20.7617 30.9816 21.0369 32.8716 21.6791 34.4312C22.5506 36.5229 24.4222 37.7248 26.0736 38.7798C26.6883 39.1743 27.2571 39.5413 27.7433 39.9266C28.0277 40.156 28.2754 40.3945 28.4773 40.6422C28.569 40.6055 28.6516 40.578 28.7433 40.5413C28.8259 40.5046 28.9084 40.4771 29.0002 40.4404C28.7983 40.1835 28.5782 39.9633 28.3396 39.7431Z" fill="#133844"/>
<path d="M15.4676 15.3302C14.6144 15.3119 13.6786 15.1835 12.7979 14.9541C12.807 16.266 12.8345 18.9908 12.9813 21.7156C12.9905 21.8165 12.9905 21.9174 12.9997 22.0183C13.0089 22.2018 13.018 22.3761 13.0364 22.5596C13.0547 22.8165 13.0731 23.0734 13.0914 23.3211C13.1098 23.5229 13.119 23.7247 13.1373 23.9266C13.1465 24.0917 13.1648 24.2477 13.174 24.4036C13.3208 26.0183 13.5226 27.4495 13.807 28.3302C14.2015 29.5688 15.9171 30.1101 17.3024 30.0825C17.4034 30.0825 17.5134 30.0734 17.6144 30.0642C17.7061 30.055 17.7887 30.0458 17.8804 30.0367C17.9722 30.0275 18.0547 30.0091 18.1465 30C19.2015 29.8165 20.2658 29.2936 20.5685 28.2569C20.596 28.1743 20.6144 28.0825 20.6419 27.9816C20.8529 27.055 20.9446 25.5963 20.9722 23.9633C20.8162 23.9174 20.6694 23.8348 20.5318 23.7064C20.4859 23.6605 20.4584 23.6055 20.4492 23.5504C20.4401 23.477 20.4584 23.3945 20.5135 23.3302C20.5226 23.3119 20.541 23.3027 20.5501 23.2935C20.596 23.2569 20.6602 23.2385 20.7153 23.2385C20.7795 23.2385 20.8346 23.2569 20.8896 23.3027C20.9263 23.3302 20.9538 23.3578 20.9905 23.3761C21.0823 23.4403 21.174 23.4679 21.2566 23.4679C21.3575 23.477 21.4492 23.4495 21.5226 23.4036C21.5777 23.3761 21.6235 23.3394 21.6602 23.3027C21.9997 22.9908 22.1281 22.3578 21.752 21.8348C21.7245 21.789 21.6235 21.6972 21.5134 21.6514C21.4767 21.633 21.4309 21.6238 21.3942 21.6238H21.385C21.3391 21.6238 21.2933 21.6422 21.2474 21.6697C21.1465 21.7339 21.0547 21.8532 20.9814 21.9633C20.9722 21.9724 20.9722 21.9816 20.963 21.9908C20.9171 22.0734 20.8254 22.1192 20.7336 22.1192C20.6878 22.1192 20.6419 22.1101 20.596 22.0825C20.4676 22.0091 20.4309 21.844 20.5043 21.7156C20.6419 21.477 20.7979 21.3119 20.9722 21.211C20.9722 20.9816 20.963 20.7431 20.9538 20.5137C20.7979 19.8807 21.2015 18.5596 20.0089 16.211C19.4859 15.2477 16.6052 15.3578 15.4676 15.3302ZM14.8896 21.1009C14.7153 21.0917 14.5868 20.9358 14.5868 20.7431C14.596 20.5504 14.7428 20.4036 14.9171 20.4036C15.0823 20.4128 15.2199 20.5688 15.2107 20.7614C15.2015 20.9541 15.0639 21.1009 14.8896 21.1009ZM18.0547 20.3761C18.229 20.3853 18.3575 20.5413 18.3575 20.7339C18.3483 20.9266 18.2015 21.0734 18.0272 21.0734C17.8529 21.0642 17.7245 20.9082 17.7336 20.7156C17.7336 20.5229 17.8804 20.3669 18.0547 20.3761ZM15.752 22.1192C15.8713 21.9174 16.0089 21.6972 16.018 21.3945C16.018 21.2477 16.1373 21.1376 16.2933 21.1284C16.4401 21.1284 16.5593 21.2569 16.5593 21.4036C16.5501 21.8532 16.3575 22.1651 16.2199 22.3945C16.1832 22.4495 16.1465 22.5137 16.119 22.5596C16.1648 22.5871 16.2749 22.633 16.5318 22.6972C16.6786 22.7339 16.7612 22.8807 16.7245 23.0183C16.6969 23.1376 16.5868 23.2202 16.4676 23.2202C16.4492 23.2202 16.4217 23.2202 16.4034 23.211C15.9997 23.1101 15.7061 23 15.6052 22.7523C15.5043 22.5321 15.6327 22.3211 15.752 22.1192ZM17.8529 25.7431C17.7612 25.844 17.6419 25.9541 17.5043 26.0275C17.4492 26.055 17.4034 26.0825 17.3483 26.1009C16.6235 26.3119 15.6144 26.1284 15.4768 25.4495C15.4768 25.4128 15.9447 24.7523 16.1832 24.7523C16.541 24.7523 16.6878 25.2752 16.6878 25.2752C16.6878 25.2752 16.8437 24.688 17.119 24.7431C17.2657 24.7706 17.5502 25.0091 17.7612 25.2018C17.8437 25.2752 17.9171 25.3486 17.9722 25.3945C18.0272 25.4495 18.0639 25.4862 18.0639 25.4862C18.0639 25.4862 17.9813 25.6055 17.8529 25.7431Z" fill="white"/>
<path d="M16.3946 23.2203C16.413 23.2295 16.4405 23.2295 16.4589 23.2295C16.5781 23.2295 16.6882 23.1469 16.7157 23.0276C16.7524 22.8808 16.6607 22.7432 16.5231 22.7065C16.2754 22.6423 16.1653 22.5964 16.1102 22.5689C16.1286 22.523 16.1745 22.4588 16.2112 22.4038C16.3488 22.1744 16.5414 21.8625 16.5506 21.4129C16.5506 21.2661 16.4405 21.1469 16.2845 21.1377C16.1377 21.1377 16.0185 21.2478 16.0093 21.4038C16.0001 21.7065 15.8625 21.9359 15.7433 22.1285C15.6148 22.3304 15.4864 22.5414 15.5873 22.7799C15.6974 23.0093 15.991 23.1285 16.3946 23.2203Z" fill="#133844"/>
<path d="M14.9084 20.4037C14.7341 20.3945 14.5873 20.5505 14.5781 20.7431C14.5781 20.9358 14.7066 21.0918 14.8809 21.1009C15.0552 21.1101 15.202 20.9542 15.202 20.7615C15.2203 20.5688 15.0827 20.4129 14.9084 20.4037Z" fill="#133844"/>
<path d="M18.0272 21.0734C18.2015 21.0825 18.3483 20.9266 18.3575 20.7339C18.3575 20.5413 18.229 20.3853 18.0547 20.3761C17.8804 20.3669 17.7336 20.5229 17.7336 20.7156C17.7244 20.9082 17.8529 21.0642 18.0272 21.0734Z" fill="#133844"/>
<path d="M17.982 25.4037C17.9269 25.3486 17.8536 25.2844 17.771 25.211C17.5508 25.0092 17.2756 24.7798 17.1288 24.7523C16.8444 24.6973 16.6976 25.2844 16.6976 25.2844C16.6976 25.2844 16.56 24.7615 16.193 24.7615C15.9636 24.7615 15.4866 25.422 15.4866 25.4587C15.615 26.1376 16.6334 26.3211 17.3581 26.1101C17.4132 26.0917 17.4682 26.0734 17.5141 26.0367C17.6425 25.9633 17.7618 25.8532 17.8627 25.7523C17.9912 25.6147 18.0737 25.4954 18.0737 25.4954C18.0737 25.4954 18.037 25.4495 17.982 25.4037Z" fill="#133844"/>
</svg>
