<svg width="42" height="42" viewBox="0 0 42 42" fill="none" xmlns="http://www.w3.org/2000/svg">
<path d="M20.9908 0C9.39958 0 0 9.40162 0 20.9954C0 27.4986 2.96202 33.3138 7.6022 37.1662L11.5179 29.9109C11.5729 29.81 11.6646 29.755 11.738 29.7641L17.5795 29.9659C17.717 28.6451 17.8454 27.4252 17.9738 26.2328C18.0563 25.4348 18.1389 24.6368 18.2306 23.793C17.4511 23.2151 16.855 22.3437 16.6533 21.1605C16.4424 19.9314 16.2681 16.8771 16.3782 12.933C16.3232 12.9238 16.2681 12.9054 16.2131 12.8963C14.2782 12.3276 15.2502 7.00765 16.7083 6.18214C17.0568 5.98952 17.5061 6.0629 17.8821 6.27386C18.0197 6.17297 18.1756 6.08124 18.3315 5.99869C19.6703 5.3016 21.2568 5.28325 22.3939 5.95283C22.6048 6.08124 22.8066 6.21883 23.0083 6.35642C23.045 6.3289 23.0725 6.31055 23.1183 6.28303C24.1271 5.62263 25.31 6.17297 25.7869 6.96179C26.9974 8.98887 27.7127 13.0797 26.0895 13.9878C25.9336 14.0703 25.7961 14.1254 25.6585 14.1437C25.6677 14.5565 25.6677 14.9784 25.6677 15.4003C25.7044 15.4095 25.7502 15.4187 25.7869 15.437C26.5205 15.703 26.7131 16.4826 26.5114 17.0788C26.383 17.4549 26.0895 17.7943 25.6585 17.8952C25.6402 18.9683 25.6127 19.9406 25.5668 20.6744C25.5026 21.8393 25.0625 22.7382 24.4297 23.3986C24.7232 25.3339 25.1358 28.0122 25.4659 30.2411L32.7105 30.4979C32.8022 30.4979 32.8847 30.5713 32.9306 30.6814L35.324 36.3407C39.4323 32.5067 42 27.0491 42 20.9863C41.9817 9.40162 32.5913 0 20.9908 0Z" fill="#CBE8F1"/>
<path d="M25.5671 31.0482C25.6955 31.8829 25.8055 32.6259 25.8881 33.2129C25.8972 33.2955 25.8789 33.3688 25.8239 33.433C25.7689 33.4881 25.6955 33.5248 25.613 33.5248C23.9165 33.4973 22.7152 33.6257 21.5597 33.7541C20.4959 33.8733 19.4047 33.9926 17.9282 33.9926C17.7632 33.9926 17.5981 33.9926 17.4331 33.9926C17.3597 33.9926 17.2863 33.9559 17.2313 33.9008C17.1855 33.8458 17.1579 33.7724 17.1671 33.6899C17.2863 32.6534 17.3872 31.6903 17.4881 30.7731L11.8575 30.5713L8.07935 37.5606C11.6374 40.3398 16.1217 42 20.982 42C26.2916 42 31.1427 40.0279 34.8383 36.7718L32.5274 31.2959L25.5671 31.0482Z" fill="white"/>
<path d="M32.6924 30.498L25.4478 30.2411C25.1085 28.0031 24.705 25.334 24.4116 23.3986C25.0443 22.7474 25.4753 21.8485 25.5487 20.6744C25.5946 19.9406 25.6221 18.9592 25.6404 17.8952C26.0714 17.7943 26.374 17.4549 26.4932 17.0789C26.695 16.4827 26.5024 15.703 25.7688 15.437C25.7321 15.4187 25.6954 15.4095 25.6496 15.4003C25.6496 14.9784 25.6404 14.5565 25.6404 14.1437C25.5487 14.1529 25.457 14.1529 25.3745 14.1346C25.2827 14.1162 25.191 14.0795 25.0993 14.0245C25.1085 14.4739 25.1085 14.9326 25.1085 15.4003C24.971 15.437 24.8426 15.4921 24.7325 15.5746C24.6133 15.6572 24.5858 15.8314 24.6683 15.9507C24.7234 16.0332 24.8242 16.0699 24.9159 16.0608C24.9618 16.0608 25.0077 16.0424 25.0443 16.0149C25.0627 15.9965 25.0902 15.9874 25.1085 15.9782C25.1819 15.9415 25.2736 15.9048 25.3745 15.9048C25.4386 15.9048 25.5029 15.914 25.5762 15.9323C25.6037 15.9415 25.6221 15.9507 25.6404 15.9599C25.998 16.1341 26.0806 16.5652 25.9705 16.9046C25.943 16.9963 25.8421 17.2165 25.6312 17.3174C25.5579 17.3541 25.4662 17.3724 25.3653 17.3724C25.2919 17.3724 25.2186 17.3632 25.136 17.3357C25.1269 17.3357 25.1085 17.3265 25.0993 17.3265C25.0718 17.3265 25.0535 17.3174 25.0352 17.3265C24.9343 17.3357 24.8334 17.4091 24.8059 17.5191C24.76 17.6659 24.8426 17.8127 24.9893 17.8585C25.026 17.8677 25.0627 17.8769 25.0993 17.886C25.081 18.9225 25.0535 19.8764 25.0076 20.6377C24.9618 21.4724 24.6959 22.1512 24.3015 22.6832C24.2282 22.7841 24.1548 22.8758 24.0723 22.9583C23.9989 23.0409 23.9164 23.1143 23.8339 23.1876C23.1094 23.8389 22.1465 24.1599 21.2387 24.1691C20.5692 24.1874 19.6247 24.0223 18.8085 23.5087C18.726 23.4536 18.6343 23.3986 18.5518 23.3344C18.4692 23.2702 18.3867 23.206 18.3042 23.1326C17.7723 22.6556 17.3413 21.9861 17.1854 21.0505C16.9745 19.8489 16.8094 16.8404 16.9103 12.9605C16.947 11.4838 17.0295 9.87862 17.1579 8.20008C17.2037 7.62223 17.6256 7.04437 18.3225 6.62244C18.405 6.56741 18.4967 6.52155 18.5884 6.47568C19.7622 5.86114 21.1561 5.8428 22.1282 6.42065C22.2841 6.51238 22.44 6.61328 22.5959 6.72334C22.6509 6.65914 22.7151 6.59492 22.7976 6.53072C22.8618 6.47568 22.9352 6.42066 23.0177 6.35645C22.8251 6.20969 22.6142 6.08128 22.4033 5.95287C21.2753 5.28329 19.6797 5.30163 18.3408 5.99873C18.1758 6.08128 18.029 6.173 17.8915 6.2739C17.1487 6.78755 16.681 7.46629 16.6352 8.17256C16.5068 9.8511 16.4334 11.4563 16.3876 12.933C16.2867 16.8679 16.4517 19.9315 16.6627 21.1606C16.8644 22.3438 17.4605 23.206 18.24 23.793C18.1483 24.6277 18.0657 25.4349 17.9832 26.2328C17.8548 27.4344 17.7264 28.6543 17.5889 29.966L11.7474 29.7642C11.674 29.755 11.5823 29.8192 11.5273 29.911L7.61157 37.1662C7.69411 37.2304 7.76748 37.2947 7.85001 37.3589C7.93254 37.4231 8.00589 37.4873 8.08842 37.5515L11.8666 30.5622L17.4972 30.764C17.3963 31.6812 17.2954 32.6443 17.1762 33.6808C17.167 33.7541 17.1945 33.8275 17.2404 33.8917C17.2862 33.9468 17.3596 33.9834 17.4421 33.9834C17.6164 33.9834 17.7815 33.9834 17.9373 33.9834C19.4046 33.9834 20.505 33.8642 21.5688 33.745C22.7334 33.6165 23.9256 33.4881 25.6221 33.5157C25.7046 33.5157 25.7779 33.4881 25.833 33.4239C25.888 33.3689 25.9063 33.2864 25.8972 33.2038C25.8146 32.6259 25.7046 31.8738 25.5762 31.0391L32.5456 31.2868L34.8566 36.7627C34.9299 36.6985 35.0125 36.6251 35.0858 36.5609C35.1592 36.4875 35.2417 36.4233 35.3151 36.3499L32.9216 30.6906C32.8666 30.5714 32.7841 30.498 32.6924 30.498ZM21.5046 33.213C20.4133 33.3322 19.2762 33.4515 17.7448 33.4515C17.8456 32.5067 17.9465 31.6262 18.0382 30.7823C18.0565 30.6447 18.0657 30.5163 18.0841 30.3879C18.1024 30.2503 18.1116 30.1219 18.1299 29.9935C18.2675 28.691 18.3959 27.4803 18.5242 26.297C18.5976 25.5908 18.671 24.8662 18.7535 24.1324C19.4963 24.5451 20.3491 24.7378 21.1745 24.7378C21.202 24.7378 21.2295 24.7378 21.257 24.7378C22.1832 24.7194 23.1552 24.4259 23.9439 23.8389C24.2282 25.71 24.6041 28.159 24.9159 30.2411C24.9343 30.3787 24.9526 30.5072 24.9801 30.6447C24.9985 30.7823 25.0168 30.9107 25.0443 31.0483C25.1544 31.7821 25.2552 32.4425 25.3286 32.9928C23.7513 32.9653 22.605 33.0937 21.5046 33.213Z" fill="#133844"/>
<path d="M17.8733 6.27399C17.4973 6.05385 17.048 5.98048 16.6995 6.18227C15.2414 7.00778 14.2694 12.3277 16.2043 12.8964C16.2593 12.9147 16.3144 12.9239 16.3694 12.9331C16.4061 11.4563 16.4886 9.85119 16.617 8.17265C16.672 7.47556 17.1305 6.78764 17.8733 6.27399Z" fill="#133844"/>
<path d="M24.9612 30.6263C24.9429 30.4979 24.9245 30.3603 24.897 30.2227C24.5852 28.1406 24.2092 25.6916 23.925 23.8204C23.1363 24.4075 22.1643 24.701 21.2381 24.7193C21.2106 24.7193 21.183 24.7193 21.1555 24.7193C20.3302 24.7193 19.4774 24.5267 18.7346 24.114C18.652 24.8569 18.5787 25.5724 18.5053 26.2786C18.3769 27.4618 18.2577 28.6726 18.111 29.9751C18.0926 30.1035 18.0835 30.2411 18.0651 30.3695C18.0468 30.4979 18.0376 30.6355 18.0193 30.7639C17.9276 31.6077 17.8359 32.4883 17.7258 33.433C19.2573 33.4422 20.3944 33.3229 21.4857 33.1945C22.5861 33.0753 23.7324 32.9469 25.2913 32.9561C25.2088 32.4057 25.1171 31.7453 25.007 31.0115C24.9979 30.8923 24.9795 30.7639 24.9612 30.6263Z" fill="white"/>
<path d="M23.4118 10.5757C22.99 9.44751 21.9813 8.20924 22.238 7.3929C22.3114 7.1636 22.3756 6.95264 22.5773 6.72333C22.4306 6.61326 22.2747 6.51236 22.1097 6.42064C21.1376 5.84279 19.7529 5.8703 18.5699 6.47567C18.4782 6.52153 18.3865 6.57657 18.304 6.62243C17.6162 7.05353 17.1852 7.63139 17.1394 8.20007C17.011 9.8786 16.9376 11.4838 16.8917 12.9605C16.7909 16.8404 16.9559 19.8489 17.1668 21.0505C17.3319 21.9769 17.7538 22.6556 18.2856 23.1326C18.3682 23.206 18.4507 23.2702 18.5332 23.3344C18.6158 23.3986 18.6983 23.4536 18.79 23.5087C19.6062 24.0223 20.5507 24.1874 21.2201 24.1691C22.128 24.1507 23.0909 23.8389 23.8153 23.1876C23.8979 23.1143 23.9804 23.0409 24.0538 22.9583C24.1363 22.8666 24.2097 22.7749 24.283 22.6832C24.6774 22.1512 24.9433 21.4724 24.9891 20.6377C25.035 19.8764 25.0625 18.9133 25.0808 17.886C25.0442 17.8769 25.0075 17.8677 24.9708 17.8585C24.8241 17.8126 24.7507 17.6659 24.7874 17.5191C24.8241 17.4091 24.9158 17.3357 25.0167 17.3265C25.035 17.3265 25.0625 17.3265 25.0808 17.3265C25.09 17.3265 25.1084 17.3265 25.1175 17.3357C25.2001 17.3632 25.2826 17.3724 25.3468 17.3724C25.4477 17.3724 25.5394 17.354 25.6127 17.3174C25.8236 17.2165 25.9245 16.9963 25.952 16.9046C26.0621 16.5652 25.9795 16.1341 25.6219 15.9598C25.6036 15.9507 25.576 15.9415 25.5577 15.9323C25.4935 15.9048 25.4201 15.8956 25.356 15.9048C25.2551 15.9048 25.1634 15.9415 25.09 15.9782C25.0625 15.9874 25.0442 16.0057 25.0258 16.0149C24.9892 16.0424 24.9433 16.0607 24.8974 16.0607C24.8057 16.0699 24.714 16.0332 24.6498 15.9507C24.5673 15.8314 24.5948 15.6572 24.714 15.5746C24.8332 15.4921 24.9616 15.437 25.09 15.4003C25.09 14.9325 25.0808 14.4739 25.0808 14.0245C24.3747 13.5842 23.9621 12.0158 23.4118 10.5757ZM21.4402 13.8686C21.6145 13.8686 21.752 14.0245 21.752 14.2171C21.752 14.4097 21.6145 14.5657 21.4402 14.5657C21.266 14.5657 21.1284 14.4097 21.1284 14.2171C21.1376 14.0245 21.2752 13.8686 21.4402 13.8686ZM19.9913 15.0151C19.6337 15.3728 19.166 16.2809 19.276 16.4827C19.2852 16.501 19.4044 16.556 19.7712 16.446C19.9088 16.4093 20.0647 16.4918 20.1014 16.6294C20.138 16.7762 20.0555 16.9229 19.9179 16.9596C19.7254 17.0147 19.5603 17.0422 19.4044 17.0422C19.1293 17.0422 18.9276 16.9413 18.8083 16.7487C18.4415 16.1341 19.3402 14.8867 19.6062 14.6207C19.707 14.5198 19.8813 14.5198 19.9822 14.6207C20.0922 14.7399 20.0922 14.905 19.9913 15.0151ZM18.6433 14.0887C18.6433 14.2813 18.5057 14.4372 18.3315 14.4372C18.1573 14.4372 18.0197 14.2813 18.0197 14.0887C18.0197 13.8961 18.1573 13.7401 18.3315 13.7401C18.4966 13.7401 18.6433 13.8961 18.6433 14.0887ZM19.1843 20.014C19.1385 20.0048 19.1018 19.9957 19.0559 19.9957C19.0101 19.9865 18.9642 19.9773 18.9184 19.9681C18.8359 19.9498 18.7442 19.9315 18.6525 19.9131C17.9647 19.748 17.2677 19.5095 17.2677 19.5095C17.2677 19.5095 18.414 17.9686 19.4136 17.9411C21.0642 17.886 22.5223 19.8122 22.5223 19.8122C22.5223 19.8122 22.4398 19.8306 22.2931 19.8672C22.1739 19.8948 22.0088 19.9223 21.8162 19.959C21.6603 19.9865 21.4861 20.0048 21.3027 20.0324C20.6791 20.0874 19.9088 20.1332 19.1843 20.014Z" fill="white"/>
<path d="M19.6065 14.6298C19.3406 14.8958 18.451 16.1341 18.8087 16.7578C18.9279 16.9504 19.1205 17.0513 19.4048 17.0513C19.5515 17.0513 19.7257 17.0238 19.9183 16.9687C20.065 16.932 20.1475 16.7761 20.1017 16.6385C20.065 16.4918 19.9091 16.4092 19.7716 16.4551C19.4139 16.556 19.2947 16.5101 19.2764 16.4918C19.1571 16.29 19.6248 15.3819 19.9916 15.0242C20.0925 14.9233 20.0925 14.749 19.9916 14.6481C19.8816 14.5289 19.7074 14.5289 19.6065 14.6298Z" fill="#133844"/>
<path d="M21.4405 14.5749C21.6147 14.5749 21.7523 14.419 21.7523 14.2263C21.7523 14.0337 21.6147 13.8778 21.4405 13.8778C21.2662 13.8778 21.1287 14.0337 21.1287 14.2263C21.1378 14.4098 21.2754 14.5749 21.4405 14.5749Z" fill="#133844"/>
<path d="M18.0198 14.0887C18.0198 14.2813 18.1573 14.4372 18.3316 14.4372C18.5058 14.4372 18.6434 14.2813 18.6434 14.0887C18.6434 13.896 18.5058 13.7401 18.3316 13.7401C18.1573 13.7401 18.0198 13.896 18.0198 14.0887Z" fill="#133844"/>
<path d="M22.5771 6.72324C22.3753 6.95255 22.3112 7.15434 22.2378 7.39282C21.981 8.20915 22.9898 9.44742 23.4116 10.5756C23.9526 12.0157 24.3653 13.5841 25.0898 14.0336C25.1723 14.0886 25.264 14.1253 25.3649 14.1436C25.4474 14.162 25.5391 14.162 25.6308 14.1528C25.7684 14.1345 25.9059 14.0886 26.0618 13.9969C27.685 13.0888 26.9789 8.99797 25.7592 6.97089C25.2824 6.18207 24.0994 5.63173 23.0906 6.29214C23.054 6.31966 23.0173 6.33801 22.9806 6.36552C22.8981 6.42056 22.8247 6.48476 22.7605 6.5398C22.6963 6.604 22.6321 6.66821 22.5771 6.72324Z" fill="#133844"/>
<path d="M22.2929 19.858C22.4396 19.8305 22.5222 19.803 22.5222 19.803C22.5222 19.803 21.0641 17.8768 19.4134 17.9318C18.423 17.9593 17.2676 19.5003 17.2676 19.5003C17.2676 19.5003 17.9645 19.7388 18.6523 19.9039C18.744 19.9222 18.8265 19.9406 18.9182 19.9589C18.9641 19.9681 19.0099 19.9772 19.0558 19.9864C19.1016 19.9956 19.1383 20.0048 19.1842 20.0048C19.9086 20.1148 20.6881 20.0781 21.3025 20.0048C21.4859 19.9864 21.6602 19.9589 21.816 19.9314C22.0086 19.913 22.1737 19.8855 22.2929 19.858Z" fill="#133844"/>
</svg>
