<svg width="42" height="42" viewBox="0 0 42 42" fill="none" xmlns="http://www.w3.org/2000/svg">
<path d="M21.0046 0C9.40573 0 0 9.40367 0 21C0 25.0826 1.16541 28.8899 3.1842 32.1101C5.09287 32.3486 11.241 32.5688 17.9672 32.7523C18.0773 32.1468 18.1783 31.5596 18.2884 30.9725C18.2976 30.9266 18.3067 30.8716 18.3159 30.8257C17.7929 30.4404 17.4534 29.9174 17.2423 29.3761C16.6734 27.9266 16.5082 26.2294 16.6183 24.6789C16.6183 24.6697 16.6275 24.6606 16.6367 24.6514C16.6275 24.5505 16.6183 24.4404 16.6091 24.3394C16.3063 24.2936 15.9943 24.1835 15.7374 23.9083C15.4896 23.633 15.3612 23.1284 15.407 22.6147C15.4437 22.1651 15.6089 21.7982 15.875 21.5872C16.0402 21.4587 16.2237 21.3945 16.4072 21.3761C16.3247 19.6972 16.288 18.055 16.2696 16.7798C15.976 17.1284 15.6548 17.422 15.2877 17.5138C14.0306 17.8532 13.2598 17.1101 13.6911 14.5872C14.2141 11.5413 15.8567 10.5138 17.0221 9.44037C20.4723 6.26606 26.6755 6.02752 27.9877 10.5505C28.4924 12.2752 27.6299 15.9358 25.8864 17.3303C25.9231 18.2385 25.9598 19.7706 25.9506 21.4495C26.2167 21.9817 26.1708 22.5688 25.9231 23.0092C25.8497 25.5596 25.6203 28.1284 25.0238 29.2202C24.8953 29.4495 24.7669 29.6697 24.62 29.8716C24.7669 30.8716 24.9137 31.9358 25.0605 32.9266C30.5847 33.055 35.6225 33.1468 38.1001 33.1835C40.5593 29.7431 42 25.5413 42 20.9908C42.0092 9.40367 32.6034 0 21.0046 0Z" fill="#CBE8F1"/>
<path d="M25.4276 35.4863C25.4368 35.5597 25.4184 35.6422 25.3634 35.6973C25.3083 35.7523 25.2349 35.789 25.1615 35.789C23.5281 35.7523 22.5187 36.3945 21.4451 37.0643C20.3714 37.734 19.2703 38.4221 17.5543 38.4221C17.5176 38.4221 17.4809 38.4221 17.435 38.4221C17.3616 38.4221 17.2882 38.3854 17.2423 38.3303C17.1964 38.2753 17.1689 38.2019 17.1781 38.1285C17.3891 36.2753 17.6186 34.7156 17.8663 33.2844C11.6081 33.1101 5.84535 32.9083 3.55127 32.6881C7.32273 38.3028 13.7278 42 21.0046 42C27.8226 42 33.879 38.7523 37.7147 33.7156C35.1361 33.6698 30.3644 33.5872 25.1431 33.4679C25.2441 34.211 25.345 34.8991 25.4276 35.4863Z" fill="white"/>
<path d="M16.2147 22.0091C16.0679 22.1192 15.9761 22.3577 15.9486 22.6605C15.9119 23.0642 16.022 23.422 16.1413 23.5504C16.2606 23.6789 16.3982 23.7522 16.5726 23.7889C16.5267 23.1743 16.49 22.5412 16.4533 21.9174C16.3707 21.9174 16.2881 21.9449 16.2147 22.0091Z" fill="white"/>
<path d="M18.8022 31.1283C18.7013 31.6696 18.6003 32.2109 18.5086 32.7705C18.4902 32.8623 18.4811 32.9448 18.4627 33.0366C18.4443 33.1283 18.4352 33.2109 18.4168 33.3026C18.1782 34.6696 17.958 36.1558 17.7561 37.899C19.206 37.8531 20.1695 37.2568 21.1697 36.6237C22.1975 35.9815 23.2619 35.3118 24.8677 35.2659C24.7943 34.7246 24.7026 34.11 24.6108 33.4586C24.6016 33.3669 24.5833 33.2843 24.5741 33.1925C24.5649 33.1008 24.5466 33.0091 24.5374 32.9265C24.4181 32.11 24.2988 31.2476 24.1795 30.4127C23.8216 30.7522 23.4087 31.0091 22.8948 31.1467C20.9953 31.6604 19.6923 31.5503 18.8022 31.1283Z" fill="white"/>
<path d="M24.6292 29.8716C24.5558 29.9725 24.4824 30.0642 24.3998 30.156C24.3264 30.2386 24.2438 30.3211 24.1612 30.4037C24.2805 31.2386 24.3998 32.0918 24.5191 32.9175C24.5282 33.0092 24.5466 33.1009 24.5558 33.1835C24.5649 33.2753 24.5833 33.3578 24.5925 33.4496C24.6842 34.1009 24.776 34.7156 24.8494 35.2569C23.2435 35.3119 22.1883 35.9725 21.1513 36.6147C20.1419 37.2477 19.1876 37.8441 17.7378 37.8899C17.9396 36.1468 18.169 34.6697 18.3984 33.2936C18.4168 33.2019 18.426 33.1193 18.4443 33.0275C18.4627 32.9358 18.4719 32.8532 18.4902 32.7615C18.5911 32.2019 18.6921 31.6514 18.7839 31.1193C18.7013 31.0734 18.6187 31.0367 18.5361 30.9817C18.4535 30.9266 18.3709 30.8808 18.2975 30.8165C18.2883 30.8624 18.2792 30.9175 18.27 30.9633C18.1599 31.5413 18.0589 32.1376 17.9488 32.7431C11.2226 32.5597 5.07444 32.3395 3.16577 32.1009C3.23001 32.2019 3.28506 32.2936 3.3493 32.3945C3.41353 32.4954 3.47777 32.5872 3.54201 32.6789C5.83609 32.8991 11.5988 33.1101 17.8571 33.2753C17.6093 34.7064 17.3707 36.2661 17.1688 38.1193C17.1597 38.1927 17.1872 38.2661 17.2331 38.3211C17.2789 38.3762 17.3524 38.4129 17.4258 38.4129C17.4625 38.4129 17.4992 38.4129 17.5451 38.4129C19.261 38.4129 20.3622 37.7248 21.4358 37.0551C22.5094 36.3853 23.5097 35.7431 25.1522 35.7798C25.2256 35.7798 25.3082 35.7523 25.3541 35.6881C25.4092 35.6331 25.4275 35.5505 25.4183 35.4771C25.3357 34.8899 25.2348 34.1927 25.1339 33.4587C30.3552 33.578 35.1269 33.6606 37.7054 33.7064C37.7696 33.6147 37.8339 33.5321 37.9073 33.4404C37.9715 33.3486 38.0358 33.2661 38.1 33.1743C35.6224 33.1285 30.5846 33.0367 25.0605 32.9175C24.9228 31.9358 24.776 30.8716 24.6292 29.8716Z" fill="#133844"/>
<path d="M24.1423 23C24.1974 22.9357 24.2708 22.9082 24.3442 22.9082C24.3901 22.9082 24.4451 22.9266 24.4818 22.9541C24.491 22.9633 24.5002 22.9724 24.5094 22.9724C24.6837 23.1192 24.8305 23.1559 24.9682 23.1376C25.0783 23.1192 25.1701 23.0734 25.2343 23.0183C25.2526 23.0091 25.271 22.9908 25.2802 22.9816C25.3719 22.8991 25.4454 22.789 25.5004 22.6697C25.6289 22.3945 25.6472 22.0458 25.4912 21.7156C25.4637 21.6513 25.4178 21.5779 25.3719 21.5137C25.3444 21.477 25.2894 21.422 25.2159 21.3669C25.1517 21.3302 25.0783 21.2935 25.0049 21.3027C24.9865 21.3027 24.959 21.3119 24.9407 21.3119C24.7938 21.3578 24.6654 21.5229 24.5828 21.6697C24.5736 21.688 24.5553 21.7064 24.5369 21.7247C24.4818 21.7706 24.4176 21.7981 24.3534 21.7981C24.3075 21.7981 24.2616 21.789 24.2249 21.7614C24.0964 21.688 24.0597 21.5229 24.1331 21.3945C24.2616 21.1835 24.3992 21.0275 24.5461 20.9174C24.5277 19.7247 24.4451 18.5688 24.4268 17.8624C24.3717 17.8624 24.3258 17.8624 24.2708 17.8532C22.7016 17.7247 23.4816 15.4587 21.9584 15.7706C21.0774 15.9449 20.5452 18.211 19.4716 17.6789C18.1777 17.0275 19.1045 15.055 18.4897 14.7523C17.8565 14.4312 17.361 15.2201 16.8013 16.0458C16.8196 17.4036 16.8563 19.422 16.9573 21.477C16.9664 21.5871 16.9664 21.6972 16.9756 21.7981C16.9848 21.9174 16.9848 22.0367 16.994 22.1559C17.0032 22.2568 17.0032 22.3578 17.0123 22.4587C17.0307 22.7431 17.049 23.0275 17.0674 23.3027C17.0765 23.477 17.0949 23.6513 17.1041 23.8257C17.1133 23.9908 17.1316 24.1559 17.1408 24.3119C17.15 24.3669 17.15 24.4312 17.1591 24.4862C17.6638 24.4036 18.4622 24.3394 19.3156 24.3486C19.4073 24.3486 19.4899 24.3486 19.5817 24.3578C19.6735 24.3578 19.756 24.3669 19.8478 24.3669C19.9854 24.3761 20.1231 24.3853 20.2607 24.3945C21.1692 24.4679 22.0501 24.6513 22.619 25C22.9586 25.211 23.243 25.2752 23.4816 25.2202C23.6009 25.1926 23.7019 25.1376 23.8028 25.0458C24.1056 24.7706 24.2983 24.2202 24.4084 23.5321C24.3258 23.4862 24.2433 23.4312 24.1607 23.3669C24.0506 23.2844 24.0414 23.1101 24.1423 23ZM18.8568 21.1926C18.6824 21.1835 18.5539 21.0183 18.5631 20.8257C18.5723 20.633 18.7191 20.4862 18.8935 20.4954C19.0586 20.5046 19.1871 20.6697 19.1871 20.8624C19.1688 21.0458 19.0311 21.2018 18.8568 21.1926ZM21.9951 20.5229C22.1602 20.5321 22.2887 20.6972 22.2887 20.8899C22.2795 21.0825 22.1327 21.2293 21.9584 21.2202C21.784 21.211 21.6555 21.0458 21.6647 20.8532C21.6831 20.6605 21.8299 20.5137 21.9951 20.5229ZM19.756 22.3211C19.8753 22.1192 20.013 21.899 20.0222 21.5963C20.0222 21.4495 20.1323 21.3394 20.2975 21.3302C20.4443 21.3302 20.5636 21.4587 20.5636 21.6055C20.5544 22.055 20.3617 22.3669 20.224 22.5963C20.1873 22.6513 20.1506 22.7156 20.1323 22.7614C20.1782 22.789 20.2883 22.8348 20.536 22.8991C20.6828 22.9357 20.7654 23.0825 20.7287 23.2202C20.7012 23.3394 20.5911 23.422 20.4718 23.422C20.4534 23.422 20.4259 23.422 20.4076 23.4128C20.0038 23.3119 19.7102 23.2018 19.6092 22.9541C19.5083 22.7247 19.6367 22.5229 19.756 22.3211Z" fill="white"/>
<path d="M17.16 24.5046C17.1509 24.4495 17.1509 24.3853 17.1417 24.3303C17.1325 24.1651 17.1142 24.0092 17.105 23.844C17.0958 23.6697 17.0775 23.4954 17.0683 23.3211C17.0499 23.0459 17.0316 22.7615 17.0132 22.4771C17.0041 22.3761 17.0041 22.2752 16.9949 22.1743C16.9857 22.055 16.9857 21.9358 16.9765 21.8165C16.9673 21.7064 16.9673 21.5963 16.9582 21.4954C16.8572 19.4404 16.8205 17.4312 16.8022 16.0642C16.7196 16.1926 16.6278 16.3211 16.5361 16.4404C16.4535 16.5596 16.3617 16.6789 16.2699 16.7798C16.2883 18.055 16.325 19.6972 16.4076 21.3761C16.2241 21.3853 16.0405 21.4495 15.8754 21.5871C15.6092 21.7982 15.4441 22.156 15.4074 22.6147C15.3615 23.1284 15.49 23.633 15.7377 23.9082C15.9946 24.1835 16.2975 24.3027 16.6095 24.3394C16.6186 24.4404 16.6278 24.5504 16.637 24.6514C16.6737 24.6238 16.7655 24.5871 16.9031 24.5596C16.9765 24.5413 17.0591 24.5229 17.16 24.5046ZM16.1323 23.5504C16.013 23.422 15.9029 23.0642 15.9396 22.6605C15.9671 22.3578 16.0589 22.1193 16.2057 22.0092C16.2791 21.9449 16.3617 21.9266 16.4351 21.9174C16.4718 22.5504 16.5085 23.1743 16.5544 23.789C16.3984 23.7523 16.2608 23.6789 16.1323 23.5504Z" fill="#133844"/>
<path d="M20.3993 23.4219C20.4176 23.4311 20.4451 23.4311 20.4635 23.4311C20.5828 23.4311 20.6929 23.3485 20.7204 23.2293C20.7571 23.0825 20.6654 22.9449 20.5277 22.9082C20.28 22.844 20.1698 22.7981 20.124 22.7706C20.1423 22.7247 20.1882 22.6605 20.2157 22.6054C20.3534 22.3761 20.5461 22.0641 20.5552 21.6146C20.5552 21.4678 20.4451 21.3485 20.2891 21.3394C20.1331 21.3394 20.023 21.4586 20.0139 21.6054C20.0047 21.9082 19.867 22.1375 19.7477 22.3302C19.6193 22.532 19.5 22.743 19.5917 22.9816C19.7018 23.2109 19.9955 23.321 20.3993 23.4219Z" fill="#133844"/>
<path d="M18.8941 20.4955C18.7197 20.4864 18.5729 20.6331 18.5637 20.8258C18.5545 21.0185 18.683 21.1836 18.8573 21.1928C19.0225 21.202 19.1693 21.0552 19.1877 20.8625C19.1969 20.6607 19.0684 20.5047 18.8941 20.4955Z" fill="#133844"/>
<path d="M21.9584 21.2201C22.1236 21.2293 22.2704 21.0825 22.2888 20.8898C22.298 20.6972 22.1695 20.532 21.9952 20.5229C21.8208 20.5137 21.674 20.6605 21.6648 20.8531C21.6648 21.0458 21.7933 21.2109 21.9584 21.2201Z" fill="#133844"/>
<path d="M16.8105 16.0549C17.3703 15.2384 17.8658 14.4494 18.499 14.7613C19.1046 15.0641 18.1778 17.0457 19.4808 17.6879C20.5453 18.22 21.0867 15.954 21.9676 15.7797C23.4909 15.4769 22.7017 17.7338 24.28 17.8622C24.3351 17.8622 24.381 17.8714 24.436 17.8714C24.4544 18.5778 24.537 19.7338 24.5553 20.9265C24.6746 20.8439 24.8123 20.7888 24.9499 20.7797C24.9683 20.7797 24.9866 20.7705 25.005 20.7705C25.0784 20.7705 25.1518 20.7797 25.216 20.7889C25.317 20.8164 25.4087 20.8531 25.4913 20.8989C25.6473 20.9907 25.7666 21.11 25.8217 21.1925C25.8767 21.2751 25.9226 21.3485 25.9685 21.4311C25.9776 19.7522 25.9409 18.22 25.9042 17.3118C27.6477 15.9265 28.5012 12.2567 28.0056 10.532C26.6934 6.00905 20.4994 6.24758 17.0399 9.42189C15.8745 10.4953 14.2412 11.5228 13.7089 14.5687C13.2776 17.0916 14.0484 17.8439 15.3056 17.4953C15.6727 17.3944 15.9938 17.11 16.2875 16.7613C16.3792 16.6512 16.4618 16.532 16.5536 16.4219C16.6362 16.3118 16.7188 16.1834 16.8105 16.0549Z" fill="#133844"/>
<path d="M18.8017 31.1284C19.6918 31.5596 20.9949 31.6697 22.876 31.1467C23.3899 31.0091 23.812 30.7522 24.1607 30.4128C24.2433 30.3394 24.3167 30.2568 24.3993 30.1651C24.4819 30.0733 24.5553 29.9724 24.6287 29.8807C24.7755 29.6788 24.9131 29.4587 25.0324 29.2293C25.6289 28.1376 25.8583 25.5688 25.9317 23.0183C25.8583 23.1559 25.7574 23.2844 25.6473 23.3853C25.6014 23.422 25.5555 23.4587 25.5096 23.4954C25.427 23.5504 25.3353 23.5963 25.2435 23.633C25.1517 23.6605 25.0692 23.6789 24.9774 23.688C24.959 23.688 24.9407 23.688 24.9223 23.688C24.748 23.688 24.5828 23.6422 24.4176 23.5596C24.3075 24.2477 24.124 24.7981 23.812 25.0734C23.7202 25.1559 23.6101 25.2201 23.4908 25.2477C23.2522 25.3027 22.9678 25.2385 22.6283 25.0275C22.0593 24.6789 21.1784 24.4954 20.2699 24.422C20.1323 24.4128 19.9947 24.4036 19.857 24.3945C19.7652 24.3945 19.6735 24.3853 19.5909 24.3853C19.4991 24.3853 19.4074 24.3853 19.3248 24.3761C18.4714 24.3669 17.673 24.4312 17.1683 24.5137C17.0674 24.5321 16.9757 24.5504 16.9022 24.5688C16.7738 24.5963 16.682 24.633 16.6361 24.6605C16.6269 24.6697 16.6178 24.6789 16.6178 24.688C16.5077 26.2293 16.6728 27.9357 17.2418 29.3853C17.4528 29.9266 17.7923 30.4495 18.3154 30.8348C18.3888 30.8899 18.4714 30.9449 18.554 30.9999C18.6274 31.0366 18.71 31.0825 18.8017 31.1284Z" fill="#133844"/>
<path d="M25.4822 20.9082C25.3996 20.8623 25.3079 20.8164 25.2069 20.7981C25.1427 20.7797 25.0693 20.7705 24.9959 20.7797C24.9775 20.7797 24.9592 20.7797 24.9408 20.7889C24.8032 20.8072 24.6655 20.8531 24.5462 20.9357C24.3994 21.0458 24.2526 21.2017 24.1333 21.4127C24.0599 21.5412 24.0966 21.7063 24.2251 21.7797C24.2709 21.8072 24.3168 21.8164 24.3535 21.8164C24.427 21.8164 24.4912 21.7889 24.5371 21.743C24.5554 21.7247 24.5738 21.7063 24.5829 21.688C24.6655 21.5412 24.794 21.3761 24.9408 21.3302C24.9592 21.321 24.9867 21.321 25.005 21.321C25.0785 21.3118 25.1519 21.3485 25.2161 21.3852C25.2895 21.4311 25.3537 21.4953 25.3721 21.532C25.418 21.5962 25.4547 21.6605 25.4914 21.7338C25.6474 22.0641 25.629 22.4127 25.5006 22.688C25.4455 22.8072 25.3721 22.9173 25.2803 22.9999C25.262 23.0091 25.2528 23.0274 25.2345 23.0366C25.1702 23.0916 25.0785 23.1375 24.9683 23.1559C24.8399 23.1742 24.6839 23.1375 24.5095 22.9907C24.5004 22.9816 24.4912 22.9724 24.482 22.9724C24.4361 22.9449 24.3902 22.9357 24.3444 22.9265C24.2709 22.9265 24.1975 22.954 24.1425 23.0183C24.0415 23.1283 24.0599 23.3027 24.17 23.3944C24.2526 23.4586 24.3352 23.5228 24.4178 23.5595C24.5829 23.6421 24.7481 23.688 24.9225 23.688C24.9408 23.688 24.9592 23.688 24.9775 23.688C25.0693 23.6788 25.1611 23.6696 25.2436 23.6329C25.3354 23.6054 25.4272 23.5595 25.5097 23.4953C25.5556 23.4586 25.6015 23.4311 25.6474 23.3852C25.7575 23.2843 25.8585 23.1559 25.9319 23.0183C26.1704 22.5779 26.2255 21.9907 25.9594 21.4586C25.9227 21.3761 25.8676 21.2935 25.8126 21.2201C25.7575 21.1283 25.6382 21.0091 25.4822 20.9082Z" fill="#133844"/>
</svg>
