<svg width="180" height="180" viewBox="0 0 180 180" fill="none" xmlns="http://www.w3.org/2000/svg">
<circle cx="90" cy="90" r="90" fill="#283593"/>
<mask id="mask0" mask-type="alpha" maskUnits="userSpaceOnUse" x="0" y="0" width="180" height="180">
<circle cx="90" cy="90" r="90" fill="#30AF73"/>
</mask>
<g mask="url(#mask0)">
<g clip-path="url(#clip0)">
<path d="M72.6237 171.093L29.4751 152.614L35.8439 137.768C44.2826 118.499 66.8918 109.496 86.4759 117.867L94.2777 121.184L72.6237 171.093Z" fill="#F3C355"/>
<path d="M47.1484 212H146.343V159.564C146.343 137.136 128.032 118.815 105.264 118.815H88.2272C65.618 118.815 47.1484 136.978 47.1484 159.564V212Z" fill="#F3C355"/>
<path d="M94.9146 143.296C104.468 143.296 112.27 135.557 112.27 126.08V80.9092H77.5596V126.08C77.5596 135.557 85.3613 143.296 94.9146 143.296Z" fill="#FF9300"/>
<path d="M77.878 93.2285C69.1209 92.1229 62.9113 84.068 64.0259 75.3812L66.7326 55.0069C67.8472 46.3201 75.9674 40.1605 84.7245 41.266L77.878 93.2285Z" fill="#DBDBDB"/>
<path d="M111.951 95.282L86.3167 91.9652C76.2859 90.7017 69.121 81.3832 70.3947 71.4329L75.1713 35.4225C75.649 32.7375 78.3557 30.6843 81.2217 31.0001L108.608 34.6328C124.37 36.686 135.516 51.0586 133.446 66.8527L131.694 80.4356C130.261 89.912 121.504 96.5455 111.951 95.282Z" fill="#DBDBDB"/>
<path d="M91.8894 110.444C75.649 108.391 64.3444 93.7024 66.4142 77.5925L68.6433 60.6928C70.0763 49.3211 80.744 41.2661 92.2079 42.8455L109.404 45.0567C120.867 46.4782 128.988 57.0602 127.396 68.4319L125.166 85.3316C122.937 101.284 108.13 112.655 91.8894 110.444Z" fill="#FF9300"/>
<path d="M83.2915 73.1702C84.406 73.3281 85.5206 72.5384 85.6798 71.2749L86.1575 67.1684C86.3167 66.0628 85.5206 64.9573 84.2468 64.7993C83.1323 64.6414 82.0177 65.4311 81.8585 66.6946L81.3809 70.8011C81.3809 71.9067 82.177 73.0122 83.2915 73.1702Z" fill="#134351"/>
<path d="M107.174 76.3289C108.289 76.4868 109.403 75.6971 109.563 74.4336L110.04 70.3271C110.199 69.2215 109.403 68.116 108.13 67.958C107.015 67.8001 105.901 68.5898 105.741 69.8533L105.264 73.9598C105.264 75.0653 106.06 76.1709 107.174 76.3289Z" fill="#134351"/>
<path d="M100.01 82.3306C100.01 82.3306 98.736 87.8586 93.6409 87.2268C88.2274 86.595 88.7051 80.9092 88.7051 80.9092L100.01 82.3306Z" fill="#134351"/>
<path d="M175.136 172.536L146.954 162.27V131.313L180.549 144.422C186.122 146.633 189.784 152.003 189.784 158.005C189.784 165.902 183.097 172.536 175.136 172.536Z" fill="#FF9300"/>
<path d="M156.851 177.885L105.901 158.458L112.429 143.612C117.683 131.45 131.535 125.449 144.114 129.871L170.067 139.031L156.851 177.885Z" fill="#F3C355"/>
<path d="M115.932 116.446L108.926 114.235C107.971 113.919 107.493 112.971 107.812 112.024L121.664 68.432C121.982 67.4844 122.938 67.0106 123.893 67.3265L130.899 69.5376C131.854 69.8535 132.332 70.8012 132.013 71.7488L118.161 115.34C117.842 116.288 116.887 116.762 115.932 116.446Z" fill="#00696B"/>
<path d="M127.555 103.653L121.504 100.336C119.594 99.2304 118.957 96.8612 119.912 94.966C121.027 93.0707 123.415 92.4389 125.326 93.3865L131.376 96.7033L127.555 103.653Z" fill="#FF9300"/>
<path d="M128.033 99.5463L125.007 90.5437C124.371 88.4905 125.485 86.1214 127.555 85.4896C129.625 84.8579 132.013 85.9634 132.65 88.0167L135.675 97.1772L128.033 99.5463Z" fill="#FF9300"/>
<path d="M123.256 109.97L117.205 106.654C115.295 105.548 114.658 103.179 115.613 101.284C116.728 99.3883 119.116 98.7565 121.027 99.7042L127.077 103.021L123.256 109.97Z" fill="#FF9300"/>
<path d="M119.753 116.13L113.702 112.813C111.792 111.708 111.155 109.339 112.11 107.443C113.225 105.548 115.613 104.916 117.524 105.864L123.574 109.181L119.753 116.13Z" fill="#FF9300"/>
<path d="M187.74 169.514C181.849 174.884 171.977 173.778 165.927 167.145L115.295 111.708L134.72 94.1763L187.103 147.244C193.472 153.878 193.79 163.986 187.74 169.514Z" fill="#FF9300"/>
<path d="M46.9896 172.989C39.0286 174.726 31.0676 169.83 29.3162 161.933L10.8467 81.2251L39.8247 74.7495L58.135 155.457C59.8865 163.354 54.9506 171.251 46.9896 172.989Z" fill="#FF9300"/>
<path d="M18.9666 83.9101L7.66201 82.4886C5.27371 82.1728 3.68151 80.1195 3.99995 77.7504C4.31839 75.3813 6.38825 73.8019 8.77655 74.1178L20.0812 75.5393L18.9666 83.9101Z" fill="#FF9300"/>
<path d="M21.9921 84.2259L13.8719 76.1709C12.2797 74.5915 12.2797 71.9065 13.8719 70.1692C15.4641 68.5898 18.1708 68.5898 19.9222 70.1692L28.0425 78.2241L21.9921 84.2259Z" fill="#FF9300"/>
<path d="M26.9278 82.3307L21.6735 72.2225C20.559 70.1693 21.3551 67.6423 23.5841 66.5367C25.654 65.4311 28.2015 66.2208 29.3161 68.432L34.5703 78.5402L26.9278 82.3307Z" fill="#FF9300"/>
<path d="M32.6595 81.3831L29.6343 70.4852C28.9974 68.274 30.2712 65.9049 32.6595 65.2731C34.8886 64.6414 37.2769 65.9049 37.9137 68.274L40.9389 79.1719L32.6595 81.3831Z" fill="#FF9300"/>
</g>
</g>
<defs>
<clipPath id="clip0">
<rect x="4" y="31" width="188.039" height="181" fill="white"/>
</clipPath>
</defs>
</svg>
