<svg xmlns="http://www.w3.org/2000/svg" width="316" height="200" viewBox="0 0 316 200" fill="none">
<path d="M15.7665 122.117C24.4741 122.117 31.533 115.063 31.533 106.361C31.533 97.6602 24.4741 90.6064 15.7665 90.6064C7.05893 90.6064 0 97.6602 0 106.361C0 115.063 7.05893 122.117 15.7665 122.117Z" fill="#EDE2FF"/>
<path d="M38.1014 111.198C46.809 111.198 53.8679 104.144 53.8679 95.443C53.8679 86.7418 46.809 79.688 38.1014 79.688C29.3938 79.688 22.3349 86.7418 22.3349 95.443C22.3349 104.144 29.3938 111.198 38.1014 111.198Z" fill="#EDE2FF"/>
<path d="M56.2975 125.674C65.0051 125.674 72.064 118.62 72.064 109.919C72.064 101.218 65.0051 94.1641 56.2975 94.1641C47.5899 94.1641 40.531 101.218 40.531 109.919C40.531 118.62 47.5899 125.674 56.2975 125.674Z" fill="#EDE2FF"/>
<path fill-rule="evenodd" clip-rule="evenodd" d="M64.792 111.198C64.792 105.172 59.8728 100.279 53.85 100.279H15.7582C9.73534 100.279 4.81613 105.172 4.81613 111.198C4.81613 117.224 9.73534 122.116 15.7582 122.116H53.85C59.8728 122.116 64.792 117.224 64.792 111.198Z" fill="#EDE2FF"/>
<path d="M306.423 158.497C301.134 158.497 296.846 154.212 296.846 148.927C296.846 143.642 301.134 139.357 306.423 139.357C311.712 139.357 316 143.642 316 148.927C316 154.212 311.712 158.497 306.423 158.497Z" fill="#CCE1FF"/>
<path d="M291.985 144.672C287.257 144.672 283.424 140.841 283.424 136.116C283.424 131.391 287.257 127.561 291.985 127.561C296.714 127.561 300.547 131.391 300.547 136.116C300.547 140.841 296.714 144.672 291.985 144.672Z" fill="#CCE1FF"/>
<path d="M282.403 158.497C277.114 158.497 272.826 154.212 272.826 148.927C272.826 143.642 277.114 139.357 282.403 139.357C287.692 139.357 291.98 143.642 291.98 148.927C291.98 154.212 287.692 158.497 282.403 158.497Z" fill="#CCE1FF"/>
<path fill-rule="evenodd" clip-rule="evenodd" d="M276.648 151.865C276.648 148.204 279.627 145.232 283.286 145.232H308.04C311.699 145.232 314.679 148.204 314.679 151.865C314.679 155.525 311.699 158.497 308.04 158.497H283.286C279.627 158.497 276.648 155.525 276.648 151.865Z" fill="#CCE1FF"/>
<path d="M280.865 84.207C273.955 84.207 268.353 78.6092 268.353 71.7041C268.353 64.7989 273.955 59.2012 280.865 59.2012C287.776 59.2012 293.377 64.7989 293.377 71.7041C293.377 78.6092 287.776 84.207 280.865 84.207Z" fill="#F1E8FF"/>
<path d="M253.168 69.5235C246.495 69.5235 241.086 64.1185 241.086 57.451C241.086 50.7835 246.495 45.3784 253.168 45.3784C259.84 45.3784 265.249 50.7835 265.249 57.451C265.249 64.1185 259.84 69.5235 253.168 69.5235Z" fill="#F1E8FF"/>
<path fill-rule="evenodd" clip-rule="evenodd" d="M229.042 72.6664C229.042 66.2971 234.241 61.1257 240.607 61.1257H280.869C287.235 61.1257 292.435 66.2971 292.435 72.6664C292.435 79.0357 287.235 84.2067 280.869 84.2067H240.607C234.241 84.2067 229.042 79.0357 229.042 72.6664Z" fill="#F1E8FF"/>
<path fill-rule="evenodd" clip-rule="evenodd" d="M259.356 13.2905C268.041 17.6919 275.093 28.2512 275.093 40.2374C275.093 52.2237 268.041 62.783 259.356 67.1847C276.385 67.1847 290.21 55.1098 290.21 40.2374C290.21 25.3652 276.385 13.2905 259.356 13.2905Z" fill="#FFF3B4"/>
<path d="M181.489 50.1322C173.744 50.1322 167.466 43.8587 167.466 36.1199C167.466 28.3812 173.744 22.1077 181.489 22.1077C189.233 22.1077 195.511 28.3812 195.511 36.1199C195.511 43.8587 189.233 50.1322 181.489 50.1322Z" fill="#E9F2FF"/>
<path d="M161.624 40.4217C153.88 40.4217 147.602 34.1482 147.602 26.4095C147.602 18.6707 153.88 12.3972 161.624 12.3972C169.369 12.3972 175.647 18.6707 175.647 26.4095C175.647 34.1482 169.369 40.4217 161.624 40.4217Z" fill="#E9F2FF"/>
<path d="M140.214 46.8805C133.599 46.8805 128.237 41.5222 128.237 34.9124C128.237 28.3026 133.599 22.9443 140.214 22.9443C146.828 22.9443 152.191 28.3026 152.191 34.9124C152.191 41.5222 146.828 46.8805 140.214 46.8805Z" fill="#E9F2FF"/>
<path fill-rule="evenodd" clip-rule="evenodd" d="M119.163 40.4217C119.163 35.0623 123.521 30.7109 128.901 30.7109H181.493C186.873 30.7109 191.231 35.0623 191.231 40.4217C191.231 45.7811 186.873 50.1322 181.493 50.1322H128.901C123.521 50.1322 119.163 45.7811 119.163 40.4217Z" fill="#E9F2FF"/>
<path fill-rule="evenodd" clip-rule="evenodd" d="M167.668 38.5947V192.936H276.613C276.613 192.936 276.613 173.001 276.613 147.461C276.613 87.3364 227.836 38.5947 167.668 38.5947Z" fill="#FFE9F0"/>
<path fill-rule="evenodd" clip-rule="evenodd" d="M167.669 178.645H183.535C184.58 178.645 185.432 179.493 185.432 180.541V184.331C185.432 185.376 184.58 186.224 183.535 186.224H167.669V178.645ZM167.669 169.586H174.66C175.706 169.586 176.555 170.436 176.555 171.482V175.271C176.555 176.319 175.706 177.167 174.66 177.167H167.669V169.586ZM230.406 163.902C230.406 162.855 231.255 162.007 232.303 162.007H249.95C250.996 162.007 251.848 162.855 251.848 163.902V167.692C251.848 168.737 250.996 169.586 249.95 169.586H232.303C231.255 169.586 230.406 168.737 230.406 167.692V163.902ZM221.531 154.843C221.531 153.798 222.38 152.947 223.426 152.947H241.076C242.122 152.947 242.971 153.798 242.971 154.843V158.633C242.971 159.678 242.122 160.529 241.076 160.529H223.426C222.38 160.529 221.531 159.678 221.531 158.633V154.843ZM261.098 107.819C261.098 106.772 260.249 105.924 259.203 105.924H241.553C240.508 105.924 239.656 106.772 239.656 107.819V111.609C239.656 112.654 240.508 113.503 241.553 113.503H259.203C260.249 113.503 261.098 112.654 261.098 111.609V107.819ZM264.16 96.864C265.459 99.3379 266.667 101.866 267.78 104.446H250.428C249.382 104.446 248.533 103.597 248.533 102.55V98.7601C248.533 97.7149 249.382 96.864 250.428 96.864H264.16ZM167.669 58.2679H179.097C180.143 58.2679 180.995 59.1163 180.995 60.1615V63.951C180.995 64.9986 180.143 65.847 179.097 65.847H167.669V58.2679ZM189.869 51.1045C189.869 50.0569 189.02 49.2085 187.972 49.2085H170.324C169.276 49.2085 168.427 50.0569 168.427 51.1045V54.894C168.427 55.9391 169.276 56.79 170.324 56.79H187.972C189.02 56.79 189.869 55.9391 189.869 54.894V51.1045Z" fill="#F9CDDB"/>
<path fill-rule="evenodd" clip-rule="evenodd" d="M167.668 38.5947V192.936H276.613C276.613 192.936 276.613 173.001 276.613 147.461C276.613 87.3364 227.836 38.5947 167.668 38.5947ZM172.589 43.6291V188.016H271.692V147.461C271.692 91.7002 227.754 46.1934 172.589 43.6291Z" fill="white"/>
<path fill-rule="evenodd" clip-rule="evenodd" d="M179.794 169.664C178.041 168.098 174.198 168.218 171.913 166.486C167.642 163.251 162.667 162.523 163.054 160.142C163.372 158.183 171.315 162.616 171.826 161.781C172.289 161.022 169.013 157.517 167.811 156.427C166.147 154.912 161.293 153.836 161.352 152.046C161.414 150.234 163.22 150.369 164.849 150.321C166.524 150.276 170.608 151.421 171.692 152.342C174.923 155.081 174.236 155.319 177.664 157.772C179.853 159.335 183.544 163.257 184.576 164.565C190.976 172.7 200.125 180.51 206.374 189.428C208.694 192.74 193.58 193.495 190.438 188.403C187.345 183.387 184.821 174.149 179.794 169.664Z" fill="#D78C6F"/>
<path fill-rule="evenodd" clip-rule="evenodd" d="M171.865 161.52C171.998 161.593 172.121 161.662 172.227 161.714C172.638 161.908 173.319 161.913 174.104 162.13C174.5 162.24 174.921 162.398 175.347 162.653C175.411 162.688 175.433 162.766 175.399 162.83C175.364 162.892 175.283 162.916 175.221 162.88C174.806 162.666 174.402 162.543 174.023 162.464C173.191 162.292 172.48 162.319 172.04 162.144C171.884 162.083 171.688 161.982 171.483 161.886C171.658 161.891 171.776 161.862 171.825 161.78C171.867 161.714 171.88 161.625 171.865 161.52ZM161.504 151.327C161.765 151.366 162.031 151.415 162.299 151.472C163.146 151.646 164.007 151.895 164.755 152.101C165.461 152.303 166.64 152.65 167.662 153.028C168.498 153.341 169.232 153.678 169.561 153.933C169.982 154.27 170.944 155.17 171.771 156.137C172.268 156.722 172.714 157.327 172.972 157.843C173.012 157.917 172.985 158.008 172.913 158.047C172.839 158.087 172.748 158.06 172.709 157.988C172.426 157.511 171.953 156.963 171.444 156.434C170.59 155.546 169.623 154.715 169.2 154.413C168.892 154.184 168.205 153.914 167.438 153.633C166.429 153.259 165.282 152.881 164.588 152.672C163.857 152.445 163.015 152.177 162.186 151.976C161.913 151.909 161.64 151.85 161.374 151.801C161.398 151.622 161.443 151.464 161.504 151.327ZM164.797 150.323C165.063 150.375 165.306 150.431 165.523 150.493C166.032 150.636 166.79 150.837 167.558 151.071C168.021 151.213 168.488 151.363 168.909 151.518C169.549 151.754 170.081 152 170.346 152.209C170.767 152.544 171.729 153.444 172.556 154.413C173.053 154.996 173.501 155.601 173.76 156.117C173.799 156.188 173.772 156.282 173.701 156.321C173.627 156.36 173.536 156.333 173.496 156.26C173.213 155.783 172.743 155.234 172.234 154.705C171.38 153.815 170.41 152.986 169.987 152.682C169.746 152.504 169.264 152.315 168.693 152.116C168.279 151.971 167.821 151.823 167.369 151.683C166.606 151.445 165.855 151.223 165.351 151.071C164.856 150.918 164.201 150.79 163.517 150.682C163.17 150.626 162.818 150.577 162.471 150.535C163.126 150.326 163.982 150.345 164.797 150.323Z" fill="#926767"/>
<path fill-rule="evenodd" clip-rule="evenodd" d="M248.444 190.544C247.688 186.236 246.632 181.745 246.143 177.39C245.513 171.798 244.6 166.941 241.927 161.608C237.377 152.526 231.109 146.622 222.503 144.268C216.939 142.748 205.938 147.522 200.729 150.952C194.278 155.197 195.691 161.986 194.82 173.316C194.453 178.091 189.261 180.218 192.096 190.138C192.883 192.885 201.019 190.77 204.162 190.984C216.476 191.828 228.879 192.957 241.228 192.782L248.444 190.544Z" fill="#D35E5E"/>
<path fill-rule="evenodd" clip-rule="evenodd" d="M194.786 173.653C195.177 173.056 195.556 172.46 195.928 171.853C196.533 170.867 197.121 169.844 197.727 168.696C198.14 167.904 198.62 167.065 198.97 166.192C199.198 165.619 199.373 165.031 199.432 164.434C199.44 164.338 199.523 164.267 199.617 164.274C199.713 164.284 199.782 164.365 199.774 164.461C199.735 165.095 199.575 165.722 199.353 166.337C199.029 167.235 198.573 168.105 198.18 168.922C197.611 170.105 197.052 171.16 196.477 172.175C195.679 173.584 194.85 174.917 193.912 176.42C194.326 175.539 194.66 174.652 194.786 173.653Z" fill="#3C7181"/>
<path fill-rule="evenodd" clip-rule="evenodd" d="M223.343 133.079C223.711 139.743 221.792 138.055 221.526 144.871C221.52 145.019 223.967 149.224 223.802 149.475C223.318 150.212 218.98 153.452 215.713 157.122C212.41 160.83 208.049 165.609 206.196 165.325C203.332 164.886 209.591 156.392 207.034 150.32C204.742 144.875 198.897 143.032 199.69 141.654C200.835 139.656 214.262 135.484 216.95 135.111" fill="#D78C6F"/>
<path fill-rule="evenodd" clip-rule="evenodd" d="M218.92 191.656C217.8 189.661 216.892 189.728 217.638 187.456C218.017 186.297 219.223 185.164 219.048 183.863C218.785 181.925 216.671 181.527 216.437 179.072C216.171 176.291 218.974 175.546 218.856 173.579C218.713 171.188 215.637 170.357 215.703 167.537C215.762 164.999 218.839 162.778 218.691 161.364C218.423 158.819 215.369 158.283 215.086 154.538C214.881 151.825 217.633 150.8 217.608 147.694C217.581 144.637 214.436 142.444 214.569 138.224C214.682 134.638 218.243 129.435 222.395 130.399C228.22 131.749 228.296 136.015 228.043 140.759C227.858 144.251 222.916 144.836 222.781 147.964C222.67 150.482 225.203 151.001 225.555 154.845C225.857 158.157 222.178 158.735 222.215 161.694C222.249 164.445 225.062 163.722 225.244 167.849C225.372 170.697 222.222 171.292 222.149 174.102C222.102 175.915 225.353 175.236 225.395 178.767C225.436 182.434 222.833 182.808 222.321 184.76C221.725 187.038 225.621 187.876 222.926 190.832L218.92 191.656Z" fill="#BADDE8"/>
<path fill-rule="evenodd" clip-rule="evenodd" d="M218.45 185.892C219.292 186.711 220.217 187.385 221.221 187.921C222.058 188.368 222.946 188.72 223.884 188.976C223.872 189.195 223.82 189.428 223.714 189.677C222.73 189.359 221.8 188.946 220.933 188.43C219.949 187.842 219.043 187.127 218.226 186.273C218.3 186.148 218.376 186.02 218.45 185.892ZM223.906 175.896C224.005 175.96 224.103 176.031 224.199 176.105C223.547 177.644 222.218 178.854 220.628 179.828C219.646 180.43 218.564 180.939 217.483 181.382C217.336 181.21 217.193 181.03 217.062 180.834C218.189 180.428 219.326 179.948 220.358 179.366C221.92 178.483 223.244 177.366 223.906 175.896ZM215.753 167.045C216.669 168.361 217.867 169.411 219.233 170.232C220.397 170.931 221.684 171.462 223.023 171.853C222.873 172.047 222.732 172.249 222.609 172.465C221.302 172.025 220.055 171.455 218.925 170.729C217.68 169.927 216.577 168.944 215.706 167.751C215.704 167.68 215.704 167.608 215.704 167.537C215.709 167.37 215.726 167.208 215.753 167.045ZM224.307 151.354C224.413 151.513 224.519 151.678 224.622 151.853C224.573 152.032 224.514 152.204 224.438 152.367C223.532 154.302 222.206 155.832 220.623 157.059C219.649 157.816 218.576 158.456 217.446 159.004C217.274 158.812 217.092 158.618 216.91 158.419C218.093 157.905 219.218 157.292 220.239 156.547C221.79 155.421 223.106 153.995 224.032 152.168C224.157 151.917 224.241 151.641 224.307 151.354ZM228.097 137.526C228.107 137.718 228.112 137.909 228.114 138.104C227.758 138.482 227.398 138.861 227.022 139.223C226.768 139.464 226.507 139.7 226.237 139.921C224.873 141.033 223.367 141.992 221.787 142.815C220.207 143.637 218.556 144.323 216.9 144.891C216.875 144.898 216.848 144.903 216.824 144.908C216.71 144.677 216.592 144.448 216.469 144.217C216.516 144.168 216.575 144.129 216.644 144.106C218.283 143.6 219.919 142.98 221.49 142.22C223.06 141.463 224.561 140.573 225.924 139.528C226.192 139.321 226.451 139.102 226.699 138.878C227.182 138.443 227.639 137.981 228.097 137.526Z" fill="#FEFEFE"/>
<path fill-rule="evenodd" clip-rule="evenodd" d="M184.854 144.672C184.78 144.618 184.712 144.561 184.655 144.502C183.714 143.555 183.8 142.382 184.477 141.317C185.4 139.866 187.469 138.639 189.176 138.647C189.402 138.649 189.586 138.834 189.586 139.057C189.583 139.284 189.399 139.466 189.173 139.466C187.716 139.458 185.955 140.516 185.169 141.755C184.706 142.481 184.596 143.282 185.234 143.927C185.284 143.976 185.341 144.02 185.406 144.064C185.602 143.88 185.807 143.715 186.012 143.58C186.875 143.019 187.733 143.007 188.19 143.816C188.363 144.121 188.38 144.379 188.324 144.583C188.259 144.809 188.098 144.996 187.846 145.119C187.475 145.301 186.837 145.333 186.208 145.215C186 145.173 185.792 145.119 185.599 145.048C185.412 145.269 185.249 145.508 185.118 145.746C184.934 146.083 184.815 146.418 184.842 146.691C184.896 147.229 185.216 147.773 185.688 148.218C186.009 148.518 186.401 148.773 186.837 148.946C187.318 148.073 188.119 147.603 189.146 147.945C189.734 148.139 189.93 148.508 189.939 148.837C189.954 149.3 189.52 149.826 188.888 149.944C188.345 150.045 187.813 150.033 187.315 149.934C187.089 150.714 187.104 151.68 187.404 152.474C187.6 153.003 187.923 153.458 188.401 153.706C188.713 153.866 189.051 153.972 189.381 154.031C189.574 153.729 189.79 153.468 190.013 153.279C190.562 152.806 191.147 152.747 191.551 153.114C191.803 153.34 191.907 153.566 191.934 153.761C191.963 154.009 191.877 154.238 191.678 154.432C191.447 154.653 191.01 154.83 190.461 154.887C190.265 154.907 190.055 154.911 189.835 154.902C189.511 155.615 189.398 156.495 189.865 157.176C190.176 157.629 191.082 158.182 191.996 158.477C192.067 158.327 192.153 158.185 192.248 158.057C192.569 157.631 193.014 157.358 193.605 157.43C194.213 157.503 194.584 157.995 194.59 158.453C194.596 158.785 194.43 159.126 194.003 159.321C193.593 159.505 193.067 159.532 192.509 159.444C192.468 159.601 192.441 159.744 192.426 159.849C192.195 161.504 193.165 162.867 194.988 163.671C195.306 163.811 195.677 163.892 196.036 163.941C196.143 163.627 196.597 163.103 197.113 162.85C197.529 162.645 197.968 162.618 198.313 162.85C198.514 162.987 198.615 163.15 198.654 163.309C198.695 163.479 198.675 163.656 198.586 163.833C198.425 164.146 197.986 164.473 197.559 164.65C197.342 164.741 197.039 164.782 196.742 164.795C196.736 165.247 196.814 165.855 197.096 166.351C197.728 167.463 199.429 168.198 200.91 168.255C201.032 167.997 201.174 167.751 201.328 167.522C201.554 167.185 202.139 166.708 202.661 166.614C202.893 166.573 203.115 166.597 203.311 166.698C203.504 166.796 203.676 166.969 203.792 167.259C203.893 167.512 203.896 167.736 203.837 167.935C203.757 168.208 203.552 168.442 203.252 168.614C202.765 168.897 202.005 169.024 201.459 169.064C201.405 169.224 201.364 169.388 201.337 169.553C201.257 170.045 201.322 170.534 201.673 170.93C202.352 171.7 204.136 172.573 205.603 172.841C205.825 172.423 206.146 172.034 206.573 171.779C206.68 171.715 207.099 171.56 207.458 171.565C207.71 171.57 207.936 171.653 208.081 171.808C208.23 171.963 208.337 172.209 208.242 172.602C208.061 173.35 207.408 173.719 206.49 173.739C206.372 173.741 206.25 173.739 206.125 173.729C206.116 173.763 206.107 173.798 206.099 173.83C205.912 174.651 206.223 175.467 206.799 176.141C207.669 177.164 209.135 177.88 210.569 177.848C210.59 177.604 210.646 177.368 210.735 177.144C210.88 176.79 211.391 176.185 211.961 175.92C212.427 175.701 212.92 175.696 213.326 176.053C213.602 176.296 213.706 176.549 213.721 176.783C213.739 177.113 213.552 177.449 213.202 177.732C212.742 178.104 211.979 178.399 211.406 178.549C211.51 179.107 211.807 179.663 212.19 180.071C213.475 181.426 215.484 181.746 217.381 181.111L217.438 181.089C217.381 180.725 217.447 180.344 217.678 179.95C217.835 179.68 218.287 179.289 218.726 179.195C219.109 179.112 219.486 179.203 219.747 179.618C220.071 180.132 219.898 180.614 219.426 181.01C219.186 181.214 218.856 181.394 218.527 181.541C218.566 181.588 218.604 181.635 218.646 181.679C219.085 182.146 219.765 182.51 220.359 182.705C221.199 182.98 222.27 183.216 223.22 183.066C223.223 183 223.229 182.936 223.238 182.869C223.27 182.641 223.374 182.1 223.615 181.682C223.799 181.362 224.063 181.116 224.395 181.035C224.621 180.978 224.891 180.993 225.2 181.138C225.598 181.323 225.77 181.566 225.829 181.797C225.915 182.129 225.755 182.518 225.411 182.852C225.022 183.226 224.413 183.553 224.081 183.683C224.241 184.396 224.76 185.102 225.514 185.459C226.355 185.862 227.613 185.941 228.667 185.653C228.89 185.592 229.103 185.513 229.302 185.417C229.062 185.083 228.884 184.711 228.842 184.372C228.803 184.087 228.854 183.819 228.993 183.592C229.127 183.373 229.353 183.184 229.709 183.069C230.81 182.714 231.576 183.988 230.92 185.06C230.819 185.228 230.697 185.38 230.558 185.52L230.57 185.528C231.172 185.909 232.217 185.963 233.318 185.894C235.073 185.788 236.978 185.328 237.694 185.051C237.904 184.969 238.142 185.075 238.222 185.284C238.305 185.496 238.198 185.732 237.987 185.813C237.106 186.155 234.512 186.765 232.455 186.733C231.511 186.718 230.676 186.561 230.133 186.219C230.047 186.165 229.964 186.103 229.881 186.034C229.578 186.206 229.24 186.342 228.884 186.44C227.64 186.782 226.156 186.671 225.161 186.199C224.182 185.732 223.514 184.812 223.294 183.878C222.226 184.028 221.038 183.789 220.103 183.482C219.236 183.196 218.233 182.599 217.749 181.861L217.743 181.849C217.708 181.861 217.672 181.873 217.642 181.886C215.431 182.626 213.092 182.213 211.596 180.632C211.1 180.108 210.735 179.39 210.607 178.664C208.927 178.706 207.197 177.872 206.176 176.672C205.428 175.789 205.057 174.717 205.303 173.648L205.312 173.613C203.694 173.271 201.803 172.31 201.061 171.474C200.536 170.881 200.411 170.156 200.53 169.423C200.551 169.3 200.577 169.174 200.61 169.051C198.927 168.901 197.096 168.006 196.383 166.752C196.024 166.118 195.929 165.341 195.938 164.753C195.499 164.691 195.044 164.591 194.655 164.418C192.444 163.445 191.337 161.745 191.616 159.736C191.637 159.608 191.669 159.436 191.717 159.247C190.622 158.885 189.565 158.182 189.191 157.639C188.692 156.911 188.651 156.016 188.87 155.194C188.909 155.054 188.953 154.919 189.004 154.786C188.671 154.707 188.339 154.592 188.027 154.432C187.371 154.093 186.908 153.485 186.638 152.762C186.279 151.803 186.261 150.642 186.531 149.703C185.997 149.489 185.519 149.179 185.127 148.813C184.501 148.223 184.1 147.487 184.029 146.774C183.987 146.364 184.127 145.857 184.4 145.355C184.528 145.124 184.682 144.891 184.854 144.672ZM229.97 184.955C230.065 184.856 230.151 184.751 230.222 184.635C230.359 184.409 230.374 184.155 230.282 183.978C230.225 183.863 230.107 183.799 229.958 183.848C229.81 183.895 229.712 183.959 229.67 184.055C229.593 184.244 229.685 184.475 229.81 184.704C229.857 184.79 229.911 184.874 229.97 184.955ZM225.034 181.999C225.025 181.989 225.01 181.974 224.998 181.964C224.959 181.932 224.912 181.905 224.853 181.878C224.752 181.829 224.666 181.809 224.591 181.829C224.47 181.859 224.392 181.972 224.324 182.09C224.197 182.314 224.122 182.584 224.081 182.786C224.33 182.655 224.627 182.469 224.841 182.264C224.927 182.181 225.016 182.031 225.034 181.999ZM218.248 180.777C218.488 180.666 218.723 180.536 218.898 180.388C219.02 180.285 219.139 180.186 219.055 180.054C218.996 179.958 218.895 179.987 218.806 180.024C218.622 180.1 218.45 180.25 218.382 180.366C218.298 180.506 218.257 180.644 218.248 180.777ZM211.415 177.703C211.848 177.575 212.362 177.358 212.688 177.095C212.754 177.044 212.81 176.992 212.852 176.935C212.878 176.899 212.905 176.867 212.902 176.827C212.899 176.771 212.852 176.724 212.783 176.665C212.644 176.542 212.469 176.584 212.308 176.66C211.934 176.835 211.587 177.223 211.492 177.454C211.459 177.535 211.433 177.619 211.415 177.703ZM207.449 172.393C207.381 172.393 207.277 172.396 207.212 172.411C207.114 172.433 207.028 172.46 206.995 172.48C206.805 172.595 206.645 172.748 206.514 172.922C206.689 172.915 206.849 172.89 206.992 172.846C207.221 172.775 207.39 172.642 207.446 172.411C207.449 172.406 207.449 172.398 207.449 172.393ZM201.866 168.201C202.213 168.149 202.578 168.06 202.842 167.908C202.982 167.824 203.098 167.724 203.032 167.559C203.008 167.5 202.982 167.453 202.943 167.428C202.907 167.406 202.863 167.411 202.818 167.419C202.718 167.433 202.614 167.48 202.513 167.537C202.299 167.66 202.103 167.837 202.008 167.977C201.961 168.048 201.913 168.124 201.866 168.201ZM197.82 163.509C197.716 163.467 197.594 163.523 197.475 163.582C197.282 163.678 197.095 163.823 196.968 163.966C197.069 163.951 197.167 163.929 197.247 163.895C197.425 163.821 197.615 163.71 197.748 163.587C197.772 163.565 197.799 163.536 197.82 163.509ZM192.821 158.667C193.136 158.703 193.427 158.684 193.664 158.576C193.715 158.553 193.756 158.526 193.768 158.489C193.789 158.438 193.753 158.384 193.715 158.339C193.664 158.288 193.59 158.251 193.504 158.241C193.183 158.202 192.975 158.413 192.821 158.667ZM191.105 153.842C191.085 153.812 191.043 153.756 191.004 153.719C190.948 153.67 190.877 153.697 190.806 153.729C190.657 153.793 190.509 153.916 190.366 154.075C190.479 154.063 190.583 154.046 190.681 154.024C190.811 153.994 190.924 153.957 191.016 153.908C191.046 153.891 191.085 153.861 191.105 153.842ZM187.665 149.167C188.009 149.214 188.369 149.209 188.737 149.14C188.858 149.118 188.968 149.061 189.042 148.987C189.084 148.948 189.122 148.909 189.122 148.862C189.119 148.845 189.105 148.835 189.087 148.82C189.039 148.781 188.971 148.746 188.885 148.719C188.354 148.542 187.947 148.761 187.665 149.167ZM187.531 144.357C187.526 144.33 187.505 144.266 187.478 144.217C187.264 143.84 186.861 144.005 186.46 144.266C186.395 144.308 186.332 144.352 186.267 144.401C186.623 144.477 186.994 144.495 187.279 144.445C187.347 144.436 187.41 144.418 187.466 144.396C187.487 144.386 187.517 144.367 187.531 144.357Z" fill="#133844"/>
<path fill-rule="evenodd" clip-rule="evenodd" d="M194.08 108.68C190.668 110.396 186.052 110.594 184.278 111.815C182.77 112.85 186.054 115.246 186.907 118.229C187.521 120.375 185.452 122.275 185.715 123.401C185.927 124.305 186.297 125.027 188.088 125.495C190.054 126.011 192.132 125.326 191.926 125.869C191.002 128.316 188.12 126.568 186.079 127.432C185.219 127.798 185.342 128.709 185.75 129.777C186.165 130.864 185.133 132.455 184.831 133.601C183.954 136.952 184.504 138.194 188.354 139.218C192.827 140.406 203.31 146.632 208.42 145.031C225.039 139.824 243.95 125.181 228.004 105.618C224.729 101.602 217.902 97.6721 212.677 97.5445C199.699 97.2229 198.814 106.301 194.08 108.68Z" fill="#D78C6F"/>
<path fill-rule="evenodd" clip-rule="evenodd" d="M185.693 123.194C185.801 123.194 185.912 123.214 186.018 123.253C187.039 123.831 187.637 124.32 188.343 124.682C188.803 124.915 189.276 125.085 189.933 125.178C190.061 125.188 191.114 125.269 191.683 125.417C192.003 125.501 192.175 125.658 192.158 125.791C192.135 126.103 192.012 126.383 191.84 126.627C191.668 126.873 191.444 127.082 191.186 127.234C190.856 127.448 190.086 127.662 189.237 127.871C188.028 128.166 186.685 128.402 186.153 128.397C185.919 128.4 185.683 128.36 185.444 128.292C185.481 127.908 185.666 127.608 186.079 127.433C188.122 126.568 191.001 128.316 191.926 125.869C192.131 125.326 190.054 126.01 188.087 125.496C186.298 125.026 185.927 124.303 185.715 123.403C185.7 123.334 185.693 123.265 185.693 123.194Z" fill="#C57D7D"/>
<path fill-rule="evenodd" clip-rule="evenodd" d="M198.926 109.796C199.545 109.015 200.874 108.114 201.718 108.882C202.62 109.702 201.67 111.247 201.332 111.67C200.612 112.569 198.974 113.822 198.178 112.994C197.157 111.929 198.419 110.436 198.926 109.796Z" fill="#194858"/>
<path fill-rule="evenodd" clip-rule="evenodd" d="M202.666 112.026C203.113 112.234 203.693 112.369 204.292 112.438C204.516 112.465 204.739 112.48 204.955 112.485C205.314 112.492 205.656 112.47 205.953 112.446C206.186 112.416 206.351 112.207 206.324 111.974C206.297 111.741 206.086 111.576 205.855 111.603C205.53 111.653 205.147 111.687 204.749 111.716C204.503 111.734 204.253 111.753 204.007 111.758C203.565 111.77 203.142 111.758 202.786 111.675C202.69 111.643 202.585 111.692 202.55 111.79C202.518 111.886 202.57 111.991 202.666 112.026Z" fill="#926767"/>
<path fill-rule="evenodd" clip-rule="evenodd" d="M201.855 112.772C202.143 113.182 202.347 113.619 202.511 114.075C202.607 114.348 202.678 114.628 202.745 114.913C202.843 115.335 202.917 115.764 202.956 116.206C202.983 116.437 203.194 116.604 203.425 116.577C203.659 116.55 203.826 116.339 203.796 116.106C203.737 115.705 203.666 115.313 203.55 114.932C203.474 114.674 203.381 114.422 203.27 114.179C202.993 113.575 202.624 113.022 202.143 112.534C202.076 112.455 201.959 112.443 201.88 112.509C201.801 112.576 201.792 112.691 201.855 112.772Z" fill="#926767"/>
<path fill-rule="evenodd" clip-rule="evenodd" d="M211.485 97.6795C211.272 96.3735 217.273 95.1804 223.955 98.4036C231.915 102.241 236.536 109.662 236.811 117.993C236.966 122.704 235.789 127.69 232.831 132.001C226.316 141.501 216.342 142.616 215.549 142.296C214.446 141.852 212.92 137.608 214.424 135.683C215.416 134.414 217.824 131.129 219.408 130.567C221.953 129.659 224.98 127.629 224.923 124.852C224.855 121.401 221.993 120.453 219.406 121.109C217.841 121.506 215.711 124.337 214.632 123.399C213.999 122.852 216.843 119.685 217.775 115.175C219.951 104.664 211.748 99.2948 211.485 97.6795Z" fill="#BADDE8"/>
<path fill-rule="evenodd" clip-rule="evenodd" d="M213.351 100.162C214.446 100.13 215.534 100.248 216.526 100.592C217.537 100.944 218.443 101.536 219.174 102.439C219.312 102.621 219.275 102.882 219.092 103.019C218.91 103.155 218.652 103.12 218.514 102.938C217.773 101.891 216.752 101.273 215.608 100.939C215.007 100.762 214.375 100.661 213.733 100.617C213.602 100.459 213.474 100.307 213.351 100.162ZM212.072 98.6568C213.122 98.4355 214.301 98.3764 215.472 98.4379C217.003 98.5166 218.517 98.8043 219.718 99.1978C219.932 99.2765 220.042 99.5126 219.966 99.7265C219.89 99.9404 219.651 100.051 219.437 99.9749C218.312 99.5347 216.88 99.1806 215.426 99.0207C214.382 98.9076 213.329 98.8904 212.367 99.0133C212.259 98.8879 212.16 98.7699 212.072 98.6568Z" fill="#FEFEFE"/>
<path fill-rule="evenodd" clip-rule="evenodd" d="M220.292 123.323C220.491 122.94 220.995 122.874 221.464 122.964C221.961 123.06 222.447 123.335 222.572 123.738C222.643 123.959 222.602 124.248 222.486 124.499C222.376 124.744 222.194 124.96 221.961 125.029C221.676 125.112 221.403 125.105 221.14 125.049C220.423 124.904 219.754 124.472 219.035 124.509C218.752 124.518 218.374 124.592 218.091 124.734C217.828 124.869 217.652 125.068 217.644 125.324C217.637 125.476 217.762 125.65 217.968 125.812C218.236 126.023 218.649 126.229 218.89 126.35C219.106 126.46 219.794 126.718 220.253 127.059C220.344 127.128 220.425 127.199 220.487 127.273C220.538 127.341 220.577 127.413 220.541 127.501C220.418 127.815 220.032 127.901 219.639 127.879C219.216 127.857 218.764 127.705 218.477 127.425C218.389 127.334 218.246 127.329 218.153 127.415C218.062 127.501 218.057 127.646 218.143 127.737C218.548 128.213 219.278 128.498 219.917 128.495C220.486 128.493 220.968 128.245 221.192 127.786C221.386 127.359 221.255 126.968 220.914 126.661C220.72 126.487 220.455 126.345 220.175 126.232C219.732 126.055 219.266 125.957 219.089 125.895C218.885 125.822 218.556 125.714 218.295 125.576C218.194 125.522 218.106 125.466 218.042 125.407C218.01 125.378 217.978 125.358 217.978 125.326C217.976 125.186 218.091 125.088 218.236 125.009C218.475 124.884 218.804 124.828 219.047 124.818C219.742 124.798 220.376 125.235 221.064 125.395C221.383 125.468 221.712 125.488 222.064 125.397C222.403 125.309 222.685 125.024 222.86 124.675C223.032 124.329 223.088 123.927 223.002 123.612C222.852 123.06 222.238 122.621 221.572 122.464C220.86 122.297 220.113 122.469 219.784 123.043C219.705 123.183 219.757 123.36 219.897 123.438C220.037 123.514 220.214 123.463 220.292 123.323Z" fill="#607175"/>
<path fill-rule="evenodd" clip-rule="evenodd" d="M188.759 134.082C194.317 131.455 195.361 134.373 198.434 134.083C200.168 133.921 212.358 130.745 213.873 129.586C215.06 128.68 215.755 126.987 216.516 125.883C217.754 124.077 219.327 122.869 221.608 122.633C224.959 122.285 228.641 126.582 227.108 130.594C225.697 134.279 220.454 137.137 216.861 138.679C212.528 140.541 206.061 142.342 201.059 143.232C198.389 143.708 191.528 144.317 188.819 142.259C186.693 140.646 184.97 135.873 188.759 134.082Z" fill="#00779C"/>
<path fill-rule="evenodd" clip-rule="evenodd" d="M190.249 118.634C191.117 119.039 192.345 119.78 193.187 120.845C193.871 121.715 194.287 122.807 193.975 124.125C193.928 124.346 194.073 124.565 194.294 124.612C194.518 124.656 194.737 124.514 194.782 124.29C194.998 123.038 194.7 121.981 194.127 121.11C193.187 119.676 191.511 118.759 190.384 118.317C190.298 118.28 190.194 118.319 190.158 118.408C190.121 118.494 190.16 118.594 190.249 118.634Z" fill="#926767"/>
<path fill-rule="evenodd" clip-rule="evenodd" d="M207.657 99.5483C208.28 99.8533 208.705 100.269 209.016 100.758C209.493 101.516 209.69 102.448 209.897 103.436C209.953 103.658 210.18 103.788 210.401 103.731C210.62 103.675 210.753 103.449 210.696 103.227C210.369 102.187 210.049 101.213 209.454 100.451C209.05 99.932 208.528 99.5065 207.795 99.2336C207.706 99.1967 207.605 99.236 207.569 99.3221C207.532 99.4106 207.571 99.5115 207.657 99.5483Z" fill="#926767"/>
<path fill-rule="evenodd" clip-rule="evenodd" d="M205.706 100.736C206.353 101.078 206.855 101.186 207.254 101.584C207.463 101.793 207.632 102.088 207.79 102.546C207.989 103.136 208.011 103.584 207.948 103.96C207.852 104.525 207.566 104.931 207.394 105.384C207.322 105.6 207.438 105.834 207.655 105.905C207.871 105.979 208.105 105.861 208.176 105.647C208.327 105.143 208.587 104.673 208.644 104.051C208.686 103.586 208.632 103.038 208.331 102.339C208.098 101.798 207.856 101.461 207.583 101.23C207.123 100.834 206.582 100.741 205.856 100.424C205.77 100.384 205.666 100.419 205.627 100.505C205.585 100.591 205.62 100.694 205.706 100.736Z" fill="#926767"/>
<path fill-rule="evenodd" clip-rule="evenodd" d="M268.849 183.887C269.242 184.85 269.128 185.944 268.547 186.805C267.969 187.668 266.998 188.186 265.956 188.186C258.69 188.186 244.709 188.186 237.443 188.186C236.402 188.186 235.43 187.668 234.852 186.805C234.271 185.944 234.158 184.85 234.551 183.887C236.131 180.006 238.386 174.469 239.569 171.568C240.047 170.393 241.191 169.625 242.461 169.625C246.781 169.625 256.618 169.625 260.94 169.625C262.209 169.625 263.352 170.393 263.83 171.568C265.014 174.469 267.268 180.006 268.849 183.887Z" fill="#00779C"/>
<path d="M247.834 176.526C248.592 176.526 249.206 175.912 249.206 175.155C249.206 174.398 248.592 173.784 247.834 173.784C247.077 173.784 246.463 174.398 246.463 175.155C246.463 175.912 247.077 176.526 247.834 176.526Z" fill="#FFA6C3"/>
<path d="M247.834 180.274C248.592 180.274 249.206 179.66 249.206 178.903C249.206 178.146 248.592 177.533 247.834 177.533C247.077 177.533 246.463 178.146 246.463 178.903C246.463 179.66 247.077 180.274 247.834 180.274Z" fill="#FFA6C3"/>
<path d="M247.834 184.023C248.592 184.023 249.206 183.409 249.206 182.652C249.206 181.895 248.592 181.281 247.834 181.281C247.077 181.281 246.463 181.895 246.463 182.652C246.463 183.409 247.077 184.023 247.834 184.023Z" fill="#FFA6C3"/>
<path d="M251.698 176.526C252.456 176.526 253.07 175.912 253.07 175.155C253.07 174.398 252.456 173.784 251.698 173.784C250.941 173.784 250.327 174.398 250.327 175.155C250.327 175.912 250.941 176.526 251.698 176.526Z" fill="#FFA6C3"/>
<path d="M251.698 180.274C252.456 180.274 253.07 179.66 253.07 178.903C253.07 178.146 252.456 177.533 251.698 177.533C250.941 177.533 250.327 178.146 250.327 178.903C250.327 179.66 250.941 180.274 251.698 180.274Z" fill="#FFA6C3"/>
<path d="M251.698 184.023C252.456 184.023 253.07 183.409 253.07 182.652C253.07 181.895 252.456 181.282 251.698 181.282C250.941 181.282 250.327 181.895 250.327 182.652C250.327 183.409 250.941 184.023 251.698 184.023Z" fill="#FFA6C3"/>
<path d="M255.564 176.526C256.322 176.526 256.936 175.912 256.936 175.155C256.936 174.398 256.322 173.784 255.564 173.784C254.807 173.784 254.193 174.398 254.193 175.155C254.193 175.912 254.807 176.526 255.564 176.526Z" fill="#FFA6C3"/>
<path d="M255.564 180.274C256.322 180.274 256.936 179.66 256.936 178.903C256.936 178.146 256.322 177.533 255.564 177.533C254.807 177.533 254.193 178.146 254.193 178.903C254.193 179.66 254.807 180.274 255.564 180.274Z" fill="#FFA6C3"/>
<path d="M255.564 184.023C256.322 184.023 256.936 183.409 256.936 182.652C256.936 181.895 256.322 181.282 255.564 181.282C254.807 181.282 254.193 181.895 254.193 182.652C254.193 183.409 254.807 184.023 255.564 184.023Z" fill="#FFA6C3"/>
<path d="M276.624 187.703H167.677V199.999H276.624V187.703Z" fill="#F1E7FF"/>
<path d="M276.624 187.704H167.677V190.163H276.624V187.704Z" fill="#E5D5B3"/>
<g style="mix-blend-mode:multiply">
<path fill-rule="evenodd" clip-rule="evenodd" d="M255.559 187.705L267.723 200H202.115C198.064 195.672 194.85 191.809 190.263 187.705H255.559Z" fill="#EBEFF4"/>
</g>
<path fill-rule="evenodd" clip-rule="evenodd" d="M236.354 187.886C237.297 180.61 220.932 153.787 219.924 150.494C218.973 147.387 218.564 142.428 217.899 139.27C217.624 137.963 216.243 135.162 214.01 132.824C212.592 131.337 210.383 130.43 208.538 129.9C206.841 129.414 206.273 130.759 207.853 132.039C208.44 132.513 210.718 133.216 211.995 134.657C213.94 136.852 214.991 137.796 214.432 138.029C214.074 138.177 213.925 137.135 211.354 134.689C209.51 132.935 206.586 131.876 204.968 131.871C202.872 131.863 202.711 132.183 203.042 133.178C203.375 134.179 205.195 134.31 206.547 134.771C207.342 135.041 208.108 135.204 209.298 136.457C210.645 137.876 212.617 139.257 212.162 139.597C211.753 139.902 211.446 139.016 208.692 136.538C207.093 135.098 201.922 133.127 201.959 135.535C201.979 136.864 204.738 136.925 207.059 138.497C207.795 138.997 209.721 141.377 209.259 141.731C208.85 142.044 208.391 140.309 206.955 139.08C204.598 137.066 202.042 136.997 202.452 138.551C202.643 139.277 203.641 139.27 204.804 140.185C206.396 141.435 206.325 142.563 207.085 144.522C208.223 147.452 207.046 145.645 208.178 148.346C209.61 151.764 211.35 151.902 213.759 154.896C215.013 156.454 222.416 187.505 225.382 191.377C227.957 194.739 230.477 195.836 233.889 195.033C237.143 194.268 236.12 189.694 236.354 187.886Z" fill="#D78C6F"/>
<path fill-rule="evenodd" clip-rule="evenodd" d="M202.772 137.614C202.762 137.622 202.75 137.629 202.737 137.639C202.452 137.819 202.531 138.104 202.698 138.475C202.747 138.581 202.848 138.652 202.964 138.731C203.165 138.866 203.414 138.987 203.69 139.115C204.342 139.424 205.112 139.776 205.779 140.361C205.949 140.509 206.143 140.774 206.333 141.124C206.682 141.773 207.056 142.749 207.361 143.561C207.487 143.895 208.178 145.717 208.218 146.246C208.279 147.033 208.604 147.935 209.086 148.772C209.431 149.369 209.734 149.999 210.231 150.552C211.422 151.875 214.279 153.887 214.769 157.494C214.776 157.538 214.776 157.583 214.774 157.624C214.309 156.127 213.957 155.143 213.76 154.897C211.351 151.902 209.611 151.764 208.178 148.346C207.046 145.646 208.223 147.453 207.086 144.522C206.325 142.565 206.397 141.436 204.804 140.184C203.64 139.269 202.641 139.277 202.452 138.554C202.331 138.099 202.464 137.784 202.772 137.614ZM202.516 134.565C202.499 134.595 202.464 134.654 202.449 134.698C202.376 134.9 202.343 135.16 202.422 135.342C202.526 135.576 202.688 135.689 202.868 135.77C203.055 135.859 203.261 135.92 203.463 135.994C203.81 136.124 205.791 136.626 207.26 137.457C208.437 138.121 209.621 139.926 210.103 141.411C210.209 141.734 210.031 142.08 209.707 142.186C209.384 142.289 209.037 142.112 208.931 141.79C208.902 141.694 208.867 141.596 208.831 141.497C208.995 141.726 209.131 141.829 209.259 141.731C209.721 141.377 207.794 138.997 207.059 138.497C204.738 136.926 201.979 136.864 201.96 135.537C201.95 135.042 202.161 134.732 202.516 134.565ZM203.34 132.022C203.328 132.052 203.328 132.086 203.33 132.121C203.338 132.231 203.377 132.352 203.441 132.475C203.508 132.6 203.599 132.726 203.717 132.846C203.96 133.1 204.236 133.188 204.558 133.252C205.011 133.341 205.54 133.372 206.187 133.5C207.29 133.722 208.946 134.238 211.178 136.923C211.754 137.614 212.522 138.487 212.795 138.938C212.958 139.208 212.99 139.434 212.977 139.555C212.945 139.892 212.645 140.14 212.308 140.108C212.03 140.081 211.813 139.877 211.762 139.616C211.737 139.584 211.675 139.508 211.589 139.397C211.862 139.656 212.005 139.717 212.163 139.599C212.618 139.26 210.644 137.878 209.298 136.459C208.107 135.205 207.342 135.042 206.547 134.772C205.196 134.312 203.375 134.179 203.042 133.178C202.836 132.561 202.821 132.204 203.34 132.022ZM207.059 130.134C207.108 130.311 207.206 130.483 207.317 130.648C207.726 131.245 208.358 131.408 209.111 131.693C210.059 132.049 211.181 132.514 212.409 133.677C213.777 134.973 214.894 136.646 215.249 137.413C215.423 137.792 215.423 138.077 215.394 138.192C215.305 138.522 214.968 138.716 214.641 138.63C214.373 138.559 214.195 138.323 214.183 138.062C214.151 138.005 214.023 137.787 213.826 137.474C214.149 137.917 214.269 138.096 214.432 138.03C214.99 137.796 213.939 136.852 211.995 134.656C210.718 133.215 208.439 132.514 207.854 132.04C206.95 131.307 206.749 130.554 207.059 130.134Z" fill="#926767"/>
<g style="mix-blend-mode:multiply">
<path fill-rule="evenodd" clip-rule="evenodd" d="M144.071 0V154.341H35.1261C35.1261 154.341 35.1261 134.406 35.1261 108.866C35.1261 48.7417 83.9026 0 144.071 0Z" fill="url(#paint0_linear)"/>
</g>
<path d="M141.161 112.441H37.9577V159.286H141.161V112.441Z" fill="white"/>
<path fill-rule="evenodd" clip-rule="evenodd" d="M144.071 0V154.341H35.1261C35.1261 154.341 35.1261 134.406 35.1261 108.866C35.1261 48.7417 83.9026 0 144.071 0ZM139.15 5.03434C83.9848 7.59867 40.0471 53.1055 40.0471 108.866V149.421H139.15V5.03434Z" fill="white"/>
<path fill-rule="evenodd" clip-rule="evenodd" d="M105.371 69.8456C108.901 76.5783 103.703 83.6321 98.1324 88.0428C96.3037 89.4917 88.9488 93.3691 88.5824 94.1351C88.3943 94.5326 100.134 117.561 102.451 118.348C103.864 118.829 115.593 117.993 119.505 112.548C122.162 108.847 117.549 99.9922 117.854 99.7095C120.537 97.2177 123.213 93.7853 126.719 92.1928L105.371 69.8456Z" fill="#C27251"/>
<path fill-rule="evenodd" clip-rule="evenodd" d="M116.226 150.633C112.369 156.056 111.958 155.898 108.801 158.131C104.091 161.463 74.1387 155.65 70.8632 155.475C66.089 155.22 57.1461 156.742 53.1569 154.976C50.4277 153.769 51.4219 151.917 51.3185 147.429C51.1044 138.205 53.3808 130.813 55.9844 124.013C58.8859 116.442 63.3845 101.512 79.8481 94.6316C84.0809 92.8659 88.3949 90.5002 93.206 90.7633C95.475 90.8863 101.386 113.887 112.975 114.391C118.945 114.649 118.089 101.311 120.013 102.69C123.365 105.093 128.306 108.474 130.812 113.323C130.846 113.38 130.88 113.437 130.915 113.493C131.579 114.624 131.909 115.741 132.451 117.43C134.299 123.207 133.243 128.853 132.463 131.996C130.516 139.833 127.465 149.165 123.131 150.542C122.053 150.884 119.137 151.118 116.226 150.633Z" fill="#8CFFE1"/>
<path fill-rule="evenodd" clip-rule="evenodd" d="M125.471 131.922C125.494 133.691 125.261 135.396 124.834 137.061C124.228 139.431 123.187 141.667 122.335 143.981C121.756 145.56 121.28 147.172 120.872 148.789C120.735 149.333 121.068 149.883 121.612 150.02C122.154 150.156 122.707 149.824 122.841 149.28C123.18 147.938 123.63 146.62 124.037 145.287C124.221 144.678 124.389 144.064 124.556 143.45C124.95 141.992 125.282 140.528 125.591 139.057C126.084 136.709 126.435 134.345 126.236 131.887C126.225 131.677 126.048 131.513 125.837 131.524C125.627 131.532 125.463 131.711 125.471 131.922Z" fill="#349CBC"/>
<path fill-rule="evenodd" clip-rule="evenodd" d="M110.297 151.68C111.114 150.4 117.472 145.234 118.26 144.685C120.559 143.089 128.832 140.51 131.869 141.928C133.752 142.809 131.765 144.35 131.577 146.206C131.46 147.373 130.608 148.328 130.025 149.296C129.126 150.789 128.248 152.535 126.949 153.76C126.4 154.276 125.605 154.601 124.949 154.978" fill="#D37C59"/>
<path fill-rule="evenodd" clip-rule="evenodd" d="M116.927 46.0919C127.047 37.4258 155.215 44.3939 156.369 61.9881C156.575 65.1141 155.637 68.7058 154.865 70.3652C152.979 74.4413 150.994 75.5658 150.232 78.0356C149.527 80.3392 151.287 85.9111 150.004 87.7083C148.358 90.0157 145.88 86.6275 144.395 87.6668C143.705 88.146 144.034 90.3238 142.992 90.5586C140.526 91.1071 138.236 90.2335 136.791 89.1816C135.666 88.3634 135.117 87.286 134.989 87.6376C134.129 89.9668 139.375 92.8041 138.499 95.295C138.154 96.2627 137.285 95.9836 135.563 96.8513C133.993 97.6447 135.563 101.689 129.045 102.229C123.054 102.728 114.656 92.5225 108.359 83.1232C101.94 73.5462 103.742 57.3791 116.927 46.0919Z" fill="#D37C59"/>
<path fill-rule="evenodd" clip-rule="evenodd" d="M137.565 96.0989C137.269 95.8112 137.028 95.4251 136.73 95.0366C136.588 94.8472 136.455 94.5694 136.349 94.2349C136.238 93.8685 136.14 93.4037 136.029 92.9684C135.98 92.7668 135.955 92.5676 135.874 92.4201C135.465 91.5569 135.035 90.6815 134.818 89.7667C134.663 89.1027 134.589 88.4584 134.69 87.8067C134.688 87.642 134.774 87.4821 134.924 87.396C135.15 87.2657 135.438 87.3444 135.566 87.5682C136.046 88.2961 136.885 88.8224 137.803 89.1568C138.246 89.3191 138.709 89.4199 139.167 89.4814C139.629 89.5429 140.087 89.5527 140.51 89.4888C141.677 89.3437 142.277 89.1715 142.789 89.1543C143.129 89.142 143.439 89.1765 143.798 89.3019C143.665 89.897 143.481 90.4429 142.988 90.5536C140.52 91.102 138.229 90.229 136.784 89.1765C135.662 88.3576 135.113 87.2829 134.983 87.6346C134.127 89.9634 139.371 92.7988 138.492 95.2899C138.325 95.767 138.027 95.9415 137.565 96.0989Z" fill="#AA5B3C"/>
<path fill-rule="evenodd" clip-rule="evenodd" d="M127.873 64.0584C124.278 65.4254 124.81 69.1365 122.278 68.4301C120.327 67.8865 122.806 64.5614 122.173 61.3908C121.698 59.0274 119.18 58.1117 116.931 58.7467C112.018 60.1291 114.221 66.7466 113.557 68.3154C112.67 70.403 111.815 72.4063 110.057 73.7889C109.244 74.4298 108.311 75.0162 107.51 75.8469C107.396 75.9673 105.782 77.8215 105.752 77.8237C105.074 77.8729 105.105 75.9613 104.881 74.7209C104.277 71.3552 104.103 68.5114 103.309 65.3668C100.454 54.042 105.182 44.238 111.851 40.0024C117.339 36.5156 122.714 34.1758 128.197 34.3473C130.267 34.4143 131.491 36.0843 131.491 36.0843C131.491 36.0843 132.109 35.1329 135.032 35.3335C142.696 35.862 151.429 44.1451 154.72 50.9594C156.263 54.1576 156.415 57.3222 157.696 59.323C159.306 61.8367 161.93 62.7904 162.645 62.7871C164.062 62.7804 160.677 68.5917 156.021 68.6481C143.418 68.8049 142.011 58.4037 139.977 58.2792C137.948 58.1578 138.514 61.0945 134.827 62.5809C131.692 63.8451 130.775 62.9567 127.873 64.0584Z" fill="#1E5A6C"/>
<path fill-rule="evenodd" clip-rule="evenodd" d="M120.55 62.0398L120.405 61.189L122.263 62.571C122.782 62.9226 123.218 63.444 123.503 64.1104L133.007 86.3114C133.854 88.2837 133.081 90.8018 131.289 91.9306L124.79 96.025C124.084 96.4701 123.323 96.6324 122.61 96.5488L120.538 96.3176L120.924 95.7865C120.55 95.4545 120.232 95.0217 120.009 94.4979L110.504 72.2993C109.66 70.3271 110.431 67.8089 112.225 66.6777L118.724 62.5858C119.315 62.212 119.942 62.0374 120.55 62.0398Z" fill="#438093"/>
<path fill-rule="evenodd" clip-rule="evenodd" d="M121.412 62.3467C120.824 60.9735 119.332 60.4968 118.083 61.2844L109.614 66.6227C108.365 67.4104 107.828 69.1659 108.415 70.5392L118.841 94.9101C119.43 96.2862 120.921 96.763 122.171 95.9753L130.639 90.637C131.889 89.8493 132.426 88.0938 131.837 86.7177L121.412 62.3467Z" fill="#FFD500"/>
<path fill-rule="evenodd" clip-rule="evenodd" d="M117.678 71.4243C117.979 71.2288 118.117 70.8047 117.985 70.4776L116.44 66.6536C116.308 66.3266 115.956 66.2197 115.655 66.4151L114.561 67.1242C114.26 67.3197 114.122 67.7439 114.254 68.0709L115.799 71.8949C115.931 72.222 116.283 72.3288 116.584 72.1334L117.678 71.4243Z" fill="#438093"/>
<path fill-rule="evenodd" clip-rule="evenodd" d="M116.391 67.8794C116.213 67.4266 115.774 67.2636 115.415 67.5087C115.066 67.7472 114.92 68.2986 115.094 68.7393C115.272 69.1921 115.711 69.3551 116.069 69.11C116.419 68.8715 116.565 68.3201 116.391 67.8794ZM116.3 67.9153C116.457 68.3139 116.331 68.8131 116.014 69.0294C115.708 69.2385 115.337 69.0899 115.185 68.7034C115.028 68.3048 115.155 67.805 115.471 67.5893C115.778 67.3796 116.148 67.5288 116.3 67.9153Z" fill="white"/>
<path fill-rule="evenodd" clip-rule="evenodd" d="M68.7984 109.665C66.9169 113.778 65.9555 117.135 65.5473 120.357C65.0874 123.97 65.3284 127.409 65.7426 131.547C66.0738 134.7 66.9567 138.636 68.0082 141.898C68.6033 143.745 69.2609 145.376 69.8566 146.543C70.3793 147.566 70.9025 148.257 71.3111 148.535C71.5777 148.714 71.9133 148.832 72.3123 148.859C72.8101 148.892 73.43 148.791 74.0926 148.573C75.7813 148.018 77.8037 146.736 78.688 145.772C78.9455 145.5 78.9328 145.073 78.6629 144.816C78.3906 144.559 77.9631 144.572 77.706 144.841C77.1293 145.431 76.0204 146.134 74.8927 146.649C74.2459 146.944 73.5916 147.174 73.0274 147.268C72.6876 147.327 72.3946 147.372 72.2105 147.24C71.9363 147.044 71.6541 146.522 71.3052 145.815C70.7567 144.698 70.1709 143.136 69.5914 141.382C68.5472 138.221 67.547 134.437 67.1559 131.384C66.62 127.359 66.2729 124.015 66.6004 120.47C66.8915 117.316 67.711 114.007 69.4034 109.927C69.4757 109.762 69.4006 109.566 69.2348 109.494C69.0665 109.422 68.8735 109.497 68.7984 109.665Z" fill="#349CBC"/>
<path fill-rule="evenodd" clip-rule="evenodd" d="M76.5144 148.901C75.9262 139.959 103.565 101.111 105.048 97.1765C106.448 93.4593 107.216 85.6259 108.271 81.8271C108.707 80.2575 111.114 77.1601 114.017 74.4823C115.861 72.7798 119.823 71.4298 122.112 70.9265C124.219 70.4619 125.227 72.4487 123.202 73.8869C122.45 74.42 118.711 75.4369 117.042 77.095C114.502 79.6203 112.241 83.2698 112.905 83.5963C113.33 83.8041 114.644 80.0755 117.967 77.2922C120.349 75.2968 124.182 74.2582 126.154 74.3766C128.71 74.529 129.043 75.1822 128.563 76.3694C128.081 77.5635 125.852 77.5822 124.168 78.0401C123.179 78.3079 122.232 78.4478 120.685 79.8826C118.933 81.508 115.62 85.7219 116.149 86.1716C116.623 86.5747 118.045 82.7707 121.593 79.9626C123.654 78.3309 130.46 77.0744 130.229 80.0081C130.102 81.6242 126.685 81.0934 123.734 82.83C122.798 83.3802 118.67 88.5564 119.206 89.0236C119.68 89.4363 122.058 84.7833 123.903 83.3987C126.932 81.1263 131.665 81.7554 130.986 83.6005C130.311 85.4317 128.963 84.5022 126.751 85.9377C124.676 87.2841 124.859 87.9938 123.782 90.3222C122.169 93.8055 123.127 91.7607 122.722 95.3166C122.228 99.6478 118.266 104.55 115.098 108.011C113.449 109.816 97.3509 152.835 94.347 154.963C90.1246 157.954 87.5101 158.604 83.4132 157.362C79.5056 156.179 76.6605 151.12 76.5144 148.901Z" fill="#D97E59"/>
<path fill-rule="evenodd" clip-rule="evenodd" d="M129.377 82.0206C130.551 82.2223 131.284 82.7952 130.986 83.5994C130.312 85.4314 128.964 84.5019 126.751 85.938C124.679 87.2832 124.861 87.9938 123.783 90.3202C122.171 93.8048 123.129 91.7612 122.723 95.3147C122.72 95.3417 122.718 95.3688 122.713 95.3958C122.681 95.6147 122.646 95.8385 122.605 96.0647C122.176 98.2017 120.985 100.447 119.523 102.569C119.351 102.778 119.184 102.985 119.024 103.191C118.702 103.609 118.391 104.052 118.089 104.509C117.099 105.771 116.063 106.959 115.099 108.011C114.737 108.41 113.674 110.805 112.202 114.321C112.2 114.252 112.205 114.184 112.224 114.115C113.191 110.682 113.573 109.251 114.538 107.839C115.704 106.135 116.772 104.091 118.052 102.439C118.825 101.44 119.824 100.444 120.498 98.9395C121.657 96.3524 121.667 93.2367 121.861 92.2457C122.12 90.9276 123.111 89.398 123.276 89.0341C123.926 87.5881 124.753 86.2848 125.356 85.8224C126.37 85.0429 127.659 84.6371 128.703 84.2707C129.251 84.0764 129.726 83.9191 129.977 83.6584C130.137 83.4912 130.133 83.2551 130.073 83.0362C129.997 82.746 129.815 82.4682 129.596 82.3083C129.49 82.2321 129.419 82.1313 129.377 82.0206ZM128.602 78.3368C129.626 78.5336 130.307 79.0451 130.231 80.0066C130.103 81.6247 126.687 81.0911 123.734 82.8297C122.799 83.3781 118.672 88.5545 119.208 89.0217C119.295 89.098 119.447 89.0045 119.646 88.7881C119.619 88.884 119.602 88.9701 119.595 89.0464C119.57 89.3857 119.275 89.6415 118.938 89.6144C118.598 89.5898 118.345 89.2947 118.369 88.9578C118.414 88.3308 119.012 87.1331 119.853 85.8962C121.064 84.1133 122.75 82.2321 123.606 81.8165C125.454 80.9214 127.886 80.5476 128.319 80.4172C128.609 80.3287 128.966 80.2377 129.242 80.0656C129.377 79.9795 129.495 79.8738 129.485 79.6894C129.473 79.4508 129.32 79.1655 129.148 78.9098C128.978 78.659 128.786 78.4303 128.622 78.3491C128.617 78.3442 128.609 78.3417 128.602 78.3368ZM127.118 74.4711C128.789 74.7268 128.976 75.3514 128.565 76.3695C128.083 77.5647 125.853 77.5819 124.17 78.0393C123.18 78.3073 122.233 78.4475 120.685 79.8836C118.935 81.5067 115.62 85.7216 116.149 86.1716C116.27 86.2724 116.447 86.1077 116.706 85.761C116.546 86.1864 116.467 86.5159 116.472 86.6487C116.482 86.9881 116.216 87.2733 115.876 87.2832C115.537 87.2955 115.251 87.0274 115.241 86.688C115.232 86.3536 115.549 85.038 116.317 83.7346C116.925 82.7018 117.84 81.7157 118.738 80.6878C121.5 77.5229 123.308 77.2573 124.662 77.0753C125.567 76.9523 126.488 76.7138 127.138 76.4507C127.418 76.3375 127.733 76.1384 127.768 76.1162C128.159 75.5088 128.09 74.8031 127.524 74.7195C127.354 74.6924 127.211 74.6014 127.118 74.4711ZM123.136 70.8979C124.485 71.1635 124.861 72.7079 123.205 73.8858C122.452 74.4194 118.711 75.435 117.043 77.095C114.503 79.6205 112.242 83.2699 112.906 83.5969C112.977 83.6313 113.073 83.5551 113.199 83.3928C113.182 83.5428 113.187 83.6805 113.209 83.801C113.275 84.133 113.059 84.4576 112.726 84.524C112.394 84.5904 112.069 84.3716 112.003 84.0396C111.919 83.6166 111.954 83.0608 112.165 82.419C112.768 80.5918 114.661 77.9458 116.858 76.1138C118.418 74.8129 119.774 74.2989 120.911 73.9005C121.869 73.5612 122.656 73.3497 123.222 72.6243C123.596 72.1472 123.911 71.4857 123.276 71.0332C123.222 70.9939 123.175 70.9496 123.136 70.8979Z" fill="#476B76"/>
<path fill-rule="evenodd" clip-rule="evenodd" d="M145.276 74.5946C145.958 73.8651 147.359 73.0742 148.138 73.9097C148.972 74.8019 147.897 76.2673 147.525 76.6616C146.733 77.5011 144.996 78.6185 144.269 77.7271C143.336 76.5806 144.718 75.1921 145.276 74.5946Z" fill="#1E5A6C"/>
<path d="M114.926 120.326C115.565 120.56 116.272 120.233 116.506 119.595C116.74 118.957 116.412 118.251 115.774 118.016C115.136 117.782 114.429 118.109 114.195 118.747C113.961 119.385 114.288 120.092 114.926 120.326Z" fill="white"/>
<path d="M116.047 126.095C116.685 126.329 117.392 126.002 117.626 125.364C117.86 124.727 117.533 124.02 116.895 123.786C116.257 123.552 115.55 123.879 115.315 124.517C115.081 125.154 115.409 125.861 116.047 126.095Z" fill="white"/>
<path fill-rule="evenodd" clip-rule="evenodd" d="M148.48 68.4287C148.175 68.1975 147.889 67.9885 147.604 67.8041C147.385 67.6664 147.168 67.5483 146.954 67.45C146.75 67.3541 146.548 67.2803 146.349 67.2262C146.122 67.1672 145.898 67.1327 145.677 67.1327C145.216 67.1278 144.769 67.2409 144.34 67.4991C143.885 67.7746 143.447 68.2123 143.021 68.8738C142.916 69.0189 142.945 69.2255 143.09 69.3312C143.235 69.4394 143.44 69.4099 143.548 69.2648C144.121 68.5861 144.66 68.2541 145.204 68.1483C145.386 68.1115 145.566 68.109 145.753 68.1188C145.942 68.1311 146.137 68.1557 146.339 68.2025C146.577 68.2566 146.824 68.323 147.082 68.4115C147.446 68.5369 147.828 68.6771 148.234 68.8492C148.349 68.9181 148.499 68.8787 148.566 68.7631C148.635 68.6451 148.595 68.4975 148.48 68.4287Z" fill="#476B76"/>
<path d="M144.081 149.422H35.134V161.718H144.081V149.422Z" fill="#F1E7FF"/>
<path d="M144.081 149.422H35.134V151.881H144.081V149.422Z" fill="#E5D5B3"/>
<g style="mix-blend-mode:multiply">
<path fill-rule="evenodd" clip-rule="evenodd" d="M121.374 161.716H37.2863L49.8616 149.42H136.024L121.374 161.716Z" fill="#EBEFF4"/>
</g>
<path fill-rule="evenodd" clip-rule="evenodd" d="M135.887 141.69C133.239 140.876 126.391 141.234 124.736 145.451C124.474 146.119 120.592 148.052 120.282 148.602C120.106 148.916 120.875 149.382 121.722 149.321C122.646 149.252 123.686 148.648 124.21 148.822C127.28 149.836 128.479 153.428 133.328 154.138C136.517 154.607 142.59 158.415 144.551 155.291C146.297 152.503 137.719 152.258 138.912 150.642C140.047 149.111 147.533 150.218 148.911 150.633C151.061 151.278 154.052 155.199 155.928 153.19C157.533 151.474 151.611 147.574 150.4 146.934C147.977 145.658 145.114 145.229 142.598 144.065C141.21 143.42 138.063 142.362 135.887 141.69Z" fill="#D37C59"/>
<path fill-rule="evenodd" clip-rule="evenodd" d="M154.397 153.736C154.572 153.695 154.747 153.618 154.899 153.525C155.047 153.432 155.172 153.321 155.254 153.195C155.32 153.095 155.352 152.986 155.308 152.881C155.106 152.394 154.724 151.777 154.281 151.194C153.858 150.636 153.376 150.104 152.921 149.76C152.165 149.19 151.24 148.609 150.359 148.11C149.197 147.451 148.117 146.93 147.632 146.73C147.364 146.62 146.343 146.28 145.1 145.934C144.283 145.707 143.372 145.474 142.513 145.299C142.454 145.287 142.417 145.23 142.43 145.174C142.439 145.117 142.496 145.078 142.553 145.09C143.419 145.252 144.342 145.474 145.166 145.69C146.431 146.02 147.47 146.344 147.745 146.453C148.237 146.644 149.34 147.153 150.536 147.788C151.447 148.272 152.409 148.828 153.196 149.384C153.696 149.735 154.235 150.279 154.705 150.864C155.194 151.477 155.608 152.136 155.834 152.654C155.92 152.854 155.92 153.06 155.856 153.257C155.418 153.687 154.924 153.81 154.397 153.736ZM125.577 149.497C125.375 149.32 125.169 149.148 124.959 148.998C124.777 148.865 124.595 148.744 124.411 148.646C124.108 148.479 123.808 148.363 123.52 148.312C123.318 148.28 122.892 148.331 122.467 148.427C122.07 148.518 121.674 148.644 121.445 148.786C121.394 148.818 121.322 148.803 121.29 148.752C121.256 148.7 121.271 148.629 121.322 148.594C121.561 148.432 121.979 148.277 122.4 148.162C122.87 148.034 123.34 147.962 123.567 147.992C123.923 148.031 124.3 148.164 124.689 148.346C125.181 148.575 125.693 148.882 126.17 149.249C126.352 149.389 126.532 149.536 126.697 149.694C126.808 149.799 126.913 149.913 127.014 150.026C127.211 150.252 127.386 150.478 127.546 150.699C127.733 150.955 127.886 151.196 128.018 151.415C128.045 151.447 128.043 151.494 128.018 151.526C127.179 150.795 126.431 150.055 125.577 149.497ZM138.832 151.108L138.805 151.093C138.162 150.749 137.577 150.375 136.929 150.018C136.344 149.694 135.719 149.376 135.025 149.015C134.936 148.976 134.899 148.87 134.939 148.781C134.98 148.695 135.086 148.656 135.172 148.698C135.898 148.993 136.541 149.273 137.163 149.522C137.847 149.792 138.507 150.006 139.184 150.269C139.225 150.284 139.267 150.301 139.307 150.318C139.137 150.409 139.002 150.517 138.908 150.643C138.785 150.81 138.765 150.963 138.832 151.108Z" fill="#476B76"/>
<defs>
<linearGradient id="paint0_linear" x1="144.071" y1="19.6454" x2="144.071" y2="112.44" gradientUnits="userSpaceOnUse">
<stop stop-color="#F3FCFF"/>
<stop offset="1" stop-color="#A5EAFF"/>
</linearGradient>
</defs>
</svg>