<svg width="236" height="215" viewBox="0 0 236 215" fill="none" xmlns="http://www.w3.org/2000/svg">
<g clip-path="url(#clip0)">
<path d="M170.309 66.6702H153.062C152.901 66.6702 152.746 66.7338 152.633 66.847C152.519 66.9601 152.455 67.1137 152.455 67.2737V75.7239C152.455 75.884 152.519 76.0375 152.633 76.1507C152.746 76.2639 152.901 76.3275 153.062 76.3275H170.309C170.47 76.3275 170.624 76.2639 170.738 76.1507C170.852 76.0375 170.916 75.884 170.916 75.7239V67.2737C170.916 67.1137 170.852 66.9601 170.738 66.847C170.624 66.7338 170.47 66.6702 170.309 66.6702Z" stroke="#CBE8F1" stroke-width="2" stroke-linecap="round" stroke-linejoin="round"/>
<path d="M161.071 56.9917H143.827C143.666 56.9917 143.511 57.0553 143.398 57.1685C143.284 57.2817 143.22 57.4352 143.22 57.5953V66.0454C143.22 66.2055 143.284 66.359 143.398 66.4722C143.511 66.5854 143.666 66.649 143.827 66.649H161.071C161.232 66.649 161.386 66.5854 161.5 66.4722C161.614 66.359 161.678 66.2055 161.678 66.0454V57.5953C161.678 57.4352 161.614 57.2817 161.5 57.1685C161.386 57.0553 161.232 56.9917 161.071 56.9917Z" stroke="#CBE8F1" stroke-width="2" stroke-linecap="round" stroke-linejoin="round"/>
<path d="M151.833 66.6702H134.589C134.428 66.6702 134.273 66.7338 134.16 66.847C134.046 66.9601 133.982 67.1137 133.982 67.2737V75.7239C133.982 75.884 134.046 76.0375 134.16 76.1507C134.273 76.2639 134.428 76.3275 134.589 76.3275H151.833C151.994 76.3275 152.148 76.2639 152.262 76.1507C152.376 76.0375 152.44 75.884 152.44 75.7239V67.2737C152.44 67.1137 152.376 66.9601 152.262 66.847C152.148 66.7338 151.994 66.6702 151.833 66.6702Z" stroke="#CBE8F1" stroke-width="2" stroke-linecap="round" stroke-linejoin="round"/>
<path d="M179.252 76.3456H162.008C161.847 76.3456 161.693 76.4092 161.579 76.5224C161.465 76.6356 161.401 76.7891 161.401 76.9492V85.3993C161.401 85.5594 161.465 85.7129 161.579 85.8261C161.693 85.9393 161.847 86.0029 162.008 86.0029H179.252C179.413 86.0029 179.568 85.9393 179.682 85.8261C179.795 85.7129 179.859 85.5594 179.859 85.3993V76.9492C179.859 76.7891 179.795 76.6356 179.682 76.5224C179.568 76.4092 179.413 76.3456 179.252 76.3456Z" stroke="#CBE8F1" stroke-width="2" stroke-linecap="round" stroke-linejoin="round"/>
<path fill-rule="evenodd" clip-rule="evenodd" d="M150.647 180.164H209.084C209.47 180.164 209.841 180.317 210.114 180.589C210.387 180.86 210.54 181.229 210.54 181.613C210.539 181.997 210.386 182.364 210.113 182.635C209.84 182.906 209.47 183.059 209.084 183.059H150.647C150.261 183.059 149.891 182.906 149.618 182.635C149.345 182.364 149.191 181.997 149.19 181.613C149.19 181.229 149.344 180.86 149.617 180.589C149.89 180.317 150.26 180.164 150.647 180.164Z" fill="white"/>
<path fill-rule="evenodd" clip-rule="evenodd" d="M59.4532 188.88H117.9C118.091 188.88 118.28 188.917 118.456 188.989C118.633 189.062 118.793 189.168 118.928 189.303C119.063 189.437 119.17 189.596 119.243 189.772C119.316 189.947 119.353 190.136 119.353 190.326C119.353 190.516 119.316 190.704 119.243 190.879C119.17 191.055 119.063 191.214 118.928 191.349C118.793 191.483 118.633 191.589 118.456 191.662C118.28 191.734 118.091 191.772 117.9 191.771H59.4532C59.0678 191.771 58.6982 191.619 58.4256 191.348C58.1531 191.077 58 190.709 58 190.326V190.326C58 189.942 58.1531 189.575 58.4256 189.303C58.6982 189.032 59.0678 188.88 59.4532 188.88Z" fill="white"/>
<path fill-rule="evenodd" clip-rule="evenodd" d="M186.785 181.293C181.913 181.295 177.147 182.716 173.077 185.381C169.006 188.046 165.809 191.838 163.88 196.289C162.31 195.029 160.357 194.338 158.34 194.327C156.323 194.317 154.362 194.988 152.779 196.232C151.681 193.629 149.871 191.384 147.556 189.752C145.24 188.12 142.511 187.166 139.679 186.999C136.846 186.831 134.022 187.456 131.529 188.803C129.035 190.15 126.97 192.165 125.569 194.62C124.11 193.723 122.469 193.161 120.764 192.975C119.059 192.789 117.334 192.984 115.715 193.545C114.095 194.106 112.622 195.02 111.402 196.219C110.183 197.418 109.247 198.873 108.665 200.478C108.932 200.478 109.183 200.402 109.453 200.402H224.954C224.531 198.858 223.715 197.448 222.584 196.31C221.454 195.171 220.047 194.342 218.5 193.903C216.952 193.464 215.317 193.43 213.753 193.803C212.189 194.177 210.748 194.946 209.569 196.036C207.612 191.649 204.418 187.922 200.374 185.305C196.33 182.689 191.61 181.295 186.785 181.293Z" fill="#DBE0E1"/>
<path fill-rule="evenodd" clip-rule="evenodd" d="M102.406 197.511H234.547C234.933 197.512 235.302 197.665 235.575 197.937C235.847 198.208 236 198.576 236 198.96C235.999 199.343 235.846 199.71 235.574 199.981C235.301 200.252 234.932 200.405 234.547 200.405H102.406C102.021 200.405 101.652 200.252 101.379 199.981C101.107 199.71 100.954 199.343 100.953 198.96C100.953 198.576 101.106 198.208 101.378 197.937C101.651 197.665 102.02 197.512 102.406 197.511Z" fill="#DBE0E1"/>
<path fill-rule="evenodd" clip-rule="evenodd" d="M80.9569 180.934L77.113 186.291L85.0313 196.162L88.6719 189.825L80.9569 180.934Z" fill="#D37C59"/>
<path fill-rule="evenodd" clip-rule="evenodd" d="M76.7582 183.855L67.6567 194.315L81.9551 210.914C81.9551 210.914 91.4449 210.811 94.4423 210.811C94.3816 207.19 91.7361 199.687 84.37 199.977C85.8566 197.381 86.9124 195.242 86.9124 195.242L76.7582 183.855Z" fill="#349CBC"/>
<path d="M84.3639 199.986C80.247 198.721 78.3751 200.369 75.4869 203.417C73.4694 205.548 69.2646 205.367 66.6888 204.145" stroke="#297B94" stroke-width="2" stroke-linecap="round" stroke-linejoin="round"/>
<path d="M74.9287 213.289C76.2855 213.868 77.6865 214.34 79.1184 214.698C82.8864 211.379 85.1163 203.499 84.4094 199.986" stroke="#297B94" stroke-width="2" stroke-linecap="round" stroke-linejoin="round"/>
<path d="M73.081 187.972C73.9712 188.642 74.6614 189.54 75.0777 190.571C75.494 191.601 75.6208 192.725 75.4443 193.822C75.2679 194.918 74.795 195.947 74.0763 196.796C73.3575 197.646 72.4199 198.286 71.3639 198.646" stroke="#297B94" stroke-width="2" stroke-linecap="round" stroke-linejoin="round"/>
<path d="M69.2433 192.483L83.3172 207.772L93.7444 207.169" stroke="#297B94" stroke-width="2" stroke-linecap="round" stroke-linejoin="round"/>
<path fill-rule="evenodd" clip-rule="evenodd" d="M103.647 136.673L79.5825 180.545L88.7962 191.273L132.28 146.638L122.736 133.221L103.647 136.673Z" fill="#F2CC0D"/>
<path d="M93.7991 186.14L83.0654 174.192" stroke="#FF6697" stroke-width="2" stroke-linecap="round" stroke-linejoin="round"/>
<path fill-rule="evenodd" clip-rule="evenodd" d="M122.733 133.224L103.65 136.676L93.9417 154.388L110.606 153.993L116.04 163.309L132.28 146.644L122.733 133.224Z" fill="#C2A30A"/>
<path d="M83.6539 185.286C93.5138 173.797 123.7 138.78 123.7 138.78" stroke="#FF6697" stroke-width="2" stroke-linecap="round" stroke-linejoin="round"/>
<path fill-rule="evenodd" clip-rule="evenodd" d="M149.19 195.329L152.097 201.365L165.124 199.02L162.97 191.75L149.19 195.329Z" fill="#D37C59"/>
<path fill-rule="evenodd" clip-rule="evenodd" d="M150.164 201.389L154.615 214.064C154.615 214.064 180.363 208.934 182.32 208.43C178.679 199.92 171.21 201.347 167.933 202.162C167.112 200.612 166.379 199.017 165.737 197.385L150.164 201.389Z" fill="#349CBC"/>
<path d="M167.715 199.247C168.243 197.539 169.468 196.401 170.445 196.703C171.422 197.004 171.798 198.628 171.271 200.324C170.743 202.02 169.517 203.167 168.54 202.868C167.563 202.569 167.187 200.952 167.715 199.247Z" stroke="#297B94" stroke-width="2" stroke-linecap="round" stroke-linejoin="round"/>
<path d="M172.029 199.029C173.394 197.638 175.093 197.2 175.827 198.054C176.562 198.908 176.046 200.728 174.681 202.12C173.315 203.511 171.616 203.951 170.882 203.097C170.148 202.243 170.664 200.429 172.029 199.029Z" stroke="#297B94" stroke-width="2" stroke-linecap="round" stroke-linejoin="round"/>
<path fill-rule="evenodd" clip-rule="evenodd" d="M160.152 99.511C161.766 100.809 163.44 102.354 165.591 103.163C168.807 103.938 174.693 110.354 174.693 111.737C174.693 113.046 173.519 113.487 172.787 113.547C172.156 113.586 170.812 112.135 170.473 111.721C171.058 113.049 171.398 114.848 170.749 115.412C170.1 115.977 169.165 116.173 168.528 115.443C167.481 114.235 167.739 112.865 167.642 112.062C167.126 111.082 165.722 108.9 165.127 108.634C164.711 108.655 164.087 108.8 163.968 109.461C163.85 110.122 165.394 111.598 165.567 112.213C165.567 112.995 164.708 113.988 163.968 113.792C163.125 113.568 160.516 111.048 159.939 110.36C159.163 109.434 158.811 107.415 158.395 106.739C157.979 106.063 156.365 104.626 156.065 104.325C155.765 104.023 158.541 98.2103 160.152 99.511Z" fill="#D37C59"/>
<path fill-rule="evenodd" clip-rule="evenodd" d="M144.042 67.8743C149.84 72.7724 158.516 92.0628 164.092 96.81C163.51 99.7886 154.272 110.882 147.743 108.239C139.564 104.925 139.664 64.1774 144.042 67.8743Z" fill="#133844"/>
<path fill-rule="evenodd" clip-rule="evenodd" d="M148.547 95.3704L165.737 192.465L147.728 196.69L124.08 134.962L129.953 92.0627L148.547 95.3704Z" fill="#F2CC0D"/>
<path d="M133.369 159.208L124.914 137.135" stroke="#FF6697" stroke-width="2" stroke-linecap="round" stroke-linejoin="round"/>
<path d="M155.558 194.855L127.778 107.952" stroke="#FF6697" stroke-width="2" stroke-linecap="round" stroke-linejoin="round"/>
<path d="M150.07 103.984C147.643 104.995 135.204 107.279 130.399 106.778" stroke="#FF6697" stroke-width="2" stroke-linecap="round" stroke-linejoin="round"/>
<path fill-rule="evenodd" clip-rule="evenodd" d="M97.9098 80.812L130.526 84.2554C132.471 84.4606 133.864 86.2834 133.651 88.3296L128.354 137.959C128.136 140.002 126.385 141.493 124.441 141.279L91.824 137.847C89.8793 137.642 88.4868 135.819 88.6991 133.773L93.9931 84.1438C94.2116 82.0976 95.9651 80.6189 97.9098 80.812Z" fill="#349CBC"/>
<path d="M98.9808 111.051C98.9808 108.604 99.7103 106.212 101.077 104.177C102.444 102.142 104.387 100.556 106.659 99.6199C108.932 98.6833 111.433 98.4383 113.846 98.9157C116.259 99.3932 118.475 100.572 120.215 102.302C121.954 104.033 123.139 106.237 123.619 108.637C124.099 111.038 123.853 113.526 122.911 115.786C121.97 118.047 120.376 119.98 118.33 121.339C116.284 122.699 113.88 123.425 111.419 123.425C108.121 123.425 104.957 122.121 102.624 119.801C100.291 117.48 98.9808 114.333 98.9808 111.051Z" stroke="#297B94" stroke-width="2" stroke-linecap="round" stroke-linejoin="round"/>
<path fill-rule="evenodd" clip-rule="evenodd" d="M110.619 25.3611C110.619 22.2798 112.363 19.781 114.517 19.781C116.671 19.781 118.418 22.2798 118.418 25.3611C118.418 28.4424 116.671 30.9412 114.517 30.9412C112.363 30.9412 110.619 28.4424 110.619 25.3611Z" fill="#D37C59"/>
<path fill-rule="evenodd" clip-rule="evenodd" d="M112.815 28.2886C112.815 25.837 113.546 23.4406 114.915 21.4022C116.284 19.3639 118.231 17.7753 120.507 16.8372C122.784 15.8992 125.29 15.6539 127.707 16.1324C130.124 16.6109 132.344 17.7917 134.086 19.5254C135.829 21.2591 137.015 23.4679 137.496 25.8724C137.976 28.2769 137.729 30.7691 136.786 33.0338C135.842 35.2986 134.244 37.2341 132.195 38.5957C130.146 39.9573 127.736 40.6837 125.272 40.6831C123.636 40.6831 122.016 40.3625 120.504 39.7396C118.993 39.1166 117.619 38.2036 116.463 37.0526C115.306 35.9017 114.388 34.5353 113.762 33.0315C113.137 31.5278 112.815 29.9161 112.815 28.2886Z" fill="#D37C59"/>
<path fill-rule="evenodd" clip-rule="evenodd" d="M108.598 107.382C108.019 109.304 106.141 113.303 107.928 120.458C104.542 125.664 106.122 129.331 113.877 130.251C115.181 128.667 116.489 127.629 117.945 125.341C118.418 123.283 118.376 120.123 118.418 119.266C118.5 117.534 115.949 110.68 116.583 107.602C117.217 104.524 109.177 105.456 108.598 107.382Z" fill="#D37C59"/>
<path fill-rule="evenodd" clip-rule="evenodd" d="M124.058 44.8417C106.135 44.8417 99.3115 82.3089 101.268 106.283C104.985 108.616 119.817 109.524 124.058 108.417C124.968 104.207 125.272 86.5883 125.475 83.7213C135.374 84.687 133.666 86.2111 132.471 99.3902C137.629 99.5683 144.576 98.1831 149.764 96.0162C150.492 86.9806 145.152 44.8417 124.058 44.8417Z" fill="#133844"/>
<path d="M98.9808 83.0846L101.347 60.5559C101.717 57.0318 103.48 53.7983 106.246 51.5667C109.013 49.3351 112.558 48.2882 116.101 48.6563L118.64 48.9189C122.183 49.2871 125.433 51.0402 127.677 53.7925C129.92 56.5448 130.972 60.0708 130.602 63.595L128.175 86.7574" stroke="#349CBC" stroke-width="6.77" stroke-linecap="round" stroke-linejoin="round"/>
<path fill-rule="evenodd" clip-rule="evenodd" d="M116.725 35.5404C117.66 39.5331 117.893 45.1555 117.739 47.3646C120.114 48.7589 126.273 49.7276 129.234 45.7742C127.832 42.4032 127.52 40.7735 127.638 38.833C127.756 36.8925 115.791 31.5478 116.725 35.5404Z" fill="#D37C59"/>
<path fill-rule="evenodd" clip-rule="evenodd" d="M129.716 25.9768C129.716 24.9024 130.068 24.0303 130.502 24.0303C130.936 24.0303 131.288 24.9024 131.288 25.9768C131.288 27.0512 130.936 27.9234 130.502 27.9234C130.068 27.9234 129.716 27.0512 129.716 25.9768Z" fill="#CB5D66"/>
<path d="M124.726 101.717C121.841 102.131 106.144 101.455 100.953 99.33" stroke="#BEC7CA" stroke-width="2" stroke-linecap="round" stroke-linejoin="round"/>
<path d="M125.475 83.7212C125.272 77.8152 130.675 58.6394 119.996 50.7537" stroke="#BEC7CA" stroke-width="2" stroke-linecap="round" stroke-linejoin="round"/>
<path d="M125.478 83.688L119.996 86.0238" stroke="#BEC7CA" stroke-width="2" stroke-linecap="round" stroke-linejoin="round"/>
<path d="M120.236 83.1691L125.493 83.5373" stroke="#BEC7CA" stroke-width="2" stroke-linecap="round" stroke-linejoin="round"/>
<path d="M121.015 79.4901L125.499 83.4979" stroke="#BEC7CA" stroke-width="2" stroke-linecap="round" stroke-linejoin="round"/>
<path d="M149.779 96.0102C150.082 92.0598 149.245 81.7838 146.442 71.4686" stroke="#BEC7CA" stroke-width="2" stroke-linecap="round" stroke-linejoin="round"/>
<path d="M159.97 92.0236C157.543 96.2848 151.778 100.887 149.685 101.802" stroke="#BEC7CA" stroke-width="2" stroke-linecap="round" stroke-linejoin="round"/>
<path d="M143.095 105.616C142.841 104.089 141.924 98.4185 141.924 98.4185" stroke="#FF6697" stroke-width="2" stroke-linecap="round" stroke-linejoin="round"/>
<path d="M164.666 186.427L144.979 189.517" stroke="#FF6697" stroke-width="2" stroke-linecap="round" stroke-linejoin="round"/>
<path d="M159.026 154.349C158.677 154.388 158.327 154.407 157.976 154.407C155.653 154.407 153.411 153.561 151.672 152.028C149.934 150.496 148.82 148.382 148.541 146.088C148.263 143.794 148.838 141.478 150.16 139.578C151.481 137.677 153.457 136.324 155.713 135.774" stroke="#FF6697" stroke-width="2" stroke-linecap="round" stroke-linejoin="round"/>
<path d="M153.768 211.659L181.306 206.465" stroke="#297B94" stroke-width="2" stroke-linecap="round" stroke-linejoin="round"/>
<path d="M151.566 205.705C152.499 205.341 153.508 205.209 154.504 205.32C155.5 205.432 156.454 205.784 157.282 206.346C158.11 206.908 158.788 207.663 159.256 208.544C159.725 209.426 159.97 210.408 159.97 211.406C159.97 211.937 159.902 212.467 159.766 212.981" stroke="#297B94" stroke-width="2" stroke-linecap="round" stroke-linejoin="round"/>
<path fill-rule="evenodd" clip-rule="evenodd" d="M110.394 30.6485C110.393 29.8586 110.628 29.0862 111.069 28.4292C111.51 27.7721 112.137 27.2599 112.87 26.9573C113.604 26.6548 114.411 26.5754 115.19 26.7294C115.969 26.8834 116.684 27.2637 117.246 27.8223C117.807 28.3808 118.19 29.0925 118.344 29.8673C118.499 30.6421 118.419 31.4452 118.115 32.1748C117.811 32.9045 117.296 33.5281 116.636 33.9666C115.975 34.4051 115.199 34.6388 114.405 34.6382C113.341 34.6374 112.321 34.2168 111.57 33.4688C110.818 32.7207 110.395 31.7064 110.394 30.6485Z" fill="#D37C59"/>
<path d="M118.243 31.8164C117.991 32.6334 117.482 33.3484 116.791 33.8563C116.1 34.3642 115.264 34.6383 114.405 34.6381" stroke="#CB5D66" stroke-width="2" stroke-linecap="round" stroke-linejoin="round"/>
<path d="M134.901 35.7316C134.047 35.7742 133.201 35.5407 132.488 35.0653C131.774 34.5898 131.231 33.8976 130.937 33.0903" stroke="#CB5D66" stroke-width="2" stroke-linecap="round" stroke-linejoin="round"/>
<path d="M111.24 28.1951C111.82 27.4552 112.642 26.9422 113.564 26.7465" stroke="#CB5D66" stroke-width="2" stroke-linecap="round" stroke-linejoin="round"/>
<path fill-rule="evenodd" clip-rule="evenodd" d="M120.8 10.6458C119.082 11.0394 117.459 11.7657 116.023 12.7834C114.588 13.801 113.368 15.0899 112.433 16.5767C111.498 18.0634 110.867 19.7187 110.575 21.4481C110.284 23.1775 110.338 24.9471 110.734 26.6558L136.894 20.6592C136.499 18.9504 135.768 17.3359 134.746 15.9078C133.723 14.4797 132.427 13.2661 130.932 12.3362C129.438 11.4064 127.774 10.7785 126.035 10.4885C124.297 10.1984 122.518 10.2519 120.8 10.6458Z" fill="#F2CC0D"/>
<path fill-rule="evenodd" clip-rule="evenodd" d="M126.949 18.7308L145.853 14.3971C147.419 14.035 148.887 14.6416 149.154 15.7431C149.409 16.8476 148.347 18.0337 146.778 18.3958L127.875 22.7295C126.306 23.0887 124.841 22.4851 124.574 21.3805C124.316 20.276 125.381 19.0899 126.949 18.7308Z" fill="#F2CC0D"/>
<path d="M107.375 127.825C108.183 126.973 108.907 126.046 109.538 125.057" stroke="#CB5D66" stroke-width="2" stroke-linecap="round" stroke-linejoin="round"/>
<path d="M110.725 129.633C111.999 128.407 113.865 125.821 114.817 124.27" stroke="#CB5D66" stroke-width="2" stroke-linecap="round" stroke-linejoin="round"/>
<path d="M164.332 108.866C166.244 107.288 169.226 110.52 170.582 111.824" stroke="#CB5D66" stroke-width="2" stroke-linecap="round" stroke-linejoin="round"/>
<path d="M115.099 32.2722C114.881 32.3685 114.644 32.4178 114.405 32.4171C114.138 32.4175 113.875 32.3566 113.636 32.2392C113.397 32.1218 113.189 31.951 113.027 31.7402C112.865 31.5294 112.755 31.2843 112.704 31.024C112.654 30.7637 112.664 30.4952 112.735 30.2396C112.806 29.984 112.935 29.7482 113.113 29.5505C113.29 29.3528 113.511 29.1987 113.759 29.1001C114.006 29.0015 114.273 28.9611 114.539 28.9821C114.805 29.0031 115.062 29.0849 115.291 29.2211" stroke="#CB5D66" stroke-width="2" stroke-linecap="round" stroke-linejoin="round"/>
<path d="M127.189 10.7303C125.315 10.2476 123.358 10.1738 121.452 10.5139C119.546 10.8539 117.737 11.5999 116.148 12.7006C114.559 13.8013 113.228 15.2307 112.247 16.8909C111.265 18.5511 110.656 20.4028 110.461 22.3191" stroke="#FF6697" stroke-width="2" stroke-linecap="round" stroke-linejoin="round"/>
<path d="M137.207 24.7214C137.984 25.748 138.55 26.9172 138.872 28.1618C139.088 28.9827 138.9 29.5591 137.489 30.7361C137.21 34.4874 134.495 39.9467 127.687 40.6107" stroke="#C9C9C9" stroke-width="2" stroke-linecap="round" stroke-linejoin="round"/>
</g>
<path d="M35.8168 19H2.18324C1.86942 19 1.56846 19.1317 1.34656 19.3661C1.12466 19.6005 1 19.9185 1 20.25V37.75C1 38.0815 1.12466 38.3995 1.34656 38.6339C1.56846 38.8683 1.86942 39 2.18324 39H35.8168C36.1306 39 36.4315 38.8683 36.6534 38.6339C36.8753 38.3995 37 38.0815 37 37.75V20.25C37 19.9185 36.8753 19.6005 36.6534 19.3661C36.4315 19.1317 36.1306 19 35.8168 19Z" stroke="#CBE8F1" stroke-width="2" stroke-linecap="round" stroke-linejoin="round"/>
<path d="M61.8166 1H28.1834C27.8696 1 27.5686 1.11853 27.3466 1.3295C27.1247 1.54048 27 1.82663 27 2.125V17.875C27 18.1734 27.1247 18.4595 27.3466 18.6705C27.5686 18.8815 27.8696 19 28.1834 19H61.8166C62.1304 19 62.4314 18.8815 62.6534 18.6705C62.8753 18.4595 63 18.1734 63 17.875V2.125C63 1.82663 62.8753 1.54048 62.6534 1.3295C62.4314 1.11853 62.1304 1 61.8166 1Z" stroke="#CBE8F1" stroke-width="2" stroke-linecap="round" stroke-linejoin="round"/>
<path d="M51.8494 39H19.1506C18.8454 39 18.5528 39.1185 18.337 39.3295C18.1212 39.5405 18 39.8266 18 40.125V55.875C18 56.1734 18.1212 56.4595 18.337 56.6705C18.5528 56.8815 18.8454 57 19.1506 57H51.8494C52.1546 57 52.4472 56.8815 52.663 56.6705C52.8788 56.4595 53 56.1734 53 55.875V40.125C53 39.8266 52.8788 39.5405 52.663 39.3295C52.4472 39.1185 52.1546 39 51.8494 39Z" stroke="#CBE8F1" stroke-width="2" stroke-linecap="round" stroke-linejoin="round"/>
<defs>
<clipPath id="clip0">
<rect width="178" height="205" fill="white" transform="translate(58 10)"/>
</clipPath>
</defs>
</svg>
