<svg width="275" height="163" viewBox="0 0 275 163" fill="none" xmlns="http://www.w3.org/2000/svg">
<g filter="url(#filter0_ddd)">
<g clip-path="url(#clip0)">
<rect x="6" y="5" width="262.5" height="150" rx="8" fill="#DCFFEA"/>
<rect x="6" y="124" width="263" height="31" fill="white"/>
<path d="M100.169 124H99V153.6H100.169V124Z" fill="#DBE0E1"/>
<path d="M103.677 124H102.508V153.6H103.677V124Z" fill="#DBE0E1"/>
<path d="M107.185 124H106.016V153.6H107.185V124Z" fill="#DBE0E1"/>
<path d="M110.692 124H108.354V153.6H110.692V124Z" fill="#DBE0E1"/>
<path d="M113.031 124H111.861V153.6H113.031V124Z" fill="#DBE0E1"/>
<path d="M116.539 124H114.2V153.6H116.539V124Z" fill="#DBE0E1"/>
<path d="M120.046 124H118.877V153.6H120.046V124Z" fill="#DBE0E1"/>
<path d="M123.554 124H122.385V153.6H123.554V124Z" fill="#DBE0E1"/>
<path d="M125.892 124H124.723V153.6H125.892V124Z" fill="#DBE0E1"/>
<path d="M128.231 124H127.062V153.6H128.231V124Z" fill="#DBE0E1"/>
<path d="M131.739 124H130.569V153.6H131.739V124Z" fill="#DBE0E1"/>
<path d="M136.416 124H134.077V153.6H136.416V124Z" fill="#DBE0E1"/>
<path d="M138.754 124H137.585V153.6H138.754V124Z" fill="#DBE0E1"/>
<path d="M141.092 124H139.923V153.6H141.092V124Z" fill="#DBE0E1"/>
<path d="M145.769 124H143.431V153.6H145.769V124Z" fill="#DBE0E1"/>
<path d="M149.277 124H148.107V153.6H149.277V124Z" fill="#DBE0E1"/>
<path d="M151.616 124H150.446V153.6H151.616V124Z" fill="#DBE0E1"/>
<path d="M155.123 124H153.954V153.6H155.123V124Z" fill="#DBE0E1"/>
<path d="M158.631 124H157.462V153.6H158.631V124Z" fill="#DBE0E1"/>
<path d="M162.138 124H159.8V153.6H162.138V124Z" fill="#DBE0E1"/>
<path d="M164.477 124H163.308V153.6H164.477V124Z" fill="#DBE0E1"/>
<path d="M167.985 124H165.646V153.6H167.985V124Z" fill="#DBE0E1"/>
<path d="M171.492 124H170.323V153.6H171.492V124Z" fill="#DBE0E1"/>
<path d="M175 124H173.831V153.6H175V124Z" fill="#DBE0E1"/>
<rect x="96" y="40" width="61" height="8" rx="4" fill="#DBE0E1"/>
<rect x="96" y="82" width="61" height="8" rx="4" fill="#DBE0E1"/>
<rect x="96" y="56" width="95" height="8" rx="4" fill="#DBE0E1"/>
<rect x="96" y="98" width="95" height="8" rx="4" fill="#DBE0E1"/>
<path d="M204.494 135.92L202.034 131.912H203.174L205.034 135.044C205.066 134.98 205.382 134.448 205.982 133.448C206.582 132.44 206.886 131.928 206.894 131.912H208.046L205.598 135.92L208.31 140H207.17L205.058 136.748C205.05 136.764 204.722 137.292 204.074 138.332C203.426 139.372 203.082 139.928 203.042 140H201.89L204.494 135.92ZM214.253 135.92L211.793 131.912H212.933L214.793 135.044C214.825 134.98 215.141 134.448 215.741 133.448C216.341 132.44 216.645 131.928 216.653 131.912H217.805L215.357 135.92L218.069 140H216.929L214.817 136.748C214.809 136.764 214.481 137.292 213.833 138.332C213.185 139.372 212.841 139.928 212.801 140H211.649L214.253 135.92ZM224.013 135.92L221.553 131.912H222.693L224.553 135.044C224.585 134.98 224.901 134.448 225.501 133.448C226.101 132.44 226.405 131.928 226.413 131.912H227.565L225.117 135.92L227.829 140H226.689L224.577 136.748C224.569 136.764 224.241 137.292 223.593 138.332C222.945 139.372 222.601 139.928 222.561 140H221.409L224.013 135.92ZM233.772 135.92L231.312 131.912H232.452L234.312 135.044C234.344 134.98 234.66 134.448 235.26 133.448C235.86 132.44 236.164 131.928 236.172 131.912H237.324L234.876 135.92L237.588 140H236.448L234.336 136.748C234.328 136.764 234 137.292 233.352 138.332C232.704 139.372 232.36 139.928 232.32 140H231.168L233.772 135.92ZM243.531 135.92L241.071 131.912H242.211L244.071 135.044C244.103 134.98 244.419 134.448 245.019 133.448C245.619 132.44 245.923 131.928 245.931 131.912H247.083L244.635 135.92L247.347 140H246.207L244.095 136.748C244.087 136.764 243.759 137.292 243.111 138.332C242.463 139.372 242.119 139.928 242.079 140H240.927L243.531 135.92ZM253.291 135.92L250.831 131.912H251.971L253.831 135.044C253.863 134.98 254.179 134.448 254.779 133.448C255.379 132.44 255.683 131.928 255.691 131.912H256.843L254.395 135.92L257.107 140H255.967L253.855 136.748C253.847 136.764 253.519 137.292 252.871 138.332C252.223 139.372 251.879 139.928 251.839 140H250.687L253.291 135.92Z" fill="black"/>
<path d="M110.397 12.36H111.207L111.947 14.76L112.967 18.18C113.274 16.7067 113.52 15.57 113.707 14.77L114.277 12.26H115.097L113.517 19H112.477L111.827 16.87L110.817 13.5C110.61 14.2867 110.29 15.41 109.857 16.87L109.227 19H108.197L106.437 12.26H107.287L107.917 14.76L108.747 18.15C109.12 16.7833 109.437 15.6533 109.697 14.76L110.397 12.36ZM116.142 15.6C116.142 14.54 116.412 13.6967 116.952 13.07C117.499 12.4433 118.235 12.13 119.162 12.13C120.109 12.13 120.849 12.4433 121.382 13.07C121.922 13.69 122.192 14.5333 122.192 15.6C122.192 16.66 121.919 17.5067 121.372 18.14C120.832 18.7667 120.099 19.08 119.172 19.08C118.259 19.08 117.525 18.7633 116.972 18.13C116.419 17.4967 116.142 16.6533 116.142 15.6ZM116.992 15.6C116.992 16.4333 117.189 17.0933 117.582 17.58C117.982 18.0667 118.512 18.31 119.172 18.31C119.859 18.31 120.389 18.07 120.762 17.59C121.142 17.11 121.332 16.4467 121.332 15.6C121.332 14.7533 121.142 14.09 120.762 13.61C120.382 13.13 119.849 12.89 119.162 12.89C118.482 12.89 117.949 13.1333 117.562 13.62C117.182 14.1 116.992 14.76 116.992 15.6ZM124.444 12.96V15.65H125.464C125.924 15.65 126.274 15.5267 126.514 15.28C126.761 15.0267 126.884 14.7033 126.884 14.31C126.884 13.41 126.381 12.96 125.374 12.96H124.444ZM128.114 19H127.144L125.494 16.34H125.414H124.444V19H123.634V12.26H125.324C126.104 12.26 126.694 12.4433 127.094 12.81C127.501 13.1767 127.704 13.6833 127.704 14.33C127.691 14.7967 127.567 15.1933 127.334 15.52C127.101 15.8467 126.771 16.0767 126.344 16.21L128.114 19ZM129.312 19V12.26H130.122V19H129.312ZM131.282 15.67L133.992 19H132.942L130.282 15.67L132.852 12.26H133.852L131.282 15.67ZM138.696 15.83H139.736C140.243 15.83 140.64 15.7 140.926 15.44C141.213 15.1733 141.356 14.8367 141.356 14.43C141.356 13.9767 141.21 13.6167 140.916 13.35C140.623 13.0833 140.206 12.95 139.666 12.95H138.696V15.83ZM137.886 12.26H139.656C140.436 12.26 141.05 12.4633 141.496 12.87C141.95 13.27 142.176 13.79 142.176 14.43C142.176 15.03 141.953 15.53 141.506 15.93C141.06 16.3233 140.47 16.52 139.736 16.52H138.696V19H137.886V12.26ZM144.345 18.29H147.295V19H143.535V12.26H147.245V12.97H144.345V15.28H146.905V15.99H144.345V18.29ZM149.555 12.96V15.65H150.575C151.035 15.65 151.385 15.5267 151.625 15.28C151.872 15.0267 151.995 14.7033 151.995 14.31C151.995 13.41 151.492 12.96 150.485 12.96H149.555ZM153.225 19H152.255L150.605 16.34H150.525H149.555V19H148.745V12.26H150.435C151.215 12.26 151.805 12.4433 152.205 12.81C152.612 13.1767 152.815 13.6833 152.815 14.33C152.802 14.7967 152.679 15.1933 152.445 15.52C152.212 15.8467 151.882 16.0767 151.455 16.21L153.225 19ZM154.354 19L154.844 12.26H155.874L156.764 14.72L157.844 17.86C158.23 16.7667 158.61 15.72 158.984 14.72L159.914 12.26H160.944L161.534 19H160.724L160.494 16.34L160.254 13.35C159.9 14.3367 159.537 15.3333 159.164 16.34L158.224 18.85H157.454L156.564 16.34L155.544 13.41C155.544 13.67 155.48 14.6467 155.354 16.34L155.164 19H154.354ZM163.258 19V12.26H164.068V19H163.258ZM169.729 12.26V12.97H167.909V19H167.099V12.97H165.279V12.26H169.729Z" fill="black"/>
<rect x="19" y="32" width="64" height="81" rx="6" fill="white"/>
<path d="M23 113C23 105.624 25.95 98.551 31.201 93.3357C36.452 88.1204 43.5739 85.1905 51 85.1905C58.4261 85.1905 65.548 88.1204 70.799 93.3357C76.05 98.551 79 105.624 79 113H23ZM51 81.7143C39.3975 81.7143 30 72.3807 30 60.8571C30 49.3336 39.3975 40 51 40C62.6025 40 72 49.3336 72 60.8571C72 72.3807 62.6025 81.7143 51 81.7143Z" fill="#DBE0E1" fill-opacity="0.5"/>
<line x1="5" y1="24.5" x2="269" y2="24.5" stroke="#DBE0E1"/>
</g>
<rect x="5.5" y="4.5" width="263.5" height="151" rx="8.5" stroke="#DBE0E1"/>
</g>
<path d="M273.5 135C273.5 140.781 268.747 146.152 260.745 150.108C252.774 154.049 241.728 156.5 229.5 156.5C217.272 156.5 206.226 154.049 198.255 150.108C190.253 146.152 185.5 140.781 185.5 135C185.5 129.219 190.253 123.848 198.255 119.892C206.226 115.951 217.272 113.5 229.5 113.5C241.728 113.5 252.774 115.951 260.745 119.892C268.747 123.848 273.5 129.219 273.5 135Z" stroke="#297B94"/>
<defs>
<filter id="filter0_ddd" x="0" y="0" width="274.5" height="163" filterUnits="userSpaceOnUse" color-interpolation-filters="sRGB">
<feFlood flood-opacity="0" result="BackgroundImageFix"/>
<feColorMatrix in="SourceAlpha" type="matrix" values="0 0 0 0 0 0 0 0 0 0 0 0 0 0 0 0 0 0 127 0"/>
<feOffset dy="1"/>
<feGaussianBlur stdDeviation="2.5"/>
<feColorMatrix type="matrix" values="0 0 0 0 0 0 0 0 0 0 0 0 0 0 0 0 0 0 0.2 0"/>
<feBlend mode="normal" in2="BackgroundImageFix" result="effect1_dropShadow"/>
<feColorMatrix in="SourceAlpha" type="matrix" values="0 0 0 0 0 0 0 0 0 0 0 0 0 0 0 0 0 0 127 0"/>
<feOffset dy="3"/>
<feGaussianBlur stdDeviation="2"/>
<feColorMatrix type="matrix" values="0 0 0 0 0 0 0 0 0 0 0 0 0 0 0 0 0 0 0.12 0"/>
<feBlend mode="normal" in2="effect1_dropShadow" result="effect2_dropShadow"/>
<feColorMatrix in="SourceAlpha" type="matrix" values="0 0 0 0 0 0 0 0 0 0 0 0 0 0 0 0 0 0 127 0"/>
<feOffset dy="2"/>
<feGaussianBlur stdDeviation="2"/>
<feColorMatrix type="matrix" values="0 0 0 0 0 0 0 0 0 0 0 0 0 0 0 0 0 0 0.14 0"/>
<feBlend mode="normal" in2="effect2_dropShadow" result="effect3_dropShadow"/>
<feBlend mode="normal" in="SourceGraphic" in2="effect3_dropShadow" result="shape"/>
</filter>
<clipPath id="clip0">
<rect x="6" y="5" width="262.5" height="150" rx="8" fill="white"/>
</clipPath>
</defs>
</svg>
