<svg width="40" height="40" viewBox="0 0 40 40"  xmlns="http://www.w3.org/2000/svg">
<g id="Call Home - Icon">
<path id="Vector" d="M26.2426 3H14.6292C13.6667 3 12.7436 3.38312 12.063 4.06507C11.3824 4.74702 11 5.67194 11 6.63636V31.3636C11 32.3281 11.3824 33.253 12.063 33.9349C12.7436 34.6169 13.6667 35 14.6292 35H26.2426C27.2051 35 28.1282 34.6169 28.8088 33.9349C29.4894 33.253 29.8718 32.3281 29.8718 31.3636V6.63636C29.8718 5.67194 29.4894 4.74702 28.8088 4.06507C28.1282 3.38312 27.2051 3 26.2426 3ZM20.4359 33.5455C19.231 33.5455 18.2584 32.5709 18.2584 31.3636C18.2584 30.1564 19.231 29.1818 20.4359 29.1818C21.6408 29.1818 22.6134 30.1564 22.6134 31.3636C22.6134 32.5709 21.6408 33.5455 20.4359 33.5455ZM26.9684 27.7273H13.9034V7.36364H26.9684V27.7273Z" fill="currentColor"/>
<path id="Vector_2" d="M16.7441 16.4565C16.7441 16.1948 16.7969 15.9358 16.8994 15.6945C17.0019 15.4531 17.152 15.2344 17.3411 15.0511C17.5302 14.8678 17.7544 14.7235 18.0006 14.6267C18.2467 14.5299 18.51 14.4826 18.7749 14.4874C19.0884 14.4858 19.3986 14.5499 19.6851 14.6757C19.9715 14.8014 20.2276 14.9858 20.4364 15.2167C20.6453 14.9858 20.9014 14.8014 21.1878 14.6757C21.4743 14.5499 21.7845 14.4858 22.098 14.4874C22.3629 14.4826 22.6262 14.5299 22.8723 14.6267C23.1185 14.7235 23.3427 14.8678 23.5318 15.0511C23.7209 15.2344 23.871 15.4531 23.9735 15.6945C24.076 15.9358 24.1288 16.1948 24.1288 16.4565C24.1288 18.4096 21.7734 19.8843 20.4364 21.0512C19.1024 19.8744 16.7441 18.4111 16.7441 16.4565Z" fill="currentColor"/>
</g>
</svg>
