<svg width="40" height="40" viewBox="0 0 40 40" fill="currentColor" xmlns="http://www.w3.org/2000/svg">
<path d="M29.9993 25.3334C29.1153 25.3334 28.2674 24.9822 27.6423 24.3571C27.0172 23.732 26.666 22.8841 26.666 22.0001C26.666 21.116 27.0172 20.2682 27.6423 19.6431C28.2674 19.0179 29.1153 18.6667 29.9993 18.6667C30.8834 18.6667 31.7312 19.0179 32.3564 19.6431C32.9815 20.2682 33.3327 21.116 33.3327 22.0001C33.3327 22.8841 32.9815 23.732 32.3564 24.3571C31.7312 24.9822 30.8834 25.3334 29.9993 25.3334ZM19.9993 25.3334C19.1153 25.3334 18.2674 24.9822 17.6423 24.3571C17.0172 23.732 16.666 22.8841 16.666 22.0001C16.666 21.116 17.0172 20.2682 17.6423 19.6431C18.2674 19.0179 19.1153 18.6667 19.9993 18.6667C20.8834 18.6667 21.7312 19.0179 22.3564 19.6431C22.9815 20.2682 23.3327 21.116 23.3327 22.0001C23.3327 22.8841 22.9815 23.732 22.3564 24.3571C21.7312 24.9822 20.8834 25.3334 19.9993 25.3334ZM9.99935 25.3334C9.11529 25.3334 8.26745 24.9822 7.64233 24.3571C7.0172 23.732 6.66602 22.8841 6.66602 22.0001C6.66602 21.116 7.0172 20.2682 7.64233 19.6431C8.26745 19.0179 9.11529 18.6667 9.99935 18.6667C10.8834 18.6667 11.7313 19.0179 12.3564 19.6431C12.9815 20.2682 13.3327 21.116 13.3327 22.0001C13.3327 22.8841 12.9815 23.732 12.3564 24.3571C11.7313 24.9822 10.8834 25.3334 9.99935 25.3334Z" fill="currentColor"/>
</svg>
