<svg width="40" height="40" viewBox="0 0 40 40" fill="currentColor" xmlns="http://www.w3.org/2000/svg">
<path d="M30.752 24.0756C31.312 22.7062 31.616 21.2402 31.616 19.6292C31.616 18.4693 31.44 17.3577 31.136 16.3266C30.096 16.5683 29.008 16.6971 27.872 16.6971C25.5456 16.6997 23.2526 16.139 21.1864 15.0623C19.1203 13.9857 17.3415 12.4247 16 10.5109C14.565 14.007 11.8578 16.8193 8.432 18.3726C8.368 18.7753 8.368 19.2103 8.368 19.6292C8.368 21.1672 8.66887 22.6902 9.25343 24.1112C9.838 25.5322 10.6948 26.8233 11.7749 27.9108C13.9564 30.1073 16.915 31.3412 20 31.3412C21.68 31.3412 23.296 30.9707 24.752 30.3102C25.664 32.0662 26.08 32.9361 26.048 32.9361C23.424 33.8222 21.392 34.2571 20 34.2571C16.128 34.2571 12.432 32.7267 9.712 29.9719C8.0576 28.3112 6.82779 26.2714 6.128 24.0272H4V16.6971H5.744C6.27239 14.1075 7.48719 11.7101 9.2595 9.75948C11.0318 7.80884 13.2955 6.37768 15.8104 5.61785C18.3254 4.85802 20.9977 4.79787 23.5438 5.44377C26.0899 6.08968 28.4149 7.41756 30.272 9.2865C32.2884 11.3087 33.6637 13.8877 34.224 16.6971H36V24.0272H35.904L30.208 29.2952L21.728 28.3286V25.6382H29.456L30.752 24.0756ZM15.632 19.2586C16.112 19.2586 16.576 19.452 16.912 19.8064C17.2497 20.1492 17.4391 20.6124 17.4391 21.0952C17.4391 21.578 17.2497 22.0412 16.912 22.384C16.576 22.7223 16.112 22.9156 15.632 22.9156C14.624 22.9156 13.808 22.1101 13.808 21.0952C13.808 20.0803 14.624 19.2586 15.632 19.2586ZM24.352 19.2586C25.36 19.2586 26.16 20.0803 26.16 21.0952C26.16 22.1101 25.36 22.9156 24.352 22.9156C23.344 22.9156 22.528 22.1101 22.528 21.0952C22.528 20.6081 22.7202 20.141 23.0622 19.7966C23.4043 19.4521 23.8682 19.2586 24.352 19.2586Z" fill="currentColor"/>
</svg>
