<svg width="240" height="240" viewBox="0 0 240 240" fill="none" xmlns="http://www.w3.org/2000/svg">
<g clip-path="url(#clip0)">
<path fill-rule="evenodd" clip-rule="evenodd" d="M184.764 89.0548C184.764 71.2254 177.682 54.1261 165.074 41.5189C152.467 28.9116 135.367 21.829 117.539 21.829C99.7089 21.829 82.6095 28.9116 70.0019 41.5189C57.3959 54.1261 50.3127 71.2254 50.3127 89.0548C50.3127 134.64 50.3127 186.644 50.3127 186.644H184.764V89.0548Z" fill="url(#paint0_linear)"/>
<path fill-rule="evenodd" clip-rule="evenodd" d="M184.764 89.0548C184.764 71.2254 177.682 54.1261 165.074 41.5189C152.467 28.9116 135.367 21.829 117.539 21.829C99.7089 21.829 82.6095 28.9116 70.0019 41.5189C57.3959 54.1261 50.3127 71.2254 50.3127 89.0548C50.3127 134.64 50.3127 186.644 50.3127 186.644H184.764V89.0548ZM177.973 179.852V89.0548C177.973 73.0272 171.605 57.6546 160.271 46.321C148.939 34.9874 133.566 28.6203 117.539 28.6203C101.51 28.6203 86.1389 34.9874 74.8049 46.321C63.4709 57.6546 57.1046 73.0272 57.1046 89.0548V179.852H177.973Z" fill="#FFF0D0"/>
<path fill-rule="evenodd" clip-rule="evenodd" d="M184.764 89.0548C184.764 71.2254 177.682 54.1261 165.074 41.5189C152.467 28.9116 135.367 21.829 117.539 21.829C99.7089 21.829 82.6095 28.9116 70.0019 41.5189C57.3959 54.1261 50.3127 71.2254 50.3127 89.0548C50.3127 134.64 50.3127 186.644 50.3127 186.644H184.764V89.0548ZM179.965 181.844V89.0548C179.965 72.4987 173.388 56.6197 161.681 44.9126C149.973 33.2054 134.095 26.6284 117.539 26.6284C100.982 26.6284 85.1034 33.2054 73.3972 44.9126C61.6895 56.6197 55.1126 72.4987 55.1126 89.0548V181.844H179.965Z" fill="white"/>
<g style="mix-blend-mode:lighten">
<path fill-rule="evenodd" clip-rule="evenodd" d="M184.764 99.3103C184.092 99.4495 183.398 99.5263 182.685 99.5287C182.666 99.5287 182.649 99.5287 182.63 99.5287H152.36C147.772 99.5287 144.045 95.802 144.045 91.2137C144.045 86.6254 147.772 82.8986 152.36 82.8986H157.061C156.574 81.7684 156.305 80.5229 156.305 79.215C156.305 74.0652 160.485 69.8849 165.635 69.8849C170.783 69.8849 174.963 74.0652 174.963 79.215C174.963 80.5229 174.694 81.7684 174.207 82.8986H174.258C176.158 80.3405 179.203 78.6822 182.63 78.6822C183.086 78.6822 183.533 78.7111 183.972 78.7662C184.497 82.1499 184.764 85.5887 184.764 89.0539V99.3103Z" fill="#EDEDFF"/>
</g>
<g style="mix-blend-mode:lighten">
<path fill-rule="evenodd" clip-rule="evenodd" d="M50.3139 138.375C51.6865 134.927 55.0558 132.484 58.9938 132.484C59.3321 132.484 59.6681 132.503 59.9992 132.539C59.9896 132.393 59.9872 132.247 59.9872 132.098C59.9872 127.49 63.7284 123.749 68.3359 123.749C72.9434 123.749 76.6846 127.49 76.6846 132.098C76.6846 133.055 76.5238 133.977 76.2238 134.836C77.8725 133.374 80.0418 132.484 82.4175 132.484C87.5697 132.484 91.7549 136.669 91.7549 141.824C91.7549 143.996 91.011 145.995 89.7679 147.583C88.7048 149.705 86.509 151.164 83.9773 151.164H59.848C59.7184 151.164 59.5889 151.159 59.4593 151.152C59.3057 151.159 59.1497 151.164 58.9938 151.164C55.0558 151.164 51.6865 148.721 50.3139 145.27V138.375Z" fill="#EDE2FF"/>
</g>
<path fill-rule="evenodd" clip-rule="evenodd" d="M64.2418 186.644C57.8873 186.644 52.7279 181.484 52.7279 175.13C52.7279 168.775 57.8873 163.618 64.2418 163.618H64.7482C64.417 162.361 64.2418 161.041 64.2418 159.683C64.2418 151.154 71.1627 144.233 79.6889 144.233C87.4064 144.233 93.8065 149.902 94.956 157.298C97.1301 153.585 101.162 151.089 105.772 151.089C112.688 151.089 118.301 156.702 118.301 163.618H122.248C126.733 163.618 130.623 166.189 132.524 169.937C134.552 172.303 135.778 175.379 135.778 178.737C135.778 181.688 134.832 184.419 133.227 186.644H64.2418Z" fill="#00D59C"/>
<path fill-rule="evenodd" clip-rule="evenodd" d="M103.998 23.2053C106.844 28.1967 108.471 33.9705 108.471 40.1234C108.471 59.0117 93.1346 74.346 74.2487 74.346C66.6007 74.346 59.5336 71.831 53.8342 67.5835C57.1123 57.8549 62.6076 48.9135 70.0036 41.5175C79.3697 32.1538 91.2148 25.8354 103.998 23.2053Z" fill="#FFF4BB"/>
<g style="mix-blend-mode:lighten">
<path fill-rule="evenodd" clip-rule="evenodd" d="M91.7549 66.9643C87.0274 66.9643 83.1902 63.1272 83.1902 58.3997C83.1902 53.6746 87.0274 49.8375 91.7549 49.8375C92.7268 49.8375 93.6626 49.9983 94.5337 50.2983C95.4528 46.9362 98.5317 44.462 102.182 44.462C105.1 44.462 107.653 46.0411 109.028 48.3904C109.755 43.7109 113.808 40.1234 118.692 40.1234C124.086 40.1234 128.468 44.5029 128.468 49.8999C128.468 50.7614 128.358 51.5965 128.147 52.3908H128.468C132.49 52.3908 135.754 55.6568 135.754 59.6788C135.754 63.7007 132.49 66.9643 128.468 66.9643H91.7549Z" fill="#EDFBFF"/>
</g>
<path fill-rule="evenodd" clip-rule="evenodd" d="M184.764 89.0548C184.764 71.2254 177.682 54.1261 165.074 41.5189C152.467 28.9116 135.367 21.829 117.539 21.829C99.7089 21.829 82.6095 28.9116 70.0019 41.5189C57.3959 54.1261 50.3127 71.2254 50.3127 89.0548V186.644H184.764V89.0548ZM177.973 179.852V89.0548C177.973 73.0272 171.605 57.6546 160.271 46.321C148.939 34.9874 133.566 28.6203 117.539 28.6203C101.51 28.6203 86.1389 34.9874 74.8049 46.321C63.4709 57.6546 57.1046 73.0272 57.1046 89.0548V179.852H177.973Z" fill="#EDE2FF"/>
<g style="mix-blend-mode:multiply">
<path fill-rule="evenodd" clip-rule="evenodd" d="M184.763 186.644H124.482C125.399 186.397 126.085 186.435 126.085 186.435L126.155 179.853H177.972V116.204L184.763 112.389V186.644Z" fill="#EBDEFF"/>
</g>
<path fill-rule="evenodd" clip-rule="evenodd" d="M184.764 89.0548C184.764 71.2254 177.682 54.1261 165.074 41.5189C152.467 28.9116 135.367 21.829 117.539 21.829C99.7089 21.829 82.6095 28.9116 70.0019 41.5189C57.3959 54.1261 50.3127 71.2254 50.3127 89.0548V186.644H184.764V89.0548ZM179.965 181.844V89.0548C179.965 72.4987 173.388 56.6197 161.681 44.9126C149.973 33.2054 134.095 26.6284 117.539 26.6284C100.982 26.6284 85.1034 33.2054 73.3972 44.9126C61.6895 56.6197 55.1126 72.4987 55.1126 89.0548V181.844H179.965Z" fill="white"/>
<path d="M179.966 109.532H55.1134V114.331H179.966V109.532Z" fill="#EDE2FF"/>
<path d="M184.766 107.611H50.3144V112.411H184.766V107.611Z" fill="white"/>
<path d="M118.024 181.846V112.412H113.225V181.846H118.024Z" fill="#EDE2FF"/>
<path d="M118.024 107.611V28.62H113.225V107.611H118.024Z" fill="#EDE2FF"/>
<path d="M119.945 183.845L119.945 24.6302H115.145L115.145 183.845H119.945Z" fill="white"/>
<path fill-rule="evenodd" clip-rule="evenodd" d="M52.2 194.584H189.186C189.186 194.584 186.651 197.126 184.348 199.433C181.982 201.804 178.773 203.136 175.426 203.136H48.2791C47.4986 203.136 46.8058 202.669 46.5057 201.951C46.2056 201.232 46.3888 200.408 46.9367 199.859C49.344 197.447 52.2 194.584 52.2 194.584Z" fill="#DED6EB"/>
<path fill-rule="evenodd" clip-rule="evenodd" d="M189.975 190.813C189.975 188.511 188.11 186.644 185.806 186.644C164.754 186.644 70.3224 186.644 49.2707 186.644C46.9688 186.644 45.1014 188.511 45.1014 190.813C45.1014 193.766 45.1014 197.204 45.1014 197.204H189.975V190.813Z" fill="white"/>
<path fill-rule="evenodd" clip-rule="evenodd" d="M189.975 190.813C189.975 188.511 188.11 186.644 185.806 186.644C164.754 186.644 70.3224 186.644 49.2707 186.644C46.9688 186.644 45.1014 188.511 45.1014 190.813C45.1014 193.766 45.1014 197.204 45.1014 197.204H189.975V190.813ZM189.257 196.484V190.813C189.257 188.909 187.712 187.363 185.806 187.363C164.754 187.363 70.3224 187.363 49.2707 187.363C47.3652 187.363 45.8201 188.909 45.8201 190.813V196.484H189.257Z" fill="#CBE8F1"/>
<g style="mix-blend-mode:multiply">
<path fill-rule="evenodd" clip-rule="evenodd" d="M124.48 186.644H185.807C188.109 186.644 189.976 188.511 189.976 190.812C189.976 193.766 189.976 197.205 189.976 197.205H115.807C117.722 194.162 119.858 190.839 121.281 188.842C122.234 187.508 123.491 186.91 124.48 186.644Z" fill="#EBDEFF"/>
</g>
<path d="M184.767 185.445H50.3154V186.644H184.767V185.445Z" fill="#FFE9BA"/>
<path fill-rule="evenodd" clip-rule="evenodd" d="M126.097 185.444H184.763V186.644H124.48C125.399 186.397 126.085 186.435 126.085 186.435L126.097 185.444Z" fill="#EBCBBA"/>
<path fill-rule="evenodd" clip-rule="evenodd" d="M201.495 121.043C201.495 121.043 197.51 124.431 196.353 127.942C194.111 134.74 194.935 138.657 195.263 142.098C195.482 144.38 200.25 151.779 199.619 152.254C197.622 153.763 187.14 161.874 180.44 159.004C172.967 155.805 169.507 140.056 169.032 137.805C168.965 137.481 171.981 137.627 174.326 137.541C175.782 137.486 176.982 137.383 177.023 136.891C177.333 133.089 178.168 127.532 177.587 123.351" fill="#CE8645"/>
<path fill-rule="evenodd" clip-rule="evenodd" d="M203.68 90.6072C190.036 81.5049 177.416 90.1539 172.274 102.32C167.253 114.201 167.752 123.496 170.374 125.574C175.258 129.45 179.96 129.913 187.334 128.134C191.006 127.251 196.076 124.171 200.199 120.95C202.761 118.947 204.99 117.031 206.196 115.123C214.147 102.519 210.148 94.9227 203.68 90.6072Z" fill="#E0A55E"/>
<path fill-rule="evenodd" clip-rule="evenodd" d="M176.543 128.715C178.618 128.863 181.174 128.947 184.229 128.047C184.666 127.918 185.129 128.158 185.275 128.587C181.901 129.24 179.101 129.329 176.543 128.715Z" fill="#476B76"/>
<path fill-rule="evenodd" clip-rule="evenodd" d="M179.053 117.656C179.054 116.943 177.858 116.063 176.152 114.584C175.048 113.625 174.054 112.514 173.49 112.548C172.112 112.629 171.681 116.203 172.456 117.43C173.423 118.965 175.695 119.21 177.678 118.969C178.714 118.843 179.054 118.324 179.053 117.656Z" fill="white"/>
<path fill-rule="evenodd" clip-rule="evenodd" d="M179.158 117.655C179.188 117.312 178.972 116.914 178.562 116.422C178.085 115.849 177.335 115.156 176.437 114.255C176.259 114.102 176.092 113.936 175.912 113.792C175.418 113.401 174.921 113.092 174.509 112.839C174.083 112.578 173.737 112.416 173.485 112.461C173.362 112.472 173.249 112.51 173.139 112.565C172.918 112.674 172.722 112.864 172.547 113.12C172.267 113.528 172.049 114.095 171.914 114.708C171.671 115.802 171.728 117.004 172.078 117.669C172.507 118.451 173.222 118.99 174.091 119.306C174.325 119.391 174.572 119.455 174.828 119.498C175.069 119.539 175.317 119.564 175.569 119.568C176.288 119.583 177.022 119.482 177.723 119.33C178.236 119.204 178.587 119.027 178.812 118.785C179.104 118.469 179.209 118.091 179.155 117.655L179.158 117.655ZM178.952 117.656C178.911 117.983 178.78 118.248 178.509 118.424C178.306 118.556 178.022 118.607 177.634 118.607C176.982 118.625 176.315 118.566 175.67 118.46C175.46 118.426 175.253 118.385 175.05 118.34C174.846 118.297 174.647 118.249 174.455 118.193C174.065 118.076 173.7 117.933 173.389 117.711C173.182 117.564 172.989 117.401 172.833 117.193C172.385 116.594 172.238 115.3 172.416 114.24C172.509 113.681 172.684 113.18 172.967 112.888C173.116 112.734 173.297 112.644 173.496 112.633C173.65 112.639 173.825 112.75 174.024 112.923C174.395 113.245 174.781 113.793 175.264 114.345C175.355 114.447 175.448 114.548 175.548 114.645C175.65 114.739 175.76 114.823 175.867 114.912C176.874 115.663 177.7 116.239 178.255 116.723C178.665 117.078 178.925 117.364 178.95 117.654L178.952 117.656Z" fill="#C67E26"/>
<path fill-rule="evenodd" clip-rule="evenodd" d="M180.224 101.504C180.674 100.831 181.038 99.5784 180.233 99.1188C179.374 98.6266 178.416 99.7474 178.174 100.114C177.659 100.895 177.099 102.474 177.938 102.882C179.017 103.405 179.856 102.056 180.224 101.504Z" fill="#133844"/>
<path fill-rule="evenodd" clip-rule="evenodd" d="M188.028 106.627C188.478 105.953 188.842 104.701 188.037 104.242C187.178 103.749 186.22 104.87 185.978 105.237C185.462 106.018 184.903 107.597 185.742 108.005C186.821 108.527 187.66 107.179 188.028 106.627Z" fill="#133844"/>
<path fill-rule="evenodd" clip-rule="evenodd" d="M181.37 104.545C180.259 105.48 179.281 106.372 178.479 107.19C177.748 107.935 177.166 108.622 176.757 109.215C176.329 109.844 176.312 110.329 176.472 110.731C176.589 111.024 176.822 111.29 177.142 111.531C177.376 111.709 177.66 111.876 177.955 112.066C178.194 112.22 178.445 112.382 178.676 112.586C178.824 112.73 179.063 112.729 179.209 112.58C179.355 112.433 179.353 112.194 179.205 112.047C178.854 111.665 178.457 111.36 178.097 111.089C177.852 110.904 177.629 110.737 177.47 110.558C177.392 110.471 177.324 110.388 177.31 110.28C177.291 110.118 177.356 109.937 177.502 109.701C177.859 109.119 178.379 108.444 179.03 107.698C179.771 106.851 180.677 105.914 181.713 104.928C181.819 104.832 181.828 104.67 181.733 104.566C181.639 104.459 181.476 104.45 181.37 104.545Z" fill="#897BA0"/>
<path fill-rule="evenodd" clip-rule="evenodd" d="M173.835 99.1345C175.414 95.8565 177.689 92.8279 180.533 90.613C187.902 84.8656 193.762 82.6771 201.204 84.8584C203.99 85.6743 211.782 88.8444 211.924 89.286C212.068 89.7323 210.517 89.8882 210.428 90.8193C210.268 92.5279 214.676 93.1783 214.81 93.5815C214.935 93.963 213.02 95.2397 213.027 95.9908C213.039 97.2987 216.665 98.4697 216.994 99.3936C217.193 99.9527 212.252 102.592 211.784 104.911C211.235 107.639 211.16 109.451 209.555 112.527C207.741 116.005 204.249 118.45 201.703 120.871C200.738 121.79 199.551 123.141 198.706 124.288C198.031 125.205 197.659 126.016 197.189 126.199C196.937 126.297 197.4 124.812 196.952 123.47C196.39 121.8 195.051 120.079 196.03 118.44C196.904 116.979 201.118 117.545 199.944 113.643C199.003 110.514 194.653 114.44 193.781 113.667C191.785 111.891 203.654 103.723 201.446 98.6473C199.867 95.0141 195.716 95.3957 193.618 93.8022C192.771 93.1591 191.171 90.3562 189.616 89.6867C185.937 88.1005 182.81 90.7666 180.132 92.6264C177.691 94.3206 173.835 99.1345 173.835 99.1345Z" fill="#1E5A6C"/>
<path fill-rule="evenodd" clip-rule="evenodd" d="M190.922 103.12C191.063 103.261 191.157 103.421 191.257 103.587C191.352 103.745 191.407 103.913 191.468 104.084C191.507 104.196 191.536 104.308 191.565 104.421C191.592 104.532 191.624 104.643 191.64 104.758C191.701 105.151 191.693 105.556 191.513 105.922C191.421 106.071 191.467 106.269 191.616 106.361C191.766 106.453 191.964 106.407 192.056 106.258C192.322 105.917 192.477 105.52 192.542 105.105C192.584 104.822 192.573 104.533 192.512 104.255C192.481 104.115 192.436 103.981 192.374 103.85C192.313 103.723 192.242 103.598 192.155 103.486C192.077 103.385 192.002 103.286 191.905 103.199C191.693 103.003 191.466 102.842 191.189 102.725C191.08 102.653 190.931 102.68 190.858 102.789C190.786 102.898 190.813 103.047 190.922 103.12Z" fill="#897BA0"/>
<path fill-rule="evenodd" clip-rule="evenodd" d="M178.728 96.4554C178.974 96.2708 179.235 96.1894 179.497 96.1111C179.624 96.0716 179.747 96.054 179.872 96.0317C179.992 96.0102 180.112 95.9887 180.232 95.9851C180.566 95.9724 180.9 96.0208 181.17 96.2429C181.292 96.3682 181.495 96.3702 181.62 96.2481C181.746 96.1236 181.75 95.9224 181.626 95.7963C181.331 95.4112 180.918 95.184 180.463 95.0847C180.269 95.0452 180.066 95.0356 179.863 95.0617C179.734 95.0773 179.604 95.1081 179.479 95.1557C179.358 95.2025 179.243 95.2567 179.13 95.3295C179.034 95.391 178.94 95.4554 178.855 95.5362C178.67 95.7105 178.509 95.901 178.375 96.1404C178.287 96.2383 178.296 96.3901 178.394 96.4755C178.493 96.5616 178.643 96.5541 178.728 96.4554Z" fill="#897BA0"/>
<path fill-rule="evenodd" clip-rule="evenodd" d="M128.821 182.794C127.567 179.031 134.968 167.395 139.117 162.418C142.172 158.756 144.909 154.763 147.925 151.1C152.494 145.553 159.88 143.822 162.254 146.208C164.068 148.03 166.066 150.993 165.527 153.554C164.413 158.882 160.301 163.625 155.175 169.906C150.984 175.041 146.085 180.485 142.096 182.981C138.112 185.475 130.679 188.371 128.821 182.794Z" fill="#DB883C"/>
<path fill-rule="evenodd" clip-rule="evenodd" d="M134.064 178.922C137.169 179.47 138.822 181.299 140.509 183.791C143.937 188.859 144.193 191.461 145.241 193.641C145.815 194.838 147.041 195.415 147.392 196.291C148.507 199.075 147.503 200.82 143.01 202.637C136.864 205.121 128.869 188.182 128.559 184.423C128.201 180.081 130.041 178.212 134.064 178.922Z" fill="#DB9643"/>
<path fill-rule="evenodd" clip-rule="evenodd" d="M135.476 179.291C137.708 180.085 139.095 181.708 140.504 183.791C140.712 184.098 140.912 184.398 141.096 184.688C140.384 183.879 139.661 183.114 138.797 182.231C137.758 181.163 136.729 180.289 135.611 179.442C135.555 179.401 135.51 179.349 135.476 179.291Z" fill="#897BA0"/>
<path fill-rule="evenodd" clip-rule="evenodd" d="M161.032 139.221C158.138 139.226 154.574 142.3 151.001 145.213C147.49 148.076 141.006 157.166 141.026 158.088C141.064 159.799 144.037 163.523 147.162 165.858C150.017 167.991 153.569 169.126 155.047 168.882C158.791 168.27 159.597 167.413 161.171 164.92C164.245 160.051 170.405 149.254 168.97 145.225C168.003 142.504 163.926 139.214 161.032 139.221Z" fill="#FFD500"/>
<path fill-rule="evenodd" clip-rule="evenodd" d="M198.344 225.621C183.703 234.366 153.451 223.497 147.466 214.718C143.673 209.157 148.009 183.728 149.528 172.652C150.764 163.633 143.827 150.826 158.414 139.817C161.499 137.491 168.239 137.377 175.879 137.279C176.675 137.27 171.522 143.507 177.201 147.35C185.359 152.868 195.33 141.336 195.987 141.681C201.117 144.356 206.231 146.855 208.288 150.451C215.97 163.879 208.649 172.07 207.401 183.432C206.532 191.358 204.304 222.06 198.344 225.621Z" fill="#FFE45E"/>
<path fill-rule="evenodd" clip-rule="evenodd" d="M173.01 137.322C173.949 137.305 174.906 137.293 175.881 137.279C176.675 137.269 171.52 143.506 177.2 147.348C184.599 152.352 193.483 143.343 195.568 141.872C195.299 142.331 195.026 142.786 194.747 143.233C192.835 146.292 190.673 148.959 188.201 150.425C185.681 151.917 181.892 152.251 178.58 151.205C175.149 150.118 172.267 147.61 171.65 143.65C171.441 142.311 171.724 140.747 172.276 139.165C172.49 138.548 172.744 137.929 173.01 137.322Z" fill="#FFB4CC"/>
<g style="mix-blend-mode:multiply">
<path fill-rule="evenodd" clip-rule="evenodd" d="M175.65 138.249C174.815 140.152 172.898 144.437 177.2 147.348C185.36 152.868 195.33 141.337 195.988 141.68C201.116 144.356 206.232 146.854 208.289 150.451C215.971 163.88 208.649 172.07 207.401 183.431C206.914 187.877 206 199.485 204.238 209.453C199.434 204.783 198.947 192.886 193.365 183.56C188.954 176.191 179.828 168.125 177.985 164.742C172.677 155.003 174.477 140.403 174.477 140.403L175.65 138.249Z" fill="#F3ECFF"/>
</g>
<path fill-rule="evenodd" clip-rule="evenodd" d="M195.127 111.311C195.516 111.575 195.839 111.959 196.055 112.455L198.426 117.908C199.079 119.412 198.474 121.361 197.073 122.253L181.311 132.318C180.942 132.556 180.551 132.695 180.164 132.743L180.181 133.252L178.756 132.495C178.261 132.239 177.846 131.804 177.589 131.212L175.219 125.759C174.566 124.255 175.17 122.306 176.572 121.411L192.333 111.349C192.806 111.044 193.312 110.903 193.8 110.903L195.59 110.831L195.127 111.311Z" fill="#007556"/>
<path fill-rule="evenodd" clip-rule="evenodd" d="M194.442 111.132C195.417 110.509 196.579 110.855 197.035 111.903L200.125 119.009C200.58 120.058 200.158 121.415 199.183 122.037L181.883 133.084C180.906 133.708 179.744 133.362 179.288 132.314L176.198 125.208C175.743 124.159 176.165 122.802 177.142 122.178L194.442 111.132Z" fill="#0DE6AC"/>
<path fill-rule="evenodd" clip-rule="evenodd" d="M192.874 118.567C192.767 118.311 192.864 117.979 193.091 117.828L195.746 116.054C195.974 115.902 196.245 115.987 196.353 116.243L196.743 117.174C196.85 117.43 196.753 117.762 196.526 117.913L193.87 119.688C193.643 119.839 193.372 119.754 193.264 119.498L192.874 118.567Z" fill="#007397"/>
<path fill-rule="evenodd" clip-rule="evenodd" d="M195.243 116.859C194.94 117.066 194.793 117.483 194.912 117.788C195.035 118.101 195.387 118.188 195.698 117.976C196.001 117.769 196.149 117.353 196.029 117.048C195.907 116.734 195.555 116.647 195.243 116.859ZM195.286 116.922C195.552 116.741 195.854 116.807 195.959 117.075C196.067 117.351 195.93 117.726 195.655 117.913C195.389 118.094 195.087 118.027 194.983 117.76C194.875 117.484 195.012 117.109 195.286 116.922Z" fill="white"/>
<path fill-rule="evenodd" clip-rule="evenodd" d="M191.655 183.158C190.556 180.364 190.227 174.598 193.086 172.023C194.009 171.19 198.943 172.844 200.227 173.309C201.18 173.655 206.882 176.87 206.882 176.87C206.882 176.87 206.649 178.344 206.279 180.986C205.418 187.132 203.892 188.538 202.291 188.991C199.954 189.654 192.754 185.951 191.655 183.158Z" fill="#D88D34"/>
<path fill-rule="evenodd" clip-rule="evenodd" d="M205.112 186.096C207.052 179.551 196.653 143.433 196.213 140.259C195.799 137.261 196.546 131.31 196.401 128.309C196.342 127.069 195.074 124.362 193.369 121.884C192.286 120.309 189.57 118.639 187.954 117.881C186.468 117.181 185.384 118.488 186.647 119.898C187.115 120.42 189.722 121.805 190.682 123.317C192.144 125.621 193.21 128.714 192.662 128.845C192.311 128.928 191.962 125.936 189.963 123.309C188.528 121.425 185.857 120.009 184.372 119.765C182.448 119.449 182.09 119.879 182.247 120.842C182.405 121.81 184.057 122.199 185.231 122.822C185.921 123.188 186.6 123.451 187.508 124.777C188.535 126.28 190.288 129.969 189.819 130.214C189.399 130.434 188.983 127.367 186.82 124.684C185.563 123.125 180.72 121.047 180.398 123.267C180.221 124.489 182.848 124.669 184.748 126.456C185.35 127.022 187.545 131.563 187.069 131.82C186.647 132.047 185.664 128.189 184.526 126.85C182.659 124.652 179.038 124.324 179.232 125.809C179.425 127.284 180.582 126.82 181.984 128.258C183.298 129.608 183.043 130.104 183.452 132.016C184.064 134.876 183.697 133.196 183.399 135.907C183.038 139.209 185.156 143.518 186.927 146.624C187.848 148.242 188.974 185.521 190.847 187.606C193.481 190.538 195.313 191.463 198.565 191.228C201.666 191.005 204.63 187.724 205.112 186.096Z" fill="#E0A55E"/>
<path fill-rule="evenodd" clip-rule="evenodd" d="M187.822 155.771C187.495 150.792 187.2 147.11 186.924 146.626C185.155 143.518 183.036 139.208 183.399 135.906C183.694 133.197 184.061 134.877 183.449 132.016C183.041 130.106 183.298 129.607 181.983 128.258C180.582 126.821 179.422 127.284 179.23 125.811C179.144 125.148 179.814 124.846 180.75 124.908C180.498 125.019 180.147 125.189 180.063 125.537C180.03 125.681 180.051 125.849 180.128 126.048C180.157 126.122 180.226 126.18 180.303 126.245C180.445 126.367 180.625 126.482 180.824 126.605C181.558 127.056 182.509 127.562 183.14 128.323C183.519 128.779 183.927 129.909 184.172 131.119C184.234 131.421 184.716 132.739 184.685 133.773C184.663 134.538 184.148 136.842 184.57 138.949C184.815 140.168 185.386 141.066 185.789 141.932C186.461 143.377 186.912 145.078 187.493 146.544C187.973 147.754 188.095 153.204 187.845 155.656C187.841 155.697 187.834 155.735 187.822 155.771ZM181.753 122.297C181.705 122.333 181.594 122.42 181.529 122.489C181.354 122.679 181.172 122.919 181.148 123.101C181.117 123.356 181.244 123.464 181.388 123.55C181.527 123.632 181.676 123.701 181.813 123.778C182.115 123.948 183.91 124.397 185.139 125.379C185.623 125.765 186.374 127.09 186.95 128.479C187.529 129.88 187.92 131.344 187.831 131.932C187.781 132.261 187.476 132.487 187.15 132.436C186.821 132.386 186.595 132.081 186.646 131.755C186.665 131.618 186.636 131.421 186.581 131.179C186.783 131.62 186.948 131.884 187.068 131.819C187.543 131.563 185.347 127.022 184.745 126.456C182.847 124.668 180.219 124.491 180.397 123.267C180.495 122.58 181.028 122.304 181.753 122.297ZM189.221 129.185C189.489 129.883 189.653 130.3 189.818 130.214C190.286 129.969 188.534 126.281 187.507 124.779C186.598 123.452 185.919 123.188 185.23 122.823C184.054 122.199 182.403 121.813 182.245 120.843C182.115 120.037 182.343 119.605 183.55 119.67C183.543 119.672 183.536 119.672 183.531 119.674C183.099 119.758 182.83 120.229 182.998 120.725C183.034 120.759 183.212 120.929 183.365 121.035C183.797 121.335 184.431 121.661 185.072 121.901C186.063 122.271 187.387 122.775 188.933 125.642C189.432 126.564 189.948 127.459 190.228 128.335C190.591 129.468 190.598 130.531 190.533 130.785C190.449 131.107 190.121 131.299 189.801 131.215C189.48 131.131 189.288 130.804 189.372 130.483C189.41 130.334 189.374 129.811 189.221 129.185ZM192.355 128.337C192.477 128.676 192.568 128.868 192.659 128.846C193.209 128.714 192.143 125.621 190.68 123.317C189.72 121.805 187.114 120.421 186.646 119.898C185.597 118.726 186.166 117.627 187.241 117.69C186.739 117.901 186.78 118.518 186.962 118.902C187.25 119.511 187.786 119.785 188.417 120.183C189.201 120.677 190.135 121.297 191.088 122.54C192.429 124.292 193.396 126.605 193.538 128.083C193.59 128.623 193.519 129.065 193.377 129.381C193.243 129.684 192.887 129.82 192.585 129.686C192.283 129.552 192.146 129.197 192.28 128.894C192.343 128.753 192.364 128.563 192.355 128.337Z" fill="#897BA0"/>
<path fill-rule="evenodd" clip-rule="evenodd" d="M137.312 200.54C140.187 203.243 142.484 205.667 144.907 207.747C145.584 208.329 152.039 213.966 153.418 211.84C154.146 210.714 150.417 208.805 149.664 208.237C149.008 207.743 146.339 204.941 146.467 204.751C146.617 204.524 149.094 206.985 150.225 207.775C151.549 208.697 155.704 211.771 156.629 210.135C157.317 208.915 153.566 206.989 152.362 206.166C151.134 205.326 148.341 202.663 148.491 202.492C148.649 202.318 151.266 204.775 152.883 205.815C154.14 206.623 158.915 210.157 159.61 208.632C160.326 207.056 155.159 204.389 154.403 203.807C153.098 202.804 149.905 200.607 150.094 200.37C150.195 200.247 152.276 201.733 154.59 203.039C157.067 204.436 159.101 206.226 159.833 204.83C160.351 203.843 157.994 202.532 155.772 201.087C153.935 199.891 152.828 198.827 151.847 198.214C149.32 196.636 148.408 196.856 146.528 195.203C145.602 194.391 143.896 193.346 142.928 192.437" fill="#DB9643"/>
</g>
<defs>
<linearGradient id="paint0_linear" x1="76.3606" y1="41.759" x2="184.764" y2="185.444" gradientUnits="userSpaceOnUse">
<stop stop-color="#E7F9FF"/>
<stop offset="0.47" stop-color="#A8EBFF"/>
<stop offset="1" stop-color="#00C4FF"/>
</linearGradient>
<clipPath id="clip0">
<rect width="240" height="240" fill="white"/>
</clipPath>
</defs>
</svg>
