<svg width="42" height="42" viewBox="0 0 42 42" fill="none" xmlns="http://www.w3.org/2000/svg">
<path d="M21.0137 0C9.40982 0 0 9.40161 0 20.9954C0 29.2505 4.77377 36.3957 11.7141 39.8262C12.3567 39.2483 13.1829 38.6154 14.0459 37.955C15.6065 36.7626 17.2315 35.5335 17.6629 34.6163C18.1219 33.6715 18.3239 32.7176 18.3974 31.7912C18.1862 31.7362 17.9751 31.672 17.7639 31.5894C16.901 32.0756 15.8544 32.204 14.6977 31.7362C13.7613 31.3509 13.3757 30.3236 13.3665 29.2963C13.2197 29.278 13.0728 29.2505 12.9167 29.2321C12.8616 29.3055 12.7974 29.3697 12.7331 29.4431C11.4662 30.7914 9.72196 31.2501 8.28983 29.7917C7.10557 28.5901 8.17966 25.9668 9.1895 24.9762C9.35474 24.8203 9.54753 24.646 9.74949 24.4717C9.7954 24.2057 9.82294 23.9672 9.83212 23.7563C10.0157 19.9498 9.54753 14.8408 11.4938 12.2542C13.9816 8.95217 17.819 11.0159 17.819 11.0159C19.8478 3.07272 30.2675 3.17361 32.3423 10.4473C33.5541 14.6665 31.1855 17.886 31.0295 21.4082C31.0203 21.5366 31.0203 21.665 31.0111 21.7934C31.5068 22.9032 32.1403 23.9672 32.7278 25.0221C33.5081 26.4254 34.7475 27.6453 34.8209 29.3881C34.9219 31.6261 34.5088 34.2311 31.6537 34.1485C31.1029 34.1302 30.3134 33.9284 29.8819 33.5798C28.6059 32.5433 27.6878 31.0483 27.3665 29.4248C27.2564 29.4248 27.1462 29.4248 27.036 29.4248C26.7973 31.0024 26.2098 32.7818 24.6216 33.057C23.7678 33.2038 23.061 33.057 22.4826 32.7084C22.6019 33.1854 22.7488 33.644 22.9324 34.0659C23.7403 36.0013 25.5396 37.157 27.1187 38.1751C28.0918 38.7989 29.0373 39.4042 29.6341 40.138C36.9232 36.8452 41.9999 29.5165 41.9999 20.9954C42.0275 9.39244 32.6177 0 21.0137 0Z" fill="#CBE8F1"/>
<path d="M15.4869 29.5349C15.3217 29.1955 15.2023 28.8194 15.1289 28.3975C14.9912 27.6178 14.8902 26.0035 14.8535 23.9398C13.8345 23.7013 12.9991 22.9767 12.6135 22.0227C12.4574 21.6467 12.3748 21.2339 12.3748 20.7936C12.3748 20.0966 12.5951 19.4545 12.9715 18.9225C13.4397 18.2713 14.1282 17.8035 14.9361 17.6292C15.0279 17.6109 15.1105 17.5925 15.2023 17.5833C15.2941 17.5742 15.3768 17.565 15.4686 17.565C15.5053 17.565 15.5512 17.565 15.5879 17.565C16.1755 17.565 16.7263 17.7209 17.2036 17.9961C18.9295 17.2623 20.4535 16.4001 20.481 16.4001C20.4902 16.4001 20.3433 16.8954 20.4718 17.4458C20.4994 17.5558 20.5361 17.6659 20.5912 17.7851C21.0227 17.565 21.5184 17.4458 22.0325 17.4458C22.519 17.4458 22.9872 17.5558 23.4004 17.7484C23.5013 17.7943 23.5931 17.8402 23.6849 17.8952C23.7859 17.9502 23.8777 18.0144 23.9695 18.0786C24.043 18.1337 24.1072 18.1887 24.1715 18.2437C24.8417 18.8399 25.2731 19.7021 25.2731 20.6652C25.2731 21.6375 24.8417 22.5089 24.1623 23.0959C24.7774 23.4078 24.9243 24.114 24.7407 24.6735C24.6397 24.9854 24.401 25.2789 24.0797 25.4165C24.0613 26.3704 24.0338 27.2326 23.9971 27.9022C23.9695 28.3883 23.8777 28.8286 23.7308 29.223C23.4187 30.076 22.8679 30.7181 22.2069 31.1584C22.2804 31.6812 22.3813 32.1948 22.5099 32.6901C23.0882 33.0295 23.7951 33.1854 24.6489 33.0387C26.2279 32.7635 26.8154 30.9933 27.0633 29.4064C27.1735 29.4064 27.2836 29.4064 27.3938 29.4064C27.7151 31.0299 28.6331 32.525 29.9092 33.5615C30.3407 33.91 31.1302 34.1118 31.681 34.1302C34.5361 34.2219 34.9492 31.6078 34.8482 29.3698C34.7748 27.627 33.5354 26.4071 32.7551 25.0037C32.1676 23.9398 31.5341 22.8849 31.0384 21.7751C31.0384 21.6467 31.0476 21.5183 31.0567 21.3899C31.222 17.8677 33.5813 14.6482 32.3695 10.4289C30.2948 3.1553 19.8751 3.05441 17.8463 10.9976C17.8463 10.9976 14.0089 8.94303 11.521 12.2359C9.5748 14.8225 10.043 19.9315 9.8594 23.738C9.85022 23.9398 9.82267 24.1874 9.77677 24.4534C9.5748 24.6277 9.37284 24.802 9.21677 24.9579C8.20694 25.9485 7.13284 28.5718 8.3171 29.7733C9.74923 31.2317 11.4935 30.7731 12.7604 29.4248C12.8246 29.3514 12.8889 29.2872 12.944 29.2138C13.0909 29.2414 13.2378 29.2597 13.3938 29.278C13.403 30.2962 13.7794 31.3326 14.725 31.7179C15.8909 32.1948 16.9282 32.0664 17.7912 31.5711C16.8089 31.2317 15.9735 30.553 15.4869 29.5349Z" fill="#133844"/>
<path d="M24.089 22.4171C24.4837 21.9493 24.7316 21.3439 24.7316 20.6743C24.7316 19.968 24.4562 19.326 24.0063 18.8398C24.0522 19.858 24.0798 21.1238 24.089 22.4171Z" fill="#133844"/>
<path d="M14.8448 20.7295C14.854 20.1149 14.8723 19.4729 14.8907 18.8308C14.9825 18.8125 15.0743 18.785 15.1569 18.7574C15.2487 18.7299 15.3405 18.7024 15.4232 18.6749C15.7904 18.5648 16.1576 18.4272 16.534 18.2805C16.2402 18.1704 15.9189 18.1062 15.5884 18.1062C15.5425 18.1062 15.4874 18.1062 15.4415 18.1062C15.3497 18.1154 15.2579 18.1245 15.1753 18.1337C15.0835 18.1521 14.9917 18.1704 14.9091 18.1888C14.3858 18.3263 13.9176 18.6199 13.5687 19.0143C13.1465 19.4912 12.8894 20.1149 12.8894 20.7937C12.8894 21.1331 12.9537 21.4541 13.0638 21.7476C13.3668 22.5364 14.0186 23.1418 14.8264 23.3803C14.8356 22.564 14.8356 21.6651 14.8448 20.7295Z" fill="#133844"/>
<path d="M26.8528 38.6246C25.2003 37.5698 23.3275 36.3682 22.4554 34.2769C22.18 33.6257 21.978 32.9103 21.8219 32.1765C21.776 31.9472 21.7301 31.7087 21.6934 31.4794C21.5924 31.5344 21.4823 31.5803 21.3721 31.617C20.8305 31.8279 20.2613 31.9472 19.7013 31.9472C19.6738 31.9472 19.6462 31.9472 19.6187 31.9472C19.3892 31.9472 19.1505 31.9288 18.921 31.9013C18.8383 32.8644 18.618 33.855 18.1406 34.8548C17.6449 35.8821 15.9741 37.157 14.3583 38.3861C13.6056 38.9548 12.8436 39.5418 12.2285 40.083C14.9 41.3121 17.8744 42 21.0049 42C23.8875 42 26.6416 41.4222 29.1387 40.3673C28.6062 39.7436 27.7616 39.2025 26.8528 38.6246Z" fill="white"/>
<path d="M27.1373 38.1751C25.5491 37.1569 23.7497 36.0104 22.9511 34.0659C22.7766 33.6348 22.6206 33.1762 22.5012 32.7084C22.3727 32.2131 22.2717 31.6994 22.1983 31.1766C22.8593 30.7363 23.4101 30.0943 23.7222 29.2412C23.8691 28.8468 23.9609 28.4066 23.9884 27.9204C24.0252 27.2508 24.0527 26.3886 24.0711 25.4347C24.4015 25.2971 24.6311 25.0036 24.732 24.6918C24.9156 24.1414 24.7688 23.426 24.1537 23.1141C24.833 22.5179 25.2645 21.6557 25.2645 20.6835C25.2645 19.7204 24.8422 18.849 24.1629 18.262C24.0986 18.2069 24.0343 18.1519 23.9609 18.0969C23.8691 18.0327 23.7773 17.9685 23.6763 17.9134C23.5845 17.8584 23.4927 17.8125 23.3917 17.7667C22.9786 17.5741 22.5104 17.464 22.0238 17.464C21.5097 17.464 21.014 17.5832 20.5825 17.8034C19.5911 18.2987 18.8842 19.2985 18.8016 20.4542C18.7373 19.8396 18.4894 19.2893 18.1314 18.8215C17.8743 18.5005 17.5622 18.2253 17.2042 18.0143C16.7268 17.7392 16.176 17.5832 15.5884 17.5832C15.5425 17.5832 15.5058 17.5832 15.4691 17.5832C15.3773 17.5832 15.2855 17.5924 15.2029 17.6016C15.1111 17.6107 15.0193 17.6291 14.9366 17.6474C14.1288 17.8125 13.4311 18.2895 12.9721 18.9407C12.5957 19.4727 12.3753 20.1148 12.3753 20.8119C12.3753 21.243 12.458 21.6649 12.614 22.041C13.0088 22.9949 13.835 23.7103 14.854 23.958C14.8907 26.0218 15.0009 27.6361 15.1294 28.4157C15.2029 28.8377 15.3222 29.2137 15.4875 29.5531C15.974 30.5712 16.8094 31.25 17.7642 31.6169C17.9661 31.6994 18.1773 31.7636 18.3976 31.8187C18.3242 32.7451 18.1222 33.699 17.6632 34.6437C17.2225 35.5518 15.6068 36.79 14.0462 37.9824C13.1832 38.6337 12.357 39.2666 11.7144 39.8536C11.797 39.8995 11.8888 39.9361 11.9714 39.982C12.0632 40.0279 12.1458 40.0646 12.2376 40.1104C12.8527 39.5784 13.6147 38.9914 14.3675 38.4135C15.9832 37.1845 17.654 35.9095 18.1498 34.8822C18.6363 33.8824 18.8475 32.8918 18.9301 31.9287C19.1596 31.9562 19.3983 31.9746 19.6278 31.9746C19.6553 31.9746 19.6829 31.9746 19.7104 31.9746C20.2704 31.9654 20.8396 31.8553 21.3812 31.6444C21.4914 31.5985 21.5924 31.5527 21.7025 31.5068C21.7393 31.7453 21.7852 31.9746 21.8311 32.2039C21.9871 32.9377 22.1891 33.6531 22.4645 34.3043C23.3366 36.3956 25.2094 37.5972 26.8619 38.652C27.7707 39.239 28.6153 39.771 29.1569 40.3856C29.2396 40.3489 29.3314 40.3122 29.414 40.2755C29.4966 40.2388 29.5792 40.2021 29.6619 40.1655C29.056 39.395 28.1196 38.7988 27.1373 38.1751ZM18.9576 31.36C18.8658 31.3509 18.7832 31.3325 18.6914 31.3142C18.5996 31.2958 18.517 31.2775 18.4252 31.25C18.3884 31.2408 18.3609 31.2316 18.3242 31.2225C17.498 30.9748 16.635 30.4795 16.1025 29.5623C15.9006 29.2137 15.7445 28.801 15.6619 28.3148C15.5334 27.5627 15.4324 26.0126 15.3865 24.0314C15.4599 24.0314 15.5242 24.0405 15.5976 24.0405C16.1852 24.0405 16.7268 23.8846 17.2042 23.6094C17.195 23.7654 17.2134 23.9029 17.2868 24.0222C17.397 24.2148 17.5989 24.3157 17.8743 24.3157C18.0212 24.3157 18.1865 24.2882 18.3793 24.2332C18.517 24.1965 18.5996 24.0405 18.5629 23.903C18.5261 23.7562 18.3701 23.6736 18.2324 23.7195C17.8743 23.8204 17.755 23.7745 17.7458 23.7562C17.6816 23.6461 17.7917 23.3343 17.957 23.0132C18.1773 22.7748 18.3609 22.5088 18.5078 22.2152C18.5078 22.2061 18.517 22.1969 18.517 22.1969C18.6822 21.8392 18.7924 21.4539 18.8199 21.0412C18.9301 21.9951 19.4534 22.8298 20.2153 23.3526C20.3071 23.4168 20.3989 23.4719 20.4907 23.5177C20.6101 23.5819 20.7386 23.637 20.8671 23.692C21.115 23.7837 21.372 23.8571 21.6475 23.8846C21.7393 23.8938 21.8219 23.903 21.9137 23.903C21.9504 23.903 21.9871 23.903 22.0238 23.903C22.0789 23.903 22.1248 23.903 22.1799 23.903C22.5196 23.8846 22.8501 23.8204 23.1622 23.7012C23.2907 23.6553 23.4193 23.5911 23.5386 23.5269H23.5478C23.6304 23.5085 23.7222 23.5177 23.814 23.5452H23.8232C23.9333 23.5819 24.016 23.6461 24.0802 23.7195C24.273 23.9305 24.3006 24.2515 24.2179 24.5175C24.1996 24.5725 24.1537 24.6826 24.0711 24.7835C24.0068 24.8569 23.915 24.9302 23.8048 24.9669C23.7314 24.9945 23.6396 24.9945 23.5386 24.9853C23.4927 24.9761 23.4376 24.9669 23.3825 24.9486C23.3458 24.9394 23.3091 24.9394 23.2815 24.9394C23.1806 24.9486 23.0796 25.022 23.052 25.132C23.0061 25.2696 23.0888 25.4256 23.2265 25.4622C23.3274 25.4898 23.4284 25.5081 23.5294 25.5173C23.5111 26.407 23.4835 27.2233 23.4468 27.8929C23.4193 28.3699 23.3183 28.7918 23.1714 29.1679C22.9327 29.7549 22.5655 30.2135 22.1156 30.5712C22.033 30.6354 21.9504 30.6996 21.8678 30.7547C21.7852 30.8097 21.7025 30.8647 21.6107 30.9106C21.4455 31.0023 21.2711 31.0849 21.0966 31.1491C20.6376 31.3233 20.1602 31.4059 19.692 31.4151C19.4717 31.4151 19.2238 31.3967 18.9576 31.36ZM24.732 20.6743C24.732 21.3347 24.4933 21.9401 24.0894 22.417C24.0802 21.1237 24.0527 19.858 24.0068 18.849C24.4566 19.326 24.732 19.968 24.732 20.6743ZM20.9038 18.2345C21.2435 18.0785 21.6291 17.9868 22.033 17.9868C22.5471 17.9868 23.0337 18.1336 23.4468 18.3904C23.5294 18.4454 23.612 18.5005 23.6855 18.5555C23.612 18.5922 23.5386 18.6289 23.4652 18.6564C23.5294 19.7938 23.557 21.3347 23.557 22.9032C23.4927 22.949 23.4284 22.9857 23.355 23.0316C23.2265 23.0683 23.0979 23.1233 22.9878 23.2059C22.694 23.3159 22.3727 23.3801 22.033 23.3801C21.9871 23.3801 21.9504 23.3801 21.9045 23.3801C21.5648 23.3618 21.2343 23.2884 20.9406 23.1508C19.995 22.7289 19.334 21.7841 19.334 20.6835C19.334 19.592 19.9766 18.6564 20.9038 18.2345ZM13.073 21.7566C12.9629 21.4631 12.8986 21.1421 12.8986 20.8027C12.8986 20.124 13.1557 19.5002 13.578 19.0233C13.9268 18.6289 14.3858 18.3354 14.9183 18.1978C15.0101 18.1703 15.0927 18.1519 15.1845 18.1427C15.2763 18.1336 15.3589 18.1152 15.4507 18.1152C15.4966 18.1152 15.5517 18.1152 15.5976 18.1152C15.9281 18.1152 16.2494 18.1794 16.5432 18.2895C16.9839 18.4546 17.3786 18.7389 17.6724 19.0967C18.0579 19.5644 18.2966 20.1607 18.2966 20.8211C18.2966 21.2246 18.2048 21.619 18.0396 21.9584C17.9111 22.096 17.6999 22.3803 17.5163 22.7014C17.0298 23.1967 16.3504 23.5085 15.5976 23.5085C15.5242 23.5085 15.4507 23.5085 15.3773 23.4994C15.3681 22.5454 15.3681 21.509 15.3865 20.4266C15.3957 19.858 15.414 19.2801 15.4324 18.6839C15.3406 18.7114 15.2488 18.7389 15.1662 18.7665C15.0743 18.794 14.9825 18.8215 14.8999 18.8398C14.8816 19.4911 14.8632 20.124 14.854 20.7385C14.8448 21.6741 14.8357 22.573 14.854 23.3985C14.0278 23.1508 13.376 22.5454 13.073 21.7566Z" fill="#133844"/>
<path d="M15.3866 20.4175C15.3682 21.509 15.3682 22.5455 15.3774 23.4903C15.4508 23.4994 15.5243 23.4994 15.5977 23.4994C16.3505 23.4994 17.0298 23.1876 17.5164 22.6923C17.7 22.3621 17.9111 22.0777 18.0397 21.9493C18.2049 21.6008 18.2967 21.2155 18.2967 20.8119C18.2967 20.1607 18.058 19.5553 17.6724 19.0876C17.3787 18.7298 16.9839 18.4547 16.5433 18.2804C16.1669 18.4272 15.7997 18.5647 15.4325 18.6748C15.4141 19.271 15.3957 19.8489 15.3866 20.4175ZM16.8003 21.72C16.6259 21.72 16.4882 21.5641 16.4882 21.3715C16.4882 21.1788 16.6259 21.0229 16.8003 21.0229C16.9747 21.0229 17.1124 21.1788 17.1124 21.3715C17.1124 21.5641 16.9747 21.72 16.8003 21.72Z" fill="white"/>
<path d="M20.4903 16.4093C20.4627 16.4093 18.9388 17.2715 17.2129 18.0053C17.5709 18.2162 17.8831 18.4822 18.1401 18.8124C18.4981 19.2711 18.7368 19.8306 18.8103 20.4451C18.8929 19.2802 19.5998 18.2896 20.5912 17.7943C20.5362 17.6843 20.4994 17.5742 20.4719 17.4549C20.3434 16.9046 20.4903 16.4093 20.4903 16.4093Z" fill="white"/>
<path d="M20.94 23.1416C21.2338 23.27 21.5643 23.3525 21.9039 23.3709C21.9406 23.3709 21.9865 23.3709 22.0324 23.3709C22.3721 23.3709 22.6934 23.3067 22.9872 23.1966C23.0974 23.1141 23.2259 23.059 23.3544 23.0223C23.4187 22.9857 23.4921 22.9398 23.5564 22.8939C23.5564 21.3255 23.5197 19.7753 23.4646 18.6471C23.0239 18.8214 22.5282 18.8765 21.9498 18.748C21.4725 18.638 21.142 18.4545 20.9125 18.2252C19.9852 18.6563 19.3426 19.5919 19.3426 20.6742C19.3334 21.7749 19.9944 22.7197 20.94 23.1416ZM19.9026 21.8483C19.7282 21.8483 19.5905 21.6924 19.5905 21.4997C19.5905 21.3071 19.7282 21.1512 19.9026 21.1512C20.077 21.1512 20.2148 21.3071 20.2148 21.4997C20.2148 21.6924 20.077 21.8483 19.9026 21.8483Z" fill="white"/>
<path d="M21.6107 30.9016C21.6934 30.8558 21.7852 30.8007 21.8678 30.7457C21.9504 30.6906 22.033 30.6264 22.1157 30.5622C22.5563 30.2137 22.9327 29.7459 23.1714 29.1589C23.3275 28.7828 23.4284 28.3609 23.4468 27.8839C23.4835 27.2144 23.5111 26.398 23.5294 25.5083C23.4376 25.4991 23.3366 25.4808 23.2265 25.4533C23.0888 25.4074 23.0061 25.2607 23.0521 25.1231C23.0888 25.013 23.1806 24.9488 23.2816 24.9305C23.3183 24.9305 23.355 24.9304 23.3825 24.9396C23.4376 24.958 23.4835 24.9671 23.5386 24.9763C23.6396 24.9855 23.7314 24.9855 23.8048 24.958C23.9242 24.9213 24.0068 24.8571 24.0711 24.7745C24.1537 24.6736 24.1996 24.5727 24.218 24.5085C24.3098 24.2425 24.273 23.9215 24.0802 23.7105C24.016 23.6372 23.9242 23.5821 23.8232 23.5363H23.814C23.7222 23.5087 23.6304 23.4996 23.5478 23.5179H23.5386C23.4193 23.5821 23.2907 23.6372 23.1622 23.6922C22.8593 23.8114 22.5288 23.8756 22.1799 23.894C22.1248 23.894 22.0789 23.894 22.0239 23.894C21.9871 23.894 21.9504 23.894 21.9137 23.894C21.8219 23.894 21.7301 23.8848 21.6475 23.8756C21.3721 23.8389 21.115 23.7747 20.8671 23.683C20.7386 23.6372 20.6101 23.573 20.4907 23.5087C20.3989 23.4537 20.3071 23.3987 20.2153 23.3436C19.4534 22.83 18.9301 21.9953 18.8199 21.0322C18.7924 21.445 18.6822 21.8302 18.517 22.1879C18.517 22.1971 18.5078 22.2063 18.5078 22.2063C18.3609 22.4998 18.1773 22.7658 17.957 23.0043C17.7917 23.3253 17.6816 23.6372 17.7458 23.7472C17.755 23.7656 17.8743 23.8206 18.2324 23.7105C18.3701 23.6738 18.5261 23.7564 18.5629 23.894C18.5996 24.0316 18.517 24.1875 18.3793 24.2242C18.1865 24.2792 18.0212 24.3067 17.8743 24.3067C17.5989 24.3067 17.397 24.2058 17.2868 24.0132C17.2134 23.894 17.195 23.7564 17.2042 23.6005C16.7268 23.8756 16.1852 24.0316 15.5976 24.0316C15.5242 24.0316 15.4599 24.0316 15.3865 24.0224C15.4232 26.0036 15.5242 27.5537 15.6619 28.3059C15.7445 28.7828 15.9006 29.1956 16.1025 29.5533C16.635 30.4705 17.498 30.975 18.3242 31.2135C18.3609 31.2226 18.3884 31.2318 18.4252 31.241C18.517 31.2685 18.5996 31.2869 18.6914 31.3052C18.7832 31.3235 18.875 31.3419 18.9576 31.3511C19.2238 31.3877 19.4717 31.4061 19.7012 31.4061C20.1694 31.3969 20.6468 31.3144 21.1058 31.1401C21.2711 31.0759 21.4455 30.9933 21.6107 30.9016Z" fill="white"/>
<path d="M19.9027 21.8485C20.0751 21.8485 20.2148 21.6924 20.2148 21.4999C20.2148 21.3074 20.0751 21.1514 19.9027 21.1514C19.7303 21.1514 19.5906 21.3074 19.5906 21.4999C19.5906 21.6924 19.7303 21.8485 19.9027 21.8485Z" fill="#133844"/>
<path d="M16.7997 21.0229C16.6252 21.0229 16.4875 21.1789 16.4875 21.3715C16.4875 21.5641 16.6252 21.7201 16.7997 21.7201C16.9741 21.7201 17.1118 21.5641 17.1118 21.3715C17.1118 21.1789 16.9741 21.0229 16.7997 21.0229Z" fill="#133844"/>
<path d="M23.4556 18.6474C23.5291 18.6198 23.6025 18.5832 23.6759 18.5465C23.6025 18.4823 23.5199 18.4272 23.4373 18.3814C23.0241 18.1245 22.5376 17.9778 22.0235 17.9778C21.6195 17.9778 21.2431 18.0695 20.8943 18.2254C21.1238 18.4547 21.4543 18.6382 21.9317 18.7483C22.5192 18.8767 23.015 18.8216 23.4556 18.6474Z" fill="#133844"/>
<path d="M20.3803 27.3243C20.3253 27.2693 20.2518 27.2051 20.1692 27.1317C19.9489 26.9299 19.6735 26.7006 19.5266 26.6731C19.242 26.618 19.0951 27.2051 19.0951 27.2051C19.0951 27.2051 18.9574 26.6822 18.5902 26.6822C18.3607 26.6822 17.8833 27.3427 17.8833 27.3793C18.0118 28.0581 19.0309 28.2415 19.7561 28.0306C19.8112 28.0122 19.8663 27.9939 19.9122 27.9572C20.0407 27.8838 20.16 27.7737 20.261 27.6729C20.3895 27.5353 20.4721 27.416 20.4721 27.416C20.4721 27.416 20.4354 27.3702 20.3803 27.3243Z" fill="#133844"/>
</svg>
