<svg width="42" height="42" viewBox="0 0 42 42" fill="none" xmlns="http://www.w3.org/2000/svg">
<path d="M21.0138 0C9.40983 0 0 9.40162 0 20.9954C0 29.544 5.11343 36.891 12.4393 40.1655C13.0452 39.3675 14.2938 38.4136 15.6157 37.4138C17.1764 36.2214 18.7921 34.9924 19.2328 34.0843C20.0498 32.3874 20.059 30.6814 19.9488 29.1129C18.838 28.8286 17.8649 28.1957 17.5344 27.1775C17.2314 26.2511 17.0203 24.7652 16.8734 23.105C16.5613 23.0684 16.2492 22.9491 15.9921 22.6648C15.7075 22.3437 15.5606 21.665 15.6616 21.1055C15.7351 20.7202 15.9095 20.4542 16.1757 20.3167C16.2859 20.2616 16.4695 20.2433 16.6806 20.2616C16.6439 19.6196 16.6164 18.9775 16.598 18.3538C16.2124 17.831 15.8728 17.2806 15.5698 16.7028C14.9088 16.7945 14.3672 16.7303 14.0734 16.4368C13.7154 16.0791 13.6879 15.6204 13.6879 15.1435C13.6879 14.373 13.9541 13.6484 14.3855 13.0063C14.358 12.7587 14.3305 12.5019 14.3213 12.2542C14.2111 9.88775 16.0197 7.20943 18.2046 6.2922C19.7744 5.6318 21.1606 5.27408 22.3724 5.14566C22.4 4.90719 22.455 4.68705 22.5377 4.52195C23.6852 2.02708 27.1187 1.49509 28.6977 3.98078C29.579 5.3658 29.3586 6.77834 28.5783 7.81481C29.9462 9.90609 30.1757 12.777 29.6891 14.9233C28.9088 18.3538 27.44 18.95 25.7232 19.7388C25.7232 19.7663 25.7232 19.7938 25.7232 19.8122C26.0445 19.858 26.3016 20.0874 26.4026 20.2341C26.9534 20.9954 26.7514 21.9402 26.2373 22.4079C26.0813 22.5455 25.916 22.6373 25.7324 22.6831C25.7049 24.5268 25.5855 26.1686 25.3193 27.1042C25.0898 27.9022 24.4655 28.5259 23.5751 28.9111C23.676 30.5071 23.9423 32.1765 24.5114 33.5431C25.3193 35.4785 27.1187 36.6342 28.6977 37.6523C29.5973 38.2302 30.4695 38.7897 31.0662 39.4409C37.5842 35.8729 41.9999 28.957 41.9999 21.0138C42.0275 9.40162 32.6269 0 21.0138 0Z" fill="#CBE8F1"/>
<path d="M16.4235 20.7937C16.2858 20.8671 16.2215 21.078 16.2031 21.1973C16.1297 21.6192 16.249 22.1237 16.4051 22.2979C16.5244 22.4355 16.6713 22.4997 16.8457 22.5456C16.7998 21.9769 16.7631 21.3899 16.7264 20.8029C16.5979 20.7845 16.4785 20.7753 16.4235 20.7937Z" fill="white"/>
<path d="M24.0437 33.7358C23.4653 32.3416 23.1899 30.6814 23.0706 29.0854C22.6116 29.223 22.1066 29.2964 21.565 29.3056C21.5375 29.3056 21.5007 29.3056 21.4732 29.3056C21.1519 29.3056 20.8306 29.2781 20.5001 29.2322C20.6011 30.8282 20.5643 32.5618 19.7197 34.3228C19.224 35.3501 17.5532 36.6159 15.9466 37.845C14.7715 38.7439 13.5506 39.6703 12.9539 40.3949C15.4325 41.4222 18.1591 42.0001 21.0142 42.0001C24.466 42.0001 27.725 41.1654 30.5984 39.6886C30.0568 39.1291 29.2765 38.6338 28.4319 38.0927C26.7794 37.0195 24.9066 35.8271 24.0437 33.7358Z" fill="white"/>
<path d="M28.7252 37.6338C27.137 36.6157 25.3376 35.4692 24.539 33.5247C23.9698 32.1488 23.7036 30.4794 23.6026 28.8926C24.4839 28.5074 25.1173 27.8837 25.3468 27.0857C25.6131 26.1501 25.7324 24.5083 25.7599 22.6646C25.9344 22.6188 26.1088 22.5362 26.2649 22.3895C26.779 21.9217 26.9809 20.9769 26.4301 20.2156C26.3199 20.0689 26.0721 19.8487 25.7508 19.7937C25.7508 19.7662 25.7508 19.7387 25.7508 19.7203C25.7232 18.3903 25.6681 17.0787 25.613 15.978C25.5304 16.0422 25.4386 16.0973 25.356 16.1523C25.2734 16.2073 25.1816 16.2532 25.0898 16.2899C25.1449 17.3722 25.1908 18.6288 25.2091 19.9038C25.1357 19.9496 25.0714 20.0047 25.0072 20.0689C24.9154 20.1606 24.8235 20.2798 24.7409 20.4174C24.6675 20.5458 24.7042 20.7109 24.8327 20.7843C24.8786 20.8118 24.9245 20.821 24.9704 20.821C25.0622 20.821 25.154 20.7751 25.1999 20.6926C25.2091 20.6834 25.2091 20.6742 25.2183 20.6559C25.2826 20.5458 25.3744 20.4266 25.4845 20.3624C25.5304 20.3349 25.5763 20.3165 25.6222 20.3165C25.6681 20.3165 25.714 20.3257 25.7508 20.344C25.8701 20.3899 25.9619 20.4908 25.9895 20.5275C26.3658 21.0503 26.2373 21.6832 25.8976 21.9951C25.8609 22.0318 25.815 22.0593 25.7599 22.096C25.6865 22.1326 25.5947 22.1693 25.4937 22.1602C25.4111 22.151 25.3193 22.1235 25.2275 22.0684C25.1908 22.0501 25.1632 22.0226 25.1265 21.9951C25.0806 21.9492 25.0163 21.9309 24.9521 21.9309C24.8786 21.9309 24.796 21.9584 24.7501 22.0226C24.6491 22.1326 24.6675 22.3069 24.7777 22.3986C24.9154 22.5179 25.0714 22.6004 25.2183 22.6555C25.1908 24.4624 25.0806 26.0584 24.8236 26.9481C24.6399 27.5902 24.1534 28.0396 23.5658 28.324C23.4832 28.3698 23.3914 28.4065 23.2996 28.4432C23.2078 28.4799 23.1252 28.5074 23.0334 28.5349C22.5468 28.6908 22.0236 28.7642 21.5554 28.7734C21.2065 28.7826 20.8301 28.7551 20.4629 28.6817C20.3711 28.6633 20.2793 28.645 20.1875 28.6266C20.0957 28.6083 20.0039 28.5808 19.9121 28.5533C19.0491 28.2873 18.2963 27.792 18.0576 27.0215C17.7731 26.1409 17.5711 24.7101 17.4242 23.0957C17.4059 22.9398 17.3967 22.7839 17.3875 22.6188C17.3691 22.417 17.3508 22.2152 17.3416 22.0042C17.3232 21.7566 17.3049 21.4998 17.2865 21.2521C17.2773 21.0687 17.2682 20.8944 17.2498 20.7109C17.2406 20.61 17.2406 20.5091 17.2314 20.4083C17.2039 19.968 17.1855 19.5185 17.1672 19.0874C17.1304 18.1243 17.1029 17.1888 17.0845 16.3449C16.9927 16.3724 16.9101 16.4 16.8183 16.4275C16.7265 16.455 16.6347 16.4825 16.5521 16.5008C16.5613 17.0879 16.5796 17.7116 16.6072 18.3628C16.6255 18.9865 16.6531 19.6286 16.6898 20.2707C16.4878 20.2523 16.295 20.2707 16.1849 20.3257C15.9186 20.4633 15.7442 20.7293 15.6708 21.1145C15.5698 21.674 15.7167 22.3528 16.0013 22.6738C16.2583 22.9582 16.5705 23.0682 16.8826 23.1141C17.0295 24.7743 17.2498 26.2602 17.5436 27.1866C17.8741 28.2047 18.8472 28.8376 19.958 29.1219C20.0682 30.6904 20.059 32.3965 19.2419 34.0933C18.8013 35.0014 17.1855 36.2397 15.6249 37.4229C14.3029 38.4318 13.0544 39.3766 12.4485 40.1746C12.5311 40.2113 12.6137 40.248 12.6964 40.2846C12.779 40.3213 12.8708 40.358 12.9534 40.3947C13.5501 39.6701 14.7619 38.7437 15.9462 37.8448C17.5619 36.6157 19.2327 35.3408 19.7193 34.3226C20.5639 32.5616 20.6006 30.828 20.4996 29.232C20.8209 29.287 21.1514 29.3054 21.4727 29.3054C21.5003 29.3054 21.537 29.3054 21.5645 29.3054C22.1062 29.2962 22.6111 29.2228 23.0701 29.0853C23.1803 30.6721 23.4557 32.3414 24.0432 33.7356C24.9154 35.8269 26.7881 37.0285 28.4406 38.0833C29.2852 38.6245 30.0655 39.1289 30.6072 39.6793C30.6898 39.6334 30.7724 39.5967 30.855 39.5509C30.9376 39.505 31.0203 39.4683 31.0937 39.4224C30.4878 38.762 29.6249 38.2117 28.7252 37.6338ZM16.4052 22.3069C16.2491 22.1326 16.1298 21.619 16.2032 21.2062C16.2216 21.087 16.2859 20.8669 16.4236 20.8027C16.4786 20.7843 16.598 20.7843 16.7173 20.8118C16.7541 21.3989 16.7908 21.9859 16.8367 22.5546C16.6714 22.5087 16.5245 22.4353 16.4052 22.3069Z" fill="#133844"/>
<path d="M23.4186 16.4644C21.4082 16.015 21.9681 14.1255 21.959 14.1255C21.9314 14.1255 19.3334 15.5931 17.0842 16.336C17.1026 17.1799 17.1301 18.1154 17.1668 19.0785C17.1852 19.5188 17.2036 19.9591 17.2311 20.3993C17.2403 20.5002 17.2403 20.6011 17.2495 20.702C17.2587 20.8855 17.2678 21.0689 17.2862 21.2432C17.3046 21.5 17.3229 21.7477 17.3413 21.9953C17.3596 22.2063 17.3688 22.4081 17.3872 22.6099C17.3964 22.7658 17.4147 22.9309 17.4239 23.0868C17.5708 24.7012 17.7727 26.132 18.0573 27.0126C18.3052 27.7739 19.0488 28.2784 19.9118 28.5444C20.0036 28.5719 20.0954 28.5994 20.1872 28.6177C20.279 28.6361 20.3708 28.6636 20.4626 28.6728C20.8298 28.737 21.197 28.7737 21.555 28.7645C22.0232 28.7553 22.5465 28.6819 23.0331 28.526C23.1249 28.4985 23.2167 28.4618 23.2993 28.4343C23.3911 28.3976 23.4829 28.3609 23.5655 28.3151C24.1531 28.0215 24.6396 27.5813 24.8232 26.9392C25.0803 26.0495 25.1904 24.4535 25.218 22.6466C25.0619 22.6007 24.915 22.5182 24.7773 22.3897C24.6672 22.2888 24.658 22.1237 24.7498 22.0137C24.8049 21.9495 24.8783 21.922 24.9518 21.922C25.016 21.922 25.0711 21.9403 25.1262 21.9862C25.1629 22.0137 25.1904 22.0412 25.2272 22.0595C25.319 22.1237 25.4108 22.1513 25.4934 22.1513C25.5944 22.1604 25.6862 22.1329 25.7596 22.0871C25.8147 22.0595 25.8606 22.0228 25.8973 21.9862C26.237 21.6743 26.3655 21.0414 25.9891 20.5186C25.9616 20.4911 25.8698 20.3902 25.7504 20.3351C25.7045 20.3168 25.6678 20.3076 25.6219 20.3076C25.576 20.3076 25.5301 20.326 25.4842 20.3535C25.3832 20.4177 25.2914 20.5369 25.218 20.647C25.2088 20.6562 25.1996 20.6653 25.1996 20.6837C25.1445 20.7662 25.0619 20.8121 24.9701 20.8121C24.9242 20.8121 24.8783 20.8029 24.8324 20.7754C24.7039 20.702 24.6672 20.5369 24.7406 20.4085C24.8232 20.2709 24.915 20.1517 25.0068 20.06C25.0711 19.9958 25.1445 19.9407 25.2088 19.8949C25.1813 18.6199 25.1354 17.3633 25.0895 16.281C24.6121 16.5195 24.0613 16.6112 23.4186 16.4644ZM22.2803 19.0785C22.4547 19.0877 22.5741 19.2528 22.5649 19.4454C22.5465 19.638 22.3996 19.7848 22.2344 19.7665C22.0599 19.7573 21.9406 19.5922 21.9498 19.3996C21.959 19.2069 22.115 19.0602 22.2803 19.0785ZM20.0219 20.7938C20.1413 20.592 20.279 20.3718 20.2881 20.0691C20.2881 19.9224 20.4259 19.8215 20.5636 19.8031C20.7104 19.8031 20.8298 19.9316 20.8298 20.0783C20.8206 20.5278 20.6186 20.858 20.4901 21.0689C20.4534 21.124 20.4167 21.1882 20.3983 21.234C20.4167 21.2432 20.4442 21.2615 20.4901 21.2799C20.5544 21.3074 20.6554 21.3349 20.8114 21.3716C20.9583 21.4083 21.0409 21.5551 21.0042 21.6926C20.9767 21.8119 20.8665 21.8944 20.7472 21.8944C20.7288 21.8944 20.7013 21.8944 20.6829 21.8853C20.279 21.7844 19.9852 21.6743 19.8842 21.4266C19.8475 21.3349 19.8383 21.2432 19.8659 21.1515C19.8659 21.0414 19.9485 20.913 20.0219 20.7938ZM19.1773 18.9776C19.3518 18.9868 19.4711 19.1519 19.4619 19.3445C19.4436 19.5372 19.2967 19.6839 19.1314 19.6656C18.957 19.6564 18.8377 19.4913 18.8468 19.2987C18.856 19.1061 19.0121 18.9685 19.1773 18.9776Z" fill="white"/>
<path d="M22.2165 24.6643C22.1614 24.6092 22.088 24.545 22.0054 24.4717C21.7851 24.2699 21.5097 24.0406 21.3628 24.013C21.0782 23.958 20.9313 24.545 20.9313 24.545C20.9313 24.545 20.7936 24.0222 20.4264 24.0222C20.1969 24.0222 19.7195 24.6826 19.7195 24.7193C19.848 25.3981 20.867 25.5815 21.5923 25.3705C21.6474 25.3522 21.7024 25.3339 21.7483 25.2972C21.8769 25.2238 21.9962 25.1137 22.0972 25.0128C22.2257 24.8752 22.3083 24.756 22.3083 24.756C22.3083 24.756 22.2716 24.7101 22.2165 24.6643Z" fill="#133844"/>
<path d="M19.866 21.4449C19.967 21.6926 20.2607 21.8026 20.6647 21.9035C20.683 21.9127 20.7106 21.9127 20.7289 21.9127C20.8483 21.9127 20.9584 21.8301 20.986 21.7109C21.0227 21.5641 20.9309 21.4266 20.7932 21.3899C20.6371 21.3532 20.5453 21.3165 20.4719 21.2982C20.426 21.2798 20.3984 21.2706 20.3801 21.2523C20.3984 21.2064 20.4443 21.1422 20.4719 21.0872C20.6096 20.8671 20.8024 20.546 20.8115 20.0966C20.8115 19.9498 20.7014 19.8306 20.5453 19.8214C20.4076 19.8306 20.2791 19.9315 20.2699 20.0874C20.2607 20.3901 20.123 20.6194 20.0037 20.812C19.9303 20.9313 19.8568 21.0505 19.8293 21.1789C19.8201 21.2523 19.8201 21.344 19.866 21.4449Z" fill="#133844"/>
<path d="M19.132 19.6747C19.3065 19.6839 19.4533 19.5463 19.4625 19.3537C19.4809 19.161 19.3524 18.9959 19.1779 18.9868C19.0127 18.9776 18.8566 19.1152 18.8474 19.3078C18.8291 19.4912 18.9576 19.6563 19.132 19.6747Z" fill="#133844"/>
<path d="M22.2343 19.7662C22.3996 19.7754 22.5556 19.6378 22.5648 19.4452C22.5832 19.2526 22.4546 19.0875 22.2802 19.0783C22.1058 19.0691 21.9589 19.2067 21.9497 19.3993C21.9314 19.592 22.0599 19.7571 22.2343 19.7662Z" fill="#133844"/>
<path d="M16.8273 16.4093C16.9191 16.3818 17.0017 16.3543 17.0935 16.3268C19.3427 15.593 21.9316 14.1163 21.9683 14.1163C21.9775 14.1163 21.4175 16.0149 23.4279 16.4552C24.0706 16.6019 24.6122 16.5102 25.0988 16.2901C25.1906 16.2442 25.2732 16.1984 25.365 16.1525C25.4568 16.0975 25.5394 16.0424 25.6221 15.9782C25.6771 17.0789 25.7322 18.3814 25.7598 19.7205C27.4765 18.9317 28.9453 18.3355 29.7256 14.9051C30.2122 12.7587 29.9735 9.88782 28.6148 7.79653C29.3951 6.75089 29.6155 5.33835 28.7342 3.96251C27.146 1.47681 23.7126 1.99963 22.5742 4.50367C22.5008 4.66877 22.4457 4.88891 22.4089 5.12739C21.1971 5.24663 19.8109 5.61352 18.2411 6.27393C16.0562 7.19116 14.2477 9.86947 14.3578 12.2359C14.367 12.4836 14.3945 12.7312 14.4221 12.9881C13.9906 13.6301 13.7244 14.3547 13.7244 15.1252C13.7244 15.6022 13.7519 16.0608 14.1099 16.4185C14.4129 16.7212 14.9453 16.7762 15.6063 16.6845C15.9001 17.2624 16.2489 17.8127 16.6345 18.3355C16.6162 17.6843 16.5978 17.0606 16.5794 16.4735C16.6437 16.4644 16.7355 16.4368 16.8273 16.4093Z" fill="#133844"/>
</svg>
