<svg width="42" height="42" viewBox="0 0 42 42" fill="none" xmlns="http://www.w3.org/2000/svg">
<path d="M21.0046 0C9.40572 0 0 9.40572 0 21.0046C0 30.0157 5.67096 37.6963 13.636 40.6786C13.7278 40.541 13.8195 40.4033 13.9113 40.2657C14.4802 39.449 15.7924 38.4488 17.1781 37.3843C18.738 36.1914 20.3531 34.9618 20.7935 34.0533C21.3533 32.8879 21.5368 31.7133 21.5552 30.5847C20.8119 30.447 20.1053 30.1717 19.5639 29.7313C18.4077 30.9334 17.0129 32.0345 15.2602 31.5115C13.2322 30.915 14.9207 27.9878 15.6181 26.8683C15.5172 26.9784 15.407 27.0977 15.2969 27.1986C13.9205 28.5567 11.7457 29.3917 10.5803 27.3179C9.56172 25.501 12.8285 21.3074 13.9664 20.0594C13.9939 20.0319 14.0673 19.9493 14.1774 19.8484C13.113 20.4999 11.5255 21.0413 10.4794 20.5091C8.42386 19.463 9.82783 15.8659 10.5895 14.4894C12.2687 11.4796 15.4162 7.97422 18.9766 7.286C20.2521 7.03823 21.7479 6.818 22.849 7.68975C23.1702 7.94669 23.317 8.26786 23.3537 8.63491C23.4914 8.57068 23.6382 8.50644 23.8125 8.44221C25.5469 7.75399 27.5657 8.78173 27.9602 10.6721C28.0428 11.0666 28.0612 11.452 28.0428 11.8466C28.2722 11.8833 28.5016 11.9567 28.731 12.076C29.7955 12.6358 29.4284 14.3334 29.2266 15.196C29.0522 15.9393 28.8595 16.7468 28.6209 17.5543C30.0341 17.123 31.3004 18.738 31.2178 20.1512C31.071 22.794 28.9696 25.6937 26.9784 27.2995C26.8866 27.373 26.804 27.4372 26.7214 27.4922C26.6664 27.8685 26.6021 28.1896 26.5287 28.4558C26.3452 29.0981 25.8864 29.6395 25.2532 30.0249C25.4 31.2454 25.6478 32.4475 26.0791 33.4936C26.8866 35.4298 28.6852 36.586 30.2635 37.6045C30.9058 38.0175 31.539 38.4212 32.062 38.8617C38.0266 35.1545 42 28.5475 42 21.0046C42.0092 9.40572 32.6034 0 21.0046 0Z" fill="#CBE8F1"/>
<path d="M18.747 28.5475C18.4533 27.6207 18.2331 26.1341 18.0863 24.4732C17.7743 24.4365 17.4623 24.3172 17.2053 24.0328C16.9209 23.7116 16.7741 23.0325 16.875 22.4728C16.9484 22.0874 17.1228 21.8213 17.3889 21.6836C17.499 21.6286 17.6917 21.6102 17.8936 21.6286C17.8385 20.5366 17.8018 19.4446 17.7743 18.4536C17.866 18.4352 17.9486 18.4077 18.0404 18.3801C18.1321 18.3526 18.2147 18.3159 18.3065 18.2884C18.903 18.059 19.4719 17.7286 19.9032 17.435C19.9491 17.4075 21.353 16.1687 21.353 16.1687C21.5916 16.499 19.7013 17.8387 21.766 18.2792C21.9587 18.3251 22.1514 18.3618 22.3533 18.371C22.4725 18.3801 22.5918 18.3618 22.7111 18.3251C22.9681 18.2517 23.2158 18.1507 23.4544 18.0498C23.8123 17.8938 24.161 17.6644 24.4913 17.3983C25.1704 16.8385 25.776 16.0769 26.1614 15.2602C26.2532 15.0767 26.3266 14.884 26.3908 14.6913C26.4551 14.5077 26.501 14.3242 26.5377 14.1407C26.5927 14.1866 26.6294 14.2508 26.6294 14.3242C26.6386 14.471 26.7212 15.6456 26.8038 17.279C26.8588 18.4169 26.9139 19.7841 26.9414 21.1697C27.2626 21.2156 27.5195 21.445 27.6205 21.5919C28.171 22.3535 27.9692 23.2987 27.4553 23.7666C27.2993 23.9043 27.1341 23.9961 26.9506 24.0419C26.9322 25.3541 26.8588 26.5654 26.7304 27.4922C26.8129 27.428 26.9047 27.3638 26.9873 27.2995C28.9694 25.7029 31.0799 22.794 31.2267 20.1512C31.3093 18.738 30.043 17.123 28.6298 17.5543C28.8684 16.7468 29.0611 15.9392 29.2355 15.196C29.4374 14.3334 29.8044 12.6358 28.74 12.076C28.5106 11.9567 28.2812 11.8833 28.0517 11.8466C28.0701 11.452 28.0517 11.0574 27.9692 10.672C27.5746 8.78172 25.565 7.75397 23.8215 8.4422C23.6563 8.50643 23.5003 8.57067 23.3626 8.6349C23.3351 8.27702 23.1791 7.94668 22.8579 7.68974C21.7476 6.80881 20.2611 7.03822 18.9855 7.28598C15.4251 7.97421 12.2777 11.4887 10.5984 14.4894C9.83677 15.8567 8.4328 19.463 10.4883 20.5091C11.5436 21.0413 13.1219 20.4999 14.1863 19.8484C14.0762 19.9585 14.0028 20.0319 13.9753 20.0594C12.8466 21.3074 9.57066 25.501 10.5892 27.3179C11.7454 29.3917 13.9294 28.5475 15.3059 27.1986C15.416 27.0885 15.5261 26.9784 15.627 26.8682C14.9296 27.9878 13.2412 30.9058 15.2691 31.5115C17.0218 32.0345 18.4074 30.9333 19.5728 29.7313C19.1874 29.4193 18.8938 29.0247 18.747 28.5475Z" fill="#133844"/>
<path d="M17.6182 22.17C17.4805 22.2434 17.4163 22.4545 17.3979 22.5738C17.3245 22.9959 17.4438 23.5006 17.5998 23.675C17.7191 23.8126 17.8659 23.8768 18.0403 23.9227C17.9944 23.3538 17.9577 22.7665 17.921 22.1792C17.7925 22.1609 17.6732 22.1517 17.6182 22.17Z" fill="white"/>
<path d="M25.5929 33.7045C25.1616 32.6676 24.8955 31.4838 24.7486 30.2909C24.1797 30.5295 23.5007 30.6671 22.7574 30.6763C22.7299 30.6763 22.6931 30.6763 22.6656 30.6763C22.4729 30.6763 22.2894 30.6671 22.0967 30.6488C22.0692 31.8233 21.8765 33.0438 21.28 34.2826C20.7845 35.3103 19.1144 36.5767 17.5085 37.8063C16.2147 38.7881 14.8749 39.8159 14.3611 40.5592C14.2876 40.6601 14.2234 40.761 14.1592 40.8528C16.3064 41.5961 18.6097 41.9998 21.0047 41.9998C24.8679 41.9998 28.4834 40.9537 31.585 39.146C31.117 38.779 30.5664 38.4211 29.9791 38.054C28.3366 36.9988 26.4646 35.7967 25.5929 33.7045Z" fill="white"/>
<path d="M26.0884 33.4935C25.6572 32.4566 25.4002 31.2453 25.2626 30.0248C25.9049 29.6394 26.3546 29.098 26.5381 28.4557C26.6115 28.1896 26.6757 27.8592 26.7308 27.4922C26.8684 26.5654 26.9327 25.3541 26.951 24.0419C27.1254 23.996 27.2997 23.9134 27.4557 23.7666C27.9696 23.2986 28.1715 22.3534 27.6209 21.5918C27.5108 21.445 27.263 21.2156 26.9418 21.1697C26.9143 19.7749 26.8593 18.4168 26.8042 17.2789C26.7216 15.6455 26.639 14.471 26.6299 14.3242C26.6207 14.2507 26.5931 14.1865 26.5381 14.1406C26.5014 14.3242 26.4463 14.5077 26.3913 14.6912C26.327 14.8839 26.2444 15.0766 26.1618 15.2601C26.2077 16.0493 26.2811 17.2973 26.3362 18.7196C26.3729 19.5363 26.4004 20.408 26.4096 21.289C26.2353 21.3899 26.0793 21.5643 25.9416 21.7937C25.8682 21.9221 25.9049 22.0873 26.0334 22.1607C26.0793 22.1883 26.1252 22.1974 26.171 22.1974C26.2628 22.1974 26.3546 22.1515 26.4004 22.069C26.4096 22.0598 26.4096 22.0506 26.4188 22.0414C26.4922 21.9313 26.5748 21.812 26.6849 21.7478C26.7308 21.7203 26.7767 21.7019 26.8226 21.7019C26.8684 21.7019 26.9143 21.7111 26.951 21.7294C27.0703 21.7753 27.1621 21.8763 27.1896 21.913C27.5658 22.436 27.4374 23.0692 27.0978 23.3812C27.0611 23.4179 27.0153 23.4454 26.9602 23.4821C26.8868 23.5188 26.795 23.5555 26.6941 23.5463C26.6115 23.5372 26.5197 23.5096 26.428 23.4546C26.3913 23.4362 26.3637 23.4087 26.327 23.3812C26.2811 23.3353 26.2169 23.3169 26.1527 23.3169C26.0793 23.3169 25.9967 23.3445 25.9508 23.4087C25.8499 23.5188 25.8682 23.6932 25.9783 23.7849C26.116 23.9042 26.272 23.9868 26.4188 24.0419C26.3913 25.5835 26.3087 26.9691 26.1252 27.8959C26.0976 28.0611 26.0609 28.2079 26.0242 28.3364C25.8866 28.8136 25.5837 29.1806 25.1983 29.4559C25.1158 29.511 25.0332 29.566 24.9414 29.6211C24.8588 29.667 24.7671 29.7128 24.6845 29.7495C24.0788 30.0248 23.3723 30.1533 22.7574 30.1625C22.5464 30.1625 22.3262 30.1533 22.1059 30.1349C22.0142 30.1258 21.9224 30.1166 21.8398 30.0982C21.748 30.0799 21.6563 30.0707 21.5737 30.0524C20.9681 29.9239 20.39 29.6945 19.9587 29.355C19.6375 29.1072 19.3897 28.786 19.2704 28.4098C18.986 27.5289 18.7841 26.0974 18.6373 24.4823C18.6189 24.3263 18.6098 24.1703 18.6006 24.0052C18.5822 23.8033 18.5639 23.6014 18.5547 23.3904C18.5363 23.1426 18.518 22.8857 18.4996 22.6379C18.4905 22.4544 18.4813 22.28 18.4629 22.0965C18.4538 21.9956 18.4537 21.8946 18.4446 21.7937C18.3803 20.5916 18.3436 19.3987 18.3161 18.3158C18.2243 18.3526 18.1418 18.3801 18.05 18.4076C17.9582 18.4351 17.8756 18.4627 17.7839 18.481C17.8114 19.4721 17.8481 20.564 17.9032 21.656C17.7013 21.6377 17.5086 21.656 17.3985 21.7111C17.1324 21.8487 16.958 22.1148 16.8846 22.5002C16.7837 23.06 16.9305 23.7391 17.2149 24.0602C17.4719 24.3447 17.7839 24.4548 18.0959 24.5007C18.2427 26.1616 18.4629 27.6482 18.7566 28.575C18.9126 29.0521 19.2062 29.4375 19.5824 29.7495C20.1147 30.19 20.8304 30.4653 21.5737 30.6029C21.5553 31.7316 21.3718 32.9062 20.8121 34.0716C20.3716 34.98 18.7566 36.2188 17.1966 37.4026C15.811 38.4579 14.4988 39.4581 13.9298 40.2839C13.8289 40.4216 13.7371 40.5592 13.6545 40.6969C13.7371 40.7244 13.8289 40.7611 13.9115 40.7886C13.9941 40.8162 14.0858 40.8529 14.1684 40.8804C14.2326 40.7795 14.2969 40.6877 14.3703 40.5868C14.8842 39.8343 16.2239 38.8157 17.5178 37.8339C19.1328 36.6042 20.8029 35.3287 21.2892 34.3102C21.8857 33.0714 22.0784 31.8509 22.1059 30.6763C22.2986 30.6947 22.4913 30.7039 22.6749 30.7039C22.7024 30.7039 22.7391 30.7039 22.7666 30.7039C23.5099 30.6947 24.1798 30.5571 24.7579 30.3185C24.9139 31.5114 25.1708 32.6951 25.6021 33.7321C26.4738 35.8243 28.3458 37.0264 29.9976 38.0816C30.5848 38.4579 31.1354 38.8066 31.6034 39.1736C31.686 39.1277 31.7686 39.0727 31.8512 39.0268C31.9338 38.9809 32.0072 38.9259 32.0898 38.88C31.5667 38.4395 30.9335 38.0358 30.2912 37.6228C28.6945 36.5859 26.896 35.4389 26.0884 33.4935ZM17.6004 23.6748C17.4444 23.5005 17.3251 22.9866 17.3985 22.5737C17.4168 22.4544 17.4811 22.2341 17.6187 22.1699C17.6738 22.1515 17.7931 22.1607 17.9124 22.1791C17.9491 22.7664 17.9858 23.3536 18.0316 23.9226C17.8665 23.8859 17.7196 23.8125 17.6004 23.6748Z" fill="#133844"/>
<path d="M24.482 17.3983C24.1516 17.6736 23.7937 17.8938 23.445 18.0498C23.2064 18.1599 22.9587 18.2517 22.7018 18.3251C22.5916 18.3618 22.4632 18.371 22.3439 18.371C22.1512 18.3618 21.9493 18.3159 21.7566 18.2792C19.7011 17.8387 21.5822 16.499 21.3437 16.1686C21.3437 16.1686 19.9397 17.3983 19.8938 17.435C19.4625 17.7286 18.8936 18.059 18.2971 18.2884C18.3246 19.3712 18.3614 20.5641 18.4256 21.7662C18.4348 21.8671 18.4348 21.9681 18.4439 22.069C18.4531 22.2525 18.4623 22.4269 18.4806 22.6104C18.499 22.8674 18.5173 23.1151 18.5357 23.3629C18.5541 23.5739 18.5632 23.7758 18.5816 23.9777C18.5908 24.1337 18.6091 24.2989 18.6183 24.4549C18.7651 26.0699 18.967 27.5014 19.2515 28.3823C19.3708 28.7586 19.6185 29.0706 19.9397 29.3275C20.3801 29.667 20.9583 29.8964 21.5547 30.0249C21.6465 30.0432 21.7291 30.0616 21.8208 30.0708C21.9126 30.0891 22.0044 30.0983 22.0869 30.1075C22.3072 30.135 22.5274 30.1442 22.7385 30.135C23.3625 30.1258 24.069 30.0065 24.6655 29.7221C24.7573 29.6854 24.8398 29.6395 24.9224 29.5936C25.0142 29.5385 25.0968 29.4835 25.1794 29.4284C25.5648 29.1531 25.8676 28.7861 26.0052 28.3089C26.0419 28.1804 26.0786 28.0245 26.1062 27.8685C26.2897 26.9416 26.3723 25.556 26.3998 24.0144C26.2438 23.9685 26.097 23.8859 25.9593 23.7575C25.8492 23.6565 25.8401 23.4914 25.9318 23.3812C25.9869 23.317 26.0603 23.2895 26.1337 23.2895C26.1979 23.2895 26.253 23.3078 26.3081 23.3537C26.3448 23.3812 26.3723 23.4088 26.409 23.4271C26.5008 23.4914 26.5925 23.5189 26.6751 23.5189C26.776 23.5281 26.8678 23.5005 26.9412 23.4546C26.9963 23.4271 27.0421 23.3904 27.0789 23.3537C27.4184 23.0417 27.5468 22.4085 27.1706 21.8855C27.1431 21.8488 27.0513 21.757 26.932 21.702C26.8862 21.6836 26.8494 21.6744 26.8036 21.6744C26.7577 21.6744 26.7118 21.6928 26.6659 21.7203C26.565 21.7846 26.4732 21.9038 26.3998 22.014C26.3906 22.0231 26.3906 22.0323 26.3815 22.0415C26.3264 22.1241 26.2438 22.17 26.152 22.17C26.1062 22.17 26.0603 22.1608 26.0144 22.1333C25.8859 22.0598 25.8492 21.8947 25.9226 21.7662C26.0603 21.5276 26.2163 21.3624 26.3906 21.2615C26.3723 20.3806 26.3448 19.5088 26.3172 18.6921C26.2622 17.2698 26.1888 16.0218 26.1429 15.2327C25.7575 16.0769 25.161 16.8385 24.482 17.3983ZM23.3992 20.4356C23.5184 20.4448 23.6194 20.5274 23.6653 20.6375C23.6836 20.6834 23.6928 20.7385 23.6928 20.7935C23.6928 20.8853 23.6561 20.9679 23.601 21.0229C23.546 21.0872 23.4634 21.133 23.3716 21.1239C23.1973 21.1147 23.0688 20.9587 23.078 20.766C23.078 20.5733 23.2248 20.4265 23.3992 20.4356ZM21.2152 22.17C21.3345 21.9681 21.4721 21.7478 21.4813 21.445C21.4813 21.2982 21.6006 21.1789 21.7474 21.1789C21.7474 21.1789 21.7474 21.1789 21.7566 21.1789C21.9034 21.1789 22.0227 21.3074 22.0227 21.4542C22.0135 21.9038 21.8117 22.2342 21.6832 22.4544C21.6465 22.5095 21.6098 22.5737 21.5914 22.6196C21.6373 22.6471 21.7474 22.693 21.9952 22.7572C22.142 22.794 22.2246 22.9408 22.1879 23.0784C22.1604 23.1977 22.0502 23.2803 21.9309 23.2803C21.9126 23.2803 21.8851 23.2803 21.8667 23.2711C21.463 23.1702 21.1693 23.0601 21.0684 22.8123C20.9582 22.5829 21.0867 22.3718 21.2152 22.17ZM20.2884 20.4448C20.4627 20.454 20.5912 20.61 20.582 20.8027C20.5728 20.9954 20.4352 21.1422 20.2609 21.1422C20.0865 21.133 19.958 20.977 19.9672 20.7843C19.9764 20.5916 20.1232 20.4356 20.2884 20.4448Z" fill="white"/>
<path d="M23.2164 26.4186C23.1614 26.3635 23.088 26.2993 23.0054 26.2259C22.7851 26.024 22.5099 25.7946 22.363 25.7671C22.0786 25.712 21.9317 26.2993 21.9317 26.2993C21.9317 26.2993 21.7941 25.7762 21.427 25.7762C21.1976 25.7762 20.7205 26.4369 20.7205 26.4736C20.8489 27.1527 21.8675 27.3362 22.5924 27.1252C22.6475 27.1068 22.7026 27.0885 22.7484 27.0518C22.8769 26.9783 22.9962 26.8682 23.0971 26.7673C23.2256 26.6296 23.3082 26.5104 23.3082 26.5104C23.3082 26.5104 23.2715 26.4645 23.2164 26.4186Z" fill="#133844"/>
<path d="M21.8492 23.2712C21.8675 23.2803 21.895 23.2803 21.9134 23.2803C22.0327 23.2803 22.1428 23.1977 22.1703 23.0785C22.207 22.9316 22.1153 22.794 21.9776 22.7573C21.7299 22.693 21.6198 22.6472 21.5739 22.6196C21.5922 22.5738 21.6381 22.5095 21.6656 22.4545C21.8033 22.2342 21.996 21.9131 22.0052 21.4542C22.0052 21.3074 21.895 21.1881 21.739 21.179C21.739 21.179 21.7391 21.179 21.7299 21.179C21.5831 21.179 21.4638 21.2982 21.4638 21.4451C21.4546 21.7479 21.3169 21.9773 21.1976 22.17C21.0692 22.3719 20.9407 22.5829 21.0416 22.8215C21.1609 23.0601 21.4454 23.1794 21.8492 23.2712Z" fill="#133844"/>
<path d="M20.2617 21.1421C20.436 21.1513 20.5737 20.9953 20.5828 20.8026C20.592 20.6099 20.4544 20.4539 20.2892 20.4447C20.1148 20.4355 19.9772 20.5915 19.968 20.7842C19.968 20.9769 20.0965 21.1329 20.2617 21.1421Z" fill="#133844"/>
<path d="M23.372 21.1329C23.4638 21.1329 23.5463 21.0962 23.6014 21.032C23.6565 20.9678 23.684 20.8944 23.6932 20.8026C23.6932 20.7475 23.684 20.6925 23.6656 20.6466C23.6197 20.5273 23.5188 20.4447 23.3995 20.4447C23.2252 20.4355 23.0875 20.5915 23.0783 20.7842C23.0692 20.9586 23.1976 21.1238 23.372 21.1329Z" fill="#133844"/>
</svg>
