<svg width="42" height="42" viewBox="0 0 42 42" fill="none" xmlns="http://www.w3.org/2000/svg">
<path d="M20.9954 0C9.39245 0 0 9.40572 0 21.0046C0 26.2076 1.8895 30.9701 5.02643 34.6406C7.66805 34.8425 12.8779 35.026 18.3997 35.182C18.5372 34.5029 18.684 33.8423 18.8216 33.1907C18.895 32.8329 18.9775 32.4842 19.0509 32.1171C18.5923 31.7959 18.207 31.3922 17.941 30.9058C17.3815 29.8964 17.1155 28.3456 17.033 26.648C16.8495 26.5746 16.6753 26.4553 16.5285 26.281C16.2533 25.9506 16.1341 25.2624 16.2533 24.7118C16.3359 24.3356 16.5285 24.0603 16.7945 23.941C16.8495 23.9135 16.9321 23.8951 17.0238 23.8951C17.088 22.0507 17.2806 20.2613 17.4366 18.995C13.0614 16.9028 8.70452 14.104 7.20944 13.012C6.47565 12.4706 5.21905 11.7916 4.73291 10.9106C4.21926 9.97466 5.45753 10.0297 5.85194 10.0756C7.50295 10.2591 8.97969 11.1492 10.4931 11.865C10.5757 11.9017 10.7591 11.9751 10.9884 12.076C9.91527 11.2318 7.64053 9.2589 8.7779 8.30457C9.19065 7.96504 10.1262 8.30457 10.5848 8.44221C12.667 9.09373 14.4647 10.2499 16.3909 11.3786C16.4826 11.4337 16.5835 11.4796 16.6844 11.5255C16.0057 10.984 14.0153 9.53419 14.2538 8.46056C14.6757 6.57942 24.6919 11.085 28.0948 15.5447C29.1955 16.9854 29.3055 20.0594 27.2968 21.1422C27.306 22.3168 27.2784 23.6932 27.1867 25.0605C27.7371 25.345 28.1406 26.1341 28.0489 26.7857C27.9755 27.3271 27.5903 27.6849 27.0033 27.8042C26.9666 27.8134 26.9207 27.8134 26.884 27.8226C26.6364 29.2633 26.2511 30.4837 25.6641 31.1352C25.5082 31.3096 25.3339 31.4748 25.1505 31.6308L25.5541 35.3839C29.9201 35.4848 33.8366 35.5582 36.1114 35.6041C39.7528 31.8235 42 26.6847 42 21.0229C41.9908 9.40572 32.5892 0 20.9954 0Z" fill="#CBE8F1"/>
<path d="M25.82 37.9165C25.8292 37.9899 25.8017 38.0725 25.7467 38.1275C25.6916 38.1826 25.6183 38.2193 25.5357 38.2101C23.9122 38.1275 22.8849 38.724 21.7842 39.3663C20.9954 39.8252 20.1791 40.2931 19.1426 40.495C18.7207 40.5776 18.2529 40.6143 17.7301 40.5868C17.6567 40.5868 17.5833 40.5501 17.5375 40.4859C17.4916 40.4308 17.4641 40.3482 17.4824 40.2748C17.7392 38.5405 18.0052 37.0631 18.2804 35.705C13.1531 35.5582 8.30094 35.3838 5.52173 35.2003C9.35575 39.3755 14.8683 41.9999 20.9862 41.9999C26.6547 41.9999 31.7912 39.7517 35.5702 36.0996C33.2496 36.0537 29.6174 35.9895 25.5999 35.8885L25.82 37.9165Z" fill="#133844"/>
<path d="M17.0057 24.4458C16.8681 24.5192 16.8039 24.7211 16.7764 24.8404C16.6846 25.2533 16.7855 25.7672 16.9415 25.9507C16.969 25.9782 16.9873 26.0058 17.0148 26.0241C16.9873 25.5011 16.9873 24.9689 17.0057 24.4458Z" fill="white"/>
<path d="M25.0036 35.3565L24.6367 31.9979C24.0497 32.3925 23.3801 32.6678 22.6922 32.7963C22.1694 32.8972 21.619 32.9247 21.0779 32.8605C20.5183 32.7963 20.0047 32.6403 19.5461 32.4109C19.4819 32.7137 19.4177 33.0073 19.3535 33.3101C19.2159 33.925 19.0875 34.5489 18.9499 35.2005C18.9315 35.2922 18.9132 35.3748 18.8948 35.4666C18.8765 35.5583 18.8582 35.6409 18.8398 35.7327C18.5738 37.0265 18.317 38.4305 18.0693 40.0639C19.5277 40.0639 20.5 39.495 21.5273 38.8985C22.3161 38.4397 23.1233 37.9717 24.1689 37.7698C24.5083 37.7056 24.866 37.6689 25.2604 37.6689L25.0678 35.8979L25.0403 35.6317L25.0036 35.3565Z" fill="white"/>
<path d="M25.1416 31.6124C25.3251 31.4564 25.4902 31.2913 25.6553 31.1169C26.2423 30.4654 26.6275 29.2541 26.8752 27.8043C26.9119 27.7951 26.9577 27.7951 26.9944 27.7859C27.5906 27.6666 27.9667 27.3087 28.0401 26.7673C28.1318 26.1158 27.7282 25.3267 27.1779 25.0422C27.2696 23.6749 27.2971 22.2985 27.2879 21.1239C27.2146 21.1606 27.132 21.2065 27.0495 21.2432C27.0403 21.2524 27.0219 21.2524 27.0128 21.2524C26.9302 21.2891 26.8385 21.3166 26.7468 21.3441C26.7468 22.4453 26.7284 23.6933 26.6459 24.9321C26.3891 24.9688 26.1506 25.1156 25.958 25.3909C25.8754 25.5102 25.9029 25.6754 26.0222 25.7671C26.0589 25.7946 26.1047 25.813 26.1506 25.813C26.2423 25.8222 26.334 25.7855 26.3891 25.7029C26.4624 25.6019 26.5358 25.5377 26.6 25.501C26.7009 25.4459 26.7926 25.4643 26.866 25.4827C26.8752 25.4827 26.8752 25.4826 26.8844 25.4918C26.9669 25.5285 27.0495 25.5836 27.1228 25.657C27.3613 25.8956 27.5539 26.3177 27.4989 26.6847C27.4622 26.9692 27.2696 27.1527 26.9486 27.2353C26.8844 27.2537 26.811 27.2629 26.7376 27.272C26.7193 27.272 26.7009 27.272 26.6826 27.272C26.6 27.272 26.5083 27.272 26.4166 27.2629C26.3157 27.2445 26.2056 27.2261 26.0864 27.1894C26.068 27.1803 26.0497 27.1803 26.0313 27.1803C25.9029 27.1711 25.7837 27.2445 25.747 27.373C25.7011 27.5106 25.7837 27.6666 25.9304 27.7033C26.068 27.7492 26.2056 27.7767 26.3249 27.7951C26.0955 29.0981 25.7562 30.1809 25.2425 30.7499C25.1783 30.8141 25.1233 30.8783 25.0591 30.9426C24.9765 31.0251 24.894 31.0986 24.8114 31.172C24.7289 31.2454 24.6463 31.3096 24.5638 31.3738C23.5915 32.1079 22.3532 32.4566 21.1242 32.319C20.5738 32.2548 20.0785 32.0988 19.6474 31.8602C19.5649 31.8143 19.4823 31.7684 19.4089 31.7134C19.3264 31.6583 19.2438 31.6033 19.1704 31.539C18.8586 31.2913 18.5926 30.9884 18.4 30.6397C17.8955 29.7313 17.6478 28.3365 17.5653 26.7673C17.5561 26.6756 17.5561 26.5838 17.5561 26.5012C17.5561 26.4095 17.547 26.3177 17.547 26.2259C17.5286 25.6662 17.5286 25.0789 17.5378 24.5008C17.5378 24.409 17.5378 24.3173 17.547 24.2255C17.547 24.1337 17.5561 24.042 17.5561 23.9502C17.6203 22.1975 17.7946 20.4816 17.9414 19.2336C17.8588 19.1969 17.7671 19.151 17.6845 19.1143C17.602 19.0776 17.5103 19.0317 17.4277 18.995C17.2626 20.2613 17.0792 22.0507 17.015 23.8951C16.9232 23.9043 16.8499 23.9135 16.7856 23.941C16.5197 24.0695 16.327 24.3356 16.2445 24.7118C16.1252 25.2624 16.2445 25.9506 16.5197 26.281C16.6664 26.4553 16.8407 26.5746 17.0241 26.648C17.1159 28.3457 17.3727 29.8965 17.9322 30.9059C18.1982 31.3922 18.5834 31.796 19.042 32.1171C18.9687 32.475 18.8861 32.8329 18.8127 33.1908C18.6751 33.8423 18.5284 34.4938 18.3908 35.182C12.8691 35.026 7.6592 34.8425 5.01758 34.6406C5.10013 34.7416 5.18268 34.8333 5.26523 34.9251C5.34778 35.0168 5.4395 35.1178 5.52206 35.2095C8.30126 35.4022 13.1534 35.5674 18.2807 35.7142C18.0056 37.0723 17.7304 38.5405 17.4827 40.284C17.4736 40.3575 17.4919 40.4309 17.5378 40.4951C17.5836 40.5502 17.657 40.5869 17.7304 40.596C18.2441 40.6236 18.7118 40.5869 19.1429 40.5043C20.1794 40.3024 20.9957 39.8344 21.7846 39.3756C22.8761 38.7424 23.9125 38.1368 25.536 38.2194C25.6186 38.2194 25.692 38.1918 25.747 38.1368C25.802 38.0817 25.8295 37.9991 25.8204 37.9257L25.6002 35.9161C29.6177 36.0079 33.2591 36.0813 35.5705 36.1272C35.6623 36.0446 35.754 35.9528 35.8365 35.8611C35.9191 35.7785 36.0108 35.6867 36.0934 35.5949C33.8186 35.5491 29.9021 35.4757 25.536 35.3747L25.1416 31.6124ZM25.2517 37.6688C24.8573 37.6688 24.4904 37.7055 24.1602 37.7697C23.1237 37.9716 22.3166 38.4396 21.5186 38.8984C20.4913 39.4949 19.519 40.0638 18.0606 40.0638C18.3083 38.4304 18.5651 37.0265 18.8311 35.7326C18.8494 35.6408 18.8678 35.5491 18.8861 35.4665C18.9045 35.3747 18.9228 35.2921 18.9411 35.2004C19.0787 34.5488 19.2163 33.9249 19.3447 33.31C19.4089 33.0164 19.4731 32.7136 19.5373 32.4108C19.996 32.6402 20.5096 32.7962 21.0691 32.8604C21.6103 32.9246 22.1606 32.8971 22.6834 32.7962C23.3805 32.6585 24.0409 32.3924 24.628 31.9978L24.9949 35.3564L25.0224 35.6225L25.0499 35.8886L25.2517 37.6688ZM16.9324 25.9415C16.7857 25.7579 16.6756 25.2532 16.7673 24.8311C16.7948 24.7118 16.859 24.51 16.9966 24.4365C16.9874 24.9596 16.9874 25.4918 16.9966 26.0149C16.9783 25.9965 16.9599 25.969 16.9324 25.9415Z" fill="#133844"/>
<path d="M17.9506 19.2428C17.7947 20.5 17.6204 22.2068 17.5654 23.9594C17.5654 24.0512 17.5562 24.143 17.5562 24.2347C17.5562 24.3265 17.547 24.4182 17.547 24.51C17.5379 25.0881 17.5379 25.6662 17.5562 26.2352C17.5562 26.3269 17.5654 26.4187 17.5654 26.5104C17.5654 26.6022 17.5746 26.694 17.5746 26.7766C17.6663 28.3365 17.9048 29.7405 18.4092 30.649C18.6019 30.9977 18.8587 31.3005 19.1797 31.5483C19.2531 31.6125 19.3356 31.6675 19.4182 31.7226C19.5007 31.7777 19.5741 31.8235 19.6567 31.8694C20.0878 32.108 20.5922 32.264 21.1334 32.3282C22.3625 32.4659 23.5916 32.1172 24.573 31.3831C24.6556 31.3188 24.7381 31.2546 24.8207 31.1812C24.9032 31.1078 24.9858 31.0344 25.0683 30.9518C25.1325 30.8876 25.1967 30.8233 25.2518 30.7591C25.7654 30.1902 26.1048 29.1165 26.3341 27.8043C26.2057 27.786 26.0773 27.7584 25.9397 27.7125C25.8021 27.6667 25.7196 27.5198 25.7563 27.3822C25.7929 27.2537 25.9122 27.1803 26.0406 27.1895C26.0589 27.1895 26.0773 27.1987 26.0956 27.1987C26.2149 27.2354 26.3249 27.2537 26.4258 27.2721C26.5176 27.2813 26.6001 27.2904 26.6918 27.2813C26.7102 27.2813 26.7285 27.2813 26.7469 27.2813C26.8294 27.2721 26.8936 27.2629 26.9578 27.2446C27.2789 27.162 27.4715 26.9784 27.5082 26.694C27.5632 26.3269 27.3706 25.9048 27.1321 25.6662C27.0587 25.5928 26.9762 25.5286 26.8936 25.5011C26.8844 25.5011 26.8844 25.5011 26.8753 25.4919C26.8019 25.4643 26.7102 25.4552 26.6093 25.5102C26.5451 25.5469 26.4717 25.602 26.3983 25.7121C26.3433 25.7947 26.2516 25.8314 26.1598 25.8222C26.114 25.8222 26.0681 25.8039 26.0314 25.7763C25.9122 25.6938 25.8847 25.5194 25.9672 25.4001C26.1598 25.134 26.3983 24.978 26.6551 24.9413C26.7377 23.7025 26.756 22.4453 26.756 21.3534C24.7932 21.9498 21.3994 20.8487 17.9506 19.2428ZM22.9679 23.363C23.0137 23.1703 23.1788 23.051 23.3439 23.0877C23.509 23.1244 23.6099 23.3079 23.5732 23.4914C23.5274 23.6841 23.3715 23.8034 23.1972 23.7667C23.0321 23.73 22.9312 23.5557 22.9679 23.363ZM20.8858 23.8401C20.8949 23.6933 21.0142 23.5832 21.1701 23.5924C21.3169 23.6016 21.4269 23.73 21.4177 23.8768C21.3902 24.3265 21.1884 24.6385 21.0417 24.8587C21.005 24.9138 20.9591 24.978 20.9408 25.0239C20.9867 25.0514 21.0967 25.1065 21.3444 25.1707C21.4911 25.2074 21.5737 25.3542 21.5278 25.5011C21.5003 25.602 21.4178 25.6754 21.3169 25.6938C21.2802 25.7029 21.2343 25.7029 21.1976 25.6846C20.794 25.5745 20.5097 25.446 20.418 25.1982C20.3262 24.9597 20.4638 24.7578 20.5922 24.5559C20.7207 24.3632 20.8674 24.143 20.8858 23.8401ZM19.9135 22.8399C19.9502 22.6472 20.1245 22.5279 20.2896 22.5646C20.4547 22.6013 20.5556 22.7849 20.5189 22.9684C20.473 23.1611 20.3171 23.2804 20.1428 23.2437C19.9777 23.207 19.8768 23.0326 19.9135 22.8399ZM22.0323 28.2081C21.6562 28.1897 21.1242 27.7125 20.8307 27.7401C20.7023 27.7493 20.5647 27.786 20.4363 27.8318C20.3446 27.8594 20.2437 27.8869 20.152 27.9053C20.0602 27.9236 19.9685 27.9328 19.8768 27.9328C19.7484 27.9328 19.62 27.8961 19.4916 27.8227C19.3907 27.7676 18.7578 27.1344 18.8403 27.0702C18.8862 27.0427 19.1338 27.061 19.2164 27.0243C19.5558 26.8867 19.7667 26.5563 20.1061 26.5013C20.1887 26.4829 20.2712 26.4921 20.3721 26.5104C20.3996 26.5196 20.418 26.5196 20.4455 26.5288C20.4913 26.5472 20.5556 26.6022 20.6198 26.6573C20.7298 26.7674 20.8399 26.8959 20.8582 26.8959C20.95 26.9142 21.0784 26.8224 21.2343 26.7399C21.3535 26.6756 21.4911 26.6206 21.6471 26.6114C21.7571 26.6022 21.8764 26.6114 22.0048 26.6573C22.124 26.7032 22.39 26.8592 22.6744 26.9968C22.8303 27.0702 22.9954 27.1436 23.1513 27.1803C23.2889 27.217 23.4173 27.217 23.509 27.1803C23.6099 27.1344 23.5824 27.1987 23.4723 27.3088C23.4173 27.3638 23.3439 27.4373 23.2522 27.5107C22.8945 27.8227 22.3166 28.2264 22.0323 28.2081Z" fill="white"/>
<path d="M17.9505 19.2427C21.3993 20.8485 24.8022 21.9497 26.7467 21.3624C26.8385 21.3349 26.9302 21.3073 27.0127 21.2706C27.0219 21.2615 27.0402 21.2615 27.0494 21.2615C27.132 21.2248 27.2053 21.188 27.2879 21.1422C29.2966 20.0502 29.1866 16.9853 28.0859 15.5446C24.683 11.0758 14.6668 6.57019 14.2449 8.45133C14.0064 9.52496 15.9968 10.984 16.6755 11.5162C16.5746 11.4703 16.4737 11.4245 16.382 11.3694C14.4467 10.2407 12.6581 9.0845 10.576 8.43298C10.1173 8.29534 9.18176 7.95581 8.76901 8.29534C7.62247 9.24967 9.90637 11.2226 10.9795 12.0668C10.7594 11.9659 10.576 11.8924 10.4842 11.8557C8.96163 11.1492 7.49406 10.2499 5.84304 10.0664C5.4578 10.0205 4.21037 9.96542 4.72402 10.9014C5.21932 11.7915 6.46676 12.4706 7.20054 13.0028C8.68646 14.0948 13.0433 16.8935 17.4277 18.9857C17.5102 19.0224 17.6019 19.0683 17.6845 19.105C17.7762 19.1601 17.8588 19.206 17.9505 19.2427Z" fill="#133844"/>
<path d="M20.4177 25.1981C20.5095 25.4458 20.7938 25.5743 21.1974 25.6844C21.2433 25.6936 21.2799 25.6936 21.3166 25.6936C21.4175 25.6752 21.5001 25.6018 21.5276 25.5009C21.5643 25.3541 21.4817 25.2072 21.3441 25.1705C21.0965 25.0971 20.9864 25.0512 20.9406 25.0237C20.9681 24.9778 21.0048 24.9136 21.0415 24.8585C21.1882 24.6291 21.39 24.3263 21.4175 23.8767C21.4267 23.7299 21.3166 23.6014 21.1699 23.5922C21.0231 23.583 20.8947 23.6931 20.8855 23.84C20.8672 24.1428 20.7204 24.363 20.592 24.5557C20.4636 24.7576 20.326 24.9595 20.4177 25.1981Z" fill="#133844"/>
<path d="M20.1428 23.2437C20.3079 23.2804 20.473 23.1519 20.5189 22.9684C20.5556 22.7757 20.4547 22.6013 20.2896 22.5646C20.1245 22.5279 19.9502 22.6564 19.9135 22.8399C19.8768 23.0326 19.9777 23.207 20.1428 23.2437Z" fill="#133844"/>
<path d="M23.1966 23.7667C23.3617 23.8034 23.5268 23.675 23.5726 23.4914C23.6093 23.2987 23.5176 23.1244 23.3433 23.0877C23.1782 23.051 23.0039 23.1795 22.9672 23.363C22.9305 23.5557 23.0314 23.73 23.1966 23.7667Z" fill="#133844"/>
<path d="M23.4722 27.3087C23.5823 27.1986 23.6098 27.1344 23.5089 27.1802C23.4172 27.2261 23.2887 27.2169 23.1512 27.1802C23.0044 27.1435 22.8393 27.0793 22.6742 26.9967C22.3899 26.8591 22.1239 26.7031 22.0046 26.6572C21.8762 26.6113 21.757 26.6021 21.6469 26.6113C21.491 26.6205 21.3534 26.6847 21.2341 26.7398C21.069 26.8224 20.9498 26.905 20.8581 26.8958C20.8397 26.8958 20.7297 26.7581 20.6196 26.6572C20.5554 26.593 20.4912 26.5471 20.4453 26.5287C20.4178 26.5195 20.3995 26.5104 20.3719 26.5104C20.2711 26.4828 20.1885 26.4828 20.1059 26.5012C19.7666 26.5563 19.5556 26.8866 19.2162 27.0242C19.1337 27.061 18.886 27.0334 18.8402 27.0701C18.7576 27.1344 19.3905 27.7675 19.4914 27.8226C19.6198 27.896 19.7482 27.9235 19.8766 27.9327C19.9684 27.9327 20.0601 27.9235 20.1518 27.9052C20.2435 27.8868 20.3444 27.8593 20.4362 27.8318C20.5737 27.7951 20.7022 27.7583 20.8306 27.74C21.1241 27.7125 21.6561 28.1896 22.0321 28.208C22.3257 28.2263 22.8943 27.8226 23.2521 27.5106C23.3346 27.4372 23.4172 27.3638 23.4722 27.3087Z" fill="#133844"/>
</svg>
