<svg width="42" height="42" viewBox="0 0 42 42" fill="none" xmlns="http://www.w3.org/2000/svg">
<path d="M21.0046 0C9.40573 0 0 9.40162 0 20.9954C0 25.0954 1.17457 28.9203 3.21171 32.1581C3.22089 32.1489 3.22089 32.1398 3.23007 32.1306C3.28513 32.0572 3.38606 32.0114 3.47783 32.0297C5.15709 32.259 10.5161 32.47 16.5082 32.6534C16.5265 32.5434 16.5449 32.4333 16.5633 32.3232C16.6183 31.9747 16.6734 31.6169 16.7284 31.2592C16.2513 30.9657 15.8475 30.5805 15.5447 30.1127C14.9207 29.1404 14.572 27.6086 14.3885 25.9209C14.2049 25.8567 14.0214 25.7558 13.8654 25.5816C13.5718 25.2697 13.4066 24.591 13.4984 24.0314C13.5626 23.6462 13.7278 23.371 13.9939 23.2335C14.0489 23.2059 14.1315 23.1876 14.2141 23.1693C14.2049 22.7565 14.2049 22.3437 14.2049 21.931C13.7645 20.7386 13.6819 17.886 13.9755 16.5102C13.6177 15.9965 13.3607 15.4095 13.4984 14.8316C13.5167 14.7582 13.5442 14.694 13.5718 14.6207C12.3605 13.309 11.8833 12.0891 13.0028 10.8325C14.4527 9.209 20.4448 9.36493 23.8676 12.5019C24.3815 12.4927 24.8862 12.5936 25.345 12.8871C30.1717 15.9506 26.4278 18.2621 26.3636 22.9124C26.336 24.5359 25.4826 25.5541 24.3081 26.1594C24.1521 27.7554 23.8401 29.1313 23.2528 29.8559C23.106 30.0393 22.9408 30.2136 22.7756 30.3787C22.9041 31.1583 23.0417 31.993 23.1885 32.8185C30.8232 33.002 37.7422 33.1212 37.8798 33.1304C37.9532 33.1304 38.0267 33.1671 38.0725 33.2221C40.541 29.7825 42 25.5541 42 20.9954C42.0092 9.40162 32.6035 0 21.0046 0Z" fill="#CBE8F1"/>
<path d="M23.28 33.3688C23.4819 34.5703 23.6746 35.726 23.8306 36.6433C23.8398 36.7167 23.8215 36.7992 23.7756 36.8634C23.7297 36.9276 23.6563 36.9551 23.5737 36.9551C21.9495 36.9643 20.9493 37.6247 19.894 38.3218C18.9764 38.9272 18.0312 39.5509 16.6731 39.7252C16.4345 39.7527 16.1868 39.771 15.9206 39.771C15.8472 39.771 15.7738 39.7435 15.7188 39.6885C15.6637 39.6334 15.6453 39.5601 15.6453 39.4867C15.8656 36.9918 16.1501 35.029 16.4345 33.1853C10.6259 33.0111 5.43211 32.8001 3.56932 32.58C3.55097 32.5983 3.54179 32.6166 3.52344 32.6442C7.28573 38.2851 13.7091 41.9999 21.0043 41.9999C27.7306 41.9999 33.7135 38.8446 37.5584 33.9283C37.5676 33.8366 37.5768 33.7448 37.5859 33.6715C36.1177 33.6348 29.9879 33.5339 23.28 33.3688Z" fill="#133844"/>
<path d="M23.1881 32.8276C23.0505 32.0021 22.9128 31.1674 22.7752 30.3877C22.9495 30.2226 23.1055 30.0484 23.2524 29.8649C23.8396 29.1311 24.1608 27.7645 24.3076 26.1685C24.3352 25.875 24.3627 25.5814 24.3719 25.2788C24.4636 25.2604 24.5646 25.2237 24.6563 25.1687C25.0693 24.9302 25.3446 24.3799 25.3078 23.8662C25.262 23.27 25.0693 22.8664 24.7389 22.6738C24.638 22.6188 24.537 22.5821 24.4178 22.5729C24.4178 22.5271 24.4178 22.4812 24.4178 22.4353C24.3627 22.4812 24.3076 22.5271 24.2526 22.5638C24.2159 22.5913 24.1883 22.6096 24.1516 22.6371C24.069 22.7013 23.9773 22.7564 23.8855 22.8114C23.7203 22.9123 23.5552 22.9949 23.39 23.0499C23.39 23.0774 23.3992 23.1049 23.4175 23.1324C23.4634 23.2242 23.5644 23.2792 23.6653 23.2792C23.702 23.2792 23.7387 23.27 23.7754 23.2517C23.8121 23.2333 23.8488 23.215 23.8947 23.1966C23.9773 23.16 24.069 23.1324 24.1608 23.1141C24.2526 23.0958 24.3535 23.0958 24.4269 23.1324C24.4453 23.1416 24.4636 23.1416 24.4728 23.1508C24.638 23.2425 24.7481 23.5085 24.7756 23.9121C24.794 24.2056 24.6288 24.5541 24.3994 24.7009C24.3902 24.7009 24.3902 24.7101 24.381 24.7101C24.2984 24.7559 24.2159 24.7743 24.1241 24.7651C24.0415 24.7559 23.9589 24.7193 23.8672 24.6642C23.858 24.6642 23.858 24.655 23.8488 24.655C23.8029 24.6184 23.7479 24.6092 23.6928 24.6092C23.6102 24.6092 23.5277 24.655 23.4818 24.7284C23.3992 24.8477 23.4359 25.0128 23.5552 25.0953C23.6469 25.1595 23.7479 25.2054 23.8488 25.2421C23.8305 25.6457 23.7938 26.0401 23.7571 26.4161C23.6102 27.7828 23.3258 28.9293 22.8394 29.5347C22.7844 29.6081 22.7293 29.6723 22.6651 29.7365C22.5917 29.8191 22.5091 29.9016 22.4357 29.975C22.3622 30.0484 22.2797 30.1217 22.1971 30.1859C21.2611 30.9748 20.059 31.3967 18.8202 31.3233C18.2696 31.2958 17.7649 31.1674 17.3153 30.9472C17.2327 30.9106 17.1501 30.8647 17.0675 30.8188C16.9849 30.773 16.9023 30.7179 16.8198 30.6629C16.4894 30.4336 16.2141 30.1493 16.0031 29.8099C15.4433 28.9385 15.1221 27.5535 14.9478 25.9942C14.9386 25.9025 14.9294 25.8199 14.9203 25.7282C14.9111 25.6365 14.9019 25.5448 14.8927 25.4622C14.8377 24.9027 14.8101 24.3248 14.7826 23.747C14.7826 23.6553 14.7734 23.5635 14.7734 23.4718C14.7734 23.3801 14.7643 23.2884 14.7643 23.1966C14.7551 22.9765 14.7551 22.7655 14.7551 22.5454C14.7367 20.5825 14.856 18.7297 14.9386 17.6015C14.9111 17.574 14.8927 17.5557 14.8652 17.5373C14.8101 17.4823 14.7459 17.4181 14.6909 17.3539C14.6083 17.2713 14.5257 17.1796 14.4431 17.0879C14.3605 18.0418 14.2229 19.8854 14.2137 21.9309C14.2137 22.3345 14.2137 22.7472 14.2229 23.1691C14.1311 23.1783 14.0577 23.1966 14.0026 23.2333C13.7365 23.3709 13.5713 23.6553 13.5071 24.0313C13.4153 24.5908 13.5805 25.2696 13.8742 25.5814C14.0302 25.7465 14.2137 25.8566 14.3972 25.9208C14.5807 27.6085 14.9294 29.1403 15.5534 30.1126C15.8471 30.5804 16.2508 30.9656 16.7372 31.2591C16.6821 31.6168 16.6271 31.9745 16.572 32.3231C16.5536 32.4332 16.5353 32.5432 16.5169 32.6533C10.5156 32.479 5.15665 32.2589 3.48656 32.0296C3.3948 32.0204 3.29387 32.0571 3.23881 32.1305C3.22963 32.1396 3.22964 32.1488 3.22046 32.158C3.27552 32.2405 3.32139 32.3231 3.37645 32.3965C3.43151 32.479 3.47739 32.5524 3.53244 32.635C3.5508 32.6166 3.55997 32.5983 3.57833 32.5707C5.44112 32.7909 10.6349 33.0018 16.4435 33.1761C16.1591 35.0198 15.8746 36.9826 15.6544 39.4775C15.6452 39.5509 15.6727 39.6243 15.7278 39.6793C15.7828 39.7343 15.8471 39.7618 15.9297 39.7618C16.1958 39.7618 16.4435 39.7435 16.6821 39.716C18.0402 39.5325 18.9854 38.918 19.903 38.3126C20.9583 37.6155 21.9585 36.9551 23.5827 36.9459C23.6653 36.9459 23.7387 36.9092 23.7846 36.8542C23.8396 36.79 23.858 36.7166 23.8396 36.6341C23.6836 35.726 23.4909 34.5703 23.2891 33.3596C29.9969 33.5247 36.1267 33.6347 37.5949 33.6531C37.5858 33.7265 37.5766 33.809 37.5674 33.9099C37.6684 33.7723 37.7785 33.6439 37.8794 33.5063C37.9528 33.4146 38.0171 33.3137 38.0905 33.222C38.0446 33.1669 37.9712 33.1303 37.8978 33.1303C37.7418 33.1303 30.8228 33.011 23.1881 32.8276ZM19.591 37.8723C18.6 38.5236 17.6548 39.1473 16.2049 39.2298C16.416 36.8634 16.6913 34.9739 16.9757 33.1945C16.9941 33.1027 17.0033 33.011 17.0216 32.9285C17.04 32.8367 17.0492 32.7542 17.0675 32.6625C17.0767 32.5707 17.095 32.4882 17.1042 32.3965C17.1501 32.103 17.196 31.8003 17.2419 31.5068C17.719 31.7086 18.2421 31.837 18.8018 31.8645C19.1322 31.8828 19.4625 31.8737 19.7837 31.8278C20.7013 31.7086 21.5731 31.3508 22.3072 30.7913C22.4173 31.4426 22.5274 32.1305 22.6467 32.8092C22.6651 32.901 22.6742 32.9927 22.6926 33.0752C22.711 33.1669 22.7201 33.2587 22.7385 33.3412C22.922 34.4511 23.1055 35.5242 23.2524 36.4139C21.6465 36.5148 20.6004 37.2028 19.591 37.8723ZM14.2596 25.2054C14.0944 25.0311 13.9659 24.5266 14.0302 24.1047C14.0485 23.9855 14.1036 23.7745 14.2412 23.7011C14.2596 24.2239 14.2871 24.7559 14.333 25.2696C14.3054 25.2512 14.2871 25.2329 14.2596 25.2054Z" fill="#133844"/>
<path d="M14.031 24.1139C13.9668 24.5358 14.0953 25.0403 14.2604 25.2146C14.288 25.2421 14.3063 25.2604 14.3338 25.2788C14.288 24.7651 14.2604 24.2331 14.2421 23.7103C14.1044 23.7837 14.0494 23.9947 14.031 24.1139Z" fill="white"/>
<path d="M22.6925 33.0846C22.6741 32.9928 22.665 32.9011 22.6466 32.8186C22.5365 32.1398 22.4172 31.4519 22.3071 30.8007C21.573 31.351 20.7012 31.7179 19.7836 31.8371C19.4624 31.883 19.1321 31.8922 18.8017 31.8738C18.242 31.8463 17.7097 31.7179 17.2418 31.5161C17.1959 31.8188 17.15 32.1123 17.1041 32.4058C17.0949 32.4975 17.0766 32.5801 17.0674 32.6718C17.049 32.7635 17.0399 32.8461 17.0215 32.9378C17.0032 33.0295 16.994 33.1121 16.9756 33.2038C16.7003 34.9832 16.4251 36.8727 16.2048 39.2392C17.6547 39.1566 18.5998 38.5329 19.5909 37.8817C20.6003 37.2121 21.6464 36.5242 23.2522 36.4325C23.1054 35.5427 22.9219 34.4696 22.7384 33.3597C22.72 33.2588 22.7017 33.1763 22.6925 33.0846Z" fill="white"/>
<path d="M22.6377 22.9308C22.1697 22.2429 22.344 20.7478 22.3624 19.9681C22.3807 19.4912 22.4174 19.0142 22.445 18.5373C21.2429 18.9408 19.8572 19.161 18.5358 19.0693C17.7558 19.0142 17.0034 18.8491 16.3243 18.5373C15.8105 18.308 15.3425 18.0053 14.9387 17.6017C14.847 18.7299 14.7368 20.5827 14.7552 22.5456C14.7552 22.7565 14.7644 22.9767 14.7644 23.1968C14.7644 23.2885 14.7644 23.3802 14.7735 23.472C14.7735 23.5637 14.7827 23.6554 14.7827 23.7471C14.8011 24.325 14.8378 24.9028 14.8928 25.4624C14.902 25.5541 14.9112 25.6458 14.9204 25.7283C14.9296 25.8201 14.9387 25.9118 14.9479 25.9943C15.1222 27.5445 15.4526 28.9295 16.0032 29.81C16.2142 30.1402 16.4895 30.4337 16.8199 30.6631C16.9025 30.7181 16.985 30.7731 17.0676 30.819C17.1502 30.8648 17.2328 30.9107 17.3154 30.9474C17.765 31.1584 18.2697 31.2868 18.8203 31.3235C20.0591 31.3877 21.2612 30.9749 22.1972 30.1861C22.2798 30.1219 22.3532 30.0485 22.4358 29.9751C22.5184 29.9017 22.5918 29.8192 22.6652 29.7366C22.7202 29.6724 22.7845 29.5991 22.8395 29.5349C23.3259 28.9295 23.6104 27.7829 23.7572 26.4163C23.7939 26.0402 23.8306 25.6458 23.8489 25.2422C23.748 25.2055 23.6562 25.1597 23.5553 25.0955C23.436 25.0129 23.3993 24.8478 23.4819 24.7286C23.5278 24.6552 23.6103 24.6093 23.6929 24.6093C23.748 24.6093 23.8031 24.6185 23.8489 24.6552C23.8581 24.6552 23.8581 24.6644 23.8673 24.6644C23.959 24.7194 24.0416 24.7561 24.1242 24.7653C24.216 24.7744 24.2986 24.7561 24.3811 24.7102C24.3903 24.7102 24.3903 24.7011 24.3995 24.7011C24.6289 24.5543 24.7941 24.2149 24.7757 23.9122C24.7482 23.5087 24.6381 23.2427 24.4729 23.1509C24.4546 23.1418 24.4454 23.1418 24.427 23.1326C24.3444 23.1051 24.2527 23.0959 24.1609 23.1142C24.0692 23.1326 23.9774 23.1601 23.8948 23.1968C23.8581 23.2151 23.8122 23.2335 23.7755 23.2518C23.7388 23.2702 23.7021 23.2793 23.6654 23.2793C23.5645 23.2793 23.4635 23.2243 23.4176 23.1326C23.4085 23.1051 23.3993 23.0776 23.3901 23.05C23.0781 23.1601 22.7937 23.1601 22.6377 22.9308ZM20.1325 22.2887C20.16 22.0961 20.3252 21.9677 20.4904 21.9952C20.6647 22.0227 20.7749 22.197 20.7382 22.3896C20.7106 22.5822 20.5455 22.7107 20.3803 22.6831C20.2243 22.6465 20.105 22.4722 20.1325 22.2887ZM18.0862 22.8758C18.0862 22.729 18.2055 22.6098 18.3523 22.6098C18.4991 22.6098 18.6184 22.729 18.6184 22.8758C18.6184 23.3252 18.4349 23.6462 18.2973 23.8755C18.2697 23.9306 18.2238 24.004 18.2055 24.0498C18.2514 24.0773 18.3615 24.1232 18.6184 24.1782C18.7652 24.2057 18.857 24.3525 18.8203 24.4993C18.7928 24.6093 18.701 24.6919 18.5909 24.7102C18.5634 24.7102 18.5267 24.7102 18.4991 24.7102C18.0954 24.6185 17.8017 24.5176 17.6916 24.27C17.5907 24.0406 17.71 23.8205 17.8293 23.6187C17.9486 23.4078 18.0862 23.1876 18.0862 22.8758ZM17.0493 21.9402C17.0768 21.7476 17.242 21.6192 17.4072 21.6467C17.5723 21.6742 17.6824 21.8485 17.6549 22.0411C17.6274 22.2337 17.4622 22.3621 17.297 22.3346C17.141 22.3071 17.0217 22.1328 17.0493 21.9402ZM19.481 27.1776C19.1048 27.1776 18.545 26.7281 18.2514 26.774C18.1229 26.7923 17.9944 26.8382 17.8568 26.8841C17.765 26.9208 17.6733 26.9483 17.5815 26.9758C17.4897 27.0033 17.398 27.0125 17.3062 27.0216C17.1777 27.0216 17.0493 27.0033 16.9116 26.9391C16.8107 26.8932 16.1408 26.2879 16.2234 26.2237C16.2601 26.187 16.517 26.1961 16.5996 26.1594C16.93 26.0035 17.1135 25.6641 17.453 25.5908C17.5356 25.5724 17.6182 25.5724 17.7192 25.5908C17.7467 25.5908 17.765 25.5999 17.7926 25.6091C17.8384 25.6183 17.9118 25.6733 17.9761 25.7283C18.0954 25.8292 18.2055 25.9577 18.233 25.9577C18.3248 25.9668 18.4441 25.8751 18.6001 25.7834C18.7102 25.7192 18.8478 25.655 19.0038 25.6275C19.114 25.6091 19.2241 25.6183 19.3617 25.655C19.3709 25.655 19.3892 25.6641 19.4076 25.6733C19.5452 25.7283 19.793 25.8568 20.0591 25.9577C20.2151 26.0219 20.3803 26.0769 20.5271 26.1044C20.6739 26.1319 20.8024 26.1319 20.8942 26.0861C20.9951 26.031 20.9676 26.0952 20.8666 26.2145C20.8116 26.2787 20.7473 26.3521 20.6647 26.4346C20.573 26.5263 20.4629 26.6272 20.3527 26.719C20.0408 26.9483 19.6921 27.1776 19.481 27.1776Z" fill="white"/>
<path d="M17.7011 24.2606C17.8113 24.4991 18.0957 24.6092 18.5087 24.7009C18.5362 24.7101 18.5729 24.7101 18.6004 24.7009C18.7105 24.6826 18.8023 24.6092 18.8298 24.4899C18.8574 24.3432 18.7656 24.2056 18.6279 24.1689C18.3802 24.1139 18.2609 24.068 18.215 24.0405C18.2334 23.9946 18.2792 23.9213 18.3068 23.8662C18.4444 23.6369 18.6279 23.3159 18.6279 22.8665C18.6279 22.7197 18.5087 22.6005 18.3618 22.6005C18.215 22.6005 18.0957 22.7197 18.0957 22.8665C18.0957 23.1691 17.9673 23.3984 17.848 23.6002C17.7195 23.8204 17.591 24.0313 17.7011 24.2606Z" fill="#133844"/>
<path d="M17.3067 22.3253C17.481 22.3529 17.637 22.2153 17.6645 22.0318C17.6921 21.8392 17.582 21.6649 17.4168 21.6374C17.2424 21.6099 17.0864 21.7475 17.0589 21.9309C17.0222 22.1327 17.1415 22.307 17.3067 22.3253Z" fill="#133844"/>
<path d="M20.3894 22.6739C20.5546 22.7014 20.7198 22.5638 20.7473 22.3803C20.7749 22.1877 20.6647 22.0135 20.4996 21.9859C20.3344 21.9584 20.1692 22.096 20.1417 22.2794C20.105 22.4721 20.2243 22.6463 20.3894 22.6739Z" fill="#133844"/>
<path d="M20.8668 26.1961C20.9677 26.0768 20.9953 26.0126 20.8943 26.0677C20.8026 26.1135 20.6741 26.1135 20.5273 26.086C20.3805 26.0585 20.2153 26.0035 20.0593 25.9392C19.7932 25.8292 19.5454 25.7008 19.4078 25.6549C19.3894 25.6457 19.3802 25.6457 19.3619 25.6366C19.2334 25.5999 19.1141 25.5907 19.004 25.609C18.848 25.6274 18.7104 25.6916 18.6003 25.765C18.4443 25.8567 18.325 25.9484 18.2332 25.9392C18.2057 25.9392 18.0956 25.8108 17.9763 25.7099C17.912 25.6549 17.8478 25.5999 17.7927 25.5907C17.7652 25.5815 17.7469 25.5815 17.7193 25.5724C17.6184 25.554 17.5266 25.554 17.4532 25.5724C17.1137 25.6457 16.9302 25.9851 16.5998 26.141C16.5172 26.1777 16.2695 26.1777 16.2236 26.2052C16.141 26.2786 16.8109 26.8748 16.9118 26.9207C17.0495 26.9849 17.1779 27.0124 17.3064 27.0032C17.3982 27.0032 17.4899 26.9849 17.5817 26.9574C17.6734 26.9299 17.7652 26.9023 17.857 26.8656C17.9854 26.8198 18.1139 26.7739 18.2516 26.7556C18.5452 26.7097 19.1049 27.1592 19.4812 27.1592C19.6922 27.1592 20.0409 26.9299 20.3438 26.6822C20.463 26.5905 20.564 26.4896 20.6558 26.3979C20.7383 26.3245 20.8117 26.2511 20.8668 26.1961Z" fill="#133844"/>
<path d="M14.6918 17.354C14.756 17.4182 14.8111 17.4824 14.8661 17.5375C14.8937 17.565 14.912 17.5833 14.9395 17.6017C15.3433 17.9961 15.8113 18.308 16.3252 18.5373C17.0042 18.84 17.7567 19.0051 18.5367 19.0693C19.858 19.1702 21.2528 18.9408 22.4458 18.5373C22.4182 19.0234 22.3815 19.5004 22.3632 19.9681C22.3357 20.7478 22.1613 22.2429 22.6385 22.9308C22.7945 23.1601 23.0881 23.1601 23.4093 23.05C23.5653 22.995 23.7396 22.9125 23.9048 22.8116C23.9966 22.7565 24.0792 22.7015 24.1709 22.6373C24.2076 22.6098 24.2351 22.5914 24.2718 22.5639C24.3269 22.518 24.382 22.4814 24.437 22.4355C24.437 22.4814 24.437 22.5272 24.437 22.5731C24.5471 22.5914 24.6573 22.6189 24.7582 22.674C25.0885 22.8666 25.2812 23.261 25.3271 23.8664C25.3638 24.38 25.0886 24.9212 24.6756 25.1688C24.5839 25.2239 24.4921 25.2606 24.3911 25.2789C24.3728 25.5816 24.3544 25.8751 24.3269 26.1686C25.5015 25.5632 26.3549 24.5451 26.3824 22.9216C26.4558 18.2713 30.1906 15.9507 25.3638 12.8963C24.905 12.6028 24.4003 12.4927 23.8864 12.5111C20.4637 9.37414 14.4715 9.20904 13.0217 10.8417C11.893 12.0983 12.3794 13.3091 13.5906 14.6299C13.5631 14.6941 13.5356 14.7674 13.5172 14.8408C13.3704 15.4187 13.6273 16.0057 13.9944 16.5194C13.7099 17.9044 13.7925 20.757 14.2238 21.9402C14.233 19.8948 14.3706 18.0511 14.4532 17.0972C14.5266 17.1798 14.6184 17.2715 14.6918 17.354Z" fill="#133844"/>
</svg>
