<svg width="42" height="42" viewBox="0 0 42 42" fill="none" xmlns="http://www.w3.org/2000/svg">
<path d="M15.835 18.3263C15.7616 18.3171 15.6974 18.3171 15.624 18.3171C14.1378 18.3171 12.9268 19.5279 12.9268 21.0138C12.9268 22.4997 14.1378 23.7104 15.624 23.7104C15.6699 23.7104 15.7157 23.7104 15.7616 23.7104C15.7433 22.0961 15.7616 20.2525 15.835 18.3263Z" fill="#CBE8F1"/>
<path d="M17.4495 35.1941C17.5229 34.7906 17.5963 34.387 17.6697 33.9926C17.7615 33.4789 17.8624 32.9561 17.9541 32.4149C17.3119 32.0205 16.9174 31.4427 16.6789 30.8281C16.5229 30.4245 16.3945 30.0118 16.3028 29.5807C16.1927 29.3055 16.1009 29.0028 16.0459 28.6818C15.9083 27.9022 15.8073 26.297 15.7706 24.2424C15.7248 24.2424 15.6697 24.2424 15.6239 24.2424C13.844 24.2424 12.3945 22.7932 12.3945 21.0138C12.3945 19.4361 13.5321 18.1153 15.0367 17.8401C13.5505 16.9688 12.422 15.6296 12.2018 15.3636C10.0092 12.7312 8.86238 6.53986 13.8257 5.18235C19.2294 3.70561 17.6422 9.93361 20.1927 11.392C21.156 11.9423 22.211 11.8231 23.1835 12.0708C24.2752 12.1074 25.3119 12.4101 25.9266 12.9605C28.3303 15.1068 28.2844 19.7847 27.5229 22.7381C27.1651 24.1232 26.3486 25.0771 25.3395 25.6091C25.2294 27.7462 24.9908 29.7366 24.4862 30.663C24.2936 31.0116 24.0917 31.3326 23.844 31.6078L24.3761 35.3684C29.0459 35.4785 33.4128 35.5702 36.0734 35.6161C39.7431 31.8371 42 26.6822 42 20.9954C42 9.40161 32.5963 0 21 0C9.40367 0 0 9.41079 0 21.0138C0 26.2145 1.89908 30.9841 5.0367 34.653C7.23853 34.8456 12.1009 35.029 17.4495 35.1941Z" fill="#CBE8F1"/>
<path d="M24.8168 38.487C24.826 38.5604 24.8077 38.6429 24.7526 38.698C24.6976 38.753 24.615 38.7805 24.5508 38.7897C22.9269 38.753 21.9086 39.3951 20.8352 40.0647C19.7618 40.7342 18.6609 41.4222 16.9453 41.4222C16.9086 41.4222 16.8719 41.4222 16.826 41.4222C16.7526 41.4222 16.6792 41.3855 16.6334 41.3304C16.5875 41.2754 16.56 41.202 16.5691 41.1286C16.8077 39.0282 17.0737 37.313 17.3581 35.7262C12.4499 35.5794 7.96363 35.4051 5.55078 35.2217C9.38564 39.3859 14.8902 42 21.0003 42C26.6425 42 31.771 39.7711 35.5416 36.1481C32.8627 36.1022 28.7985 36.0197 24.4499 35.9096L24.8168 38.487Z" fill="#133844"/>
<path d="M18.4499 32.6626C18.3673 33.1488 18.2756 33.6165 18.193 34.0843C18.1288 34.4512 18.0554 34.8273 17.9911 35.2034C17.9728 35.2951 17.9636 35.3776 17.9453 35.4694C17.9269 35.5611 17.9178 35.6436 17.8994 35.7353C17.6334 37.2579 17.3673 38.8998 17.1379 40.881C18.5875 40.8352 19.5508 40.2389 20.5508 39.6061C21.5783 38.964 22.6425 38.3036 24.248 38.2486L23.9086 35.8913L23.8719 35.6253L23.8352 35.3593L23.3673 32.0573C23.0645 32.2957 22.7251 32.47 22.3214 32.5801C20.5783 33.0754 19.3398 33.0112 18.4499 32.6626Z" fill="white"/>
<path d="M23.8441 31.6078C23.7707 31.6903 23.6881 31.7729 23.6056 31.8554C23.5322 31.9288 23.4496 31.993 23.367 32.0664L23.8349 35.3684L23.8716 35.6344L23.9083 35.9004L24.2478 38.2577C22.6423 38.3127 21.578 38.9732 20.5505 39.6152C19.5414 40.2481 18.5872 40.8443 17.1377 40.8902C17.367 38.9089 17.6331 37.2671 17.8991 35.7445C17.9175 35.6528 17.9267 35.5611 17.945 35.4785C17.9634 35.3868 17.9725 35.3042 17.9909 35.2125C18.0551 34.8364 18.1285 34.4604 18.1927 34.0935C18.2753 33.6257 18.367 33.1579 18.4496 32.6718C18.367 32.6351 18.2753 32.5984 18.2019 32.5617C18.1193 32.5158 18.0368 32.47 17.9542 32.4241C17.8625 32.9561 17.7615 33.4789 17.6698 34.0018C17.5964 34.3962 17.523 34.7998 17.4496 35.2033C12.0918 35.0474 7.2386 34.8548 5.02759 34.653C5.11016 34.7539 5.19273 34.8456 5.28447 34.9465C5.36704 35.0474 5.45878 35.1391 5.54135 35.24C7.96337 35.4235 12.4404 35.5977 17.3487 35.7445C17.0735 37.3313 16.7982 39.0465 16.5597 41.147C16.5505 41.2204 16.578 41.2937 16.6239 41.3488C16.6698 41.4038 16.7432 41.4405 16.8166 41.4405C16.8533 41.4405 16.89 41.4405 16.9358 41.4405C18.6514 41.4405 19.7524 40.7526 20.8258 40.083C21.8991 39.4134 22.9083 38.7714 24.5414 38.8081C24.6147 38.8081 24.6973 38.7805 24.7432 38.7163C24.7982 38.6613 24.8166 38.5787 24.8074 38.5054L24.4404 35.9371C28.7891 36.038 32.8533 36.1206 35.5322 36.1756C35.6239 36.093 35.7157 36.0013 35.7982 35.9096C35.8808 35.8271 35.9725 35.7353 36.0551 35.6436C33.3946 35.5977 29.0368 35.506 24.3579 35.396L23.8441 31.6078Z" fill="#133844"/>
<path d="M16.2936 23.6187C17.1376 23.3985 17.8257 22.784 18.1376 21.9768C18.2569 21.6741 18.3211 21.3531 18.3211 21.0137C18.3211 20.2249 17.9725 19.5095 17.4312 19.0142C17.1468 18.7573 16.8165 18.5647 16.4496 18.4455C16.4221 18.4363 16.3945 18.4271 16.3762 18.4271C16.2936 20.2799 16.2753 22.0685 16.2936 23.6187ZM17.7156 21.2981C17.789 21.2981 17.8624 21.3347 17.9175 21.3806C17.9817 21.4448 18.0276 21.5365 18.0276 21.6466C18.0276 21.6558 18.0276 21.6741 18.0276 21.6833C18.0092 21.8576 17.8808 21.9952 17.7248 21.9952C17.5505 21.9952 17.4129 21.8392 17.4129 21.6466C17.4129 21.454 17.5505 21.2981 17.7156 21.2981Z" fill="white"/>
<path d="M22.0555 23.5821C22.6794 23.5821 23.2574 23.362 23.7161 23.0043C23.7436 22.9493 23.7803 22.9126 23.8354 22.8851C23.8537 22.8759 23.8629 22.8759 23.8812 22.8667C24.0188 22.7383 24.1473 22.5915 24.2574 22.4356C24.3032 21.3074 24.2941 20.1884 24.3032 19.4087C24.2941 19.3996 24.2849 19.3812 24.2757 19.3721C24.0922 19.2253 23.9179 18.996 23.6886 18.7575C23.2299 18.409 22.6702 18.198 22.0464 18.198C20.5601 18.198 19.3491 19.4087 19.3491 20.8947C19.3583 22.3714 20.5693 23.5821 22.0555 23.5821ZM20.817 21.4267C20.9913 21.4267 21.1289 21.5826 21.1289 21.7752C21.1289 21.9678 20.9913 22.1238 20.817 22.1238C20.6427 22.1238 20.5051 21.9678 20.5051 21.7752C20.5143 21.5826 20.6519 21.4267 20.817 21.4267Z" fill="white"/>
<path d="M18.8256 20.6469C18.9265 19.216 19.9632 18.042 21.3302 17.7301C20.6513 17.7393 19.7981 17.9135 18.7064 18.3538C18.3853 18.4822 18.055 18.5556 17.7339 18.5831C18.3394 19.0968 18.7339 19.8306 18.8256 20.6469Z" fill="white"/>
<path d="M23.5963 24.7927C23.6422 24.6918 23.7523 24.6368 23.8532 24.6459C23.8899 24.6459 23.9174 24.6551 23.9541 24.6735C23.9816 24.6826 24.0092 24.701 24.0275 24.7102C24.2018 24.7744 24.3394 24.7744 24.4587 24.7377C24.578 24.701 24.6605 24.6276 24.7248 24.5542C24.7798 24.49 24.8257 24.4258 24.844 24.3891C25 24.0956 25 23.7012 24.7339 23.4627C24.6972 23.4352 24.6605 23.3985 24.6147 23.3802C24.5688 23.3527 24.5137 23.3343 24.4679 23.3251C24.3761 23.3068 24.2844 23.3068 24.2018 23.3251C24.1835 23.3251 24.1743 23.3343 24.1559 23.3343C24.0826 23.3985 24 23.4627 23.9266 23.5178C23.3945 23.8938 22.7523 24.1231 22.0459 24.1231C20.8991 24.1231 19.8899 23.5269 19.3211 22.6189C19.1468 22.8023 18.9633 23.105 18.8257 23.3802C18.6881 23.6737 18.5963 23.9397 18.6605 24.0314C18.6697 24.0497 18.789 24.1048 19.1468 23.9947C19.1743 23.9855 19.2018 23.9855 19.2293 23.9855C19.3394 23.9855 19.4495 24.0589 19.477 24.1782C19.4954 24.224 19.4862 24.2791 19.477 24.3249C19.4495 24.4166 19.3853 24.49 19.2936 24.5084C19.1009 24.5634 18.9358 24.5909 18.789 24.5909C18.5137 24.5909 18.3119 24.49 18.2018 24.2974C17.9816 23.9122 18.2293 23.2976 18.5229 22.8207C18.6972 22.5271 18.8899 22.2795 18.9908 22.1878C19.0183 22.1603 19.0459 22.1419 19.0734 22.1327C18.9541 21.8576 18.8807 21.5641 18.844 21.2522C18.8073 21.7475 18.6605 22.2153 18.422 22.628C17.9725 23.4077 17.211 23.9855 16.3027 24.1782C16.3119 24.8386 16.3303 25.4623 16.3578 26.0126C17.367 25.7833 20.6605 25.609 22.0734 26.4712C22.7798 26.9023 23.2569 26.6914 23.5871 26.1227C23.7248 25.8842 23.8348 25.5815 23.9266 25.2421C23.8624 25.2238 23.7981 25.1963 23.7248 25.1596C23.5871 25.0862 23.5321 24.9303 23.5963 24.7927Z" fill="white"/>
<path d="M16.055 26.1318C16.055 26.1226 16.0733 26.1043 16.0917 26.086C16.1375 26.0584 16.2293 26.0309 16.3577 26.0034C16.3302 25.4439 16.3119 24.8294 16.3027 24.1689C17.2109 23.9763 17.9724 23.3985 18.422 22.6188C18.6605 22.2061 18.8073 21.7475 18.844 21.243C18.8807 21.5548 18.9541 21.8484 19.0733 22.1235C19.0458 22.1327 19.0183 22.151 18.9908 22.1786C18.8898 22.2795 18.6972 22.5179 18.5229 22.8114C18.2293 23.2884 17.9816 23.9029 18.2018 24.2882C18.3119 24.4808 18.5137 24.5817 18.7889 24.5817C18.9357 24.5817 19.1009 24.5542 19.2935 24.4991C19.3853 24.4716 19.4495 24.3983 19.477 24.3157C19.4862 24.2698 19.4862 24.224 19.477 24.1689C19.4403 24.0497 19.3394 23.9763 19.2293 23.9763C19.2018 23.9763 19.1742 23.9763 19.1467 23.9855C18.7889 24.0864 18.6697 24.0405 18.6605 24.0222C18.6054 23.9213 18.688 23.6553 18.8256 23.371C18.9632 23.0958 19.1467 22.8023 19.321 22.6097C19.899 23.5085 20.899 24.1139 22.0458 24.1139C22.7431 24.1139 23.3944 23.8938 23.9265 23.5085C24.0091 23.4535 24.0825 23.3893 24.1559 23.3251C24.1742 23.3251 24.1834 23.3159 24.2018 23.3159C24.2843 23.2976 24.3761 23.2884 24.4678 23.3159C24.5137 23.3251 24.5687 23.3434 24.6146 23.371C24.6605 23.3985 24.6972 23.426 24.7339 23.4535C24.9999 23.692 24.9999 24.0956 24.844 24.3799C24.8256 24.4166 24.7797 24.4808 24.7247 24.545C24.6605 24.6184 24.5687 24.6918 24.4586 24.7285C24.3394 24.7651 24.2018 24.7651 24.0275 24.7009C23.9999 24.6918 23.9724 24.6826 23.9541 24.6642C23.9174 24.6459 23.8898 24.6367 23.8531 24.6367C23.7522 24.6276 23.6421 24.6826 23.5963 24.7835C23.532 24.9119 23.5871 25.077 23.7155 25.1412C23.7797 25.1779 23.8531 25.1962 23.9174 25.2238C24.0458 25.2605 24.1651 25.288 24.2843 25.288C24.3394 25.288 24.3944 25.2788 24.4495 25.2788C24.5412 25.2604 24.633 25.2329 24.7155 25.1962C24.8164 25.1504 24.899 25.0953 24.9816 25.0311C25.1192 24.9211 25.2293 24.7743 25.3119 24.6276C25.3302 24.5909 25.3486 24.5542 25.3669 24.5175C25.5045 24.1965 25.5229 23.8112 25.3853 23.481C25.3119 23.2884 25.1834 23.1141 24.9908 22.9765C24.9541 22.949 24.9082 22.9215 24.8623 22.894C24.8164 22.8665 24.7706 22.8481 24.7247 22.8298C24.6972 22.8206 24.6697 22.8114 24.6421 22.8023C24.6697 22.7656 24.6972 22.7197 24.7247 22.683C24.8256 22.5363 24.9174 22.3712 24.9908 22.2061C25.1742 21.8025 25.2752 21.3531 25.2752 20.8853C25.2752 20.3624 25.1559 19.8763 24.9357 19.4452C24.9357 19.436 24.9265 19.436 24.9265 19.4269C24.844 19.2618 24.7431 19.1058 24.633 18.9591C24.5412 18.8398 24.4495 18.7298 24.3486 18.6289C24.3394 18.6197 24.3302 18.6105 24.321 18.6014C23.7339 18.0143 22.9265 17.6566 22.0458 17.6566C21.7981 17.6566 21.5596 17.6841 21.3302 17.7392C19.9632 18.051 18.9265 19.2251 18.8256 20.656C18.7339 19.8305 18.3302 19.1058 17.7431 18.5922C17.6238 18.4913 17.5045 18.3996 17.3669 18.3078C17.0733 18.1152 16.7339 17.9685 16.3853 17.8859C16.3027 17.8676 16.2109 17.8492 16.1192 17.8309C16.0275 17.8125 15.9449 17.8034 15.8531 17.8034C15.7706 17.7942 15.6972 17.7942 15.6146 17.7942C15.4128 17.7942 15.2201 17.8125 15.0275 17.8492C13.5229 18.1244 12.3853 19.4452 12.3853 21.0229C12.3853 22.8023 13.8348 24.2515 15.6146 24.2515C15.6605 24.2515 15.7155 24.2515 15.7614 24.2515C15.7981 26.3061 15.9082 27.9112 16.0366 28.6909C16.0917 29.0119 16.1834 29.3146 16.2935 29.5898C16.0458 28.4524 15.9724 27.2508 16.055 26.1318ZM22.055 18.1886C22.6697 18.1886 23.2385 18.3996 23.6972 18.7481C23.9265 18.9224 24.1192 19.1334 24.2843 19.3627C24.2935 19.3718 24.3027 19.3902 24.3119 19.3994C24.3486 19.4544 24.3853 19.5094 24.4128 19.5645C24.5504 19.8121 24.6513 20.0781 24.7064 20.3624C24.7431 20.5275 24.7614 20.7018 24.7614 20.8761C24.7614 21.0137 24.7522 21.1421 24.7339 21.2797C24.688 21.564 24.6054 21.8392 24.477 22.0868C24.422 22.2061 24.3486 22.3161 24.2752 22.4262C24.1651 22.5821 24.0366 22.7289 23.899 22.8573C23.8807 22.8665 23.8715 22.8665 23.8531 22.8756C23.7981 22.9032 23.7614 22.949 23.7339 22.9949C23.2752 23.3526 22.6972 23.5727 22.0733 23.5727C20.5871 23.5727 19.3761 22.362 19.3761 20.8761C19.3577 19.3994 20.5687 18.1886 22.055 18.1886ZM16.3669 18.4271C16.3944 18.4363 16.422 18.4454 16.4403 18.4454C16.8073 18.5647 17.1375 18.7573 17.422 19.0141C17.9724 19.5094 18.3119 20.2249 18.3119 21.0137C18.3119 21.353 18.2476 21.6833 18.1284 21.9768C17.8164 22.7839 17.1284 23.4076 16.2843 23.6186C16.2752 22.0685 16.2935 20.2799 16.3669 18.4271C16.3394 18.4179 16.3119 18.4087 16.2935 18.4087C16.3119 18.4087 16.3394 18.4179 16.3669 18.4271ZM15.6238 23.7103C14.1375 23.7103 12.9265 22.4996 12.9265 21.0137C12.9265 19.5278 14.1375 18.317 15.6238 18.317C15.6972 18.317 15.7706 18.317 15.8348 18.3262C15.7614 20.2524 15.7431 22.096 15.7614 23.7012C15.7155 23.7103 15.6697 23.7103 15.6238 23.7103Z" fill="#133844"/>
<path d="M20.8166 22.1235C20.9909 22.1235 21.1285 21.9676 21.1285 21.7749C21.1285 21.5823 20.9909 21.4264 20.8166 21.4264C20.6422 21.4264 20.5046 21.5823 20.5046 21.7749C20.5138 21.9676 20.6514 22.1235 20.8166 22.1235Z" fill="#133844"/>
<path d="M17.7156 21.9952C17.8716 21.9952 18 21.8576 18.0184 21.6833C18.0184 21.6742 18.0184 21.6558 18.0184 21.6467C18.0184 21.5458 17.9725 21.4449 17.9083 21.3806C17.8532 21.3256 17.7799 21.2981 17.7065 21.2981C17.5321 21.2981 17.3945 21.454 17.3945 21.6467C17.4129 21.8393 17.5505 21.9952 17.7156 21.9952Z" fill="#133844"/>
<path d="M18.4498 32.6627C19.3305 33.0112 20.5782 33.0662 22.3122 32.5893C22.7159 32.4792 23.0553 32.2958 23.3581 32.0665C23.4406 32.0022 23.5232 31.9289 23.5966 31.8555C23.6792 31.7821 23.7526 31.6996 23.8351 31.6078C24.0737 31.3327 24.2847 31.0116 24.4773 30.6631C24.9819 29.7367 25.2204 27.7463 25.3305 25.6092C26.3397 25.0772 27.147 24.1141 27.514 22.7382C28.2847 19.7756 28.3305 15.0977 25.9177 12.9605C25.303 12.4102 24.2663 12.1075 23.1746 12.0708C22.2021 11.8232 21.1471 11.9424 20.1837 11.3921C17.6241 9.93368 19.2113 3.70568 13.8168 5.18242C8.85348 6.53075 10.0003 12.7221 12.1929 15.3637C12.4131 15.6297 13.5415 16.9688 15.0278 17.8402C15.2204 17.8035 15.4131 17.7852 15.6149 17.7852C15.6975 17.7852 15.7709 17.7852 15.8535 17.7943C15.9452 17.8035 16.0278 17.8127 16.1195 17.8219C16.2113 17.8402 16.2938 17.8585 16.3856 17.8769C16.7434 17.9594 17.0737 18.1062 17.3672 18.2988C17.4957 18.3814 17.6241 18.4731 17.7434 18.5832C18.0645 18.5556 18.3856 18.4914 18.7159 18.3539C19.8076 17.9136 20.6608 17.7393 21.3397 17.7301C21.5691 17.6751 21.8076 17.6476 22.0553 17.6476C22.9452 17.6476 23.7526 18.0053 24.3305 18.5923C24.3397 18.6015 24.3489 18.6107 24.3581 18.6199C24.459 18.7207 24.5599 18.84 24.6425 18.9501C24.7526 19.0968 24.8443 19.2527 24.936 19.4178C24.936 19.427 24.9452 19.427 24.9452 19.4362C25.1654 19.8673 25.2847 20.3626 25.2847 20.8762C25.2847 21.344 25.1837 21.7935 25.0003 22.1971C24.9269 22.3622 24.8351 22.5181 24.7342 22.674C24.7067 22.7199 24.6792 22.7566 24.6516 22.7933C24.6792 22.8024 24.7067 22.8116 24.7342 22.8208C24.7801 22.8391 24.826 22.8575 24.8718 22.885C24.9177 22.9125 24.9544 22.94 25.0003 22.9675C25.1929 23.1051 25.3214 23.2794 25.3948 23.472C25.5324 23.8022 25.5048 24.1874 25.3764 24.5085C25.3581 24.5452 25.3397 24.5819 25.3214 24.6185C25.2388 24.7745 25.1287 24.9121 24.9911 25.0221C24.9085 25.0863 24.8168 25.1414 24.725 25.1872C24.6425 25.2239 24.5507 25.2514 24.459 25.2698C24.4039 25.2789 24.3489 25.2789 24.2938 25.2789C24.1746 25.2789 24.0553 25.2606 23.9269 25.2147C23.8351 25.5633 23.725 25.8568 23.5874 26.0953C23.2571 26.6731 22.7801 26.8841 22.0737 26.4438C20.67 25.5725 17.3672 25.7559 16.3581 25.9852C16.2296 26.0127 16.1471 26.0403 16.092 26.0678C16.0645 26.0861 16.0553 26.0953 16.0553 26.1136C15.9727 27.2327 16.0461 28.4342 16.303 29.5624C16.4039 29.9935 16.5232 30.4154 16.6792 30.8098C16.9177 31.4244 17.3122 32.0023 17.9544 32.3967C18.037 32.4425 18.1195 32.4884 18.2021 32.5342C18.2847 32.5893 18.3672 32.626 18.4498 32.6627Z" fill="#133844"/>
<path d="M24.4588 22.0869C24.5873 21.8392 24.6698 21.5641 24.7157 21.2797C24.734 21.1513 24.7432 21.0137 24.7432 20.8762C24.7432 20.7019 24.7249 20.5276 24.6882 20.3625C24.6331 20.0782 24.5322 19.8122 24.3946 19.5645C24.3671 19.5095 24.3304 19.4544 24.2937 19.3994C24.2845 20.1791 24.3028 21.2981 24.2478 22.4263C24.3304 22.3254 24.4038 22.2061 24.4588 22.0869Z" fill="#133844"/>
<path d="M16.44 18.4456C16.4125 18.4365 16.385 18.4273 16.3666 18.4273C16.3391 18.4181 16.3116 18.4089 16.2932 18.4089C16.3207 18.4181 16.3483 18.4273 16.3666 18.4365C16.3941 18.4365 16.4125 18.4365 16.44 18.4456Z" fill="#133844"/>
<path d="M24.2754 19.3627C24.1102 19.1242 23.9176 18.9224 23.6882 18.7482C23.9176 18.9866 24.0919 19.216 24.2754 19.3627Z" fill="#133844"/>
</svg>
