<svg width="240" height="240" viewBox="0 0 240 240" fill="none" xmlns="http://www.w3.org/2000/svg">
<path d="M187.528 104.913H141.833V205.219H187.528V104.913Z" fill="#32C3EF"/>
<path d="M102.536 136.259H56.8411V205.219H102.536V136.259Z" fill="#FF4E87"/>
<path d="M187.528 74.5322H141.833V104.913H187.528V74.5322Z" fill="#FF92B5"/>
<path d="M101.036 104.913H98.2519V106.413H95.396V104.913H92.5401V106.413H89.6842V104.913H86.8282V106.413H83.9723V104.913H81.1164V106.413H78.2605V104.913H75.4046V106.413H72.5487V104.913H69.6927V106.413H66.8368V104.913H63.9809V106.413H61.125V104.913H58.3411V106.432H56.8411V109.47H58.3411V112.508H56.8411V115.547H58.3411V118.585H56.8411V121.623H58.3411V124.661H56.8411V127.699H58.3411V130.737H56.8411V133.775H58.3411V135.294H61.125V133.794H63.9809V135.294H66.8368V133.794H69.6927V135.294H72.5487V133.794H75.4046V135.294H78.2605V133.794H81.1164V135.294H83.9723V133.794H86.8282V135.294H89.6842V133.794H92.5401V135.294H95.396V133.794H98.2519V135.294H101.036V133.775H102.536V130.737H101.036V127.699H102.536V124.661H101.036V121.623H102.536V118.585H101.036V115.547H102.536V112.508H101.036V109.47H102.536V106.432H101.036V104.913Z" stroke="#FF92B5" stroke-width="3" stroke-dasharray="3 3"/>
<path d="M56.3691 214.139V215.133H53.8211V223.575H52.6871V215.133H50.1391V214.139H56.3691ZM58.755 213.677V217.709C59.175 216.823 59.9217 216.379 60.995 216.379C61.6764 216.379 62.2224 216.589 62.633 217.009C63.053 217.429 63.263 217.999 63.263 218.717V223.575H62.157V218.983C62.157 218.47 62.0217 218.073 61.751 217.793C61.4897 217.513 61.1444 217.373 60.715 217.373C60.1924 217.373 59.735 217.574 59.343 217.975C58.951 218.377 58.755 218.951 58.755 219.697V223.575H57.663V213.677H58.755ZM65.2796 223.575V216.477H66.3856V223.575H65.2796ZM65.3076 214.769C65.1769 214.629 65.1116 214.457 65.1116 214.251C65.1116 214.046 65.1769 213.873 65.3076 213.733C65.4476 213.593 65.6202 213.523 65.8256 213.523C66.0309 213.523 66.2036 213.593 66.3436 213.733C66.4836 213.873 66.5536 214.046 66.5536 214.251C66.5536 214.457 66.4836 214.629 66.3436 214.769C66.2036 214.9 66.0309 214.965 65.8256 214.965C65.6202 214.965 65.4476 214.9 65.3076 214.769ZM72.3551 216.715V217.765C71.9258 217.504 71.3378 217.373 70.5911 217.373C70.2178 217.373 69.9191 217.462 69.6951 217.639C69.4805 217.807 69.3731 218.027 69.3731 218.297C69.3731 218.465 69.4058 218.615 69.4711 218.745C69.5365 218.867 69.6625 218.988 69.8491 219.109C70.0451 219.231 70.1851 219.315 70.2691 219.361C70.3625 219.399 70.5585 219.483 70.8571 219.613C71.4545 219.856 71.9211 220.131 72.2571 220.439C72.5931 220.747 72.7611 221.163 72.7611 221.685C72.7611 222.292 72.5465 222.773 72.1171 223.127C71.6971 223.482 71.1185 223.659 70.3811 223.659C69.5225 223.659 68.8271 223.515 68.2951 223.225V222.147C68.9205 222.521 69.5925 222.707 70.3111 222.707C70.7405 222.707 71.0671 222.623 71.2911 222.455C71.5151 222.287 71.6271 222.059 71.6271 221.769C71.6271 221.433 71.5011 221.172 71.2491 220.985C71.0065 220.799 70.5958 220.589 70.0171 220.355C69.4851 220.15 69.0558 219.893 68.7291 219.585C68.4118 219.277 68.2531 218.862 68.2531 218.339C68.2531 217.751 68.4725 217.285 68.9111 216.939C69.3591 216.585 69.9145 216.407 70.5771 216.407C71.3145 216.407 71.9071 216.51 72.3551 216.715ZM79.1906 223.575L77.0066 216.477H78.1826L78.8686 218.829C79.1113 219.651 79.312 220.369 79.4706 220.985C79.6386 221.592 79.746 221.998 79.7926 222.203L79.8626 222.497C80.0026 221.9 80.3433 220.673 80.8846 218.815L81.5566 216.477H82.7326L83.4186 218.815L84.4686 222.511C84.5993 221.961 84.9586 220.729 85.5466 218.815L86.2606 216.477H87.3946L85.1546 223.575H83.7966L83.1246 221.251L82.1446 217.709C82.0046 218.307 81.6873 219.487 81.1926 221.251L80.5486 223.575H79.1906ZM93.2885 219.571V219.291C93.2885 218.703 93.1299 218.237 92.8125 217.891C92.4952 217.537 92.0565 217.359 91.4965 217.359C90.9645 217.359 90.5119 217.551 90.1385 217.933C89.7652 218.316 89.5459 218.862 89.4805 219.571H93.2885ZM93.9465 222.175V223.211C93.3959 223.501 92.7239 223.645 91.9305 223.645C90.8572 223.645 89.9892 223.319 89.3265 222.665C88.6732 222.003 88.3465 221.13 88.3465 220.047C88.3465 218.918 88.6405 218.027 89.2285 217.373C89.8165 216.72 90.5725 216.393 91.4965 216.393C92.3832 216.393 93.0879 216.678 93.6105 217.247C94.1332 217.817 94.3945 218.624 94.3945 219.669C94.3945 219.968 94.3712 220.243 94.3245 220.495H89.4805C89.5645 221.195 89.8305 221.732 90.2785 222.105C90.7265 222.479 91.3145 222.665 92.0425 222.665C92.8359 222.665 93.4705 222.502 93.9465 222.175ZM100.603 219.571V219.291C100.603 218.703 100.444 218.237 100.127 217.891C99.8097 217.537 99.371 217.359 98.811 217.359C98.279 217.359 97.8263 217.551 97.453 217.933C97.0797 218.316 96.8603 218.862 96.795 219.571H100.603ZM101.261 222.175V223.211C100.71 223.501 100.038 223.645 99.245 223.645C98.1717 223.645 97.3037 223.319 96.641 222.665C95.9877 222.003 95.661 221.13 95.661 220.047C95.661 218.918 95.955 218.027 96.543 217.373C97.131 216.72 97.887 216.393 98.811 216.393C99.6977 216.393 100.402 216.678 100.925 217.247C101.448 217.817 101.709 218.624 101.709 219.669C101.709 219.968 101.686 220.243 101.639 220.495H96.795C96.879 221.195 97.145 221.732 97.593 222.105C98.041 222.479 98.629 222.665 99.357 222.665C100.15 222.665 100.785 222.502 101.261 222.175ZM103.395 223.575V213.733H104.487V223.575H103.395ZM105.929 219.851L108.813 223.575H107.483L104.627 219.851L107.413 216.477H108.729L105.929 219.851Z" fill="#FF4E87"/>
<path d="M133.729 223.575V214.139H135.157L137.523 218.115L139.917 222.203C139.88 221.298 139.861 219.94 139.861 218.129V214.139H140.995V223.575H139.567L137.201 219.627C136.725 218.834 136.286 218.097 135.885 217.415C135.484 216.725 135.199 216.23 135.031 215.931L134.793 215.497C134.84 216.468 134.863 217.835 134.863 219.599V223.575H133.729ZM147.615 219.571V219.291C147.615 218.703 147.456 218.237 147.139 217.891C146.822 217.537 146.383 217.359 145.823 217.359C145.291 217.359 144.838 217.551 144.465 217.933C144.092 218.316 143.872 218.862 143.807 219.571H147.615ZM148.273 222.175V223.211C147.722 223.501 147.05 223.645 146.257 223.645C145.184 223.645 144.316 223.319 143.653 222.665C143 222.003 142.673 221.13 142.673 220.047C142.673 218.918 142.967 218.027 143.555 217.373C144.143 216.72 144.899 216.393 145.823 216.393C146.71 216.393 147.414 216.678 147.937 217.247C148.46 217.817 148.721 218.624 148.721 219.669C148.721 219.968 148.698 220.243 148.651 220.495H143.807C143.891 221.195 144.157 221.732 144.605 222.105C145.053 222.479 145.641 222.665 146.369 222.665C147.162 222.665 147.797 222.502 148.273 222.175ZM153.347 219.949L155.727 223.575H154.453L152.731 220.775L150.953 223.575H149.735L152.115 219.935L149.875 216.463H151.149L152.759 219.123L154.383 216.463H155.643L153.347 219.949ZM158.619 217.373V221.531C158.619 222.287 158.974 222.665 159.683 222.665C160.047 222.665 160.369 222.558 160.649 222.343V223.393C160.341 223.561 159.996 223.645 159.613 223.645C158.213 223.645 157.513 222.931 157.513 221.503V217.373H156.379V216.477H157.513V214.713H158.619V216.477H160.579V217.373H158.619ZM167.191 223.575L165.007 216.477H166.183L166.869 218.829C167.111 219.651 167.312 220.369 167.471 220.985C167.639 221.592 167.746 221.998 167.793 222.203L167.863 222.497C168.003 221.9 168.343 220.673 168.885 218.815L169.557 216.477H170.733L171.419 218.815L172.469 222.511C172.599 221.961 172.959 220.729 173.547 218.815L174.261 216.477H175.395L173.155 223.575H171.797L171.125 221.251L170.145 217.709C170.005 218.307 169.687 219.487 169.193 221.251L168.549 223.575H167.191ZM181.289 219.571V219.291C181.289 218.703 181.13 218.237 180.813 217.891C180.495 217.537 180.057 217.359 179.497 217.359C178.965 217.359 178.512 217.551 178.139 217.933C177.765 218.316 177.546 218.862 177.481 219.571H181.289ZM181.947 222.175V223.211C181.396 223.501 180.724 223.645 179.931 223.645C178.857 223.645 177.989 223.319 177.327 222.665C176.673 222.003 176.347 221.13 176.347 220.047C176.347 218.918 176.641 218.027 177.229 217.373C177.817 216.72 178.573 216.393 179.497 216.393C180.383 216.393 181.088 216.678 181.611 217.247C182.133 217.817 182.395 218.624 182.395 219.669C182.395 219.968 182.371 220.243 182.325 220.495H177.481C177.565 221.195 177.831 221.732 178.279 222.105C178.727 222.479 179.315 222.665 180.043 222.665C180.836 222.665 181.471 222.502 181.947 222.175ZM188.603 219.571V219.291C188.603 218.703 188.444 218.237 188.127 217.891C187.81 217.537 187.371 217.359 186.811 217.359C186.279 217.359 185.826 217.551 185.453 217.933C185.08 218.316 184.86 218.862 184.795 219.571H188.603ZM189.261 222.175V223.211C188.71 223.501 188.038 223.645 187.245 223.645C186.172 223.645 185.304 223.319 184.641 222.665C183.988 222.003 183.661 221.13 183.661 220.047C183.661 218.918 183.955 218.027 184.543 217.373C185.131 216.72 185.887 216.393 186.811 216.393C187.698 216.393 188.402 216.678 188.925 217.247C189.448 217.817 189.709 218.624 189.709 219.669C189.709 219.968 189.686 220.243 189.639 220.495H184.795C184.879 221.195 185.145 221.732 185.593 222.105C186.041 222.479 186.629 222.665 187.357 222.665C188.15 222.665 188.785 222.502 189.261 222.175ZM191.396 223.575V213.733H192.488V223.575H191.396ZM193.93 219.851L196.814 223.575H195.484L192.628 219.851L195.414 216.477H196.73L193.93 219.851Z" fill="#32C3EF"/>
<path d="M156.034 67.3142C156.859 67.3856 157.586 66.7743 157.657 65.9489L158.82 52.4991C158.891 51.6737 158.28 50.9468 157.455 50.8755C156.629 50.8042 155.902 51.4154 155.831 52.2408L154.798 64.1962L142.842 63.163C142.017 63.0917 141.29 63.703 141.219 64.5283C141.147 65.3537 141.759 66.0806 142.584 66.1519L156.034 67.3142ZM79.2419 96.5833C77.3651 79.6925 88.4439 62.9105 104.075 55.0157C111.855 51.086 120.687 49.4054 129.494 50.9942C138.286 52.5802 147.159 57.4432 155.015 66.7852L157.311 64.8544C149.049 55.029 139.572 49.7638 130.027 48.0418C120.496 46.3225 111.005 48.1542 102.722 52.3379C86.2256 60.67 74.2164 78.52 76.2602 96.9146L79.2419 96.5833Z" fill="#FF92B5"/>
<g clip-path="url(#clip0)">
<path d="M101.532 40.0386C106.825 40.0386 111.116 35.7478 111.116 30.4549C111.116 25.162 106.825 20.8712 101.532 20.8712C96.2393 20.8712 91.9485 25.162 91.9485 30.4549C91.9485 35.7478 96.2393 40.0386 101.532 40.0386Z" stroke="#FF92B5" stroke-width="2" stroke-miterlimit="10" stroke-linecap="round" stroke-linejoin="round"/>
<path d="M101.532 24.3562V30.4549H107.631" stroke="#FF92B5" stroke-width="2" stroke-miterlimit="10" stroke-linecap="round" stroke-linejoin="round"/>
</g>
<defs>
<clipPath id="clip0">
<rect width="20.9099" height="20.9099" fill="white" transform="translate(91.0773 20)"/>
</clipPath>
</defs>
</svg>
