<svg width="240" height="240" viewBox="0 0 240 240" fill="none" xmlns="http://www.w3.org/2000/svg">
<g clip-path="url(#clip0)">
<path d="M158.835 46.0155C183.485 49.4968 214.413 62.7207 220.029 82.2002C225.647 101.73 205.966 127.468 187.231 148.061C168.501 168.7 150.735 184.197 128.969 194.638C107.206 205.034 81.4901 210.449 64.1818 200.643C46.9214 190.906 38.1281 165.977 27.8867 144.021C17.6124 122.018 5.86909 102.942 11.4311 89.5684C17.0051 76.246 39.8844 68.6242 57.0939 63.8304C74.3035 59.0366 85.7925 57.0171 100.776 52.9303C115.709 48.7898 134.133 42.5343 158.835 46.0155Z" fill="white"/>
<path fill-rule="evenodd" clip-rule="evenodd" d="M215.967 74.4545C216.251 76.9923 215.322 79.5164 213.459 81.2645C211.595 83.0126 209.016 83.7855 206.502 83.3421L176.43 78.0397C173.916 77.5963 171.757 75.9879 170.604 73.708C169.451 71.428 169.441 68.7385 170.576 66.4509C173.678 60.1946 177.567 52.3573 179.97 47.5136C181.296 44.8379 184.229 43.3594 187.171 43.8782L208.093 47.5672C211.035 48.086 213.285 50.4784 213.616 53.4463C214.217 58.8197 215.191 67.5145 215.967 74.4545Z" fill="#FF6B9B"/>
<path fill-rule="evenodd" clip-rule="evenodd" d="M213.364 81.357C213.088 81.6072 212.799 81.8363 212.497 82.0423L171.34 74.9003C171.119 74.6021 170.915 74.2881 170.735 73.9595L213.364 81.357Z" fill="#FFF0F5"/>
<path fill-rule="evenodd" clip-rule="evenodd" d="M174.199 59.1524L179.971 47.5177C181.298 44.8419 184.23 43.3607 187.172 43.8794C192.923 44.8935 202.344 46.5546 208.095 47.5687C210.343 47.9652 212.185 49.4564 213.079 51.4639L174.199 59.1524Z" fill="#E5689B"/>
<path fill-rule="evenodd" clip-rule="evenodd" d="M218.883 33.2456C218.829 31.3119 206.763 26.2744 194.728 26.5444C183.33 26.8026 169.96 32.6769 170.014 34.6106L170.057 36.1275C170.111 38.0612 171.999 39.5807 174.245 39.518C174.245 39.518 184.186 35.406 194.966 35.0708C206.81 34.7038 214.933 38.3814 214.933 38.3814C217.203 38.318 218.98 36.6961 218.926 34.7624L218.883 33.2456Z" fill="#FF6B9B"/>
<path fill-rule="evenodd" clip-rule="evenodd" d="M211.153 44.8144C209.805 44.4932 208.73 43.4536 208.358 42.1074C208.024 40.8636 207.995 39.532 208.313 38.1993C209.336 33.9028 213.653 31.2454 217.947 32.2685C222.242 33.2917 224.897 37.6098 223.873 41.9063C223.556 43.239 222.93 44.4147 222.071 45.3702C221.133 46.4044 219.725 46.8483 218.357 46.5225C216.372 46.0577 213.156 45.2915 211.153 44.8144Z" fill="#FF6B9B"/>
<path fill-rule="evenodd" clip-rule="evenodd" d="M208.396 42.2409L222.048 45.4048C221.808 45.6635 221.537 45.8832 221.244 46.0636L208.843 43.1913C208.654 42.9009 208.501 42.5813 208.396 42.2409Z" fill="#FFF0F5"/>
<path fill-rule="evenodd" clip-rule="evenodd" d="M171.983 47.6151C170.636 48.0166 169.162 47.6494 168.172 46.6513C167.315 45.7561 166.639 44.652 166.26 43.3782C165.016 39.2052 167.391 34.8084 171.562 33.5649C175.734 32.3214 180.129 34.6996 181.373 38.8727C181.753 40.1465 181.811 41.4346 181.564 42.655C181.281 44.0286 180.267 45.1373 178.92 45.5388C176.996 46.1206 173.91 47.0407 171.983 47.6151Z" fill="#FF6B9B"/>
<path fill-rule="evenodd" clip-rule="evenodd" d="M181.532 42.7987C181.445 43.1451 181.314 43.4731 181.142 43.773L169.119 47.3427C168.813 47.1821 168.524 46.9788 168.268 46.7351L181.532 42.7987Z" fill="#FFF0F5"/>
<path fill-rule="evenodd" clip-rule="evenodd" d="M225.694 33.4156C226.111 33.6262 226.743 33.9875 227.076 34.8986C227.439 35.8882 227.221 36.677 227.077 37.2535C226.95 37.7601 227.259 38.2739 227.765 38.4003C228.271 38.527 228.785 38.2186 228.912 37.712C229.124 36.8644 229.386 35.7043 228.852 34.2485C228.29 32.7128 227.25 32.0819 226.547 31.7271C226.081 31.4917 225.511 31.6789 225.276 32.1451C225.041 32.6109 225.228 33.1803 225.694 33.4156Z" fill="#82E2FF"/>
<path fill-rule="evenodd" clip-rule="evenodd" d="M226.941 29.7938C228.615 30.6596 229.886 31.6847 230.431 33.081C231.108 34.8152 231.32 37.1283 230.448 38.8765C230.215 39.3439 230.405 39.9125 230.872 40.1451C231.339 40.3782 231.908 40.188 232.141 39.7211C233.243 37.5102 233.049 34.5853 232.193 32.3927C231.496 30.6092 229.948 29.2199 227.811 28.114C227.347 27.8741 226.776 28.0552 226.536 28.5189C226.296 28.9825 226.478 29.5539 226.941 29.7938Z" fill="#82E2FF"/>
<path fill-rule="evenodd" clip-rule="evenodd" d="M201.734 64.7523C201.719 64.8755 201.7 64.9981 201.679 65.1213C200.974 69.1184 197.155 71.792 193.158 71.0872C189.161 70.3824 186.488 66.5641 187.192 62.567C187.214 62.4438 187.239 62.3223 187.266 62.2013L190.197 62.718C190.165 62.8372 190.138 62.9584 190.116 63.0826C189.696 65.4655 191.29 67.7427 193.674 68.1631C196.058 68.5834 198.334 66.9886 198.754 64.6057C198.776 64.4815 198.793 64.3585 198.804 64.2356L201.734 64.7523Z" fill="#FFF0F5"/>
<path d="M200.386 60.3759C201.529 60.5774 202.619 59.8143 202.821 58.6713C203.022 57.5284 202.259 56.4384 201.116 56.2369C199.973 56.0354 198.883 56.7985 198.682 57.9415C198.48 59.0844 199.243 60.1743 200.386 60.3759Z" fill="#FFF0F5"/>
<path d="M190.038 58.5512C191.181 58.7528 192.271 57.9896 192.473 56.8467C192.674 55.7037 191.911 54.6138 190.768 54.4123C189.625 54.2107 188.535 54.9739 188.334 56.1168C188.132 57.2598 188.895 58.3497 190.038 58.5512Z" fill="#FFF0F5"/>
<path fill-rule="evenodd" clip-rule="evenodd" d="M93.1802 164.339C94.165 164.484 95.6838 164.79 96.9702 166.407C98.3676 168.164 98.4575 169.905 98.5539 171.167C98.6385 172.276 99.6073 173.107 100.716 173.022C101.824 172.938 102.656 171.969 102.571 170.86C102.429 169.004 102.179 166.484 100.123 163.9C97.9549 161.174 95.4281 160.598 93.7684 160.354C92.6685 160.191 91.6438 160.952 91.4815 162.052C91.3191 163.152 92.0804 164.177 93.1802 164.339Z" fill="#C2F1FF"/>
<path fill-rule="evenodd" clip-rule="evenodd" d="M93.2648 154.854C97.1394 156.167 99.8664 158.122 102.295 160.81C105.039 163.846 107.264 167.967 107.771 172.049C107.908 173.152 108.915 173.936 110.019 173.8C111.122 173.663 111.906 172.656 111.769 171.553C111.164 166.68 108.56 161.733 105.284 158.109C102.4 154.917 99.1599 152.599 94.5582 151.038C93.5052 150.681 92.3607 151.247 92.0037 152.299C91.6468 153.353 92.2118 154.497 93.2648 154.854Z" fill="#C2F1FF"/>
<path fill-rule="evenodd" clip-rule="evenodd" d="M94.0884 146.197C105.88 149.81 115.037 160.098 116.572 173.124C116.702 174.228 117.704 175.019 118.808 174.889C119.912 174.759 120.703 173.757 120.573 172.652C118.845 157.992 108.541 146.412 95.2689 142.344C94.2059 142.018 93.0784 142.618 92.7526 143.68C92.4269 144.743 93.0254 145.871 94.0884 146.197Z" fill="#C2F1FF"/>
<path fill-rule="evenodd" clip-rule="evenodd" d="M72.3996 135.257C72.0463 133.253 70.1336 131.915 68.1319 132.268L32.2552 138.594C30.2535 138.947 28.9137 140.859 29.2669 142.862L42.8486 219.887C43.2016 221.89 45.1146 223.229 47.1163 222.876L82.993 216.55C84.9947 216.197 86.3343 214.284 85.9813 212.282L72.3996 135.257Z" fill="white"/>
<path fill-rule="evenodd" clip-rule="evenodd" d="M75.484 134.713C74.8306 131.007 71.2928 128.53 67.588 129.184L31.7113 135.51C28.0075 136.163 25.5302 139.7 26.1836 143.406L39.7653 220.431C40.4185 224.135 43.9565 226.614 47.6602 225.961L83.5369 219.635C87.2418 218.981 89.7188 215.442 89.0657 211.738L75.484 134.713ZM72.3996 135.257C72.0464 133.253 70.1336 131.915 68.1319 132.268L32.2552 138.594C30.2535 138.947 28.9137 140.859 29.2669 142.862L42.8486 219.887C43.2016 221.89 45.1146 223.229 47.1163 222.876L82.993 216.55C84.9947 216.197 86.3343 214.284 85.9813 212.282L72.3996 135.257Z" fill="#00C4FF"/>
<path d="M86.4431 208.873L41.2508 216.842L42.4597 223.698L87.652 215.729L86.4431 208.873Z" fill="#00C4FF"/>
<path fill-rule="evenodd" clip-rule="evenodd" d="M69.8873 216.893C69.7194 215.941 68.809 215.303 67.8562 215.471L60.9748 216.685C60.0221 216.853 59.3853 217.763 59.5533 218.715C59.7212 219.668 60.6309 220.306 61.5836 220.138L68.465 218.924C69.4178 218.756 70.0553 217.846 69.8873 216.893ZM69.2539 217.005C69.3603 217.609 68.9572 218.185 68.3534 218.291L61.472 219.505C60.869 219.611 60.2925 219.208 60.186 218.604C60.0797 218.001 60.4834 217.425 61.0865 217.318L67.9679 216.105C68.5717 215.998 69.1475 216.402 69.2539 217.005Z" fill="white"/>
<path d="M72.7394 131.158L27.5471 139.126L28.3322 143.579L73.5244 135.61L72.7394 131.158Z" fill="#00C4FF"/>
<path d="M43.9022 137.807C44.258 137.744 44.4956 137.405 44.4328 137.049C44.3701 136.694 44.0308 136.456 43.675 136.519C43.3192 136.581 43.0817 136.921 43.1444 137.277C43.2072 137.632 43.5464 137.87 43.9022 137.807Z" fill="white"/>
<path fill-rule="evenodd" clip-rule="evenodd" d="M45.8859 137.459L57.5578 135.4C57.9132 135.338 58.1511 134.998 58.0884 134.643C58.0256 134.286 57.686 134.049 57.3306 134.112L45.6587 136.17C45.3022 136.233 45.0651 136.571 45.128 136.928C45.1907 137.283 45.5294 137.521 45.8859 137.459Z" fill="white"/>
<path fill-rule="evenodd" clip-rule="evenodd" d="M70.2771 174.717C70.326 174.93 70.3695 175.145 70.4078 175.362C71.6515 182.416 66.9335 189.154 59.8797 190.398C52.8259 191.641 46.0878 186.923 44.844 179.87C44.8057 179.652 44.7731 179.436 44.7461 179.218L49.9174 178.307C49.9368 178.524 49.9656 178.741 50.0042 178.96C50.7457 183.165 54.7627 185.979 58.9698 185.237C63.1769 184.496 65.9891 180.477 65.2476 176.272C65.209 176.053 65.1618 175.839 65.1058 175.629L70.2771 174.717Z" fill="#FF97B9"/>
<path d="M65.7829 170.442C67.7999 170.086 69.1467 168.163 68.7911 166.146C68.4354 164.129 66.512 162.782 64.495 163.138C62.478 163.494 61.1314 165.417 61.487 167.434C61.8426 169.451 63.7659 170.798 65.7829 170.442Z" fill="#FF97B9"/>
<path d="M47.5229 173.662C49.5399 173.306 50.8867 171.383 50.5311 169.366C50.1755 167.349 48.252 166.002 46.235 166.358C44.2181 166.713 42.8714 168.637 43.227 170.654C43.5827 172.671 45.506 174.017 47.5229 173.662Z" fill="#FF97B9"/>
<path d="M80.3284 90L80.3284 87.88L83.5084 87.88L83.5084 78.82L81.0484 80.3L80.0484 78.42L84.2484 75.9L86.0684 75.9L86.0684 87.88L89.0484 87.88L89.0484 90L80.3284 90ZM96.1406 90.2C94.474 90.2 93.2006 89.5733 92.3206 88.32C91.4406 87.0533 91.0006 85.2533 91.0006 82.92C91.0006 80.56 91.4406 78.7667 92.3206 77.54C93.2006 76.3133 94.474 75.7 96.1406 75.7C97.8206 75.7 99.094 76.3133 99.9606 77.54C100.841 78.7667 101.281 80.5533 101.281 82.9C101.281 85.2467 100.841 87.0533 99.9606 88.32C99.0806 89.5733 97.8073 90.2 96.1406 90.2ZM96.1406 88.1C97.0473 88.1 97.714 87.6867 98.1406 86.86C98.5806 86.02 98.8006 84.7 98.8006 82.9C98.8006 81.1133 98.5806 79.82 98.1406 79.02C97.714 78.2067 97.0473 77.8 96.1406 77.8C95.2473 77.8 94.5806 78.2067 94.1406 79.02C93.7006 79.82 93.4806 81.1133 93.4806 82.9C93.4806 84.7 93.7006 86.02 94.1406 86.86C94.5806 87.6867 95.2473 88.1 96.1406 88.1ZM108.133 90.2C106.466 90.2 105.193 89.5733 104.313 88.32C103.433 87.0533 102.993 85.2533 102.993 82.92C102.993 80.56 103.433 78.7667 104.313 77.54C105.193 76.3133 106.466 75.7 108.133 75.7C109.813 75.7 111.086 76.3133 111.953 77.54C112.833 78.7667 113.273 80.5533 113.273 82.9C113.273 85.2467 112.833 87.0533 111.953 88.32C111.073 89.5733 109.799 90.2 108.133 90.2ZM108.133 88.1C109.039 88.1 109.706 87.6867 110.133 86.86C110.573 86.02 110.793 84.7 110.793 82.9C110.793 81.1133 110.573 79.82 110.133 79.02C109.706 78.2067 109.039 77.8 108.133 77.8C107.239 77.8 106.573 78.2067 106.133 79.02C105.693 79.82 105.473 81.1133 105.473 82.9C105.473 84.7 105.693 86.02 106.133 86.86C106.573 87.6867 107.239 88.1 108.133 88.1ZM120.856 90L120.856 80.22L123.296 80.22L123.296 81.72C123.589 81.1867 123.996 80.7733 124.516 80.48C125.036 80.1733 125.636 80.02 126.316 80.02C127.782 80.02 128.742 80.66 129.196 81.94C129.502 81.34 129.942 80.8733 130.516 80.54C131.089 80.1933 131.742 80.02 132.476 80.02C134.676 80.02 135.776 81.36 135.776 84.04L135.776 90L133.276 90L133.276 84.14C133.276 83.3933 133.149 82.8467 132.896 82.5C132.656 82.1533 132.242 81.98 131.656 81.98C131.002 81.98 130.489 82.2133 130.116 82.68C129.742 83.1333 129.556 83.7667 129.556 84.58L129.556 90L127.056 90L127.056 84.14C127.056 83.3933 126.929 82.8467 126.676 82.5C126.436 82.1533 126.029 81.98 125.456 81.98C124.802 81.98 124.289 82.2133 123.916 82.68C123.542 83.1333 123.356 83.7667 123.356 84.58L123.356 90L120.856 90ZM138.195 78.12L138.195 75.68L140.995 75.68L140.995 78.12L138.195 78.12ZM138.355 90L138.355 80.22L140.855 80.22L140.855 90L138.355 90ZM143.452 90L143.452 80.22L145.892 80.22L145.892 81.74C146.226 81.18 146.672 80.7533 147.232 80.46C147.806 80.1667 148.446 80.02 149.152 80.02C151.459 80.02 152.612 81.36 152.612 84.04L152.612 90L150.112 90L150.112 84.16C150.112 83.4 149.966 82.8467 149.672 82.5C149.392 82.1533 148.952 81.98 148.352 81.98C147.619 81.98 147.032 82.2133 146.592 82.68C146.166 83.1333 145.952 83.74 145.952 84.5L145.952 90L143.452 90ZM74.6438 117.6L74.6438 104.22L77.0838 104.22L77.0838 105.78C77.3638 105.247 77.7838 104.82 78.3438 104.5C78.9171 104.18 79.5638 104.02 80.2838 104.02C81.1371 104.02 81.8838 104.227 82.5238 104.64C83.1771 105.053 83.6838 105.64 84.0438 106.4C84.4038 107.147 84.5838 108.047 84.5838 109.1C84.5838 110.14 84.4038 111.047 84.0438 111.82C83.6838 112.58 83.1838 113.167 82.5438 113.58C81.9038 113.993 81.1504 114.2 80.2838 114.2C79.5904 114.2 78.9638 114.053 78.4038 113.76C77.8571 113.453 77.4371 113.047 77.1438 112.54L77.1438 117.6L74.6438 117.6ZM79.5838 112.3C80.3304 112.3 80.9304 112.033 81.3838 111.5C81.8371 110.953 82.0638 110.153 82.0638 109.1C82.0638 108.033 81.8371 107.24 81.3838 106.72C80.9304 106.187 80.3304 105.92 79.5838 105.92C78.8371 105.92 78.2371 106.187 77.7838 106.72C77.3304 107.24 77.1038 108.033 77.1038 109.1C77.1038 110.153 77.3304 110.953 77.7838 111.5C78.2371 112.033 78.8371 112.3 79.5838 112.3ZM91.4559 114.2C90.3493 114.2 89.3959 113.993 88.5959 113.58C87.7959 113.167 87.1759 112.58 86.7359 111.82C86.3093 111.06 86.0959 110.16 86.0959 109.12C86.0959 108.107 86.3026 107.22 86.7159 106.46C87.1426 105.7 87.7226 105.107 88.4559 104.68C89.2026 104.24 90.0493 104.02 90.9959 104.02C92.3826 104.02 93.4759 104.46 94.2759 105.34C95.0893 106.22 95.4959 107.42 95.4959 108.94L95.4959 109.68L88.4959 109.68C88.6826 111.427 89.6826 112.3 91.4959 112.3C92.0426 112.3 92.5893 112.22 93.1359 112.06C93.6826 111.887 94.1826 111.62 94.6359 111.26L95.3359 112.94C94.8693 113.327 94.2826 113.633 93.5759 113.86C92.8693 114.087 92.1626 114.2 91.4559 114.2ZM91.0959 105.72C90.3626 105.72 89.7693 105.947 89.3159 106.4C88.8626 106.853 88.5893 107.467 88.4959 108.24L93.4159 108.24C93.3626 107.427 93.1359 106.807 92.7359 106.38C92.3493 105.94 91.8026 105.72 91.0959 105.72ZM97.4758 114L97.4758 104.22L99.9158 104.22L99.9158 105.94C100.396 104.78 101.422 104.14 102.996 104.02L103.756 103.96L103.916 106.08L102.476 106.22C100.836 106.38 100.016 107.22 100.016 108.74L100.016 114L97.4758 114ZM113.398 114L109.538 104.22L112.098 104.22L114.598 111.1L117.118 104.22L118.878 104.22L121.398 111.14L123.898 104.22L126.318 104.22L122.478 114L120.298 114L117.918 107.7L115.578 114L113.398 114ZM132.374 114.2C131.267 114.2 130.314 113.993 129.514 113.58C128.714 113.167 128.094 112.58 127.654 111.82C127.227 111.06 127.014 110.16 127.014 109.12C127.014 108.107 127.221 107.22 127.634 106.46C128.061 105.7 128.641 105.107 129.374 104.68C130.121 104.24 130.967 104.02 131.914 104.02C133.301 104.02 134.394 104.46 135.194 105.34C136.007 106.22 136.414 107.42 136.414 108.94L136.414 109.68L129.414 109.68C129.601 111.427 130.601 112.3 132.414 112.3C132.961 112.3 133.507 112.22 134.054 112.06C134.601 111.887 135.101 111.62 135.554 111.26L136.254 112.94C135.787 113.327 135.201 113.633 134.494 113.86C133.787 114.087 133.081 114.2 132.374 114.2ZM132.014 105.72C131.281 105.72 130.687 105.947 130.234 106.4C129.781 106.853 129.507 107.467 129.414 108.24L134.334 108.24C134.281 107.427 134.054 106.807 133.654 106.38C133.267 105.94 132.721 105.72 132.014 105.72ZM143.214 114.2C142.107 114.2 141.154 113.993 140.354 113.58C139.554 113.167 138.934 112.58 138.494 111.82C138.067 111.06 137.854 110.16 137.854 109.12C137.854 108.107 138.06 107.22 138.474 106.46C138.9 105.7 139.48 105.107 140.214 104.68C140.96 104.24 141.807 104.02 142.754 104.02C144.14 104.02 145.234 104.46 146.034 105.34C146.847 106.22 147.254 107.42 147.254 108.94L147.254 109.68L140.254 109.68C140.44 111.427 141.44 112.3 143.254 112.3C143.8 112.3 144.347 112.22 144.894 112.06C145.44 111.887 145.94 111.62 146.394 111.26L147.094 112.94C146.627 113.327 146.04 113.633 145.334 113.86C144.627 114.087 143.92 114.2 143.214 114.2ZM142.854 105.72C142.12 105.72 141.527 105.947 141.074 106.4C140.62 106.853 140.347 107.467 140.254 108.24L145.174 108.24C145.12 107.427 144.894 106.807 144.494 106.38C144.107 105.94 143.56 105.72 142.854 105.72ZM149.234 114L149.234 99.9L151.734 99.9L151.734 108.38L151.774 108.38L155.714 104.22L158.734 104.22L154.294 108.9L159.014 114L155.954 114L151.774 109.64L151.734 109.64L151.734 114L149.234 114Z" fill="#FF6697"/>
</g>
<defs>
<clipPath id="clip0">
<rect width="240" height="240" fill="white"/>
</clipPath>
</defs>
</svg>
