<svg width="15" height="16" viewBox="0 0 15 16" fill="none" xmlns="http://www.w3.org/2000/svg">
<g clip-path="url(#clip0_28049_83079)">
<path d="M2.73891 0.5C1.22167 0.5 0 1.72167 0 3.23891V12.7611C0 14.2783 1.22167 15.5 2.73891 15.5H7.89985V9.63595H6.34923V7.52469H7.89985V5.72094C7.89985 4.30382 8.81604 3.00266 10.9266 3.00266C11.7811 3.00266 12.413 3.0847 12.413 3.0847L12.3633 5.05627C12.3633 5.05627 11.7188 5.05018 11.0156 5.05018C10.2545 5.05018 10.1325 5.40085 10.1325 5.983V7.52471H12.4237L12.3239 9.63596H10.1325V15.5H12.2611C13.7783 15.5 15 14.2784 15 12.7611V3.23893C15 1.72169 13.7783 0.500015 12.2611 0.500015H2.73889L2.73891 0.5Z" fill="#395596"/>
</g>
<defs>
<clipPath id="clip0_28049_83079">
<rect width="15" height="15" fill="white" transform="translate(0 0.5)"/>
</clipPath>
</defs>
</svg>
