<svg width="55" height="70" viewBox="0 0 55 70" fill="none" xmlns="http://www.w3.org/2000/svg">
<path d="M54.3369 3.08022V67.9677C54.3369 67.9677 48.7301 71.8936 16.9493 68.8324H16.9311C11.9615 68.3924 10.129 69.157 10.129 69.157H7.84741C7.77541 68.9877 7.6902 68.8244 7.59256 68.6685C6.81028 68.9878 5.9739 69.1536 5.12898 69.157C2.90205 69.157 0.666016 69.157 0.666016 67.279C0.666016 67.1 1.18482 65.3008 2.05557 62.455C4.39173 54.8276 9.26731 39.6638 13.5422 27.8677C16.1271 20.7349 18.4936 14.8217 19.9438 12.5614C21.1308 10.7888 22.7151 9.31776 24.5706 8.26527C28.1447 6.14149 32.4316 5.17365 35.1501 4.758C36.7915 4.50315 37.8624 4.4546 37.8624 4.4546C37.8624 4.4546 49.2641 4.85509 53.8484 3.27743C54.0244 3.20764 54.1852 3.14393 54.3369 3.08022Z" fill="#02BEB2"/>
<path opacity="0.2" d="M53.8518 3.2653L53.6971 67.8585C43.9368 71.2201 28.4514 68.0192 21.264 67.1485C14.0765 66.2778 10.1688 67.5429 10.1688 67.5429L8.70335 67.279L7.92969 52.7978L13.5425 27.8617L17.423 10.6318L24.571 8.25921L35.1504 4.75194C36.7918 4.49709 37.8628 4.44855 37.8628 4.44855C37.8628 4.44855 49.2645 4.84903 53.8488 3.27137L53.8518 3.2653Z" fill="black"/>
<path opacity="0.2" d="M8.703 67.279C8.703 68.0981 7.84741 69.157 7.84741 69.157C7.77541 68.9877 7.6902 68.8244 7.59256 68.6685C6.81028 68.9878 5.9739 69.1536 5.12898 69.157C2.90205 69.157 0.666016 69.157 0.666016 67.279C0.666016 67.0999 1.18482 65.3008 2.05557 62.4549C2.57654 61.8448 3.24956 61.3832 4.00642 61.117C6.3274 60.3736 8.68783 66.4598 8.703 67.279Z" fill="black"/>
<path d="M0.664062 2.2732V67.279C2.93044 64.245 6.4286 64.245 8.70104 67.279V2.2732C6.4377 -0.757733 2.93044 -0.757733 0.664062 2.2732Z" fill="#02BEB2"/>
<path opacity="0.8" d="M8.703 2.27318V67.279C7.16174 65.2189 5.06224 64.5484 3.1478 65.2947C2.14972 65.7084 1.28924 66.3964 0.666016 67.279V2.27318C1.21799 1.50511 1.94634 0.880818 2.78979 0.452803C4.78614 -0.521101 7.07679 0.0856926 8.703 2.27318Z" fill="white"/>
<g opacity="0.2">
<path d="M1.04297 44.8064V45.1098C1.35978 44.7573 1.71264 44.4391 2.09576 44.1601V43.8567C1.71264 44.1357 1.35978 44.4539 1.04297 44.8064Z" fill="black"/>
<path d="M2.41992 43.9478C3.03539 43.5619 3.73695 43.3346 4.46178 43.2864V42.983C3.73695 43.0312 3.03539 43.2585 2.41992 43.6444V43.9478Z" fill="black"/>
<path d="M5.28516 43.3258C6.07508 43.457 6.81795 43.7892 7.44231 44.2906V43.9872C6.81795 43.4858 6.07508 43.1536 5.28516 43.0224V43.3258Z" fill="black"/>
<path d="M3.13311 44.6001C2.38441 44.9147 1.71268 45.3877 1.16406 45.9866V46.29C1.71268 45.6911 2.38441 45.2181 3.13311 44.9034V44.6001Z" fill="black"/>
<path d="M6.47033 44.7062C5.5624 44.2662 4.52347 44.1786 3.55469 44.4605V44.7639C4.52347 44.482 5.5624 44.5696 6.47033 45.0096C6.47033 44.9095 6.47033 44.8094 6.47033 44.7062Z" fill="black"/>
<path d="M2.66041 46.4538V46.1504C1.88148 46.5902 1.20182 47.1862 0.664062 47.901V48.2044C1.20091 47.4887 1.88076 46.8926 2.66041 46.4538Z" fill="black"/>
<path d="M3.05469 45.9593V46.2627C3.82547 45.9249 4.68236 45.8358 5.50613 46.0078V45.7044C4.68235 45.5327 3.82552 45.6217 3.05469 45.9593Z" fill="black"/>
<path d="M6.19141 46.3658C6.6405 46.5441 7.0615 46.7863 7.4414 47.0849V46.4781C7.0615 46.1795 6.6405 45.9373 6.19141 45.759V46.3658Z" fill="black"/>
<path d="M4.55704 46.9423C3.36857 47.0161 2.25018 47.5298 1.41992 48.3834V48.6868C2.25018 47.8332 3.36857 47.3195 4.55704 47.2457V46.9423Z" fill="black"/>
<path d="M7.15294 47.7402C6.54028 47.3137 5.83143 47.0458 5.08984 46.9605V47.2639C5.83143 47.3492 6.54028 47.6171 7.15294 48.0436V47.7402Z" fill="black"/>
<path d="M3.45531 48.9083V48.3015C2.33461 48.701 1.36138 49.4309 0.664062 50.3949V51.0017C1.36138 50.0377 2.33461 49.3078 3.45531 48.9083Z" fill="black"/>
<path d="M6.83018 48.8597C6.01035 48.3676 5.04652 48.1717 4.09961 48.3045V48.6079C5.04652 48.4748 6.01044 48.6708 6.83018 49.1631V48.8597Z" fill="black"/>
<path d="M1.07061 51.384C0.93105 51.5357 0.797557 51.6874 0.664062 51.8664V52.1698C0.797557 51.9999 0.93105 51.8391 1.07061 51.6874V51.384Z" fill="black"/>
<path d="M2.03906 50.8106C2.49644 50.4702 3.00984 50.2125 3.55605 50.0491V49.7457C3.00984 49.9091 2.49644 50.1668 2.03906 50.5072V50.8106Z" fill="black"/>
<path d="M1.98384 33.7961V33.4927C1.48743 33.8711 1.0436 34.3139 0.664062 34.8094V35.1128C1.04441 34.618 1.48813 34.1753 1.98384 33.7961Z" fill="black"/>
<path d="M1.17578 33.1954C1.72534 32.5984 2.39687 32.1265 3.14482 31.8119V31.5085C2.39687 31.8231 1.72534 32.295 1.17578 32.892V33.1954Z" fill="black"/>
<path d="M6.47033 31.6147C5.5624 31.1746 4.52347 31.087 3.55469 31.3689V31.6723C4.52347 31.3904 5.5624 31.478 6.47033 31.9181C6.47033 31.8149 6.47033 31.7148 6.47033 31.6147Z" fill="black"/>
<path d="M2.66041 30.7288V30.4254C1.88067 30.8653 1.20085 31.4625 0.664062 32.179V32.4824C1.20085 31.7659 1.88067 31.1687 2.66041 30.7288Z" fill="black"/>
<path d="M3.05469 30.2251V30.5285C3.82547 30.1908 4.68236 30.1017 5.50613 30.2737V29.9703C4.68236 29.7983 3.82547 29.8874 3.05469 30.2251Z" fill="black"/>
<path d="M6.19141 30.6286C6.63924 30.8043 7.06005 31.0423 7.4414 31.3355V30.7288C7.06078 30.4312 6.63993 30.1892 6.19141 30.0097V30.6286Z" fill="black"/>
<path d="M4.55704 28.5625C3.36823 28.6374 2.24988 29.1522 1.41992 30.0067V30.3101C2.24988 29.4556 3.36823 28.9408 4.55704 28.8659V28.5625Z" fill="black"/>
<path d="M5.40625 28.9296C6.1505 29.0787 6.84843 29.4032 7.44204 29.8762V29.5728C6.84843 29.0998 6.1505 28.7753 5.40625 28.6262V28.9296Z" fill="black"/>
<path d="M3.45531 27.889V27.2822C2.33473 27.6804 1.36141 28.4093 0.664062 29.3726V29.9794C1.36141 29.0161 2.33473 28.2871 3.45531 27.889Z" fill="black"/>
<path d="M4.77148 27.5461C5.74699 27.5842 6.68384 27.9376 7.44138 28.5534V28.25C6.68384 27.6342 5.74699 27.2808 4.77148 27.2427V27.5461Z" fill="black"/>
<path d="M5.17797 25.9503C3.8855 25.7834 2.56875 26.2749 1.44922 27.3337V27.6371C2.56875 26.5783 3.87639 26.0868 5.17797 26.2537V25.9503Z" fill="black"/>
<path d="M5.94336 26.5753C6.48635 26.7587 6.99345 27.0348 7.44214 27.3914V26.7846C6.993 26.4302 6.48593 26.1561 5.94336 25.9745V26.5753Z" fill="black"/>
<path d="M1.07061 27.7221C0.93105 27.8738 0.797557 28.0255 0.664062 28.2015V28.5049C0.797557 28.338 0.93105 28.1772 1.07061 28.0255V27.7221Z" fill="black"/>
<path d="M2.09576 35.6316V35.3282C1.71264 35.6072 1.35978 35.9254 1.04297 36.2779V36.5813C1.35978 36.2288 1.71264 35.9106 2.09576 35.6316Z" fill="black"/>
<path d="M2.41992 35.4193C3.03539 35.0334 3.73695 34.8061 4.46178 34.7579V34.4545C3.73695 34.5027 3.03539 34.73 2.41992 35.1159V35.4193Z" fill="black"/>
<path d="M5.28516 34.7973C6.07508 34.9285 6.81795 35.2607 7.44231 35.7621V35.4587C6.81795 34.9574 6.07508 34.6251 5.28516 34.4939V34.7973Z" fill="black"/>
<path d="M3.13311 36.0716C2.38441 36.3863 1.71268 36.8593 1.16406 37.4581V37.7615C1.71268 37.1627 2.38441 36.6897 3.13311 36.375V36.0716Z" fill="black"/>
<path d="M6.47033 36.1899C5.5624 35.7498 4.52347 35.6623 3.55469 35.9442V36.2476C4.52347 35.9657 5.5624 36.0532 6.47033 36.4933C6.47033 36.381 6.47033 36.2779 6.47033 36.1899Z" fill="black"/>
<path d="M2.66041 37.9253V37.6219C1.88076 38.0607 1.20091 38.6569 0.664062 39.3725V39.6759C1.20091 38.9603 1.88076 38.3641 2.66041 37.9253Z" fill="black"/>
<path d="M3.05469 37.4308V37.7342C3.82547 37.3964 4.68236 37.3074 5.50613 37.4793V37.1759C4.68236 37.004 3.82547 37.093 3.05469 37.4308Z" fill="black"/>
<path d="M6.19141 37.8373C6.6405 38.0156 7.0615 38.2578 7.4414 38.5564V37.9496C7.0615 37.651 6.6405 37.4088 6.19141 37.2305V37.8373Z" fill="black"/>
<path d="M4.55704 38.4138C3.36857 38.4876 2.25018 39.0014 1.41992 39.8549V40.1583C2.25018 39.3048 3.36857 38.791 4.55704 38.7172V38.4138Z" fill="black"/>
<path d="M7.15294 39.2239C6.54028 38.7974 5.83143 38.5295 5.08984 38.4441V38.7475C5.83143 38.8329 6.54028 39.1008 7.15294 39.5273V39.2239Z" fill="black"/>
<path d="M3.45531 40.3798V39.773C2.33537 40.1724 1.36237 40.9011 0.664062 41.8634V42.4702C1.36237 41.5079 2.33537 40.7792 3.45531 40.3798Z" fill="black"/>
<path d="M6.83018 40.3312C6.01035 39.8392 5.04652 39.6432 4.09961 39.776V40.0794C5.04652 39.9463 6.01044 40.1423 6.83018 40.6346V40.3312Z" fill="black"/>
<path d="M1.07061 42.8646C0.93105 43.0163 0.797557 43.168 0.664062 43.347V43.6504C0.797557 43.4805 0.93105 43.3197 1.07061 43.168V42.8646Z" fill="black"/>
<path d="M2.03906 42.2821C2.49644 41.9417 3.00984 41.684 3.55605 41.5206V41.2172C3.00984 41.3806 2.49644 41.6383 2.03906 41.9787V42.2821Z" fill="black"/>
<path d="M5.5 7.47947C6.20774 7.63214 6.87164 7.94335 7.44174 8.38966V7.78287C6.87203 7.33592 6.20798 7.02464 5.5 6.87268V7.47947Z" fill="black"/>
<path d="M3.61133 7.39148C4.00613 7.28169 4.41534 7.23259 4.82491 7.24585C4.82491 7.14573 4.82491 7.04258 4.82491 6.94246C4.41534 6.92919 4.00613 6.97829 3.61133 7.08809V7.39148Z" fill="black"/>
<path d="M1.33789 8.7689C1.88335 8.21347 2.54125 7.78108 3.26749 7.50071V7.19731C2.54125 7.47768 1.88335 7.91008 1.33789 8.46551V8.7689Z" fill="black"/>
<path d="M4.87109 5.92608C5.8113 5.98772 6.7092 6.33967 7.44086 6.93336V6.62996C6.7092 6.03627 5.8113 5.68432 4.87109 5.62268V5.92608Z" fill="black"/>
<path d="M4.65112 5.61964C3.90245 5.63364 3.1704 5.8428 2.52734 6.22644V6.52983C3.17051 6.14645 3.90249 5.93731 4.65112 5.92304V5.61964Z" fill="black"/>
<path d="M2.15374 6.76043V6.45703C1.58841 6.86082 1.08635 7.34652 0.664062 7.89817V8.20156C1.08635 7.64992 1.58841 7.16421 2.15374 6.76043Z" fill="black"/>
<path d="M6.61719 4.77924V5.08263C6.90768 5.23327 7.18389 5.40996 7.44243 5.61054V5.30715C7.18389 5.10657 6.90768 4.92987 6.61719 4.77924Z" fill="black"/>
<path d="M6.16837 4.87937V4.57597C5.66655 4.37997 5.13077 4.28574 4.59219 4.29876C4.05361 4.31179 3.52301 4.4318 3.03125 4.65182V4.95522C3.52305 4.73536 4.05364 4.61544 4.59219 4.60242C5.13075 4.58939 5.66652 4.68354 6.16837 4.87937Z" fill="black"/>
<path d="M2.62704 5.14939V4.84599C1.86207 5.28575 1.19428 5.87614 0.664062 6.58142V6.88482C1.19347 6.17878 1.86143 5.58825 2.62704 5.14939Z" fill="black"/>
<path d="M5.5 24.5364C6.20906 24.6936 6.87306 25.0101 7.44174 25.4618V24.855C6.87345 24.4026 6.2093 24.0861 5.5 23.9296V24.5364Z" fill="black"/>
<path d="M3.61133 24.4484C4.00613 24.3386 4.41534 24.2895 4.82491 24.3028C4.82491 24.2027 4.82491 24.0995 4.82491 23.9994C4.41534 23.9862 4.00613 24.0353 3.61133 24.145V24.4484Z" fill="black"/>
<path d="M1.33789 25.8259C1.88335 25.2704 2.54125 24.838 3.26749 24.5577V24.2543C2.54125 24.5346 1.88335 24.967 1.33789 25.5225V25.8259Z" fill="black"/>
<path d="M4.87109 22.9831C5.8113 23.0447 6.7092 23.3966 7.44086 23.9903V23.6869C6.7092 23.0933 5.8113 22.7413 4.87109 22.6797V22.9831Z" fill="black"/>
<path d="M4.65112 22.6766C3.90245 22.6906 3.1704 22.8998 2.52734 23.2834V23.5868C3.17051 23.2034 3.90249 22.9943 4.65112 22.98V22.6766Z" fill="black"/>
<path d="M1.22838 24.3089C1.02943 24.5156 0.841083 24.7323 0.664062 24.9582V25.2616C0.841083 25.0357 1.02943 24.819 1.22838 24.6123V24.3089Z" fill="black"/>
<path d="M6.61719 22.1426C6.90827 22.2911 7.18459 22.4668 7.44243 22.6675V22.3641C7.18459 22.1634 6.90827 21.9877 6.61719 21.8392V22.1426Z" fill="black"/>
<path d="M6.16837 21.6269C5.66655 21.4309 5.13077 21.3366 4.59219 21.3497C4.05361 21.3627 3.52301 21.4827 3.03125 21.7027V22.0061C3.52305 21.7862 4.05364 21.6663 4.59219 21.6533C5.13075 21.6403 5.66652 21.7344 6.16837 21.9303V21.6269Z" fill="black"/>
<path d="M2.62704 22.2064V21.903C1.86207 22.3427 1.19428 22.9331 0.664062 23.6384V23.9418C1.19428 23.2365 1.86207 22.6461 2.62704 22.2064Z" fill="black"/>
<path d="M5.03353 20.3526C5.91559 20.4454 6.75208 20.791 7.4425 21.3477V21.0444C6.75208 20.4876 5.91559 20.142 5.03353 20.0492C5.03049 20.1493 5.03049 20.2495 5.03353 20.3526Z" fill="black"/>
<path d="M4.36568 20.0462C3.1714 20.1776 2.06587 20.7395 1.25586 21.6269V21.9303C2.06395 21.0384 3.16971 20.472 4.36568 20.3374V20.0462Z" fill="black"/>
<path d="M6.09766 19.2695C6.58175 19.4509 7.03506 19.7057 7.4417 20.0249V19.7215C7.03506 19.4023 6.58175 19.1475 6.09766 18.9661V19.2695Z" fill="black"/>
<path d="M5.27811 18.5929C4.20986 18.4446 3.12519 18.7081 2.24414 19.3302V19.9369C3.12519 19.3149 4.20986 19.0514 5.27811 19.1997V18.5929Z" fill="black"/>
<path d="M1.07668 20.5073C0.934086 20.6621 0.797557 20.8107 0.664062 20.9958V21.2992C0.797557 21.1263 0.93712 20.9655 1.07668 20.8107V20.5073Z" fill="black"/>
<path d="M4.7793 17.6827C5.75297 17.7233 6.68739 18.0777 7.44312 18.693V18.3896C6.68739 17.7743 5.75297 17.4199 4.7793 17.3793V17.6827Z" fill="black"/>
<path d="M3.69132 17.5158C2.70392 17.7941 1.81723 18.3501 1.13672 19.1178V19.4212C1.81723 18.6535 2.70392 18.0975 3.69132 17.8192V17.5158Z" fill="black"/>
<path d="M1.04297 17.6038C1.35818 17.2498 1.71121 16.9314 2.09576 16.6542V16.3508C1.71121 16.628 1.35818 16.9464 1.04297 17.3004V17.6038Z" fill="black"/>
<path d="M2.41992 16.4418C3.03461 16.0538 3.73646 15.8254 4.46178 15.7774V15.474C3.73646 15.522 3.03461 15.7504 2.41992 16.1384V16.4418Z" fill="black"/>
<path d="M5.28516 15.8168C6.07343 15.9479 6.8156 16.2767 7.44231 16.7725V16.4691C6.81654 15.9701 6.07429 15.6381 5.28516 15.5043V15.8168Z" fill="black"/>
<path d="M1.17578 16.1384C1.72368 15.5395 2.39565 15.0674 3.14482 14.7549V14.4515C2.39565 14.764 1.72368 15.2361 1.17578 15.835V16.1384Z" fill="black"/>
<path d="M6.47033 14.5577C5.56279 14.1162 4.52333 14.0286 3.55469 14.312V14.6154C4.52333 14.332 5.56279 14.4196 6.47033 14.8611C6.47033 14.758 6.47033 14.6487 6.47033 14.5577Z" fill="black"/>
<path d="M2.66041 13.6597V13.3563C1.88067 13.7962 1.20085 14.3934 0.664062 15.1099V15.4133C1.20085 14.6968 1.88067 14.0996 2.66041 13.6597Z" fill="black"/>
<path d="M3.05469 13.1682V13.4716C3.82556 13.1344 4.68197 13.0443 5.50613 13.2137V12.9103C4.68197 12.7409 3.82556 12.831 3.05469 13.1682Z" fill="black"/>
<path d="M6.19141 13.4351C6.63993 13.6146 7.06078 13.8567 7.4414 14.1542V13.8508C7.06078 13.5533 6.63993 13.3112 6.19141 13.1317V13.4351Z" fill="black"/>
<path d="M1.41992 13.2531C2.24988 12.3987 3.36823 11.8838 4.55704 11.8089V11.5055C3.36823 11.5804 2.24988 12.0953 1.41992 12.9497V13.2531Z" fill="black"/>
<path d="M7.15294 12.3065C6.54094 11.8788 5.83176 11.6108 5.08984 11.5268V11.8302C5.83176 11.9141 6.54094 12.1822 7.15294 12.6099V12.3065Z" fill="black"/>
<path d="M3.45531 10.6803V10.3769C2.33473 10.7751 1.36141 11.504 0.664062 12.4673V12.7707C1.36141 11.8074 2.33473 11.0785 3.45531 10.6803Z" fill="black"/>
<path d="M4.10742 10.2252V10.5286C5.05434 10.3955 6.01825 10.5915 6.83799 11.0838V10.7804C6.01816 10.2883 5.05433 10.0924 4.10742 10.2252Z" fill="black"/>
<path d="M1.07061 10.6651C0.93105 10.8168 0.797557 10.9685 0.664062 11.1445V11.4479C0.797557 11.281 0.93105 11.1202 1.07061 10.9685V10.6651Z" fill="black"/>
<path d="M3.55019 9.02679C3.0036 9.18781 2.48997 9.44463 2.0332 9.78529V10.0887C2.48997 9.74803 3.0036 9.49121 3.55019 9.33019V9.02679Z" fill="black"/>
<path d="M1.04297 53.3075V53.6109C1.35897 53.2577 1.71192 52.9393 2.09576 52.6613V52.3579C1.71192 52.6359 1.35897 52.9543 1.04297 53.3075Z" fill="black"/>
<path d="M2.41992 52.4489C3.03418 52.0605 3.73641 51.833 4.46178 51.7875V51.4841C3.73641 51.5296 3.03418 51.7571 2.41992 52.1455V52.4489Z" fill="black"/>
<path d="M5.28516 51.827C6.07447 51.9583 6.81706 52.2894 7.44231 52.7887V52.4853C6.81706 51.986 6.07447 51.6549 5.28516 51.5236V51.827Z" fill="black"/>
<path d="M3.13311 53.1012C2.38515 53.4159 1.71362 53.8877 1.16406 54.4847V54.7881C1.71362 54.1911 2.38515 53.7192 3.13311 53.4046V53.1012Z" fill="black"/>
<path d="M6.47033 53.2074C5.5624 52.7673 4.52347 52.6798 3.55469 52.9617V53.2651C4.52347 52.9832 5.5624 53.0707 6.47033 53.5108C6.47033 53.4107 6.47033 53.3075 6.47033 53.2074Z" fill="black"/>
<path d="M2.66041 54.955V54.6516C1.88076 55.0904 1.20091 55.6865 0.664062 56.4022V56.7056C1.20091 55.9899 1.88076 55.3937 2.66041 54.955Z" fill="black"/>
<path d="M3.05469 54.4604V54.7638C3.82547 54.4261 4.68236 54.337 5.50613 54.509V54.2056C4.68235 54.0338 3.82552 54.1229 3.05469 54.4604Z" fill="black"/>
<path d="M6.19141 54.864C6.64002 55.0445 7.06085 55.2876 7.4414 55.5861V54.9793C7.06085 54.6809 6.64002 54.4378 6.19141 54.2572V54.864Z" fill="black"/>
<path d="M1.41992 57.188C2.25018 56.3344 3.36857 55.8206 4.55704 55.7468V55.4435C3.36857 55.5173 2.25018 56.031 1.41992 56.8846V57.188Z" fill="black"/>
<path d="M5.08984 55.7651C5.83143 55.8504 6.54028 56.1183 7.15294 56.5448V56.2414C6.54028 55.8149 5.83143 55.547 5.08984 55.4617V55.7651Z" fill="black"/>
<path d="M0.664062 59.0448V59.3482C1.36237 58.3858 2.33537 57.6571 3.45531 57.2578V56.9544C2.33537 57.3537 1.36237 58.0824 0.664062 59.0448Z" fill="black"/>
<path d="M6.83018 57.3609C6.01035 56.8688 5.04652 56.6728 4.09961 56.8057V57.1091C5.04652 56.976 6.01044 57.172 6.83018 57.6643V57.3609Z" fill="black"/>
<path d="M6.38867 62.1698C6.76317 62.3405 7.11649 62.5543 7.44146 62.8069V62.2001C7.11649 61.9475 6.76317 61.7337 6.38867 61.563C6.39171 61.7662 6.39171 61.9786 6.38867 62.1698Z" fill="black"/>
</g>
<path opacity="0.1" d="M3.51861 40.3798C2.69034 55.3191 2.55988 61.921 3.21521 65.2948C2.1994 65.7049 1.31941 66.3925 0.675781 67.279V2.2732C1.24613 1.50116 1.9931 0.876959 2.85417 0.45282C3.22128 5.74709 4.39543 24.5486 3.51861 40.3798Z" fill="black"/>
<path opacity="0.1" d="M7.59371 68.6685C7.42939 68.074 7.32771 67.4639 7.29031 66.8481C7.29031 66.8481 3.82552 65.6042 2.23876 66.4355C0.651994 67.2668 0.776385 69.7183 7.59371 68.6685Z" fill="black"/>
<path d="M53.5137 67.279C38.5775 73.7808 23.6413 60.7802 8.70508 67.279C8.70508 45.6104 8.70508 23.9418 8.70508 2.2732C23.6413 -4.22556 38.5775 8.77499 53.5137 2.2732V67.279Z" fill="#02BEB2"/>
<path opacity="0.8" d="M53.5129 2.2732V67.279C39.4535 73.3985 25.3971 62.2395 11.3407 66.3293C10.5147 66.5652 9.70411 66.8519 8.91355 67.188L8.70117 67.279V2.2732C9.00457 2.13363 9.33527 2.00621 9.6508 1.88788L9.77823 1.83934C24.3716 -3.61574 38.9346 8.61722 53.5129 2.2732Z" fill="white"/>
<g opacity="0.4">
<path d="M14.1733 6.99101C14.4099 6.95461 14.6466 6.92123 14.8832 6.89089V8.50496C14.4349 8.90008 13.8874 9.16546 13.2995 9.27256C12.0434 9.51527 11.1181 8.94186 11.1211 7.72827C11.1337 7.10736 11.3576 6.50929 11.7558 6.03274C12.154 5.55618 12.7028 5.22962 13.3116 5.10692C13.5942 5.03055 13.8915 5.02752 14.1756 5.09813C14.4596 5.16874 14.7209 5.31065 14.9348 5.51044L14.4615 6.03532C14.3114 5.90283 14.1315 5.80855 13.9371 5.76048C13.7427 5.71242 13.5396 5.71198 13.345 5.75922C12.9361 5.83973 12.5673 6.05808 12.3 6.37779C12.0328 6.69751 11.8833 7.09924 11.8766 7.51589C11.8766 8.3381 12.4834 8.76892 13.3389 8.60509C13.6398 8.5514 13.9249 8.43115 14.1733 8.25314V6.99101Z" fill="black"/>
<path d="M18.8525 6.12937V8.75071C18.8525 9.87328 18.27 10.3557 17.1868 10.3891C16.6625 10.4317 16.1378 10.3109 15.685 10.0432C15.7912 9.85205 15.9004 9.66091 16.0096 9.4728C16.3466 9.69328 16.7454 9.79964 17.1474 9.7762C17.83 9.75496 18.1304 9.44853 18.1304 8.82353V8.65969C17.996 8.79766 17.835 8.90696 17.6572 8.98101C17.4794 9.05505 17.2884 9.0923 17.0958 9.09052C16.2099 9.12389 15.5333 8.59598 15.5333 7.69793C15.5309 7.49078 15.5695 7.2852 15.6468 7.09301C15.7241 6.90083 15.8387 6.72583 15.9839 6.57808C16.1291 6.43033 16.3021 6.31275 16.493 6.2321C16.6838 6.15145 16.8886 6.10932 17.0958 6.10813C17.2947 6.08934 17.4953 6.11805 17.6809 6.19189C17.8666 6.26574 18.0321 6.38261 18.1638 6.53289V6.1233C18.3943 6.1233 18.6249 6.1233 18.8525 6.12937ZM18.1425 7.57353C18.1445 7.45352 18.121 7.33446 18.0734 7.22424C18.0259 7.11403 17.9554 7.01518 17.8668 6.93427C17.7781 6.85336 17.6733 6.79223 17.5592 6.75493C17.4451 6.71764 17.3244 6.70503 17.205 6.71796C17.0827 6.71347 16.9608 6.7337 16.8465 6.77742C16.7321 6.82115 16.6278 6.88748 16.5397 6.97245C16.4517 7.05742 16.3816 7.15929 16.3338 7.27195C16.286 7.38461 16.2614 7.50576 16.2615 7.62815C16.2595 7.74795 16.2834 7.86676 16.3317 7.97644C16.3799 8.08612 16.4513 8.18408 16.5409 8.26361C16.6305 8.34314 16.7362 8.40236 16.8509 8.43721C16.9655 8.47206 17.0863 8.48172 17.205 8.46552C17.3253 8.46915 17.4451 8.4489 17.5575 8.40592C17.67 8.36295 17.7727 8.29811 17.8599 8.21515C17.9471 8.1322 18.017 8.03278 18.0655 7.92265C18.114 7.81252 18.1402 7.69385 18.1425 7.57353Z" fill="black"/>
</g>
<g opacity="0.4">
<path d="M14.9664 12.525C13.6613 12.6798 12.372 12.9478 11.1133 13.3259V12.7191C12.372 12.341 13.6613 12.073 14.9664 11.9182V12.525Z" fill="black"/>
<path d="M18.5647 12.1882C17.8032 12.1882 17.0478 12.1882 16.2832 12.2489V11.9455C17.0447 11.8939 17.8002 11.8757 18.5647 11.8848V12.1882Z" fill="black"/>
<path d="M23.1844 12.5553C21.8673 12.3714 20.5418 12.2539 19.2129 12.2034V11.9C20.5387 11.9508 21.8612 12.0683 23.1753 12.2519L23.1844 12.5553Z" fill="black"/>
<path d="M29.0054 13.6111C27.5855 13.3077 26.1656 13.0256 24.7578 12.7889V12.4855C26.1777 12.7222 27.5976 13.0043 29.0054 13.3077V13.6111Z" fill="black"/>
<path d="M16.1616 13.5808C14.4523 13.6968 12.7611 14.002 11.1191 14.491V14.1876C12.7611 13.6986 14.4523 13.3934 16.1616 13.2774C16.1798 13.3775 16.1798 13.4776 16.1616 13.5808Z" fill="black"/>
<path d="M20.6647 13.605C19.3071 13.4969 17.9438 13.4796 16.584 13.5535V13.2501C17.9438 13.1762 19.3071 13.1935 20.6647 13.3016V13.605Z" fill="black"/>
<path d="M27.0259 14.5274C25.166 14.1603 23.3032 13.8508 21.4434 13.6718V13.3684C23.3032 13.5474 25.166 13.8569 27.0259 14.224V14.5274Z" fill="black"/>
<path d="M12.803 15.3829C12.2427 15.5043 11.6814 15.6489 11.1191 15.8168V15.5134C11.6794 15.3475 12.2407 15.2029 12.803 15.0795V15.3829Z" fill="black"/>
<path d="M19.7054 14.8672C17.6977 14.7553 15.6838 14.8682 13.7012 15.2039V14.9005C15.6838 14.5648 17.6977 14.4519 19.7054 14.5638C19.7024 14.6639 19.7024 14.7671 19.7054 14.8672Z" fill="black"/>
<path d="M25.1658 15.5043C23.6033 15.2373 22.0438 15.0249 20.4844 14.9127V14.6093C22.0438 14.7215 23.6033 14.9339 25.1658 15.2009V15.5043Z" fill="black"/>
<path d="M29.0045 16.4054C28.1671 16.2264 27.3267 16.0535 26.4863 15.8957V15.2889C27.3267 15.4467 28.1671 15.6196 29.0045 15.7986V16.4054Z" fill="black"/>
<path d="M15.8779 16.2446C14.269 16.3832 12.6788 16.6882 11.1328 17.1548V16.8514C12.6788 16.3848 14.269 16.0798 15.8779 15.9412V16.2446Z" fill="black"/>
<path d="M23.3639 16.545C21.2988 16.2359 19.2104 16.109 17.123 16.1657V15.8623C19.2103 15.8046 21.2987 15.9305 23.3639 16.2385V16.545Z" fill="black"/>
<path d="M28.4071 17.4491C27.0631 17.17 25.719 16.909 24.375 16.6936V16.3902C25.719 16.6056 27.0631 16.8666 28.4071 17.1457V17.4491Z" fill="black"/>
<path d="M13.8224 17.8253C12.9093 17.9818 12.0066 18.1936 11.1191 18.4594V18.156C12.0066 17.8902 12.9093 17.6784 13.8224 17.5219V17.8253Z" fill="black"/>
<path d="M21.2653 17.7707C19.313 17.5795 17.3468 17.5795 15.3945 17.7707V17.1639C17.3468 16.9727 19.313 16.9727 21.2653 17.1639V17.7707Z" fill="black"/>
<path d="M27.7453 18.6354C26.0008 18.2804 24.2562 17.9649 22.5117 17.7525V17.4491C24.2562 17.6615 26.0008 17.977 27.7453 18.332V18.6354Z" fill="black"/>
<path d="M16.3436 18.8538C14.5725 18.9638 12.8197 19.2753 11.1191 19.7822V19.4788C12.8197 18.9719 14.5725 18.6605 16.3436 18.5504V18.8538Z" fill="black"/>
<path d="M21.444 18.96C20.4427 18.8629 19.4446 18.8053 18.4434 18.7962V18.4928C19.4446 18.4928 20.4427 18.5595 21.444 18.6566V18.96Z" fill="black"/>
<path d="M23.844 27.7858C23.0825 27.6705 22.3271 27.5734 21.5625 27.5006V27.1972C22.324 27.27 23.0795 27.3671 23.844 27.4824V27.7858Z" fill="black"/>
<path d="M20.9038 27.4399C19.5862 27.3262 18.2628 27.2958 16.9414 27.3489V27.0455C18.2628 26.9924 19.5862 27.0228 20.9038 27.1365V27.4399Z" fill="black"/>
<path d="M15.3819 27.4642C13.9376 27.6073 12.5102 27.8877 11.1191 28.3016V27.9982C12.5099 27.5812 13.9373 27.2978 15.3819 27.1517V27.4642Z" fill="black"/>
<path d="M29.0034 27.4248C27.3256 27.0667 25.6448 26.736 23.9609 26.4812V26.1778C25.6418 26.4326 27.3226 26.7633 29.0034 27.1214V27.4248Z" fill="black"/>
<path d="M23.5436 26.4205C22.191 26.2195 20.829 26.0889 19.4629 26.0292V25.7258C20.829 25.7855 22.191 25.9161 23.5436 26.1171V26.4205Z" fill="black"/>
<path d="M18.6841 26.0049C16.8111 25.9629 14.9392 26.1257 13.1016 26.4903V26.1869C14.9392 25.8223 16.8111 25.6595 18.6841 25.7015V26.0049Z" fill="black"/>
<path d="M29.005 26.102C28.4468 25.9846 27.8865 25.8693 27.3242 25.7561V25.4527C27.8845 25.566 28.4448 25.6812 29.005 25.7986V26.102Z" fill="black"/>
<path d="M26.4261 25.571C24.4425 25.1805 22.4376 24.907 20.4219 24.7518V24.4484C22.4376 24.6036 24.4425 24.8771 26.4261 25.2676V25.571Z" fill="black"/>
<path d="M19.6404 24.7154C18.0784 24.6356 16.5125 24.6864 14.959 24.8671V24.5637C16.5125 24.383 18.0784 24.3322 19.6404 24.412V24.7154Z" fill="black"/>
<path d="M13.6404 25.216C12.7889 25.3693 11.9471 25.572 11.1191 25.8228V25.216C11.9471 24.9652 12.7889 24.7626 13.6404 24.6093V25.216Z" fill="black"/>
<path d="M29.0038 24.7822C27.4231 24.4454 25.8424 24.1329 24.2617 23.872V23.5686C25.8424 23.8174 27.4231 24.1299 29.0038 24.4788V24.7822Z" fill="black"/>
<path d="M23.0026 23.7021C20.9358 23.412 18.8469 23.3105 16.7617 23.3987V23.0953C18.8469 23.0071 20.9358 23.1086 23.0026 23.3987V23.7021Z" fill="black"/>
<path d="M15.1513 23.5231C13.7849 23.6797 12.4354 23.9589 11.1191 24.3574V24.054C12.4358 23.6596 13.7853 23.3844 15.1513 23.2318V23.5231Z" fill="black"/>
<path d="M29.0049 23.4472C28.1069 23.2551 27.2068 23.0741 26.3047 22.9042V22.6008C27.2048 22.7707 28.1048 22.9517 29.0049 23.1438V23.4472Z" fill="black"/>
<path d="M24.7321 22.7889C22.7919 22.4486 20.8301 22.2459 18.8613 22.1821V21.5753C20.8301 21.6391 22.7919 21.8419 24.7321 22.1821V22.7889Z" fill="black"/>
<path d="M16.3558 22.0941C14.5804 22.2038 12.8234 22.5163 11.1191 23.0255V22.7221C12.8234 22.2129 14.5804 21.9004 16.3558 21.7907V22.0941Z" fill="black"/>
<path d="M22.9342 21.0504C20.5008 20.7014 18.0356 20.6291 15.5859 20.835V20.5316C18.0356 20.3257 20.5008 20.398 22.9342 20.747V21.0504Z" fill="black"/>
<path d="M14.1228 21.1718C13.1073 21.3312 12.1038 21.5593 11.1191 21.8544V21.2476C12.1038 20.9525 13.1073 20.7244 14.1228 20.565V21.1718Z" fill="black"/>
<path d="M29.0047 22.1396C27.2662 21.7694 25.5247 21.4266 23.7832 21.1687V20.8653C25.5247 21.1232 27.2662 21.4721 29.0047 21.8362V22.1396Z" fill="black"/>
<path d="M14.9664 29.5819C13.6615 29.7382 12.3724 30.0062 11.1133 30.3829V29.7761C12.3724 29.3994 13.6615 29.1314 14.9664 28.9751V29.5819Z" fill="black"/>
<path d="M18.5647 29.2451C17.8032 29.2451 17.0478 29.2451 16.2832 29.3058V29.0024C17.0447 28.9509 17.8002 28.9326 18.5647 28.9417V29.2451Z" fill="black"/>
<path d="M23.1844 29.6123C21.8674 29.4279 20.5418 29.3114 19.2129 29.2634V28.96C20.5388 29.0083 21.8613 29.1248 23.1753 29.3089L23.1844 29.6123Z" fill="black"/>
<path d="M29.0054 30.6681C27.5855 30.3647 26.1656 30.0825 24.7578 29.8489V29.5455C26.1777 29.7791 27.5976 30.0613 29.0054 30.3647V30.6681Z" fill="black"/>
<path d="M16.1616 30.6377C14.4523 30.7537 12.7611 31.059 11.1191 31.5479V31.2445C12.7611 30.7556 14.4523 30.4503 16.1616 30.3343C16.1798 30.4254 16.1798 30.5346 16.1616 30.6377Z" fill="black"/>
<path d="M20.6647 30.662C19.3071 30.5538 17.9438 30.5366 16.584 30.6104V30.307C17.9438 30.2332 19.3071 30.2504 20.6647 30.3586V30.662Z" fill="black"/>
<path d="M27.0259 31.5843C25.166 31.2172 23.3032 30.9078 21.4434 30.7288V30.4254C23.3032 30.6044 25.166 30.9138 27.0259 31.2809V31.5843Z" fill="black"/>
<path d="M12.803 32.4399C12.2427 32.5613 11.6814 32.7059 11.1191 32.8738V32.5704C11.6794 32.4045 12.2407 32.2599 12.803 32.1365V32.4399Z" fill="black"/>
<path d="M19.7054 31.9241C17.6977 31.8122 15.6838 31.9252 13.7012 32.2609V31.9575C15.6838 31.6218 17.6977 31.5088 19.7054 31.6207C19.7024 31.7209 19.7024 31.824 19.7054 31.9241Z" fill="black"/>
<path d="M25.1658 32.5491C23.6033 32.2821 22.0438 32.0698 20.4844 31.9605V31.6571C22.0438 31.7664 23.6033 31.9787 25.1658 32.2457V32.5491Z" fill="black"/>
<path d="M29.0045 33.4593C28.1671 33.2803 27.3267 33.1074 26.4863 32.9496V32.3428C27.3267 32.5006 28.1671 32.6735 29.0045 32.8525V33.4593Z" fill="black"/>
<path d="M15.8779 33.3046C14.2695 33.4358 12.6791 33.7347 11.1328 34.1966V33.8932C12.6791 33.4313 14.2695 33.1324 15.8779 33.0012V33.3046Z" fill="black"/>
<path d="M23.3639 33.6019C21.2987 33.2939 19.2103 33.168 17.123 33.2257V32.9223C19.2103 32.8646 21.2987 32.9905 23.3639 33.2985V33.6019Z" fill="black"/>
<path d="M28.4071 34.506C27.0631 34.2269 25.719 33.966 24.375 33.7506V33.4472C25.719 33.6626 27.0631 33.9235 28.4071 34.2027V34.506Z" fill="black"/>
<path d="M13.8224 34.8822C12.909 35.0384 12.0061 35.2511 11.1191 35.5194V35.216C12.0061 34.9478 12.909 34.735 13.8224 34.5788V34.8822Z" fill="black"/>
<path d="M21.2653 34.8307C19.3131 34.638 17.3467 34.638 15.3945 34.8307V34.2239C17.3467 34.0312 19.3131 34.0312 21.2653 34.2239V34.8307Z" fill="black"/>
<path d="M27.7453 35.6923C26.0008 35.3373 24.2562 35.0218 22.5117 34.8094V34.506C24.2562 34.7184 26.0008 35.0339 27.7453 35.3889V35.6923Z" fill="black"/>
<path d="M16.3436 35.9108C14.5723 36.0192 12.8194 36.3307 11.1191 36.8392V36.5358C12.8194 36.0273 14.5723 35.7158 16.3436 35.6074V35.9108Z" fill="black"/>
<path d="M21.444 36.017C20.4427 35.9199 19.4446 35.8622 18.4434 35.8531V35.5497C19.4446 35.5497 20.4427 35.6165 21.444 35.7136V36.017Z" fill="black"/>
<path d="M14.9664 55.1674C13.6615 55.3236 12.3724 55.5916 11.1133 55.9683V55.3615C12.3724 54.9848 13.6615 54.7168 14.9664 54.5606V55.1674Z" fill="black"/>
<path d="M18.5647 54.8306C17.8032 54.8306 17.0478 54.8306 16.2832 54.8913V54.5879C17.0447 54.5363 17.8002 54.5181 18.5647 54.5272V54.8306Z" fill="black"/>
<path d="M23.1844 55.1977C21.8674 55.0133 20.5418 54.8968 19.2129 54.8488V54.5454C20.5388 54.5937 21.8613 54.7102 23.1753 54.8943L23.1844 55.1977Z" fill="black"/>
<path d="M29.0054 56.2535C27.5855 55.9501 26.1656 55.668 24.7578 55.4343V55.131C26.1777 55.3646 27.5976 55.6498 29.0054 55.9501V56.2535Z" fill="black"/>
<path d="M16.1616 56.2141C14.4523 56.3301 12.7611 56.6353 11.1191 57.1243V56.8209C12.7611 56.3319 14.4523 56.0267 16.1616 55.9107C16.1798 56.0199 16.1798 56.12 16.1616 56.2141Z" fill="black"/>
<path d="M20.6647 56.2475C19.3071 56.1393 17.9438 56.1221 16.584 56.1959V55.8925C17.9438 55.8187 19.3071 55.8359 20.6647 55.9441V56.2475Z" fill="black"/>
<path d="M27.0259 57.1698C25.166 56.8057 23.3032 56.4962 21.4434 56.3172V56.0138C23.3032 56.1928 25.166 56.5023 27.0259 56.8664V57.1698Z" fill="black"/>
<path d="M12.803 58.0344C12.2427 58.1558 11.6814 58.3014 11.1191 58.4713V58.1679C11.6794 57.998 12.2407 57.8524 12.803 57.731V58.0344Z" fill="black"/>
<path d="M19.7054 57.5096C17.6977 57.3977 15.6838 57.5106 13.7012 57.8463V57.5429C15.6838 57.2072 17.6977 57.0943 19.7054 57.2062C19.7024 57.3093 19.7024 57.4094 19.7054 57.5096Z" fill="black"/>
<path d="M25.1658 58.1467C23.6033 57.8797 22.0438 57.6673 20.4844 57.5581V57.2547C22.0438 57.364 23.6033 57.5763 25.1658 57.8433V58.1467Z" fill="black"/>
<path d="M29.0045 58.8961C28.1671 58.7171 27.3267 58.5442 26.4863 58.3864V58.083C27.3267 58.2408 28.1671 58.4137 29.0045 58.5927V58.8961Z" fill="black"/>
<path d="M14.9664 38.1104C13.6615 38.2667 12.3724 38.5346 11.1133 38.9114V38.3046C12.3724 37.9278 13.6615 37.6599 14.9664 37.5036V38.1104Z" fill="black"/>
<path d="M18.5647 37.7736C17.8032 37.7736 17.0478 37.7736 16.2832 37.8343V37.5309C17.0447 37.4793 17.8002 37.4611 18.5647 37.4702V37.7736Z" fill="black"/>
<path d="M23.1844 38.1407C21.8674 37.9563 20.5418 37.8399 19.2129 37.7918V37.4884C20.5388 37.5368 21.8613 37.6532 23.1753 37.8373L23.1844 38.1407Z" fill="black"/>
<path d="M29.0054 39.1966C27.5855 38.8932 26.1656 38.611 24.7578 38.3774V38.074C26.1777 38.3076 27.5976 38.5928 29.0054 38.8932V39.1966Z" fill="black"/>
<path d="M16.1616 39.1662C14.4523 39.2822 12.7611 39.5875 11.1191 40.0764V39.773C12.7611 39.2841 14.4523 38.9788 16.1616 38.8628C16.1798 38.9629 16.1798 39.0631 16.1616 39.1662Z" fill="black"/>
<path d="M20.6647 39.1905C19.3071 39.0823 17.9438 39.0651 16.584 39.1389V38.8355C17.9438 38.7617 19.3071 38.7789 20.6647 38.8871V39.1905Z" fill="black"/>
<path d="M27.0259 40.1128C25.166 39.7457 23.3032 39.4362 21.4434 39.2572V38.9538C23.3032 39.1328 25.166 39.4423 27.0259 39.8094V40.1128Z" fill="black"/>
<path d="M12.803 40.9684C12.2427 41.0897 11.6814 41.2344 11.1191 41.4022V41.0988C11.6794 40.933 12.2407 40.7884 12.803 40.665V40.9684Z" fill="black"/>
<path d="M19.7054 40.4526C17.6977 40.3407 15.6838 40.4537 13.7012 40.7894V40.486C15.6838 40.1503 17.6977 40.0373 19.7054 40.1492C19.7024 40.2524 19.7024 40.3525 19.7054 40.4526Z" fill="black"/>
<path d="M25.1658 41.0898C23.6033 40.8228 22.0438 40.6104 20.4844 40.5012V40.1978C22.0438 40.307 23.6033 40.5194 25.1658 40.7864V41.0898Z" fill="black"/>
<path d="M29.0045 41.9908C28.1671 41.8118 27.3267 41.6389 26.4863 41.4811V40.8743C27.3267 41.0321 28.1671 41.205 29.0045 41.384V41.9908Z" fill="black"/>
<path d="M15.8779 41.8331C14.2695 41.9643 12.6791 42.2632 11.1328 42.7251V42.4217C12.6791 41.9599 14.2695 41.6609 15.8779 41.5297V41.8331Z" fill="black"/>
<path d="M23.3639 42.1304C21.2987 41.8223 19.2103 41.6964 17.123 41.7542V41.4508C19.2103 41.393 21.2987 41.5189 23.3639 41.827V42.1304Z" fill="black"/>
<path d="M28.4071 43.0345C27.0631 42.7554 25.719 42.4945 24.375 42.2791V41.9757C25.719 42.1911 27.0631 42.452 28.4071 42.7311V43.0345Z" fill="black"/>
<path d="M13.8224 43.4107C12.909 43.5668 12.0061 43.7796 11.1191 44.0479V43.7445C12.0061 43.4762 12.909 43.2634 13.8224 43.1073V43.4107Z" fill="black"/>
<path d="M21.2653 43.3592C19.3131 43.1665 17.3467 43.1665 15.3945 43.3592V42.7524C17.3467 42.5597 19.3131 42.5597 21.2653 42.7524V43.3592Z" fill="black"/>
<path d="M27.7453 44.2208C26.0008 43.8658 24.2562 43.5503 22.5117 43.3379V43.0345C24.2562 43.2469 26.0008 43.5624 27.7453 43.9174V44.2208Z" fill="black"/>
<path d="M16.3436 44.4393C14.5725 44.5493 12.8197 44.8608 11.1191 45.3677V45.0643C12.8197 44.5574 14.5725 44.2459 16.3436 44.1359V44.4393Z" fill="black"/>
<path d="M21.444 44.5455C20.4427 44.4484 19.4446 44.3907 18.4434 44.3816V44.0782C19.4446 44.0782 20.4427 44.145 21.444 44.2421V44.5455Z" fill="black"/>
<path d="M14.9664 46.6389C13.6615 46.7951 12.3724 47.0631 11.1133 47.4398V46.833C12.3724 46.4563 13.6615 46.1883 14.9664 46.0321V46.6389Z" fill="black"/>
<path d="M18.5647 46.3021C17.8032 46.3021 17.0478 46.3021 16.2832 46.3628V46.0594C17.0447 46.0078 17.8002 45.9896 18.5647 45.9987V46.3021Z" fill="black"/>
<path d="M23.1844 46.6692C21.8674 46.4848 20.5418 46.3683 19.2129 46.3203V46.0169C20.5388 46.0653 21.8613 46.1817 23.1753 46.3658L23.1844 46.6692Z" fill="black"/>
<path d="M29.0054 47.719C27.5855 47.4156 26.1656 47.1334 24.7578 46.8998V46.5964C26.1777 46.83 27.5976 47.1152 29.0054 47.4156V47.719Z" fill="black"/>
<path d="M16.1616 47.6947C14.4523 47.8107 12.7611 48.116 11.1191 48.6049V48.3015C12.7611 47.8126 14.4523 47.5073 16.1616 47.3913C16.1798 47.4914 16.1798 47.5916 16.1616 47.6947Z" fill="black"/>
<path d="M20.6647 47.719C19.3071 47.6108 17.9438 47.5936 16.584 47.6674V47.364C17.9438 47.2902 19.3071 47.3074 20.6647 47.4156V47.719Z" fill="black"/>
<path d="M27.0259 48.6292C25.166 48.2621 23.3032 47.9556 21.4434 47.7766V47.4732C23.3032 47.6522 25.166 47.9587 27.0259 48.3258V48.6292Z" fill="black"/>
<path d="M12.803 49.4969C12.2427 49.6182 11.6814 49.7639 11.1191 49.9338V49.6304C11.6794 49.4605 12.2407 49.3148 12.803 49.1935V49.4969Z" fill="black"/>
<path d="M19.7054 48.9811C17.6977 48.8692 15.6838 48.9822 13.7012 49.3179V49.0145C15.6838 48.6788 17.6977 48.5658 19.7054 48.6777C19.7024 48.7809 19.7024 48.881 19.7054 48.9811Z" fill="black"/>
<path d="M25.1658 49.6182C23.6033 49.3513 22.0438 49.1389 20.4844 49.0297V48.7263C22.0438 48.8355 23.6033 49.0479 25.1658 49.3148V49.6182Z" fill="black"/>
<path d="M29.0045 50.5193C28.1671 50.3403 27.3267 50.1674 26.4863 50.0096V49.4028C27.3267 49.5606 28.1671 49.7335 29.0045 49.9125V50.5193Z" fill="black"/>
<path d="M15.8779 50.3616C14.2695 50.4928 12.6791 50.7917 11.1328 51.2536V50.9502C12.6791 50.4883 14.2695 50.1894 15.8779 50.0582V50.3616Z" fill="black"/>
<path d="M23.3639 50.6589C21.2987 50.3503 19.2103 50.2254 17.123 50.2857V49.9823C19.2103 49.922 21.2987 50.0469 23.3639 50.3555V50.6589Z" fill="black"/>
<path d="M28.4071 51.563C27.0631 51.2839 25.719 51.023 24.375 50.8075V50.5042C25.719 50.7196 27.0631 50.9805 28.4071 51.2596V51.563Z" fill="black"/>
<path d="M13.8224 51.9392C12.909 52.0953 12.0061 52.3081 11.1191 52.5764V52.273C12.0061 52.0047 12.909 51.792 13.8224 51.6358V51.9392Z" fill="black"/>
<path d="M21.2653 51.8876C19.313 51.6965 17.3468 51.6965 15.3945 51.8876V51.2809C17.3468 51.0897 19.313 51.0897 21.2653 51.2809V51.8876Z" fill="black"/>
<path d="M27.7453 52.7493C26.0008 52.3943 24.2562 52.0788 22.5117 51.8694V51.566C24.2562 51.7754 26.0008 52.0909 27.7453 52.4459V52.7493Z" fill="black"/>
<path d="M16.3436 52.9677C14.5725 53.0778 12.8197 53.3892 11.1191 53.8961V53.5927C12.8197 53.0858 14.5725 52.7744 16.3436 52.6643V52.9677Z" fill="black"/>
<path d="M21.444 53.0739C20.4427 52.9768 19.4446 52.9192 18.4434 52.9101V52.6067C19.4446 52.6067 20.4427 52.6734 21.444 52.7705V53.0739Z" fill="black"/>
</g>
<g opacity="0.4">
<path d="M36.6724 46.8513C35.389 46.6237 34.1056 46.3598 32.8223 46.0837V45.4769C34.1056 45.753 35.389 46.0169 36.6724 46.2445V46.8513Z" fill="black"/>
<path d="M40.264 47.2214C39.5024 47.1395 38.747 47.0363 37.9824 46.918V46.6146C38.7439 46.7329 39.4994 46.8361 40.264 46.918V47.2214Z" fill="black"/>
<path d="M44.8842 47.4156C43.5618 47.4494 42.2386 47.4028 40.9219 47.276V46.9726C42.2386 47.0994 43.5618 47.146 44.8842 47.1122V47.4156Z" fill="black"/>
<path d="M50.7046 46.563C49.316 46.9532 47.894 47.2122 46.457 47.3367V47.0333C47.894 46.9088 49.316 46.6498 50.7046 46.2596V46.563Z" fill="black"/>
<path d="M37.8647 48.2196C36.1839 47.9556 34.5031 47.6128 32.8223 47.2548V46.9514C34.5031 47.3094 36.1809 47.6522 37.8647 47.9162V48.2196Z" fill="black"/>
<path d="M42.3639 48.7141C41.0047 48.6443 39.6333 48.4896 38.2832 48.2863V47.9829C39.6424 48.1862 41.0138 48.3409 42.3639 48.4107V48.7141Z" fill="black"/>
<path d="M48.7251 48.347C46.8839 48.6794 45.0124 48.8136 43.1426 48.7475V48.4441C45.0124 48.5102 46.8839 48.376 48.7251 48.0436V48.347Z" fill="black"/>
<path d="M34.5031 48.9326C33.9418 48.8203 33.3805 48.702 32.8223 48.5837V48.2803C33.3805 48.3986 33.9418 48.5169 34.5031 48.6292V48.9326Z" fill="black"/>
<path d="M41.4055 49.9732C39.3905 49.7959 37.387 49.5062 35.4043 49.1055C35.4043 49.0054 35.4043 48.9022 35.4043 48.8021C37.387 49.2028 39.3905 49.4925 41.4055 49.6698V49.9732Z" fill="black"/>
<path d="M46.867 49.9398C45.3115 50.0965 43.7458 50.1259 42.1855 50.0278V49.7244C43.7458 49.8225 45.3115 49.7931 46.867 49.6364V49.9398Z" fill="black"/>
<path d="M50.7037 49.3604C49.8756 49.5933 49.0349 49.7787 48.1855 49.9156V49.3088C49.0349 49.1719 49.8756 48.9866 50.7037 48.7536V49.3604Z" fill="black"/>
<path d="M37.5644 50.8136C35.9837 50.5557 34.403 50.2341 32.8223 49.9034V49.6C34.403 49.9368 35.9837 50.2584 37.5644 50.5102V50.8136Z" fill="black"/>
<path d="M45.0651 51.387C42.9777 51.4422 40.8895 51.3153 38.8242 51.0078V50.7044C40.8895 51.0119 42.9777 51.1388 45.0651 51.0836V51.387Z" fill="black"/>
<path d="M50.1064 50.6893C48.7834 51.0192 47.4343 51.2333 46.0742 51.3294V51.026C47.4343 50.9299 48.7834 50.7158 50.1064 50.3859V50.6893Z" fill="black"/>
<path d="M35.5225 51.7724C34.6123 51.5994 33.7203 51.4113 32.8223 51.2202V50.9168C33.7325 51.1079 34.6214 51.296 35.5225 51.469V51.7724Z" fill="black"/>
<path d="M42.9645 52.8585C40.9953 52.7727 39.0341 52.5558 37.0938 52.2092V51.6024C39.0341 51.949 40.9953 52.1659 42.9645 52.2517V52.8585Z" fill="black"/>
<path d="M49.4445 52.1668C47.7246 52.5368 45.9703 52.724 44.2109 52.725V52.4216C45.9703 52.4206 47.7246 52.2334 49.4445 51.8634V52.1668Z" fill="black"/>
<path d="M38.0437 53.5351C36.3022 53.2651 34.5607 52.9131 32.8223 52.54V52.2366C34.5607 52.6097 36.3022 52.9617 38.0437 53.2317V53.5351Z" fill="black"/>
<path d="M43.1451 54.0327C42.1469 54.0054 41.1457 53.9265 40.1445 53.8173V53.5139C41.1457 53.6231 42.1469 53.702 43.1451 53.7293V54.0327Z" fill="black"/>
<path d="M35.1008 35.9533C34.3423 35.8046 33.5838 35.6499 32.8223 35.483V35.1796C33.5808 35.3434 34.3392 35.5012 35.1008 35.6499V35.9533Z" fill="black"/>
<path d="M40.0288 36.7451C38.709 36.5965 37.3892 36.3841 36.0664 36.1383V35.8349C37.3892 36.0807 38.709 36.2931 40.0288 36.4417V36.7451Z" fill="black"/>
<path d="M37.8647 35.128C36.1839 34.861 34.5031 34.5212 32.8223 34.1632V33.8598C34.5031 34.2178 36.1809 34.5576 37.8647 34.8246V35.128Z" fill="black"/>
<path d="M42.3639 35.6226C41.0047 35.5497 39.6333 35.398 38.2832 35.1917V34.8883C39.6424 35.0946 41.0138 35.2463 42.3639 35.3192V35.6226Z" fill="black"/>
<path d="M48.7251 35.2555C46.8837 35.5863 45.0123 35.7205 43.1426 35.6559V35.3525C45.0123 35.4171 46.8837 35.2829 48.7251 34.9521V35.2555Z" fill="black"/>
<path d="M34.5031 33.1923L32.8223 32.8525V32.5491L34.5031 32.9011V33.1923Z" fill="black"/>
<path d="M41.4055 34.236C39.3906 34.0597 37.387 33.771 35.4043 33.3713C35.4043 33.2682 35.4043 33.1681 35.4043 33.0679C37.387 33.4676 39.3906 33.7563 41.4055 33.9326V34.236Z" fill="black"/>
<path d="M46.867 34.2027C45.3115 34.3593 43.7458 34.3887 42.1855 34.2906V33.9872C43.7458 34.0853 45.3115 34.0559 46.867 33.8993V34.2027Z" fill="black"/>
<path d="M50.7037 33.6232C49.8756 33.8561 49.0349 34.0415 48.1855 34.1784V33.5716C49.0349 33.4347 49.8756 33.2494 50.7037 33.0164V33.6232Z" fill="black"/>
<path d="M37.5644 32.4369C35.9837 32.179 34.403 31.8574 32.8223 31.5267V31.2233C34.403 31.5631 35.9837 31.8847 37.5644 32.1335V32.4369Z" fill="black"/>
<path d="M45.0651 33.0073C42.9777 33.0625 40.8895 32.9356 38.8242 32.628V32.3246C40.8895 32.6322 42.9777 32.7591 45.0651 32.7039V33.0073Z" fill="black"/>
<path d="M50.7049 32.1487C49.3871 32.5194 48.0386 32.7713 46.6758 32.9011V32.5977C48.0386 32.4679 49.3871 32.216 50.7049 31.8453V32.1487Z" fill="black"/>
<path d="M35.5225 30.75C34.6123 30.5771 33.7203 30.3889 32.8223 30.1978V29.8944C33.7325 30.0855 34.6214 30.2737 35.5225 30.4466V30.75Z" fill="black"/>
<path d="M42.9645 31.8362C40.9951 31.7534 39.0336 31.5364 37.0938 31.1869V30.5801C39.0336 30.9296 40.9951 31.1466 42.9645 31.2294V31.8362Z" fill="black"/>
<path d="M50.7043 30.8289C48.9966 31.3034 47.2411 31.5852 45.4707 31.6693V31.3659C47.2411 31.2818 48.9966 31 50.7043 30.5255V30.8289Z" fill="black"/>
<path d="M46.2408 30.2949C43.7877 30.4622 41.3236 30.3604 38.8926 29.9915V29.6881C41.3236 30.0571 43.7877 30.1588 46.2408 29.9915V30.2949Z" fill="black"/>
<path d="M50.7057 29.6578C49.721 29.9355 48.7185 30.1453 47.7051 30.2858V29.679C48.7185 29.5385 49.721 29.3287 50.7057 29.051V29.6578Z" fill="black"/>
<path d="M38.0437 29.8701C36.3022 29.6001 34.5607 29.2482 32.8223 28.875V28.5716C34.5607 28.9448 36.3022 29.2967 38.0437 29.5668V29.8701Z" fill="black"/>
<path d="M36.6724 38.3137C35.389 38.0861 34.1056 37.8222 32.8223 37.5461V36.9393C34.1056 37.2154 35.389 37.4793 36.6724 37.7069V38.3137Z" fill="black"/>
<path d="M40.264 38.6929C39.5024 38.611 38.747 38.5079 37.9824 38.3895V38.0861C38.7439 38.2045 39.4994 38.3076 40.264 38.3895V38.6929Z" fill="black"/>
<path d="M44.8842 38.8992C43.5618 38.933 42.2386 38.8864 40.9219 38.7597V38.4563C42.2386 38.583 43.5618 38.6296 44.8842 38.5958V38.8992Z" fill="black"/>
<path d="M50.7046 38.0346C49.3157 38.4233 47.8938 38.6823 46.457 38.8082V38.5048C47.894 38.3803 49.316 38.1213 50.7046 37.7312V38.0346Z" fill="black"/>
<path d="M37.8647 39.6911C36.1839 39.4272 34.5031 39.0843 32.8223 38.7263V38.4229C34.5031 38.7809 36.1809 39.1238 37.8647 39.3877V39.6911Z" fill="black"/>
<path d="M42.3639 40.1857C41.0047 40.1159 39.6333 39.9611 38.2832 39.7579V39.4545C39.6424 39.6577 41.0138 39.8125 42.3639 39.8823V40.1857Z" fill="black"/>
<path d="M48.7251 39.8307C46.8839 40.163 45.0124 40.2973 43.1426 40.2311V39.9278C45.0124 39.9939 46.8839 39.8596 48.7251 39.5273V39.8307Z" fill="black"/>
<path d="M34.5031 40.398C33.9428 40.2847 33.3825 40.1674 32.8223 40.0461V39.7427C33.3805 39.864 33.9408 39.9813 34.5031 40.0946V40.398Z" fill="black"/>
<path d="M41.4055 41.4447C39.3905 41.2674 37.387 40.9777 35.4043 40.577C35.4043 40.4769 35.4043 40.3737 35.4043 40.2736C37.387 40.6743 39.3905 40.964 41.4055 41.1413V41.4447Z" fill="black"/>
<path d="M46.867 41.4114C45.3115 41.568 43.7458 41.5974 42.1855 41.4993V41.1959C43.7458 41.294 45.3115 41.2646 46.867 41.108V41.4114Z" fill="black"/>
<path d="M50.7037 40.8319C49.8756 41.0649 49.0349 41.2502 48.1855 41.3871V40.7803C49.0349 40.6434 49.8756 40.4581 50.7037 40.2251V40.8319Z" fill="black"/>
<path d="M37.5644 42.2852C35.9837 42.0273 34.403 41.7057 32.8223 41.375V41.0716C34.403 41.4083 35.9837 41.7299 37.5644 41.9818V42.2852Z" fill="black"/>
<path d="M45.0651 42.8646C42.9777 42.9198 40.8895 42.7929 38.8242 42.4854V42.182C40.8895 42.4895 42.9777 42.6164 45.0651 42.5612V42.8646Z" fill="black"/>
<path d="M50.1064 42.1607C48.7834 42.4906 47.4343 42.7048 46.0742 42.8009V42.4975C47.4343 42.4014 48.7834 42.1872 50.1064 41.8573V42.1607Z" fill="black"/>
<path d="M35.5225 43.2439C34.6123 43.071 33.7203 42.8828 32.8223 42.6917V42.3883C33.7325 42.5794 34.6214 42.7676 35.5225 42.9405V43.2439Z" fill="black"/>
<path d="M42.9645 44.33C40.9953 44.2442 39.0341 44.0273 37.0938 43.6808V43.074C39.0341 43.4205 40.9953 43.6374 42.9645 43.7232V44.33Z" fill="black"/>
<path d="M49.4445 43.6383C47.7246 44.0083 45.9703 44.1955 44.2109 44.1965V43.8931C45.9703 43.8921 47.7246 43.7049 49.4445 43.3349V43.6383Z" fill="black"/>
<path d="M38.0437 45.0066C36.3022 44.7366 34.5607 44.3846 32.8223 44.0115V43.7081C34.5607 44.0812 36.3022 44.4332 38.0437 44.7032V45.0066Z" fill="black"/>
<path d="M43.1451 45.5042C42.1469 45.4769 41.1457 45.398 40.1445 45.2888V44.9854C41.1457 45.0946 42.1469 45.1735 43.1451 45.2008V45.5042Z" fill="black"/>
<path d="M50.7056 10.6803C49.4451 11.0329 48.1572 11.2786 46.8555 11.4145V10.8077C48.1572 10.6718 49.4451 10.4261 50.7056 10.0735V10.6803Z" fill="black"/>
<path d="M45.5433 11.363C44.7817 11.4054 44.0263 11.4145 43.2617 11.3933V11.0899C44.0232 11.1111 44.7787 11.0899 45.5433 11.0596V11.363Z" fill="black"/>
<path d="M42.603 11.369C41.2832 11.3083 39.9604 11.1718 38.6406 10.9807V10.6773C39.9604 10.8684 41.2832 11.0049 42.603 11.0656V11.369Z" fill="black"/>
<path d="M37.0815 10.7349C35.6616 10.4922 34.2417 10.2009 32.834 9.89754V9.59415C34.2539 9.89754 35.6738 10.2009 37.0815 10.4315V10.7349Z" fill="black"/>
<path d="M50.7054 9.2058C49.0612 9.66692 47.3712 9.9457 45.666 10.0371V9.73371C47.3712 9.64231 49.0612 9.36352 50.7054 8.9024V9.2058Z" fill="black"/>
<path d="M45.2428 10.0584C43.8817 10.1109 42.5186 10.0755 41.1621 9.95217V9.64877C42.5186 9.77206 43.8817 9.80753 45.2428 9.75496V10.0584Z" fill="black"/>
<path d="M40.3829 9.87934C37.8415 9.57761 35.3178 9.14213 32.8223 8.57473V8.27133C35.3178 8.83874 37.8415 9.27421 40.3829 9.57594V9.87934Z" fill="black"/>
<path d="M50.7043 7.88604C50.146 8.0438 49.5857 8.17831 49.0234 8.28955V7.98616C49.5857 7.87289 50.146 7.73839 50.7043 7.58264V7.88604Z" fill="black"/>
<path d="M48.1262 8.45035C46.1409 8.75205 44.1286 8.83648 42.125 8.70217V8.39877C44.1286 8.53309 46.1409 8.44865 48.1262 8.14696V8.45035Z" fill="black"/>
<path d="M41.3416 8.64756C39.7821 8.52013 38.2226 8.29561 36.6602 8.01952V7.71613C38.2226 7.99222 39.7821 8.21673 41.3416 8.34416V8.64756Z" fill="black"/>
<path d="M35.3405 7.77377C34.5 7.60994 33.6596 7.43397 32.8223 7.25497V6.95157C33.6596 7.13057 34.5 7.30654 35.3405 7.47037V7.77377Z" fill="black"/>
<path d="M50.7056 27.7373C49.4451 28.0899 48.1572 28.3355 46.8555 28.4715V27.8647C48.1572 27.7287 49.4451 27.4831 50.7056 27.1305V27.7373Z" fill="black"/>
<path d="M45.5433 28.4229C44.7817 28.4624 44.0263 28.4715 43.2617 28.4503V28.1469C44.0232 28.1681 44.7787 28.1469 45.5433 28.1196V28.4229Z" fill="black"/>
<path d="M42.603 28.426C41.2832 28.3653 39.9604 28.2288 38.6406 28.0376V27.7342C39.9604 27.9254 41.2832 28.0619 42.603 28.1226V28.426Z" fill="black"/>
<path d="M37.0815 27.7919C35.6616 27.5492 34.2417 27.2579 32.834 26.9545V26.6511C34.2539 26.9545 35.6738 27.2579 37.0815 27.4885V27.7919Z" fill="black"/>
<path d="M50.7054 26.2658C49.0606 26.7224 47.3707 26.9981 45.666 27.088V26.7846C47.371 26.6928 49.0608 26.415 50.7054 25.9563V26.2658Z" fill="black"/>
<path d="M45.2428 27.1153C43.8817 27.1679 42.5186 27.1324 41.1621 27.0091V26.7057C42.5186 26.829 43.8817 26.8645 45.2428 26.8119V27.1153Z" fill="black"/>
<path d="M38.4017 26.6815C36.5419 26.4054 34.6821 26.0322 32.8223 25.6317V25.3283C34.6821 25.7288 36.5419 26.102 38.4017 26.3781V26.6815Z" fill="black"/>
<path d="M50.7043 24.943C50.146 25.1008 49.5857 25.2353 49.0234 25.3465V25.0431C49.5857 24.9298 50.146 24.7953 50.7043 24.6396V24.943Z" fill="black"/>
<path d="M48.1262 25.5073C46.1409 25.809 44.1286 25.8934 42.125 25.7591V25.4557C44.1286 25.59 46.1409 25.5056 48.1262 25.2039V25.5073Z" fill="black"/>
<path d="M41.3416 25.7045C39.7821 25.5771 38.2226 25.3526 36.6602 25.0765V24.7731C38.2226 25.0492 39.7821 25.2737 41.3416 25.4011V25.7045Z" fill="black"/>
<path d="M35.3405 24.9824C34.5 24.8186 33.6596 24.6426 32.8223 24.4636V23.8568C33.6596 24.0358 34.5 24.2118 35.3405 24.3756V24.9824Z" fill="black"/>
<path d="M50.705 23.6202C49.1565 24.0531 47.5673 24.3246 45.9629 24.4302V24.1269C47.5673 24.0212 49.1565 23.7497 50.705 23.3168V23.6202Z" fill="black"/>
<path d="M44.7007 24.4879C42.6129 24.52 40.5262 24.3748 38.4629 24.054V23.7506C40.5262 24.0714 42.6129 24.2166 44.7007 24.1845V24.4879Z" fill="black"/>
<path d="M36.8514 23.787C35.5073 23.5534 34.1633 23.2773 32.8223 22.9891V22.6857C34.1663 22.9739 35.5073 23.25 36.8514 23.4836V23.787Z" fill="black"/>
<path d="M50.7041 22.3004C49.8172 22.5512 48.9153 22.7458 48.0039 22.8829V22.5795C48.9153 22.4424 49.8172 22.2478 50.7041 21.997V22.3004Z" fill="black"/>
<path d="M46.4332 23.2258C44.478 23.381 42.5125 23.3526 40.5625 23.1408V22.534C42.5125 22.7458 44.478 22.7742 46.4332 22.619V23.2258Z" fill="black"/>
<path d="M38.0559 22.6645C36.3113 22.3945 34.5668 22.0577 32.8223 21.6693V21.366C34.5668 21.7391 36.3113 22.0911 38.0559 22.3611V22.6645Z" fill="black"/>
<path d="M50.7039 20.9776C49.0003 21.4523 47.2489 21.7342 45.4824 21.818V21.5146C47.2489 21.4308 49.0003 21.1489 50.7039 20.6742V20.9776Z" fill="black"/>
<path d="M35.8229 20.9563C34.8216 20.7682 33.8204 20.5619 32.8223 20.3496V20.0462C33.8204 20.2616 34.8216 20.4679 35.8229 20.653V20.9563Z" fill="black"/>
<path d="M43.4207 21.8484C41.6716 21.8007 39.9274 21.6395 38.1992 21.366V21.0626C39.9274 21.3361 41.6716 21.4973 43.4207 21.545V21.8484Z" fill="black"/>
<path d="M36.6724 19.1997C35.389 18.9721 34.1056 18.7112 32.8223 18.4351V18.1317C34.1056 18.4078 35.389 18.6687 36.6724 18.8963V19.1997Z" fill="black"/>
<path d="M40.264 19.7155C39.5024 19.6336 38.747 19.5304 37.9824 19.4121V19.1087C38.7439 19.227 39.4994 19.3302 40.264 19.4121V19.7155Z" fill="black"/>
<path d="M44.8842 19.9187C43.5619 19.9535 42.2387 19.9079 40.9219 19.7822V19.4788C42.2387 19.6045 43.5619 19.6501 44.8842 19.6153V19.9187Z" fill="black"/>
<path d="M50.7046 19.0571C49.316 19.4463 47.8939 19.7043 46.457 19.8277V19.5243C47.8939 19.4009 49.316 19.1429 50.7046 18.7537V19.0571Z" fill="black"/>
<path d="M37.8647 18.0711C36.1839 17.8041 34.5031 17.4643 32.8223 17.1032V16.7998C34.5031 17.1609 36.1809 17.5007 37.8647 17.7677V18.0711Z" fill="black"/>
<path d="M42.3639 18.5656C41.0047 18.4928 39.6333 18.3411 38.2832 18.1348V17.8314C39.6424 18.0377 41.0138 18.1894 42.3639 18.2622V18.5656Z" fill="black"/>
<path d="M48.7251 18.1985C46.8838 18.5298 45.0123 18.6631 43.1426 18.5959V18.2925C45.0123 18.3597 46.8838 18.2264 48.7251 17.8951V18.1985Z" fill="black"/>
<path d="M34.5031 16.1354L32.8223 15.7834V15.48L34.5031 15.832V16.1354Z" fill="black"/>
<path d="M41.4055 17.1791C39.3906 17.0027 37.387 16.7141 35.4043 16.3144C35.4043 16.2112 35.4043 16.1111 35.4043 16.011C37.387 16.4107 39.3906 16.6993 41.4055 16.8757V17.1791Z" fill="black"/>
<path d="M46.867 17.1457C45.3115 17.3023 43.7458 17.3317 42.1855 17.2337V16.9303C43.7458 17.0283 45.3115 16.9989 46.867 16.8423V17.1457Z" fill="black"/>
<path d="M50.7037 16.4145C49.8756 16.6475 49.0349 16.8329 48.1855 16.9697V16.6663C49.0349 16.5295 49.8756 16.3441 50.7037 16.1111V16.4145Z" fill="black"/>
<path d="M37.5644 15.3799C35.9837 15.1221 34.403 14.8005 32.8223 14.4697V14.1664C34.403 14.5062 35.9837 14.8278 37.5644 15.0765V15.3799Z" fill="black"/>
<path d="M45.0651 15.9503C42.9774 16.0015 40.8892 15.8705 38.8242 15.5589V15.2555C40.8895 15.5631 42.9777 15.69 45.0651 15.6348V15.9503Z" fill="black"/>
<path d="M50.1064 15.2555C48.7835 15.5864 47.4344 15.8016 46.0742 15.8987V15.5953C47.4344 15.4982 48.7835 15.283 50.1064 14.9521V15.2555Z" fill="black"/>
<path d="M35.5225 13.693C34.6123 13.5201 33.7203 13.332 32.8223 13.1409V12.8375C33.7325 13.0286 34.6214 13.2167 35.5225 13.3896V13.693Z" fill="black"/>
<path d="M42.9645 14.6275C40.9951 14.5447 39.0336 14.3278 37.0938 13.9782V13.6748C39.0336 14.0244 40.9951 14.2413 42.9645 14.3241V14.6275Z" fill="black"/>
<path d="M49.4445 14.0875C47.7247 14.4585 45.9704 14.6467 44.2109 14.6487V14.3453C45.9703 14.3443 47.7246 14.1571 49.4445 13.7871V14.0875Z" fill="black"/>
<path d="M38.0437 12.8284C36.3022 12.5583 34.5607 12.2216 32.8223 11.8332V11.5298C34.5607 11.903 36.3022 12.2549 38.0437 12.525V12.8284Z" fill="black"/>
<path d="M43.1451 13.3108C42.1469 13.2834 41.1457 13.2076 40.1445 13.0953V12.7919C41.1457 12.9042 42.1469 12.98 43.1451 13.0074V13.3108Z" fill="black"/>
<path d="M36.6724 55.3524C35.389 55.1249 34.1056 54.8609 32.8223 54.5849V53.9781C34.1056 54.2541 35.389 54.5181 36.6724 54.7457V55.3524Z" fill="black"/>
<path d="M40.264 55.7226C39.5024 55.6407 38.747 55.5375 37.9824 55.4192V55.1158C38.7439 55.2341 39.4994 55.3373 40.264 55.4192V55.7226Z" fill="black"/>
<path d="M44.8842 55.9289C43.5618 55.9611 42.2387 55.9145 40.9219 55.7893V55.4859C42.2387 55.6111 43.5618 55.6577 44.8842 55.6255V55.9289Z" fill="black"/>
<path d="M50.7046 55.0642C49.3157 55.453 47.8938 55.712 46.457 55.8379V55.5345C47.8938 55.4086 49.3157 55.1496 50.7046 54.7608V55.0642Z" fill="black"/>
<path d="M37.8647 56.7208C36.1839 56.4538 34.5031 56.1139 32.8223 55.7559V55.4525C34.5031 55.8106 36.1809 56.1504 37.8647 56.4174V56.7208Z" fill="black"/>
<path d="M42.3639 57.2153C41.0047 57.1425 39.6333 56.9908 38.2832 56.7845V56.4811C39.6424 56.6874 41.0138 56.8391 42.3639 56.9119V57.2153Z" fill="black"/>
<path d="M48.7251 56.8482C46.8839 57.1805 45.0124 57.3148 43.1426 57.2487V56.9453C45.0124 57.0114 46.8839 56.8771 48.7251 56.5448V56.8482Z" fill="black"/>
<path d="M34.5031 57.4277C33.9428 57.3144 33.3825 57.1971 32.8223 57.0757V56.7723C33.3805 56.8937 33.9408 57.011 34.5031 57.1243V57.4277Z" fill="black"/>
<path d="M41.4055 58.4744C39.3905 58.297 37.387 58.0073 35.4043 57.6067C35.4043 57.5065 35.4043 57.4034 35.4043 57.3033C37.387 57.7039 39.3905 57.9936 41.4055 58.171V58.4744Z" fill="black"/>
<path d="M46.867 58.438C45.3115 58.5946 43.7458 58.624 42.1855 58.526V58.2226C43.7458 58.3206 45.3115 58.2912 46.867 58.1346V58.438Z" fill="black"/>
<path d="M50.7037 57.8585C49.876 58.0929 49.0351 58.2783 48.1855 58.4137V57.8069C49.0351 57.6715 49.876 57.4861 50.7037 57.2517V57.8585Z" fill="black"/>
<path d="M37.5644 59.3148C35.9837 59.0569 34.403 58.7353 32.8223 58.4046V58.1012C34.403 58.438 35.9837 58.7596 37.5644 59.0114V59.3148Z" fill="black"/>
<path d="M45.0651 59.8852C42.9777 59.9434 40.8892 59.8165 38.8242 59.5059V59.2025C40.8892 59.5131 42.9777 59.64 45.0651 59.5818V59.8852Z" fill="black"/>
<path d="M50.1064 59.1904C48.7834 59.5203 47.4343 59.7345 46.0742 59.8306V59.5272C47.4341 59.4296 48.7831 59.2154 50.1064 58.887V59.1904Z" fill="black"/>
<path d="M35.5225 60.2735C34.6123 60.1006 33.7203 59.9125 32.8223 59.7183V59.4149C33.7325 59.6091 34.6214 59.7972 35.5225 59.9701V60.2735Z" fill="black"/>
<path d="M42.9645 61.205C40.9953 61.1217 39.0339 60.9058 37.0938 60.5587V60.2553C39.0339 60.6024 40.9953 60.8183 42.9645 60.9016V61.205Z" fill="black"/>
<path d="M49.4445 60.6649C47.7247 61.036 45.9704 61.2241 44.2109 61.2262V60.9228C45.9704 60.9207 47.7247 60.7326 49.4445 60.3615V60.6649Z" fill="black"/>
</g>
<g opacity="0.2">
<path d="M31.1829 61.3718L31.0312 61.3385V5.7289L31.1829 5.76227V61.3718Z" fill="black"/>
</g>
<g opacity="0.4">
<path d="M50.7019 65.0824C49.992 65.2827 49.282 65.4434 48.5781 65.5709V64.9641C49.2881 64.8367 49.998 64.6759 50.7019 64.4756V65.0824Z" fill="black"/>
</g>
<path opacity="0.1" d="M11.3249 66.3293C10.4272 66.5878 9.54747 66.905 8.69141 67.279V2.2732C9.04941 2.11543 9.41045 1.9698 9.76846 1.83934C10.5512 10.6712 13.0876 42.8282 11.3249 66.3293Z" fill="black"/>
<path opacity="0.1" d="M9.14804 33.9751L8.91745 67.188L8.70508 67.279V2.27319C9.00847 2.13363 9.33918 2.0062 9.65471 1.88788C9.93384 7.13664 10.7196 24.9369 9.14804 33.9751Z" fill="black"/>
<path d="M6.94787 0.455856C6.94787 0.455856 6.28343 15.9867 8.72274 29.5819L9.51764 29.2785L10.6281 30.2312C10.6281 30.2312 8.73488 24.7276 8.62565 1.53898L6.94787 0.455856Z" fill="#02BEB2"/>
<path opacity="0.2" d="M6.94787 0.455856C6.94787 0.455856 6.28343 15.9867 8.72274 29.5819L9.51764 29.2785L10.6281 30.2312C10.6281 30.2312 8.73488 24.7276 8.62565 1.53898L6.94787 0.455856Z" fill="black"/>
</svg>
