<svg width="81" height="70" viewBox="0 0 81 70" fill="none" xmlns="http://www.w3.org/2000/svg">
<g clip-path="url(#clip0_29071_32028)">
<path d="M73.8927 47.276C76.0143 51.0993 77.5886 54.2254 77.8547 65.6429C78.1209 77.0603 78.1021 80.2352 78.1509 81.6108C78.1996 82.9865 79.013 85.4379 79.7477 92.2074C80.4823 98.9769 79.5153 108.899 79.5153 108.899C79.5153 108.899 79.1742 109.896 76.5841 110.139C74.1964 110.368 73.2105 109.39 73.2105 109.39C73.2105 109.39 69.7208 94.5239 68.795 90.4494C67.8692 86.375 65.1741 72.9747 65.1741 72.9747L64.3495 83.8673C64.3304 87.1009 64.1163 90.3303 63.7085 93.5381C63.0076 99.4792 61.557 107.178 61.557 107.178C60.4852 107.895 59.2288 108.285 57.9398 108.303C56.8101 108.328 55.6952 108.042 54.7162 107.478C54.7162 107.478 53.438 87.7169 53.4043 80.9849C53.3706 74.2528 52.5609 57.464 54.6338 47.4897L73.8927 47.276Z" fill="#455A64"/>
<path d="M71.3436 55.7023C71.6172 56.7931 71.8609 57.8914 72.1233 58.9896C72.3856 60.0879 72.6368 61.1862 72.9142 62.2919C72.9207 61.1517 72.8405 60.0127 72.6743 58.8847C72.5206 57.7602 72.2994 56.6357 72.0408 55.5337C71.7742 54.4247 71.4438 53.3322 71.0512 52.2614C70.6721 51.1845 70.1782 50.1515 69.5781 49.1802C69.923 50.2672 70.2303 51.3468 70.5227 52.4338C70.8151 53.5208 71.085 54.6078 71.3436 55.7023Z" fill="#37474F"/>
<path d="M73.2479 53.5882C73.6228 54.2442 73.9676 54.9114 74.3237 55.5786L75.3695 57.6102C75.2859 56.8414 75.1071 56.0859 74.8372 55.3612C74.5728 54.6338 74.252 53.9283 73.8777 53.2509C73.5019 52.5765 73.0799 51.9289 72.6145 51.313C72.154 50.6919 71.6356 50.1158 71.0664 49.5925C71.4075 50.2897 71.7786 50.9531 72.1497 51.6166C72.5208 52.28 72.8919 52.9248 73.2479 53.5882Z" fill="#37474F"/>
<path d="M55.9531 57.1304C56.9839 59.9042 60.6835 61.8346 62.3253 62.2132L64.2782 72.8285L64.3532 83.8599L65.1778 72.9672L62.97 60.0204C62.97 60.0204 58.4683 59.7355 55.9531 57.1304Z" fill="#37474F"/>
<path d="M56.1323 81.7271C56.1023 80.2015 56.1848 74.1105 56.2635 72.5624L56.7995 63.274C56.3347 66.3439 55.9786 69.4288 55.705 72.5212C55.4314 75.6135 55.4576 78.7097 55.4614 81.847C55.5813 84.9694 55.5663 88.0468 55.8362 91.1392C56.1061 94.2316 56.4284 97.3164 56.807 100.398C56.7071 97.294 56.5696 94.1953 56.3947 91.1017C56.3947 91.1017 56.1735 83.2602 56.1323 81.7271Z" fill="#37474F"/>
<path d="M73.7015 94.8237C73.0643 91.3228 72.3821 87.8144 71.6999 84.3284C71.0177 80.8424 70.5754 77.319 70.0844 73.7955C69.5933 70.2721 69.166 66.7337 68.6562 63.2065C68.8886 66.7637 69.1623 70.3283 69.5296 73.8593C69.8969 77.3902 70.3393 80.9474 70.9952 84.4596C71.6512 87.9718 72.3933 91.4502 73.143 94.9325C73.8927 98.4147 74.6686 101.889 75.497 105.357C74.9472 101.838 74.3487 98.3272 73.7015 94.8237Z" fill="#37474F"/>
<path d="M60.7133 26.1317C57.9282 26.9451 57.381 26.9863 55.8891 27.8747C54.3973 28.763 53.2316 30.0599 50.1204 37.0806C48.6436 40.4166 47.3054 45.5818 48.5199 46.95C49.7344 48.3181 53.0629 48.1157 53.0629 48.1157L54.5622 44.4311L60.7133 26.1317Z" fill="#5C6BC0"/>
<path opacity="0.2" d="M60.7133 26.1317C57.9282 26.9451 57.381 26.9863 55.8891 27.8747C54.3973 28.763 53.2316 30.0599 50.1204 37.0806C48.6436 40.4166 47.3054 45.5818 48.5199 46.95C49.7344 48.3181 53.0629 48.1157 53.0629 48.1157L54.5622 44.4311L60.7133 26.1317Z" fill="white"/>
<path opacity="0.8" d="M54.9406 41.395C53.0968 41.5889 51.3497 42.3171 49.9141 43.4903C49.9141 43.4903 50.7912 41.2038 55.0193 40.3229L54.9406 41.395Z" fill="#5C6BC0"/>
<path d="M67.7774 24.8348L73.3062 26.6002C74.2545 26.9338 77.8305 29.1566 76.5335 34.558C76.1025 36.3422 75.5177 38.8498 74.9892 41.3537C74.5844 43.2691 75.99 46.9762 77.1033 52.8611C77.1033 52.8611 72.3204 56.6095 62.8858 55.485C55.689 54.6154 54.9281 51.9128 54.9281 51.9128C55.1792 45.207 55.794 42.6207 55.8015 40.0718C55.0821 39.0211 54.7075 37.7727 54.7294 36.4996C54.7032 34.1082 55.3404 32.8262 57.5032 30.1274C59.5648 27.5636 60.828 26.2254 60.828 26.2254L67.7774 24.8348Z" fill="#FAFAFA"/>
<path d="M74.0866 17.1582C72.7747 19.8157 71.3316 20.7641 70.1096 23.1555C67.1409 22.9681 63.58 18.1777 60.199 16.1011C58.2236 14.8867 56.9529 13.3911 57.5751 11.0034C58.5947 7.07887 61.9007 5.06976 67.4745 6.41916C69.7235 6.97017 72.1974 8.85558 72.5835 11.4269C75.3198 12.4877 74.9675 15.3777 74.0866 17.1582Z" fill="#263238"/>
<path d="M60.5816 10.5648C59.9818 10.8197 58.9923 12.1954 58.6362 17.6267C58.3476 22.0235 59.8357 23.6241 60.6828 24.0439C61.6095 24.4068 62.6006 24.5764 63.5952 24.5424L63.554 26.1354C62.3283 27.08 61.6798 29.5989 62.5082 31.6493C66.3353 30.7459 68.9779 28.7405 70.0686 26.8551L70.1773 21.7536C70.1773 21.7536 71.2269 22.642 72.6737 21.6C73.8657 20.7416 74.1318 18.9386 73.3559 17.9828C73.1471 17.7534 72.8878 17.5758 72.5984 17.4641C72.309 17.3523 71.9976 17.3095 71.6888 17.3389C71.3801 17.3684 71.0824 17.4694 70.8194 17.6338C70.5564 17.7983 70.3353 18.0217 70.1736 18.2864C70.1736 18.2864 68.4194 19.4109 68.633 16.6297C68.8767 13.5073 67.7297 10.3287 65.5706 10.9172C61.7023 11.9705 61.8148 10.0101 60.5816 10.5648Z" fill="#DF9D87"/>
<path d="M63.5955 24.5424C65.0237 24.4899 67.9061 23.7927 68.6633 22.2634C68.6633 22.2634 68.4646 23.6128 67.5388 24.265C66.0994 25.2621 63.5918 25.4607 63.5918 25.4607L63.5955 24.5424Z" fill="#C48067"/>
<path d="M63.3247 15.4114L62.7249 19.4184L60.9707 18.5563L63.3247 15.4114Z" fill="#C48067"/>
<path d="M64.9045 20.1006L62.7305 20.7753C62.7689 20.9207 62.8361 21.0569 62.9282 21.1758C63.0202 21.2948 63.1351 21.394 63.2662 21.4678C63.3972 21.5415 63.5417 21.5882 63.6912 21.6051C63.8406 21.622 63.9919 21.6088 64.1361 21.5662C64.429 21.4689 64.6728 21.2618 64.8161 20.9885C64.9594 20.7151 64.9911 20.3969 64.9045 20.1006Z" fill="#B16668"/>
<path d="M64.1561 21.5662C64.1105 21.5782 64.0642 21.587 64.0174 21.5924C64.0017 21.3234 64.0917 21.0589 64.2681 20.8552C64.4445 20.6515 64.6934 20.5247 64.9619 20.5017C64.9518 20.74 64.8692 20.9696 64.7252 21.1598C64.5812 21.35 64.3827 21.4917 64.1561 21.5662Z" fill="#F28F8F"/>
<path d="M60.0506 16.0562C59.9082 16.3673 60.1256 16.4947 60.4254 16.6259C60.7253 16.7571 60.9989 16.8546 61.1376 16.5435C61.1776 16.4713 61.2022 16.3917 61.2098 16.3096C61.2174 16.2275 61.2079 16.1447 61.1819 16.0665C61.1559 15.9882 61.1139 15.9162 61.0587 15.855C61.0034 15.7939 60.936 15.7448 60.8608 15.711C60.7857 15.6771 60.7043 15.6593 60.6218 15.6585C60.5394 15.6578 60.4576 15.6741 60.3818 15.7066C60.306 15.739 60.2378 15.7869 60.1814 15.847C60.125 15.9072 60.0818 15.9784 60.0543 16.0562H60.0506Z" fill="#263238"/>
<path d="M61.1318 15.88C60.9998 15.79 60.8543 15.7217 60.7007 15.6776C60.5531 15.6302 60.3984 15.6087 60.2434 15.6139C60.0794 15.6186 59.9173 15.6503 59.7636 15.7076C59.7636 15.7076 59.7374 15.745 59.7636 15.745C59.8911 15.745 60.0035 15.745 60.1872 15.745C60.3606 15.7625 60.5315 15.7989 60.697 15.8537C60.8963 15.9164 61.0857 16.0072 61.2592 16.1236L61.4391 16.2436C61.4391 16.2436 61.4729 16.2136 61.4654 16.1986C61.3793 16.0689 61.2653 15.96 61.1318 15.88Z" fill="#263238"/>
<path d="M61.1554 14.1445L59.7722 14.5906C59.7134 14.4017 59.7316 14.1972 59.8228 14.0217C59.9141 13.8461 60.0711 13.7138 60.2595 13.6535C60.3505 13.6244 60.4465 13.6141 60.5417 13.6233C60.6368 13.6324 60.729 13.6608 60.8128 13.7068C60.8966 13.7527 60.9702 13.8152 61.0291 13.8904C61.088 13.9657 61.1309 14.0521 61.1554 14.1445Z" fill="#263238"/>
<path d="M65.9979 16.4834C66.0804 16.8133 65.848 16.8995 65.5294 16.982C65.2108 17.0644 64.9259 17.1019 64.8434 16.7721C64.8193 16.6946 64.8112 16.613 64.8197 16.5323C64.8282 16.4516 64.853 16.3735 64.8928 16.3028C64.9325 16.2321 64.9863 16.1702 65.0508 16.1209C65.1153 16.0717 65.1891 16.0362 65.2678 16.0165C65.3466 15.9968 65.4285 15.9934 65.5085 16.0065C65.5886 16.0196 65.6652 16.0489 65.7335 16.0926C65.8019 16.1363 65.8606 16.1935 65.906 16.2607C65.9515 16.328 65.9828 16.4037 65.9979 16.4834Z" fill="#263238"/>
<path d="M64.968 16.1199C65.113 16.0555 65.2674 16.015 65.4253 15.9999C65.5775 15.9699 65.7341 15.9699 65.8863 15.9999C66.0482 16.0325 66.203 16.0934 66.3436 16.1798C66.3436 16.1798 66.3436 16.2211 66.3436 16.2173C66.2162 16.1911 66.1075 16.1611 65.9276 16.1386C65.5434 16.1071 65.1573 16.1702 64.8031 16.3223C64.7431 16.3448 64.6194 16.401 64.6081 16.4085C64.5969 16.416 64.5782 16.371 64.5894 16.356C64.6965 16.2502 64.8258 16.1696 64.968 16.1199Z" fill="#263238"/>
<path d="M65.1445 14.2907L66.4302 14.9692C66.5214 14.7935 66.5395 14.589 66.4805 14.4001C66.4216 14.2112 66.2903 14.0533 66.1154 13.9608C66.0304 13.9164 65.9373 13.8898 65.8417 13.8824C65.7462 13.875 65.6501 13.8871 65.5593 13.9179C65.4686 13.9488 65.385 13.9977 65.3137 14.0618C65.2424 14.1259 65.1849 14.2037 65.1445 14.2907Z" fill="#263238"/>
<path d="M55.5897 43.1154C55.4248 44.7122 55.1962 46.7101 55.0312 49.645C56.4116 49.598 57.7882 49.4729 59.1544 49.2702C59.1544 49.2702 62.5279 52.3026 69.7023 54.143C70.8162 54.3957 71.9421 54.5921 73.0758 54.7315C75.7408 53.9144 77.0865 52.8574 77.0865 52.8574C76.483 49.6788 75.8008 47.1411 75.3585 45.1695L55.5897 43.1154Z" fill="#E0E0E0"/>
<path d="M63.5696 25.4232C63.3109 25.5169 60.7096 26.1317 60.7096 26.1317C57.7821 28.5681 55.878 31.4318 55.1583 33.0586C54.2924 35.0115 54.1612 37.1818 54.0862 40.2479C54.0225 42.9242 53.2429 50.7433 53.2129 54.6528C53.494 55.6873 55.2407 56.6731 55.2407 56.6731C55.3532 58.0338 56.0466 43.2916 56.83 36.1735C57.8159 29.9062 62.5013 26.8438 63.5546 26.1317L63.5696 25.4232Z" fill="#5C6BC0"/>
<path opacity="0.5" d="M63.5696 25.4232C63.3109 25.5169 60.7096 26.1317 60.7096 26.1317C57.7821 28.5681 55.878 31.4318 55.1583 33.0586C54.2924 35.0115 54.1612 37.1818 54.0862 40.2479C54.0225 42.9242 53.2429 50.7433 53.2129 54.6528C53.494 55.6873 55.2407 56.6731 55.2407 56.6731C55.3532 58.0338 56.0466 43.2916 56.83 36.1735C57.8159 29.9062 62.5013 26.8438 63.5546 26.1317L63.5696 25.4232Z" fill="white"/>
<path opacity="0.4" d="M61.2545 26.4765C60.9509 26.7727 60.6398 27.0575 60.3287 27.3499C60.0175 27.6423 59.7027 27.9159 59.3916 28.2045L59.4253 28.0921L59.6577 28.8792L59.6802 28.9542L59.6165 29.0104C58.8318 29.7076 58.0409 30.3948 57.2438 31.072L57.2962 30.9783C57.1501 31.8854 57.0114 32.7962 56.8539 33.7033L56.4004 36.4321C56.4004 35.9673 56.4491 35.51 56.4866 35.049C56.5241 34.5879 56.5766 34.1307 56.629 33.6734C56.7265 32.755 56.8539 31.8404 57.0039 30.9296V30.8733L57.0489 30.8359C57.841 30.1537 58.6419 29.479 59.4515 28.8118L59.4103 28.9467L59.2229 28.1483L59.2041 28.0808L59.2566 28.0396C59.5865 27.7772 59.9126 27.5073 60.2499 27.2487C60.5873 26.9901 60.9134 26.7277 61.2545 26.4765Z" fill="#5C6BC0"/>
<path d="M70.104 25.1046L70.0815 26.0905C68.6609 30.6372 68.957 36.2672 68.882 40.5328C68.7433 49.4876 69.9728 59.0084 69.9728 59.0084C69.9728 59.0084 75.5953 60.0504 78.1442 56.6469C78.1442 56.6469 76.7048 51.1706 75.8951 45.9717C75.4154 42.8905 77.5219 35.3788 77.0197 30.9183C76.8135 29.0442 76.3262 27.5073 74.9318 27.0575C73.7886 26.6864 70.104 25.1046 70.104 25.1046Z" fill="#5C6BC0"/>
<path opacity="0.5" d="M70.104 25.1046L70.0815 26.0905C68.6609 30.6372 68.957 36.2672 68.882 40.5328C68.7433 49.4876 69.9728 59.0084 69.9728 59.0084C69.9728 59.0084 75.5953 60.0504 78.1442 56.6469C78.1442 56.6469 76.7048 51.1706 75.8951 45.9717C75.4154 42.8905 77.5219 35.3788 77.0197 30.9183C76.8135 29.0442 76.3262 27.5073 74.9318 27.0575C73.7886 26.6864 70.104 25.1046 70.104 25.1046Z" fill="white"/>
<path opacity="0.4" d="M68.8887 39.6445C68.9851 38.9746 69.1368 38.3139 69.3422 37.6691C69.5446 37.0244 69.7695 36.3834 70.0094 35.7537C70.2493 35.124 70.5117 34.498 70.7778 33.8795C71.044 33.261 71.3139 32.6426 71.61 32.0316V32.1515L70.6729 29.6064L70.6391 29.5127L70.7141 29.4565L71.9136 28.5344L71.8836 28.6393C71.7487 28.1858 71.61 27.736 71.4825 27.2787C71.3551 26.8214 71.2239 26.3679 71.1077 25.9106C71.2764 26.3529 71.4375 26.7989 71.5987 27.2412C71.7599 27.6835 71.9173 28.1333 72.0748 28.5794L72.0973 28.6431L72.041 28.6881L70.879 29.6701L70.9203 29.5202L71.8986 32.0541L71.9211 32.1103L71.8911 32.174C71.6137 32.7813 71.3213 33.3922 71.0477 34.007C70.7741 34.6217 70.508 35.2402 70.2456 35.8587C69.9832 36.4771 69.7283 37.0994 69.4959 37.7328C69.2485 38.3549 69.0456 38.9937 68.8887 39.6445Z" fill="#5C6BC0"/>
<path d="M58.8692 42.317C58.1196 40.9077 57.1338 39.1122 56.669 38.1002C56.2042 37.0881 56.1105 36.9232 55.3308 36.4022C54.6013 35.9052 53.8427 35.4521 53.0593 35.0452C52.6582 34.8428 52.5533 35.3189 52.8344 35.9186C53.0818 36.4434 54.315 37.1556 54.315 37.1556C54.315 37.1556 53.2205 37.0806 52.722 37.0806C52.2359 37.1616 51.7662 37.3211 51.3313 37.5529C50.7728 37.789 50.7203 37.9727 50.859 38.1489C50.9977 38.325 51.2339 38.4825 51.8111 38.4225C52.3884 38.3625 52.9094 38.2801 52.9094 38.2801L54.1463 38.4113L54.2775 38.5799C54.2775 38.5799 53.4491 38.6774 52.7782 38.8348C52.3013 38.9404 51.8543 39.1518 51.47 39.4533C50.9602 39.7757 50.6454 39.9331 50.6229 40.068C50.6004 40.203 50.6604 40.5778 51.3351 40.5216C51.7946 40.4658 52.2375 40.3152 52.6357 40.0793L54.0751 39.9069L54.7498 40.4729C54.7498 40.4729 53.9327 40.5178 53.4604 40.5741C52.9413 40.6717 52.4373 40.8367 51.961 41.0651C51.7699 41.1813 52.0435 41.6048 52.4146 41.721C52.7857 41.8372 53.7602 41.4812 54.2888 41.5786C54.7839 41.7036 55.2699 41.8626 55.7431 42.0547L58.8692 42.317Z" fill="#DF9D87"/>
<path d="M58.8647 42.3171L58.5424 41.7023C57.5701 41.6879 56.5992 41.6229 55.6337 41.5074C55.0386 41.4368 54.4365 41.452 53.8457 41.5524C53.9056 41.5483 53.9657 41.5483 54.0256 41.5524C54.5504 41.6536 55.7086 42.0434 55.7086 42.0434L58.8647 42.3171Z" fill="#F0997A"/>
<path d="M56.8128 39.6033C56.6021 39.3839 56.4091 39.1483 56.2356 38.8986C56.0594 38.6474 55.9095 38.3813 55.7408 38.1489C55.5906 37.8946 55.3857 37.677 55.141 37.5117C54.8862 37.3537 54.6079 37.2373 54.3164 37.1668C54.6252 37.1862 54.9259 37.2732 55.1973 37.4217C55.4679 37.5794 55.6947 37.8023 55.857 38.0702C56.0219 38.3288 56.1718 38.5912 56.3255 38.8498C56.4792 39.1085 56.6591 39.3484 56.8128 39.6033Z" fill="#F0997A"/>
<path d="M56.9679 40.5291C56.7192 40.3879 56.4845 40.2235 56.2669 40.0381C56.0458 39.8581 55.8396 39.6632 55.626 39.4758C55.4123 39.2884 55.2174 39.0747 55.0075 38.8911C54.8079 38.6899 54.5408 38.5697 54.2578 38.5537C54.4031 38.536 54.5506 38.5496 54.6902 38.5936C54.8298 38.6376 54.9585 38.7109 55.0675 38.8086C55.2998 38.9848 55.4948 39.1834 55.7122 39.3709C56.1357 39.7794 56.5331 40.1543 56.9679 40.5291Z" fill="#F0997A"/>
<path d="M56.2111 41.1138C55.9524 40.9976 55.735 40.8289 55.4989 40.709C55.3812 40.6388 55.2553 40.5834 55.124 40.5441C54.9955 40.5036 54.8639 40.4735 54.7305 40.4541C54.869 40.4259 55.0118 40.4259 55.1503 40.4541C55.2919 40.4819 55.4284 40.5312 55.5551 40.6003C55.7986 40.7371 56.0198 40.9103 56.2111 41.1138Z" fill="#F0997A"/>
<path d="M70.9592 44.5473C70.2545 44.4311 69.1563 44.2586 67.6344 44.0675C66.3225 43.8988 60.79 42.7256 59.4705 42.6206L55.0625 45.7205C56.247 46.4702 59.4518 47.7558 61.1086 48.3631C63.4813 49.2252 66.2138 50.2147 68.654 50.9869C68.6165 48.8541 69.7148 45.8217 70.9592 44.5473Z" fill="#DF9D87"/>
<path d="M59.4705 42.6206L55.0625 45.7205C56.247 46.4702 59.4518 47.7558 61.1086 48.3631L62.6604 48.9253C64.8119 48.1232 67.5332 46.6388 70.0821 45.7242L70.1383 45.6755C70.3659 45.2691 70.6415 44.8916 70.9592 44.551C70.2545 44.4348 69.1563 44.2624 67.6344 44.0712C66.3225 43.9025 60.7825 42.7256 59.4705 42.6206Z" fill="#B7765F"/>
<path d="M79.1962 31.8179C78.6527 29.0667 77.5807 27.5186 74.9418 27.0576C72.4942 28.0171 71.8945 32.4477 71.9019 37.2755L72.6141 44.5586C72.0633 44.6155 71.5081 44.6155 70.9574 44.5586C69.7129 45.833 68.3598 48.9816 68.3972 51.1144C70.4242 51.5854 72.4888 51.8764 74.567 51.984C77.2471 52.0365 79.5935 51.984 79.8334 49.4839C80.1433 46.1743 80.1546 42.8436 79.8672 39.532C79.5448 34.8766 79.5748 33.7221 79.1962 31.8179Z" fill="#5C6BC0"/>
<path opacity="0.2" d="M79.1962 31.8179C78.6527 29.0667 77.5807 27.5186 74.9418 27.0576C72.4942 28.0171 71.8945 32.4477 71.9019 37.2755L72.6141 44.5586C72.0633 44.6155 71.5081 44.6155 70.9574 44.5586C69.7129 45.833 68.3598 48.9816 68.3972 51.1144C70.4242 51.5854 72.4888 51.8764 74.567 51.984C77.2471 52.0365 79.5935 51.984 79.8334 49.4839C80.1433 46.1743 80.1546 42.8436 79.8672 39.532C79.5448 34.8766 79.5748 33.7221 79.1962 31.8179Z" fill="white"/>
<path opacity="0.8" d="M70.0781 45.7242C70.677 45.5675 71.2895 45.4683 71.9073 45.4281C73.6503 45.2257 75.9218 45.803 76.4353 46.9012C76.4353 46.9012 75.8281 45.027 72.612 44.5585C72.0264 44.6328 71.4368 44.6703 70.8465 44.671C70.5581 44.9973 70.3008 45.3499 70.0781 45.7242Z" fill="#5C6BC0"/>
<path d="M67.2144 45.8217C65.3852 46.3015 58.4657 48.3031 52.0936 48.1194C51.6475 47.351 51.7187 45.9791 52.0936 44.7047C52.6108 42.9205 53.1993 42.1483 54.0352 41.5448C59.0542 42.2083 62.499 41.7397 67.6754 42.1933C69.8007 42.3807 72.5483 43.8463 72.5483 43.8463L72.6195 44.5585C72.6195 44.5585 69.0286 45.3419 67.2144 45.8217Z" fill="#DF9D87"/>
<path d="M34.551 49.7537C34.4285 49.7433 34.306 49.7731 34.2021 49.8387C34.0982 49.9042 34.0185 50.002 33.9752 50.117C33.8785 50.0628 33.8128 49.9585 33.7085 49.9392C33.6042 49.9199 33.4766 50.0435 33.4109 50.1556C33.1703 50.6047 33.0781 51.1184 33.1475 51.6232C33.2169 52.1279 33.4444 52.5977 33.7974 52.9651C33.8389 53.0121 33.8904 53.049 33.9481 53.0734C34.0179 53.0907 34.0909 53.0907 34.1607 53.0734C34.5364 53.0033 34.9032 52.8918 35.2543 52.741C35.4371 52.682 35.6037 52.5816 35.7411 52.4475C35.8786 52.3134 35.9831 52.1493 36.0466 51.9681C36.0802 51.6914 36.0289 51.4111 35.8997 51.1643C35.7843 50.8187 35.582 50.5087 35.3123 50.2638C35.1152 50.1131 34.7983 49.7807 34.551 49.7537Z" fill="#FFA6A6"/>
<path d="M36.9299 41.8699C39.3104 37.9706 39.2022 37.2324 38.0467 35.3388C37.4168 34.3069 34.5261 30.9448 31.4035 27.571C27.9602 23.8571 26.3796 23.4939 24.4473 23.3199L25.8849 31.5051L31.6354 38.4923C31.6354 38.4923 29.1273 44.6756 28.7138 46.407C28.1186 48.8803 28.907 51.8792 30.9861 53.1545C33.0653 54.4298 33.5484 54.5651 35.0053 54.0395C36.4623 53.5139 36.8332 53.313 36.8989 52.7951C37.069 51.4928 37.2468 51.3073 36.3811 50.6928C35.8864 50.3411 35.4613 49.9856 35.1985 49.8387C35.1706 49.8246 35.14 49.8164 35.1087 49.8147C35.0774 49.8129 35.0461 49.8177 35.0168 49.8285C34.9874 49.8394 34.9606 49.8562 34.938 49.8779C34.9154 49.8996 34.8975 49.9257 34.8855 49.9546C34.5686 50.7276 35.7087 51.628 35.7087 51.628C35.2105 51.7982 34.7364 52.032 34.2981 52.3236C33.9116 51.0329 34.1126 50.2406 33.757 49.5875C33.529 49.174 33.1155 48.4784 33.3706 48.0726C33.9 47.2069 35.4459 44.3046 36.9299 41.8699Z" fill="#FCC5A7"/>
<path d="M31.6308 38.4962C32.7631 39.2691 34.3051 39.0836 35.0277 38.8092C34.5006 39.1608 33.8863 39.3592 33.2532 39.3824C32.62 39.4056 31.9928 39.2526 31.4414 38.9406" fill="#9A4A4D"/>
<path d="M23.8516 22.7674C26.6495 22.7944 27.7161 23.1538 30.4986 26.2455C31.9865 27.8841 37.7872 34.4461 38.4867 35.8103C39.1862 37.1745 39.2055 37.9938 38.023 40.1309C36.7786 42.3724 35.9361 43.6825 35.9361 43.6825C35.9361 43.6825 34.4598 42.4729 30.1392 42.2835L31.4841 38.5812L25.324 32.6993L23.8516 22.7674Z" fill="#263238"/>
<path d="M31.4938 38.5696C32.1894 39.3618 34.5854 39.2729 35.5284 38.9561C34.369 40.0381 32.1585 39.957 31.2773 39.13L31.4938 38.5696Z" fill="black"/>
<path d="M31.6972 56.196C31.4245 53.4329 30.9897 50.6881 30.3948 47.976C29.9156 45.9008 29.4673 44.1115 29.1504 42.5115C25.6723 44.8303 16.9654 45.0505 12.9656 42.4304C12.297 43.4777 10.3106 46.094 8.73385 49.8117C7.36192 53.058 6.80156 55.0907 6.85952 59.1254C6.91749 62.8199 8.56767 73.6755 10.071 78.313C14.1327 80.5661 28.3814 80.0482 32.416 76.0136C32.416 76.0136 32.1764 60.0219 31.6972 56.196Z" fill="#455A64"/>
<path d="M4.60927 16.3908C4.24987 15.873 4.08756 14.8063 4.47788 14.3117C4.84914 13.8577 5.36712 13.5475 5.94255 13.4344C6.28731 13.3757 6.59489 13.1831 6.79829 12.8987C7.0017 12.6142 7.08444 12.2609 7.0285 11.9156C7.05942 10.7563 7.39177 10.1109 8.00238 9.65872C9.64869 8.45684 14.0582 8.30998 13.9384 11.2587C13.9384 11.6992 13.7761 12.1784 14.0118 12.5494C14.1209 12.7073 14.2634 12.8392 14.4292 12.9359C15.2265 13.3953 15.9616 13.9551 16.6165 14.6015C17.2271 15.2933 17.6059 16.2749 17.3044 17.1444C17.003 18.0139 16.1953 18.5434 16.0523 19.3975C15.8591 20.5568 17.0378 21.7162 16.717 22.8447C16.4581 23.7606 15.7199 23.9615 14.9161 24.0775C13.9886 24.2166 13.6756 25.3605 12.5974 25.2871C12.1319 25.292 11.6686 25.353 11.2177 25.4687C10.6589 25.5924 10.0799 25.5924 9.52116 25.4687C9.2425 25.4039 8.97962 25.2841 8.74799 25.1161C8.51636 24.9482 8.32066 24.7357 8.17242 24.491C7.91736 24.035 7.87098 23.4591 7.51544 23.0727C7.1599 22.6862 6.78503 22.5626 6.46427 22.2534C6.10899 21.9595 5.87048 21.5483 5.79183 21.094C5.76391 20.92 5.77434 20.742 5.8224 20.5724C5.87047 20.4029 5.955 20.2459 6.07009 20.1124C5.91105 20.1634 5.77141 20.2619 5.66987 20.3945C5.56834 20.5271 5.50976 20.6876 5.50199 20.8544C5.49019 21.1877 5.54947 21.5197 5.6759 21.8283C5.40825 21.7024 5.17055 21.5208 4.97867 21.2957C4.78679 21.0706 4.64516 20.8071 4.56322 20.5229C4.48129 20.2387 4.46094 19.9402 4.50353 19.6475C4.54613 19.3548 4.65069 19.0746 4.81023 18.8255C5.01892 18.5047 5.32422 18.2072 5.32422 17.8284C5.29717 17.214 4.95709 16.8971 4.60927 16.3908Z" fill="#263238"/>
<path d="M10.6297 8.74284C8.98722 9.65102 9.12635 12.8393 11.1707 14.1958C13.2151 15.5522 13.0991 7.19314 10.6297 8.74284Z" fill="#5C6BC0"/>
<path d="M27.524 6.09946C27.2033 3.97394 24.7956 3.89665 24.158 3.97394C23.6942 4.0041 23.2298 3.92746 22.8003 3.74991C22.3708 3.57236 21.9878 3.29865 21.6808 2.94982C21.3082 2.55775 20.8381 2.27171 20.3186 2.12097C19.7992 1.97022 19.249 1.96018 18.7244 2.09188C17.0162 2.54791 17.4143 3.25126 15.9689 3.76138C14.682 4.20581 13.7236 3.78844 12.5526 4.92076C12.2033 5.29471 11.9446 5.74395 11.7965 6.23378C11.6484 6.72361 11.6149 7.24092 11.6986 7.74577C10.8174 8.29454 9.65805 11.5447 11.4899 15.0885C12.4328 16.9126 13.5536 17.7589 14.968 19.2661H16.3167C16.7496 18.1067 17.8973 18.327 18.9485 18.0565C19.6171 17.7512 19.9919 16.9976 20.6605 16.6923C21.3291 16.387 22.1407 16.6034 22.8749 16.4681C23.443 16.3677 24.0343 16.0237 24.614 16.1667C25.9705 16.7077 28.0032 15.5174 27.837 13.9562C27.7829 13.4847 27.5202 13.0287 27.609 12.561C27.725 11.9466 28.382 11.6026 28.7182 11.0848C28.9143 10.7911 29.0098 10.4416 28.9903 10.089C28.9708 9.73634 28.8373 9.39957 28.61 9.12929C27.6206 8.07039 27.7095 7.30907 27.524 6.09946Z" fill="#263238"/>
<path d="M22.8465 23.2041L22.1432 23.123C21.5442 23.0534 21.5906 22.3694 21.5287 21.7819L21.4669 20.866C22.0052 20.9105 22.5469 20.8473 23.0605 20.6801C23.5741 20.5129 24.0492 20.2451 24.4581 19.8922C25.6909 18.8024 26.3363 16.6459 26.1971 14.3349C26.1044 12.7891 25.7025 12.0818 25.7218 11.7379C25.8377 9.67808 25.6716 9.31094 25.1846 8.25978C24.3074 6.57095 22.1316 5.97194 21.2118 7.79989C18.5066 5.72847 15.5657 8.50324 15.7048 11.6645C16.0913 14.2808 15.2836 14.4199 14.7734 14.4392C14.0005 12.8123 12.3156 12.8509 11.6122 13.9137C10.9745 14.8721 11.0055 16.3445 12.2576 17.6739C13.5097 19.0033 14.8237 18.1183 14.8353 17.8555C14.8353 17.8555 15.0633 21.3839 15.0981 22.1066C15.1328 22.8293 15.0594 23.2234 14.186 23.521L12.93 23.9461C12.93 23.9461 12.9996 24.035 13.1387 24.1857C13.4556 24.549 14.159 25.3451 15.3415 26.7325C18.3327 27.8262 21.9113 29.3527 24.0214 30.5971C24.5572 29.0803 24.9973 27.5314 25.3392 25.9596C24.6132 24.9514 23.7771 24.0272 22.8465 23.2041Z" fill="#FCC5A7"/>
<path d="M13.5949 17.6971C13.9385 17.6971 14.217 17.4185 14.217 17.0749C14.217 16.7313 13.9385 16.4527 13.5949 16.4527C13.2512 16.4527 12.9727 16.7313 12.9727 17.0749C12.9727 17.4185 13.2512 17.6971 13.5949 17.6971Z" fill="#5C6BC0"/>
<path d="M19.7695 16.4102L21.7752 16.928C21.7461 17.0611 21.6907 17.187 21.6121 17.2984C21.5336 17.4097 21.4336 17.5041 21.318 17.5762C21.2023 17.6482 21.0735 17.6964 20.9389 17.7178C20.8044 17.7392 20.6669 17.7335 20.5347 17.7009C20.266 17.6248 20.0369 17.4484 19.8945 17.2082C19.7522 16.968 19.7074 16.6824 19.7695 16.4102Z" fill="#B16668"/>
<path d="M19.9221 16.8584C20.1845 16.8403 20.4452 16.9119 20.6615 17.0615C20.8778 17.2111 21.0368 17.4297 21.1124 17.6816C20.9272 17.7467 20.7271 17.7561 20.5366 17.7086C20.3436 17.6575 20.1689 17.5533 20.0323 17.4077C19.8956 17.2622 19.8026 17.0813 19.7637 16.8855C19.8157 16.8724 19.8687 16.8633 19.9221 16.8584Z" fill="#FFA6A6"/>
<path d="M25.0536 10.6597L23.5078 10.2732C23.5286 10.1703 23.5702 10.0728 23.6299 9.9865C23.6896 9.90022 23.7663 9.827 23.8553 9.77132C23.9442 9.71563 24.0436 9.67865 24.1473 9.66261C24.251 9.64657 24.3569 9.65183 24.4585 9.67805C24.6644 9.73451 24.8409 9.86773 24.9516 10.0503C25.0623 10.2329 25.0988 10.451 25.0536 10.6597Z" fill="#263238"/>
<path d="M17.6255 11.2239L19.0979 10.5631C19.0585 10.4649 18.9995 10.3759 18.9243 10.3014C18.8492 10.227 18.7596 10.1688 18.6611 10.1304C18.5625 10.092 18.4572 10.0743 18.3515 10.0782C18.2458 10.0822 18.1421 10.1078 18.0467 10.1534C17.8539 10.2452 17.7031 10.4068 17.6249 10.6056C17.5467 10.8043 17.5469 11.0253 17.6255 11.2239Z" fill="#263238"/>
<path d="M23.2501 12.2982C23.2479 12.4713 23.3133 12.6383 23.4324 12.7639C23.5515 12.8895 23.7148 12.9636 23.8877 12.9707C23.9717 12.9754 24.0558 12.9632 24.135 12.9348C24.2142 12.9065 24.2869 12.8625 24.3489 12.8056C24.4109 12.7487 24.4608 12.68 24.4957 12.6034C24.5307 12.5269 24.55 12.4442 24.5524 12.3601C24.5546 12.1867 24.4893 12.0192 24.3703 11.893C24.2514 11.7668 24.088 11.6918 23.9148 11.6838C23.8304 11.6791 23.746 11.6914 23.6666 11.72C23.5871 11.7486 23.5142 11.7928 23.4522 11.8502C23.3902 11.9075 23.3403 11.9767 23.3056 12.0537C23.2709 12.1306 23.252 12.2138 23.2501 12.2982Z" fill="#263238"/>
<path d="M18.541 12.5301C18.54 12.7095 18.6095 12.8822 18.7345 13.0109C18.8596 13.1396 19.0302 13.214 19.2096 13.218C19.2956 13.2227 19.3817 13.2101 19.4628 13.181C19.5439 13.1518 19.6183 13.1068 19.6817 13.0484C19.7451 12.9901 19.7962 12.9196 19.8319 12.8412C19.8676 12.7628 19.8873 12.6781 19.8898 12.5919C19.8903 12.5021 19.8731 12.4131 19.8392 12.3299C19.8053 12.2467 19.7553 12.171 19.6922 12.1071C19.629 12.0432 19.5539 11.9924 19.4711 11.9576C19.3883 11.9227 19.2994 11.9046 19.2096 11.904C19.1243 11.8999 19.039 11.9129 18.9588 11.9424C18.8786 11.9718 18.8051 12.0171 18.7427 12.0755C18.6804 12.1339 18.6304 12.2042 18.5957 12.2823C18.5611 12.3604 18.5425 12.4447 18.541 12.5301Z" fill="#263238"/>
<path d="M21.4699 20.8467C18.9347 20.7346 16.4768 20.1743 15.7773 18.6671C15.8314 19.1174 16.0025 19.5457 16.2738 19.9091C16.545 20.2726 16.9069 20.5586 17.3232 20.7385C18.6377 21.3504 20.079 21.6405 21.5278 21.5849L21.4699 20.8467Z" fill="#FFA6A6"/>
<path d="M23.7548 14.4083L21.4786 15.3899L20.9414 11.0461L23.7548 14.4083Z" fill="#FFA6A6"/>
<path d="M22.1432 23.092C22.1432 23.092 23.2639 25.4339 22.4988 26.8484C18.7153 26.4156 15.5193 24.6572 14.2286 23.4707L11.048 23.977C11.048 23.977 8.96499 27.9498 9.61038 31.3197C10.2558 34.6896 12.9648 42.4265 12.9648 42.4265C16.5666 47.6553 28.8096 44.8921 29.1497 42.5077C29.1497 42.5077 29.513 39.5435 29.8144 37.0973C29.8144 37.0973 31.5303 35.4509 31.6153 33.2327C31.7042 30.9139 30.7496 29.2985 28.4154 26.9102C27.0703 25.5124 25.5863 24.2551 23.9866 23.1577L22.1432 23.092Z" fill="#5C6BC0"/>
<path opacity="0.7" d="M22.1432 23.092C22.1432 23.092 23.2639 25.4339 22.4988 26.8484C18.7153 26.4156 15.5193 24.6572 14.2286 23.4707L11.048 23.977C11.048 23.977 8.96499 27.9498 9.61038 31.3197C10.2558 34.6896 12.9648 42.4265 12.9648 42.4265C16.5666 47.6553 28.8096 44.8921 29.1497 42.5077C29.1497 42.5077 29.513 39.5435 29.8144 37.0973C29.8144 37.0973 31.5303 35.4509 31.6153 33.2327C31.7042 30.9139 30.7496 29.2985 28.4154 26.9102C27.0703 25.5124 25.5863 24.2551 23.9866 23.1577L22.1432 23.092Z" fill="white"/>
<path opacity="0.3" d="M15.2973 36.618C15.6108 37.5029 16.1734 38.2782 16.9173 38.8507C17.6612 39.4232 18.5548 39.7685 19.4904 39.845C20.3894 39.9483 21.2998 39.8127 22.1296 39.4517C22.9595 39.0907 23.6794 38.5172 24.2167 37.789C24.2167 37.789 23.5559 41.3135 19.3628 40.6952C15.1698 40.0768 15.2973 36.618 15.2973 36.618Z" fill="#5C6BC0"/>
<path d="M15.0901 22.122C15.0901 22.122 18.2127 29.3913 19.2638 32.9003C20.315 36.4093 19.7701 39.2112 19.3759 45.5607C19.0706 50.4494 18.5373 57.823 18.5373 57.823C18.5373 57.823 9.2623 57.6877 6.41797 53.572C7.19089 51.1411 9.55214 45.4757 10.1666 43.9105C10.7811 42.3453 10.4796 40.9927 9.48645 37.4064C8.49325 33.8201 6.90491 31.8607 6.95128 29.2096C6.99766 26.5585 8.84493 24.4175 9.52123 23.9615L15.0901 22.122Z" fill="#37474F"/>
<path d="M21.668 22.7249C21.6963 22.8128 21.7468 22.892 21.8144 22.9549C21.8821 23.0178 21.9647 23.0623 22.0544 23.0843C22.0544 23.0843 28.3421 29.1323 28.7827 35.3968C29.2232 41.6613 29.6135 55.3844 29.6135 55.3844C29.6135 55.3844 30.2976 55.0675 31.627 53.6145C31.3449 50.7701 30.3633 39.5319 30.6299 38.245C30.8966 36.9581 33.9612 34.0249 31.1478 29.8434C28.3344 25.6619 23.8476 22.7712 23.8476 22.7712L21.668 22.7249Z" fill="#37474F"/>
<path d="M24.7519 24.2514C25.1383 24.6108 25.548 24.974 25.9112 25.3489C26.6842 26.0986 27.4571 26.8522 28.1914 27.6329C28.5585 28.0193 28.9256 28.4058 29.2812 28.827C29.4628 29.0319 29.6367 29.2367 29.8067 29.4492C30.0045 29.6647 30.1558 29.9186 30.2512 30.1951C30.3193 30.4784 30.3363 30.7715 30.3014 31.0608C30.2723 31.3363 30.2206 31.6091 30.1468 31.8762C30.0115 32.3713 29.8397 32.8557 29.6328 33.3254C30.074 33.8465 30.4313 34.4333 30.6917 35.0645C30.7236 35.1559 30.7456 35.2505 30.7574 35.3466C30.7673 35.4429 30.7673 35.5401 30.7574 35.6364C30.7574 35.8181 30.7111 35.992 30.684 36.1659C30.626 36.5137 30.5565 36.8538 30.483 37.1977C30.1893 38.5619 29.8377 39.9029 29.4589 41.2517C29.7295 39.8836 30.0038 38.5194 30.2319 37.1513C30.2937 36.8074 30.3478 36.4673 30.3942 36.1234C30.3942 35.9533 30.4367 35.7833 30.4444 35.6171C30.4636 35.463 30.445 35.3065 30.3903 35.1611C30.1161 34.5419 29.7485 33.9684 29.3005 33.4607L29.2348 33.3795L29.2773 33.279C29.4894 32.7981 29.6613 32.3004 29.7913 31.7912C29.8582 31.5377 29.9048 31.2792 29.9304 31.0182C29.9672 30.7725 29.9567 30.5219 29.8995 30.2801C29.8165 30.0464 29.6848 29.833 29.513 29.654C29.3507 29.4454 29.1807 29.2405 29.0068 29.0396C28.6628 28.6338 28.2996 28.2357 27.9402 27.8377C27.2175 27.0455 26.4909 26.2571 25.7451 25.4842C24.9992 24.7112 24.2688 23.9383 23.4766 23.2002C23.948 23.5325 24.35 23.892 24.7519 24.2514Z" fill="#263238"/>
<path d="M13.7051 32.5641V30.0057C13.7283 27.7295 13.7515 25.4571 13.8326 23.1809C13.9292 25.4571 13.9756 27.7334 14.0181 30.0135V31.7255V32.5795V32.7882C14.0182 32.8432 14.026 32.8978 14.0413 32.9505C14.078 33.063 14.1372 33.1669 14.2152 33.2558C14.601 33.6372 15.0615 33.9346 15.5678 34.1292C16.0807 34.3513 16.6089 34.536 17.1484 34.6819L17.3339 34.7321L17.2682 34.9099C16.9885 35.5972 16.7497 36.3005 16.5533 37.0161C16.5069 37.1939 16.4644 37.3755 16.4335 37.5494C16.4033 37.7129 16.4033 37.8805 16.4335 38.0441V38.0904L16.4644 38.1561L16.9204 39.0489C17.2528 39.7213 17.5928 40.3899 17.9136 41.0662L18.8875 43.0951L17.7861 41.1319C17.3996 40.4787 17.0673 39.8179 16.7079 39.1571L16.4412 38.6624L16.3059 38.4151L16.2055 38.2296L16.1784 38.1407C16.1342 37.9369 16.1342 37.7261 16.1784 37.5223C16.2035 37.332 16.2409 37.1436 16.2905 36.9581C16.4657 36.2846 16.6785 35.6214 16.9281 34.9717C16.4291 34.8393 15.9397 34.6727 15.4635 34.4732C14.9021 34.262 14.3951 33.9279 13.9795 33.4954C13.8718 33.3676 13.7916 33.2189 13.7437 33.0587C13.7218 32.9729 13.7114 32.8845 13.7128 32.796L13.7051 32.5641Z" fill="#263238"/>
<path d="M9.51648 23.977C6.48278 24.5064 5.26544 26.3614 3.94375 30.2994C2.11967 35.6674 0.519729 40.9812 0.175781 43.6864L7.33299 41.727L11.1628 34.021C11.1628 34.021 12.5965 27.8145 9.51648 23.977Z" fill="#263238"/>
<path d="M24.0264 54.2599L8.5449 51.8793L6.1875 32.0269L21.6729 34.4075L24.0264 54.2599Z" fill="#5C6BC0"/>
<path opacity="0.2" d="M24.0264 54.2599L8.5449 51.8793L6.1875 32.0269L21.6729 34.4075L24.0264 54.2599Z" fill="black"/>
<path d="M23.455 53.3903L8.61891 51.1025L6.42383 32.5912L21.26 34.8751L23.455 53.3903Z" fill="#FAFAFA"/>
<path d="M21.5492 47.7828L20.0652 35.2809L6.1875 32.023L8.5449 51.8831L23.2303 55.3265C23.2911 55.3401 23.3544 55.3389 23.4146 55.3228C23.4748 55.3067 23.5303 55.2763 23.5762 55.2342C23.6221 55.192 23.6572 55.1394 23.6784 55.0808C23.6996 55.0222 23.7063 54.9593 23.6979 54.8975L22.9482 48.5634C22.9283 48.4283 22.8694 48.3019 22.7788 48.1996C22.6882 48.0974 22.5698 48.0237 22.4381 47.9876L21.5492 47.7828Z" fill="#5C6BC0"/>
<path d="M0.273438 43.6864C0.273438 45.7191 0.574875 46.0592 2.8086 47.2031C5.04233 48.347 10.6769 50.1093 15.1366 50.5383C18.0467 50.8204 19.5422 50.6813 20.6707 50.2368C21.6697 49.8477 22.5045 49.1269 23.0351 48.1953C23.5657 47.2636 23.7597 46.1779 23.5846 45.1201C24.0715 43.7173 23.3334 43.5279 22.7305 43.3733L22.8387 44.2931C22.8387 44.2931 21.5325 45.182 20.3306 45.1974C19.1287 45.2129 20.2456 43.8062 20.462 42.956C20.6784 42.1057 20.6321 41.6188 19.9364 41.2169C19.55 41.2169 19.4186 41.7502 18.2051 42.9598C17.2853 43.8757 16.5665 45.5491 15.1366 45.3559C14.0198 45.2013 7.37654 42.1212 7.37654 42.1212L7.0751 39.5783L0.273438 43.6864Z" fill="#FCC5A7"/>
<path d="M0.177563 43.6864C0.0925426 44.954 0.316688 45.6187 0.90024 46.1636C1.48379 46.7085 3.89916 47.8485 5.38316 48.3664C6.86716 48.8842 10.7549 49.9354 11.4969 50.0707C10.724 48.8649 10.9134 46.4882 11.5704 45.4332C12.2273 44.3781 13.0891 44.6255 13.0891 44.6255L7.37341 42.0555L6.9599 38.5774L0.177563 43.6864Z" fill="#263238"/>
<path d="M51.258 3.6854C53.2393 5.39552 54.4961 7.79515 54.7736 10.3977L54.8296 11.5746C54.8111 14.1631 53.8192 16.6498 52.0512 18.5404C50.2831 20.431 47.8684 21.5872 45.287 21.7789C42.7056 21.9707 40.1466 21.1841 38.1186 19.5755C36.0906 17.9668 34.7422 15.654 34.3413 13.0967L34.2248 11.9217C34.1398 9.91211 34.6446 7.92157 35.6771 6.19543C36.7096 4.46928 38.2246 3.08296 40.0354 2.20736C41.8462 1.33177 43.8736 1.00516 45.8678 1.26779C47.8619 1.53042 49.7356 2.37082 51.258 3.6854Z" fill="white"/>
<path d="M36.0462 4.19532C34.2088 6.31948 33.2378 9.05711 33.3259 11.8643C33.414 14.6715 34.5549 17.3428 36.522 19.3475C38.489 21.3522 41.1382 22.5436 43.9432 22.685C46.7482 22.8264 49.5037 21.9075 51.6624 20.1108L54.939 21.2766C55.0627 21.3216 55.197 21.3278 55.3242 21.2944C55.4515 21.2611 55.5655 21.1898 55.6513 21.0901C55.737 20.9903 55.7903 20.8668 55.8041 20.736C55.8178 20.6052 55.7915 20.4733 55.7285 20.3579L54.0854 17.2935C55.5367 14.8941 56.0338 12.0372 55.4783 9.28864C54.9229 6.54008 53.3554 4.10039 51.0863 2.45283C48.8172 0.805273 46.0121 0.0700338 43.2266 0.39275C40.4412 0.715466 37.8785 2.0726 36.0462 4.19532ZM51.2574 3.68579C53.2387 5.39591 54.4955 7.79554 54.773 10.3981L54.829 11.575C54.8105 14.1635 53.8186 16.6502 52.0506 18.5408C50.2825 20.4314 47.8678 21.5875 45.2864 21.7793C42.705 21.9711 40.1459 21.1845 38.118 19.5759C36.09 17.9672 34.7415 15.6544 34.3407 13.0971L34.2242 11.9221C34.1392 9.91251 34.644 7.92197 35.6765 6.19582C36.709 4.46967 38.224 3.08336 40.0348 2.20776C41.8456 1.33216 43.873 1.00555 45.8671 1.26818C47.8613 1.53082 49.735 2.37122 51.2574 3.68579Z" fill="#455A64"/>
<path opacity="0.7" d="M51.258 3.6854C53.2393 5.39552 54.4961 7.79515 54.7736 10.3977L54.8296 11.5746C54.8111 14.1631 53.8192 16.6498 52.0512 18.5404C50.2831 20.431 47.8684 21.5872 45.287 21.7789C42.7056 21.9707 40.1466 21.1841 38.1186 19.5755C36.0906 17.9668 34.7422 15.654 34.3413 13.0967L34.2248 11.9217C34.1398 9.91211 34.6446 7.92157 35.6771 6.19543C36.7096 4.46928 38.2246 3.08296 40.0354 2.20736C41.8462 1.33177 43.8736 1.00516 45.8678 1.26779C47.8619 1.53042 49.7356 2.37082 51.258 3.6854Z" fill="white"/>
<path d="M51.89 13.7273L49.2594 8.34406C49.3375 8.25499 49.3809 8.14079 49.3816 8.02237C49.3805 7.90817 49.3407 7.79773 49.2687 7.70906C49.1968 7.62039 49.0969 7.55874 48.9853 7.53416C48.8738 7.50959 48.7573 7.52355 48.6547 7.57376C48.5521 7.62397 48.4696 7.70747 48.4206 7.81062L44.6621 7.81062L44.6621 6.137C44.8582 6.07129 45.0245 5.93798 45.1313 5.76092C45.2381 5.58385 45.2785 5.37456 45.2452 5.17046C45.2119 4.96636 45.1071 4.78075 44.9496 4.6468C44.792 4.51286 44.592 4.43932 44.3852 4.43932C44.1784 4.43932 43.9783 4.51286 43.8208 4.6468C43.6632 4.78075 43.5584 4.96636 43.5251 5.17046C43.4918 5.37456 43.5322 5.58385 43.639 5.76092C43.7459 5.93798 43.9122 6.07129 44.1083 6.137L44.1083 7.81062L40.3497 7.81062C40.3008 7.70747 40.2182 7.62397 40.1157 7.57376C40.0131 7.52355 39.8965 7.50959 39.785 7.53416C39.6735 7.55874 39.5736 7.62039 39.5016 7.70906C39.4296 7.79773 39.3898 7.90817 39.3887 8.02237C39.3895 8.14079 39.4328 8.25499 39.5109 8.34406L36.8803 13.7273L36.7012 13.7273C36.7337 13.8129 36.7785 13.8943 36.8193 13.9757C36.8185 13.9839 36.8185 13.992 36.8193 14.0002C37.0991 14.5747 37.5347 15.0589 38.0765 15.3977C38.6183 15.7365 39.2445 15.9161 39.8835 15.9161C40.5225 15.9161 41.1486 15.7365 41.6905 15.3977C42.2323 15.0589 42.6679 14.5747 42.9477 14.0002C42.9884 13.9147 43.0332 13.8332 43.0658 13.7477L42.8866 13.7477L40.2561 8.36442C40.2851 8.33341 40.3086 8.29758 40.3253 8.25855L44.0838 8.25855L44.0838 16.6714L43.1065 16.6714L43.1065 17.0787L42.8541 17.0787C42.6219 17.0787 42.3992 17.1709 42.235 17.3351C42.0708 17.4993 41.9786 17.722 41.9786 17.9541L46.7429 17.9541C46.7429 17.722 46.6507 17.4993 46.4865 17.3351C46.3223 17.1709 46.0996 17.0787 45.8674 17.0787L45.6231 17.0787L45.6231 16.6714L44.6458 16.6714L44.6458 8.23819L48.4043 8.23819C48.4226 8.2764 48.4459 8.312 48.4735 8.34406L45.843 13.7273L45.6964 13.7273C45.7208 13.7843 45.7493 13.8373 45.7778 13.8943C45.7721 13.9319 45.7781 13.9704 45.7948 14.0046C45.8115 14.0388 45.8383 14.0671 45.8715 14.0857C46.1771 14.6671 46.6438 15.1482 47.2155 15.4715C47.7873 15.7948 48.4401 15.9466 49.0959 15.9088C49.7517 15.871 50.3827 15.6452 50.9136 15.2584C51.4444 14.8715 51.8527 14.34 52.0895 13.7273L51.89 13.7273ZM42.4591 13.7273L37.3323 13.7273L39.8774 8.5273L39.9222 8.5273L42.4591 13.7273ZM46.3113 13.7273L48.8563 8.5273L48.8807 8.5273L51.4258 13.7273L46.3113 13.7273Z" fill="#5C6BC0"/>
</g>
<defs>
<clipPath id="clip0_29071_32028">
<rect width="81" height="70" fill="white"/>
</clipPath>
</defs>
</svg>
