<svg width="109" height="70" viewBox="0 0 109 70" fill="none" xmlns="http://www.w3.org/2000/svg">
<g clip-path="url(#clip0_29071_31519)">
<path d="M105.248 3.50241H4.00688C2.13804 3.50241 0.623047 5.0174 0.623047 6.88624V71.5437C0.623047 73.4125 2.13804 74.9275 4.00688 74.9275H105.248C107.117 74.9275 108.632 73.4125 108.632 71.5437V6.88624C108.632 5.0174 107.117 3.50241 105.248 3.50241Z" fill="#455A64"/>
<path d="M43.9785 69.6439L45.4301 71.9548H65.8631L67.2101 69.6439H43.9785Z" fill="#263238"/>
<path d="M107.703 69.6439C107.703 69.6834 83.7302 69.7136 54.1675 69.7136C24.6048 69.7136 0.623047 69.6834 0.623047 69.6439C0.623047 69.6044 24.5909 69.5742 54.1675 69.5742C83.7441 69.5742 107.703 69.6044 107.703 69.6439Z" fill="#263238"/>
<path d="M104.354 7.60852H4.47429C4.05486 7.60852 3.71484 7.94854 3.71484 8.36797V66.9963C3.71484 67.4157 4.05486 67.7557 4.47429 67.7557H104.354C104.774 67.7557 105.114 67.4157 105.114 66.9963V8.36797C105.114 7.94854 104.774 7.60852 104.354 7.60852Z" fill="#EBEBEB"/>
<path d="M105.004 67.844H3.60547L3.71462 12.1048H105.004V67.844Z" fill="white"/>
<path d="M12.0312 9.93331C12.0326 10.0939 11.9862 10.2513 11.898 10.3855C11.8098 10.5197 11.6837 10.6247 11.5357 10.6871C11.3877 10.7495 11.2245 10.7666 11.0669 10.7361C10.9092 10.7056 10.7641 10.629 10.65 10.5159C10.536 10.4028 10.4581 10.2584 10.4262 10.101C10.3944 9.94357 10.41 9.78024 10.4712 9.63172C10.5323 9.48321 10.6362 9.35621 10.7696 9.26683C10.9031 9.17746 11.0601 9.12974 11.2207 9.12973C11.4346 9.12912 11.6401 9.21336 11.792 9.36399C11.944 9.51462 12.03 9.71936 12.0312 9.93331Z" fill="#263238"/>
<path d="M7.12691 9.9333C7.12829 10.0942 7.08175 10.2519 6.99322 10.3862C6.90469 10.5206 6.77817 10.6255 6.62978 10.6877C6.48139 10.75 6.31785 10.7666 6.15997 10.7355C6.0021 10.7045 5.85704 10.6272 5.74326 10.5134C5.62949 10.3996 5.55215 10.2545 5.5211 10.0967C5.49004 9.93879 5.50669 9.77525 5.5689 9.62686C5.63111 9.47847 5.73607 9.35195 5.87042 9.26342C6.00478 9.17489 6.16244 9.12835 6.32334 9.12973C6.53608 9.13095 6.73977 9.216 6.89021 9.36644C7.04064 9.51687 7.12569 9.72056 7.12691 9.9333Z" fill="#263238"/>
<path d="M9.48046 9.93329C9.48046 10.0936 9.43292 10.2503 9.34386 10.3836C9.25479 10.5169 9.12821 10.6208 8.9801 10.6821C8.83199 10.7435 8.66902 10.7595 8.51179 10.7283C8.35456 10.697 8.21013 10.6198 8.09678 10.5064C7.98342 10.3931 7.90622 10.2486 7.87495 10.0914C7.84367 9.93419 7.85973 9.77121 7.92108 9.62311C7.98242 9.475 8.08631 9.34841 8.21961 9.25934C8.3529 9.17028 8.50961 9.12275 8.66992 9.12275C8.77644 9.12244 8.88198 9.14319 8.98046 9.18382C9.07894 9.22444 9.16841 9.28414 9.24374 9.35946C9.31907 9.43479 9.37876 9.52427 9.41938 9.62274C9.46001 9.72122 9.48076 9.82676 9.48046 9.93329Z" fill="#263238"/>
<path d="M105.114 62.4605H3.60547V67.844H105.114V62.4605Z" fill="#263238"/>
<path d="M7.44219 65.7747V65.9466H6.63397V65.8119L7.06827 65.3985C7.1751 65.2963 7.19368 65.2312 7.19368 65.1662C7.19368 65.0663 7.12401 65.0083 6.98931 65.0083C6.94075 65.0056 6.89226 65.0146 6.84784 65.0344C6.80342 65.0541 6.76434 65.0842 6.73384 65.1221L6.58984 65.0129C6.64076 64.9525 6.70502 64.9046 6.77756 64.8732C6.8501 64.8417 6.92894 64.8276 7.00789 64.8318C7.24014 64.8318 7.40038 64.9502 7.40038 65.1453C7.39886 65.2133 7.38148 65.28 7.34963 65.3401C7.31777 65.4001 7.27233 65.4519 7.21691 65.4914L6.92428 65.7701L7.44219 65.7747Z" fill="white"/>
<path d="M7.5539 65.2313C7.5539 65.2054 7.56159 65.1802 7.57598 65.1588C7.59038 65.1373 7.61083 65.1207 7.63473 65.1109C7.65863 65.1011 7.6849 65.0987 7.71019 65.1039C7.73548 65.1091 7.75865 65.1217 7.77674 65.1402C7.79484 65.1586 7.80704 65.182 7.81179 65.2073C7.81654 65.2327 7.81363 65.2589 7.80343 65.2827C7.79323 65.3064 7.7762 65.3265 7.75451 65.3405C7.73282 65.3545 7.70745 65.3618 7.68163 65.3613C7.66457 65.3616 7.64762 65.3585 7.63182 65.352C7.61602 65.3456 7.6017 65.336 7.58974 65.3238C7.57779 65.3116 7.56844 65.2971 7.56228 65.2812C7.55611 65.2653 7.55326 65.2483 7.5539 65.2313ZM7.5539 65.8281C7.55142 65.8098 7.55291 65.7911 7.55825 65.7733C7.5636 65.7556 7.57268 65.7391 7.58489 65.7252C7.59709 65.7112 7.61215 65.7 7.62903 65.6924C7.64592 65.6847 7.66425 65.6807 7.68279 65.6807C7.70134 65.6807 7.71966 65.6847 7.73655 65.6924C7.75344 65.7 7.76849 65.7112 7.7807 65.7252C7.7929 65.7391 7.80199 65.7556 7.80733 65.7733C7.81268 65.7911 7.81416 65.8098 7.81169 65.8281C7.81416 65.8465 7.81268 65.8652 7.80733 65.883C7.80199 65.9007 7.7929 65.9171 7.7807 65.9311C7.76849 65.9451 7.75344 65.9562 7.73655 65.9639C7.71966 65.9716 7.70134 65.9755 7.68279 65.9755C7.66425 65.9755 7.64592 65.9716 7.62903 65.9639C7.61215 65.9562 7.59709 65.9451 7.58489 65.9311C7.57268 65.9171 7.5636 65.9007 7.55825 65.883C7.55291 65.8652 7.55142 65.8465 7.5539 65.8281Z" fill="white"/>
<path d="M8.31712 64.8504V65.9466H8.11506V65.0176H7.88281V64.8457L8.31712 64.8504Z" fill="white"/>
<path d="M9.51355 65.698H9.31846V65.9465H9.12105V65.698H8.51953V65.5656L9.06067 64.8689H9.27898L8.76803 65.5447H9.12802V65.3241H9.31846V65.5447H9.51355V65.698Z" fill="white"/>
<path d="M94.5047 65.2591H11.3047V65.6376H94.5047V65.2591Z" fill="white"/>
<path d="M37.2422 64.8527H11.2422V65.8653H37.2422V64.8527Z" fill="#349CBC"/>
<path d="M38.0862 65.4495C38.0862 65.6999 38.0119 65.9446 37.8729 66.1527C37.7338 66.3609 37.5361 66.5231 37.3048 66.6189C37.0735 66.7147 36.819 66.7398 36.5735 66.6909C36.328 66.6421 36.1024 66.5216 35.9254 66.3445C35.7484 66.1675 35.6278 65.942 35.579 65.6965C35.5302 65.4509 35.5552 65.1964 35.651 64.9651C35.7468 64.7339 35.9091 64.5362 36.1172 64.3971C36.3254 64.258 36.5701 64.1838 36.8204 64.1838C37.1561 64.1838 37.4781 64.3171 37.7154 64.5545C37.9528 64.7919 38.0862 65.1138 38.0862 65.4495Z" fill="#349CBC"/>
<path d="M96.6022 65.4379C96.6018 65.4885 96.5908 65.5384 96.5701 65.5845C96.5494 65.6307 96.5192 65.672 96.4817 65.7058C96.4441 65.7397 96.3999 65.7653 96.3519 65.7812C96.3038 65.797 96.2531 65.8027 96.2027 65.7979C95.9031 65.7979 95.7382 65.6051 95.7382 65.2521C95.7291 65.1771 95.7363 65.1011 95.7595 65.0292C95.7827 64.9573 95.8213 64.8913 95.8726 64.8358C95.9238 64.7803 95.9866 64.7367 96.0564 64.7079C96.1263 64.6791 96.2016 64.6659 96.277 64.6692C96.3778 64.6667 96.4773 64.6916 96.565 64.7412L96.4884 64.8945C96.4264 64.8563 96.3544 64.8377 96.2817 64.841C96.075 64.841 95.9449 64.9688 95.9449 65.2173C95.9824 65.1781 96.0281 65.1476 96.0786 65.128C96.1292 65.1083 96.1834 65.0999 96.2376 65.1035C96.2837 65.1003 96.3301 65.1066 96.3737 65.1219C96.4174 65.1372 96.4575 65.1612 96.4916 65.1925C96.5257 65.2238 96.5531 65.2617 96.5721 65.3038C96.5911 65.346 96.6013 65.3917 96.6022 65.4379ZM96.4048 65.4379C96.4048 65.3241 96.3188 65.2521 96.1865 65.2521C96.1586 65.2475 96.1301 65.2488 96.1028 65.256C96.0754 65.2632 96.05 65.2762 96.028 65.294C96.0061 65.3117 95.9882 65.334 95.9754 65.3592C95.9627 65.3844 95.9555 65.412 95.9542 65.4402C95.9542 65.5424 96.0355 65.6237 96.1865 65.6237C96.2126 65.628 96.2394 65.6267 96.265 65.6199C96.2906 65.6131 96.3145 65.601 96.3352 65.5844C96.3558 65.5677 96.3726 65.5469 96.3846 65.5232C96.3966 65.4996 96.4035 65.4737 96.4048 65.4472V65.4379Z" fill="white"/>
<path d="M96.7023 65.0617C96.6999 65.0433 96.7013 65.0246 96.7067 65.0069C96.712 64.9891 96.7211 64.9727 96.7333 64.9587C96.7455 64.9448 96.7606 64.9336 96.7775 64.9259C96.7943 64.9183 96.8127 64.9143 96.8312 64.9143C96.8498 64.9143 96.8681 64.9183 96.885 64.9259C96.9019 64.9336 96.9169 64.9448 96.9291 64.9587C96.9413 64.9727 96.9504 64.9891 96.9558 65.0069C96.9611 65.0246 96.9626 65.0433 96.9601 65.0617C96.9626 65.0801 96.9611 65.0988 96.9558 65.1165C96.9504 65.1343 96.9413 65.1507 96.9291 65.1647C96.9169 65.1786 96.9019 65.1898 96.885 65.1975C96.8681 65.2051 96.8498 65.2091 96.8312 65.2091C96.8127 65.2091 96.7943 65.2051 96.7775 65.1975C96.7606 65.1898 96.7455 65.1786 96.7333 65.1647C96.7211 65.1507 96.712 65.1343 96.7067 65.1165C96.7013 65.0988 96.6999 65.0801 96.7023 65.0617ZM96.7023 65.6586C96.6999 65.6402 96.7013 65.6215 96.7067 65.6037C96.712 65.586 96.7211 65.5696 96.7333 65.5556C96.7455 65.5417 96.7606 65.5305 96.7775 65.5228C96.7943 65.5151 96.8127 65.5112 96.8312 65.5112C96.8498 65.5112 96.8681 65.5151 96.885 65.5228C96.9019 65.5305 96.9169 65.5417 96.9291 65.5556C96.9413 65.5696 96.9504 65.586 96.9558 65.6037C96.9611 65.6215 96.9626 65.6402 96.9601 65.6586C96.9626 65.677 96.9611 65.6956 96.9558 65.7134C96.9504 65.7312 96.9413 65.7476 96.9291 65.7615C96.9169 65.7755 96.9019 65.7867 96.885 65.7943C96.8681 65.802 96.8498 65.806 96.8312 65.806C96.8127 65.806 96.7943 65.802 96.7775 65.7943C96.7606 65.7867 96.7455 65.7755 96.7333 65.7615C96.7211 65.7476 96.712 65.7312 96.7067 65.7134C96.7013 65.6956 96.6999 65.677 96.7023 65.6586Z" fill="white"/>
<path d="M97.0879 65.2289C97.0879 64.8689 97.2853 64.6646 97.5524 64.6646C97.8195 64.6646 98.0169 64.8689 98.0169 65.2289C98.0169 65.5889 97.8195 65.7933 97.5524 65.7933C97.2853 65.7933 97.0879 65.5889 97.0879 65.2289ZM97.7986 65.2289C97.7986 64.9641 97.6964 64.8434 97.5454 64.8434C97.3944 64.8434 97.2923 64.9641 97.2923 65.2289C97.2923 65.4937 97.3968 65.6168 97.5454 65.6168C97.694 65.6168 97.7986 65.4937 97.7986 65.2289Z" fill="white"/>
<path d="M98.1406 65.2289C98.1406 64.8689 98.338 64.6645 98.6051 64.6645C98.8722 64.6645 99.0696 64.8689 99.0696 65.2289C99.0696 65.5889 98.8722 65.7932 98.6051 65.7932C98.338 65.7932 98.1406 65.5889 98.1406 65.2289ZM98.8536 65.2289C98.8536 64.9641 98.7491 64.8434 98.5982 64.8434C98.4472 64.8434 98.3473 64.9641 98.3473 65.2289C98.3473 65.4936 98.4495 65.6167 98.5982 65.6167C98.7468 65.6167 98.8536 65.4936 98.8536 65.2289Z" fill="white"/>
<path d="M100.832 65.1615H100.451V64.0677H101.545V64.4462H100.832V65.1615Z" fill="white"/>
<path d="M101.545 66.5875H100.451V65.496H100.83V66.209H101.545V66.5875Z" fill="white"/>
<path d="M103.285 66.5875H102.193V66.209H102.904V65.4937H103.285V66.5875Z" fill="white"/>
<path d="M103.285 65.1592H102.907V64.4462H102.191V64.0677H103.285V65.1592Z" fill="white"/>
<path d="M17.5135 15.419H11.5355L8.54883 20.5958L11.5355 25.7702H17.5135L20.5002 20.5958L17.5135 15.419Z" fill="#EBEBEB"/>
<path d="M12.0216 21.6083C11.7436 21.3226 11.499 21.0063 11.2923 20.6654C11.0839 20.3214 10.9965 19.9176 11.0438 19.5181C11.1065 19.2942 11.1569 19.0671 11.1948 18.8376C11.218 18.5171 11.0833 18.1827 11.1948 17.8831C11.3713 17.4186 12.0007 17.342 12.3839 17.0191C12.6811 16.766 12.8275 16.3572 13.1549 16.1459C13.4591 15.9849 13.8105 15.9371 14.1466 16.0112C14.4791 16.0878 14.8208 16.1175 15.1615 16.0994C15.3969 16.049 15.6295 15.9863 15.8583 15.9113C16.0883 15.839 16.3373 15.8564 16.555 15.9601C16.6614 16.0182 16.7408 16.1155 16.7764 16.2314C16.812 16.3473 16.8009 16.4724 16.7455 16.5802C17.138 16.399 17.635 16.7056 17.7418 17.1213C17.7827 17.3341 17.7633 17.5541 17.6858 17.7565C17.6082 17.9588 17.4756 18.1354 17.3028 18.2663C16.9554 18.5252 16.5478 18.6914 16.1184 18.7494C14.9177 18.9816 13.6171 18.8493 12.5836 18.199" fill="#263238"/>
<path d="M17.5652 22.8857C17.5257 22.1448 17.319 20.6259 17.1147 19.2534C17.009 18.5423 16.6399 17.8969 16.0807 17.4452C15.5214 16.9936 14.8128 16.7685 14.0955 16.8148H13.9468C12.3582 17.0145 11.6406 18.4753 11.8845 20.0662L12.349 25.7679H16.2275C16.2275 25.7679 16.1346 24.7669 16.1346 24.7576C16.1346 24.7483 17.6488 24.4185 17.5652 22.8857Z" fill="#FFBE9D"/>
<path d="M16.1325 24.739C15.4256 24.7985 14.7169 24.6474 14.0957 24.3047C14.0957 24.3047 14.6438 25.3754 16.1627 25.1362L16.1325 24.739Z" fill="#EB996E"/>
<path d="M16.6193 20.5679C16.6238 20.6245 16.6059 20.6806 16.5693 20.724C16.5328 20.7675 16.4807 20.7948 16.4242 20.8001C16.397 20.8037 16.3694 20.8018 16.3429 20.7946C16.3165 20.7874 16.2917 20.775 16.2701 20.7582C16.2485 20.7413 16.2305 20.7203 16.217 20.6964C16.2036 20.6725 16.1951 20.6462 16.1919 20.619C16.188 20.5625 16.2062 20.5068 16.2426 20.4635C16.279 20.4201 16.3307 20.3926 16.387 20.3867C16.4142 20.3832 16.4418 20.385 16.4683 20.3922C16.4947 20.3994 16.5195 20.4118 16.5411 20.4287C16.5627 20.4456 16.5807 20.4665 16.5941 20.4904C16.6076 20.5143 16.6161 20.5407 16.6193 20.5679Z" fill="#263238"/>
<path d="M16.8353 20.0244C16.8098 20.0546 16.6356 19.9431 16.3987 19.9594C16.1618 19.9757 15.9993 20.1057 15.9714 20.0778C15.9435 20.05 15.9714 20.0128 16.055 19.9524C16.1522 19.8756 16.2704 19.8302 16.3941 19.8224C16.5167 19.8135 16.6388 19.8445 16.7424 19.9106C16.8191 19.9617 16.847 20.0105 16.8353 20.0244Z" fill="#263238"/>
<path d="M14.3941 20.7281C14.3949 20.7838 14.3756 20.8379 14.3398 20.8805C14.3039 20.9231 14.254 20.9515 14.1991 20.9604C14.144 20.9663 14.0889 20.9504 14.0455 20.9161C14.002 20.8818 13.9738 20.8318 13.9668 20.7769C13.9661 20.7212 13.9854 20.6672 14.0212 20.6245C14.057 20.5819 14.1069 20.5536 14.1619 20.5447C14.2169 20.5388 14.2721 20.5547 14.3155 20.589C14.3589 20.6233 14.3872 20.6732 14.3941 20.7281Z" fill="#263238"/>
<path d="M14.5209 20.2241C14.4953 20.2543 14.3212 20.1429 14.0843 20.1591C13.8474 20.1754 13.6848 20.3031 13.6569 20.2776C13.6291 20.252 13.6569 20.2125 13.7405 20.1521C13.8378 20.0735 13.9571 20.0271 14.0819 20.0192C14.2067 20.0113 14.3309 20.0423 14.4373 20.108C14.5046 20.1591 14.5325 20.2102 14.5209 20.2241Z" fill="#263238"/>
<path d="M15.4931 21.9033C15.6148 21.8556 15.742 21.8236 15.8717 21.8081C15.9321 21.8081 15.9878 21.7825 15.9948 21.7407C15.9957 21.6789 15.9779 21.6181 15.9437 21.5666L15.7347 21.1206C15.5444 20.7467 15.3836 20.3584 15.2539 19.9594C15.4754 20.3203 15.6673 20.6985 15.8276 21.0905C15.8972 21.2461 15.9646 21.397 16.0296 21.5387C16.0702 21.6089 16.0865 21.6905 16.0761 21.7709C16.0684 21.7926 16.0562 21.8124 16.0401 21.8288C16.0241 21.8452 16.0046 21.858 15.9832 21.8662C15.95 21.8769 15.9157 21.8839 15.881 21.8871C15.7529 21.909 15.6226 21.9145 15.4931 21.9033Z" fill="#263238"/>
<path d="M14.5187 19.2951C14.5001 19.3602 14.2632 19.3462 13.9891 19.3997C13.7151 19.4531 13.4968 19.5413 13.455 19.4856C13.4132 19.4298 13.4736 19.3973 13.5595 19.3277C13.6739 19.2427 13.8068 19.1862 13.9473 19.1628C14.0871 19.1353 14.2314 19.1424 14.3677 19.1837C14.4722 19.2185 14.528 19.265 14.5187 19.2951Z" fill="#263238"/>
<path d="M16.7042 19.3486C16.6647 19.4043 16.4999 19.3602 16.3048 19.3695C16.1097 19.3788 15.9471 19.4299 15.9053 19.3695C15.8635 19.3091 15.9053 19.2882 15.9773 19.2324C16.0692 19.1635 16.1806 19.1253 16.2955 19.1233C16.4101 19.1182 16.5235 19.1482 16.6206 19.2092C16.6926 19.2673 16.7205 19.3207 16.7042 19.3486Z" fill="#263238"/>
<path d="M12.0797 21.2065C12.0518 21.2065 11.0044 20.9743 11.1089 22.0124C11.2134 23.0506 12.3468 22.7092 12.3444 22.686C12.3421 22.6627 12.0797 21.2065 12.0797 21.2065Z" fill="#FFBE9D"/>
<path d="M11.8814 22.333C11.8814 22.333 11.8651 22.3469 11.8372 22.3632C11.7954 22.3862 11.7463 22.392 11.7002 22.3794C11.6284 22.3435 11.5675 22.289 11.5238 22.2216C11.4801 22.1543 11.4552 22.0764 11.4517 21.9962C11.4396 21.9072 11.4484 21.8165 11.4772 21.7314C11.4833 21.6973 11.4977 21.6653 11.5192 21.6381C11.5406 21.6109 11.5685 21.5896 11.6003 21.5758C11.6207 21.5689 11.6427 21.569 11.663 21.5762C11.6832 21.5833 11.7004 21.5971 11.7118 21.6153C11.7304 21.6432 11.7258 21.6664 11.7304 21.6664C11.735 21.6664 11.7513 21.6478 11.7304 21.6037C11.722 21.579 11.7057 21.5578 11.6839 21.5433C11.6686 21.5336 11.6514 21.5271 11.6334 21.5243C11.6154 21.5215 11.597 21.5225 11.5794 21.5271C11.5376 21.5403 11.4997 21.5638 11.4693 21.5954C11.4388 21.6271 11.4168 21.6659 11.4053 21.7082C11.3704 21.8032 11.3593 21.9052 11.3727 22.0055C11.3753 22.0992 11.4062 22.19 11.4613 22.2659C11.5164 22.3417 11.5933 22.3991 11.6816 22.4305C11.7107 22.4358 11.7405 22.4346 11.769 22.427C11.7975 22.4193 11.824 22.4055 11.8465 22.3864C11.8953 22.3678 11.8953 22.333 11.8814 22.333Z" fill="#EB996E"/>
<path d="M17.036 17.8204C16.964 18.2361 16.1186 18.6193 15.4103 18.5984C14.7646 18.5798 14.4441 18.2593 13.9773 18.0317C13.68 17.8877 13.68 17.8877 13.2806 17.9528C12.9554 18.0062 12.7859 18.3894 12.6047 18.6658C12.9531 19.4252 12.8114 20.3077 12.6628 21.1299C12.6571 21.2222 12.6202 21.3098 12.5583 21.3784C12.4914 21.4195 12.4121 21.4358 12.3344 21.4243C12.2567 21.4128 12.1855 21.3744 12.1333 21.3157C11.9614 21.1308 11.8469 20.9001 11.8035 20.6515C11.6572 20.0963 11.6224 19.5177 11.7013 18.9491C11.7783 18.3802 12.0206 17.8465 12.398 17.4139C12.8957 16.8894 13.5777 16.5787 14.3001 16.5477C15.0195 16.5211 15.7289 16.7218 16.3276 17.1213C16.6133 17.2932 16.8525 17.5324 17.0244 17.8181" fill="#263238"/>
<path d="M15.6465 22.4421L15.1123 22.1936C15.0827 22.1767 15.0488 22.1687 15.0148 22.1704C14.9775 22.1787 14.945 22.2012 14.9242 22.2331C14.8615 22.3076 14.8224 22.3989 14.8116 22.4957C14.8009 22.5924 14.819 22.6901 14.8638 22.7766C14.9125 22.8612 14.9895 22.926 15.0813 22.9595C15.173 22.9931 15.2736 22.9933 15.3654 22.96C15.4552 22.9107 15.53 22.8381 15.5819 22.7498C15.6338 22.6615 15.6609 22.5608 15.6604 22.4584L15.6465 22.4421Z" fill="#EB996E"/>
<path d="M15.379 22.9995C15.379 22.9995 15.2676 23.0854 15.0655 23.0274C14.9475 22.9873 14.8489 22.9044 14.7891 22.7951C14.7512 22.7295 14.7283 22.6563 14.7223 22.5807C14.7163 22.5052 14.7272 22.4293 14.7543 22.3585C14.7827 22.2846 14.8271 22.218 14.8844 22.1634C14.9121 22.1378 14.9425 22.1153 14.9749 22.096C14.9964 22.0847 15.0203 22.0787 15.0446 22.0787C15.0689 22.0787 15.0928 22.0847 15.1143 22.096C15.2374 22.1634 15.3187 22.2215 15.3999 22.2726C15.5556 22.3771 15.6485 22.4491 15.6322 22.463C15.6159 22.4769 15.5161 22.4328 15.3489 22.3469L15.0632 22.1982C15.0423 22.1982 15.0446 22.1982 15.0214 22.1982C14.9981 22.2139 14.9763 22.2318 14.9564 22.2517C14.9126 22.2947 14.8793 22.3471 14.8588 22.4049C14.838 22.4596 14.8289 22.518 14.8321 22.5764C14.8353 22.6349 14.8507 22.6919 14.8774 22.744C14.9226 22.8316 14.9964 22.9013 15.0864 22.9414C15.2606 23.0157 15.379 22.9786 15.379 22.9995Z" fill="#263238"/>
<path d="M15.2152 20.5934C15.2152 20.5934 15.2152 20.4982 15.1595 20.3333C15.0922 20.1031 14.951 19.9015 14.7577 19.7597C14.6029 19.6446 14.4192 19.5748 14.2271 19.558C14.035 19.5413 13.842 19.5783 13.6696 19.6649C13.4973 19.7515 13.3524 19.8843 13.2512 20.0485C13.15 20.2126 13.0964 20.4017 13.0964 20.5946C13.0964 20.7874 13.15 20.9765 13.2512 21.1407C13.3524 21.3048 13.4973 21.4376 13.6696 21.5242C13.842 21.6108 14.035 21.6479 14.2271 21.6311C14.4192 21.6144 14.6029 21.5446 14.7577 21.4295C14.951 21.2876 15.0922 21.086 15.1595 20.8559C15.2059 20.691 15.2036 20.5934 15.2152 20.5934C15.2268 20.5934 15.2152 20.619 15.2152 20.6654C15.2167 20.7334 15.2097 20.8013 15.1943 20.8675C15.1421 21.1171 15.003 21.3401 14.8018 21.4969C14.6514 21.6143 14.4739 21.692 14.2856 21.7228C14.0973 21.7536 13.9042 21.7366 13.7242 21.6734C13.5015 21.5941 13.3087 21.4479 13.1724 21.2548C13.0361 21.0616 12.9629 20.831 12.9629 20.5946C12.9629 20.3582 13.0361 20.1275 13.1724 19.9344C13.3087 19.7412 13.5015 19.595 13.7242 19.5158C13.9042 19.4525 14.0973 19.4355 14.2856 19.4664C14.4739 19.4972 14.6514 19.5749 14.8018 19.6923C15.003 19.849 15.1421 20.0721 15.1943 20.3217C15.2098 20.3879 15.2168 20.4558 15.2152 20.5237C15.2222 20.5702 15.2199 20.5934 15.2152 20.5934Z" fill="#263238"/>
<path d="M17.8223 20.4912C17.8107 20.4912 17.8223 20.3983 17.7666 20.2381C17.7016 20.0144 17.5644 19.8184 17.3764 19.6807C17.2258 19.5688 17.047 19.501 16.8601 19.4847C16.6731 19.4685 16.4853 19.5046 16.3177 19.5889C16.15 19.6732 16.0091 19.8025 15.9106 19.9622C15.8122 20.1219 15.76 20.3059 15.76 20.4936C15.76 20.6812 15.8122 20.8652 15.9106 21.0249C16.0091 21.1847 16.15 21.3139 16.3177 21.3982C16.4853 21.4825 16.6731 21.5186 16.8601 21.5024C17.047 21.4862 17.2258 21.4183 17.3764 21.3064C17.5644 21.1687 17.7016 20.9728 17.7666 20.749C17.8131 20.5888 17.8107 20.4936 17.8223 20.4936C17.834 20.4936 17.8223 20.5168 17.8223 20.5632C17.8236 20.6295 17.8174 20.6957 17.8038 20.7606C17.7519 21.0036 17.6163 21.2207 17.4206 21.3738C17.2738 21.4886 17.1004 21.5645 16.9166 21.5946C16.7327 21.6246 16.5441 21.6078 16.3685 21.5456C16.1515 21.4682 15.9637 21.3255 15.831 21.1371C15.6982 20.9488 15.627 20.724 15.627 20.4936C15.627 20.2631 15.6982 20.0383 15.831 19.85C15.9637 19.6616 16.1515 19.5189 16.3685 19.4415C16.5441 19.3793 16.7327 19.3625 16.9166 19.3925C17.1004 19.4226 17.2738 19.4985 17.4206 19.6133C17.6164 19.7673 17.752 19.9851 17.8038 20.2288C17.8176 20.2937 17.8238 20.3599 17.8223 20.4262C17.8293 20.468 17.827 20.4912 17.8223 20.4912Z" fill="#263238"/>
<path d="M15.6943 20.252C15.671 20.2729 15.5665 20.2056 15.4272 20.2102C15.2878 20.2149 15.1949 20.2822 15.1624 20.2613C15.1299 20.2404 15.2274 20.0941 15.4248 20.0895C15.6223 20.0848 15.7244 20.2335 15.6943 20.252Z" fill="#263238"/>
<path d="M13.0964 20.4401C13.1173 20.4657 12.9129 20.6515 12.6435 20.8535C12.4912 20.9925 12.3128 21.0999 12.1187 21.1694C12.0978 21.1438 12.3021 20.958 12.5715 20.756C12.7235 20.6165 12.902 20.5091 13.0964 20.4401Z" fill="#263238"/>
<path d="M34.6548 20.5423C34.6548 20.5749 31.9678 20.6027 28.6536 20.6027C25.3394 20.6027 22.6523 20.5749 22.6523 20.5423C22.6523 20.5098 25.3394 20.482 28.6536 20.482C31.9678 20.482 34.6548 20.5098 34.6548 20.5423Z" fill="#263238"/>
<path d="M29.1033 21.7988C29.1033 21.8313 27.6773 21.8592 25.9169 21.8592C24.1565 21.8592 22.7305 21.8313 22.7305 21.7988C22.7305 21.7663 24.1565 21.7361 25.9169 21.7361C27.6773 21.7361 29.1033 21.764 29.1033 21.7988Z" fill="#263238"/>
<path d="M70.6021 29.8206C71.6535 30.4185 72.5758 31.219 73.3157 32.1757C74.0556 33.1325 74.5984 34.2265 74.9126 35.3945C76.0343 39.4077 79.4646 49.8588 79.4646 49.8588C79.4646 49.8588 81.4248 52.165 81.6338 53.872C81.8428 55.579 81.4248 59.7107 80.7931 60.4818C80.6101 60.7055 80.3752 60.8811 80.1089 60.9932C79.8425 61.1053 79.5528 61.1506 79.2649 61.1251L71.0132 60.3424L67.7617 38.5855L70.6021 29.8206Z" fill="#349CBC"/>
<path d="M43.3188 29.442C43.3188 29.442 37.4174 31.3 35.9473 32.9025L40.778 55.3747L40.6921 62.4675H68.6731C68.6731 62.1168 68.924 38.9223 68.924 38.9223L70.6031 29.8206L60.6653 28.0717L58.7051 26.5296L47.6432 27.0917L45.9617 28.7708L43.3188 29.442Z" fill="#349CBC"/>
<g opacity="0.3">
<path d="M45.5721 48.9391C45.4861 48.7487 45.3607 48.542 45.1563 48.5002C44.8196 48.4305 44.5943 48.8276 44.4805 49.1528C43.5883 51.7003 42.3522 54.114 40.8064 56.3269L40.7344 59.778C42.3601 58.4055 43.9719 56.9353 45.0124 55.0751C46.0528 53.2148 46.4407 50.8807 45.5721 48.9391Z" fill="black"/>
</g>
<path d="M35.9482 32.9025C35.9482 32.9025 34.0043 35.5524 33.1984 37.2826C32.3925 39.0129 25.7015 53.5399 25.302 55.0425C24.9025 56.5452 23.8621 61.2691 26.9161 62.3653H33.203L39.5109 49.608L39.8337 34.8022L35.9482 32.9025Z" fill="#349CBC"/>
<path d="M33.6008 53.1497C33.6008 53.1497 33.4615 53.0266 33.1712 52.8617C32.7568 52.6395 32.3125 52.4783 31.852 52.3833C31.5354 52.3139 31.214 52.2689 30.8905 52.2486C30.5178 52.2205 30.143 52.2471 29.778 52.3276C28.9519 52.5397 28.2123 53.0041 27.6623 53.656C27.103 54.3006 26.6937 55.0613 26.4639 55.8832C26.2742 56.555 26.1482 57.2432 26.0876 57.9386C26.0273 58.5332 26.0064 59.0186 25.9855 59.3507C25.9855 59.5086 25.9669 59.6364 25.9622 59.7362C25.9624 59.7818 25.9561 59.8271 25.9436 59.8709C25.9407 59.8261 25.9407 59.7811 25.9436 59.7362C25.9436 59.634 25.9436 59.504 25.9436 59.3507C25.9436 59.0139 25.9576 58.5309 26.0064 57.9317C26.0555 57.2249 26.1745 56.5247 26.3617 55.8414C26.5899 55.0009 27.0051 54.2229 27.5763 53.5654C28.1436 52.8953 28.9074 52.4207 29.7595 52.2091C30.132 52.1315 30.514 52.1104 30.8928 52.1464C31.2207 52.1705 31.5461 52.221 31.8659 52.2974C32.3316 52.4009 32.7782 52.5764 33.1897 52.8176C33.3006 52.8861 33.4055 52.9638 33.5033 53.0498C33.5392 53.0796 33.5719 53.1131 33.6008 53.1497Z" fill="#263238"/>
<path d="M30.6211 50.609C30.6898 50.5889 30.7609 50.578 30.8324 50.5765C31.0265 50.5614 31.2214 50.5614 31.4154 50.5765C31.7043 50.5934 31.9911 50.6362 32.2724 50.7042C32.9644 50.8715 33.6139 51.1816 34.1791 51.6146C34.4094 51.7899 34.6232 51.9858 34.8178 52.1999C34.9497 52.3451 35.0701 52.5004 35.1778 52.6644C35.2216 52.7212 35.2575 52.7837 35.2846 52.8502C35.266 52.8641 35.0942 52.6179 34.7551 52.2649C34.5547 52.0641 34.3397 51.8786 34.1118 51.7098C33.8311 51.5055 33.5326 51.3267 33.2199 51.1757C32.9055 51.029 32.5792 50.9094 32.2445 50.818C31.97 50.7473 31.6905 50.6976 31.4084 50.6694C30.9253 50.6067 30.6211 50.6322 30.6211 50.609Z" fill="#263238"/>
<path d="M36.302 49.9099C36.2047 49.9139 36.1074 49.9069 36.0117 49.889C35.8259 49.8658 35.5588 49.8379 35.2244 49.8124C33.4875 49.6829 31.742 49.8919 30.0848 50.4278C29.7666 50.53 29.5111 50.6206 29.3369 50.6879C29.248 50.7272 29.1555 50.7576 29.0605 50.7785C29.1405 50.723 29.2271 50.6777 29.3183 50.6438C29.4879 50.5625 29.741 50.4603 30.0569 50.3465C31.7153 49.7593 33.4836 49.5483 35.2337 49.7288C35.5658 49.7636 35.8352 49.8031 36.0187 49.8426C36.115 49.8559 36.2099 49.8785 36.302 49.9099Z" fill="#263238"/>
<path d="M54.204 37.4963C54.1785 37.4742 54.1566 37.4484 54.1389 37.4197L53.9671 37.1874L53.3354 36.3142C52.7942 35.5478 52.0371 34.4794 51.1476 33.2253L51.2451 33.2114C50.9061 34.2054 50.5321 35.3016 50.1397 36.4628L50.1141 36.5348L50.0491 36.493L49.919 36.4094C49.413 36.0855 48.9529 35.6949 48.5511 35.2482C48.1797 34.8323 47.8521 34.3793 47.5733 33.8965C47.1093 33.0794 46.7481 32.208 46.498 31.3023C46.3301 30.6905 46.1944 30.0703 46.0916 29.4443C46.0544 29.2353 46.0266 29.0658 46.0033 28.938C45.9968 28.8947 45.9867 28.852 45.9731 28.8103C45.9731 28.7824 45.9569 28.7685 45.9592 28.7662C45.9615 28.7638 46.0544 28.9984 46.138 29.4374C46.2217 29.8763 46.354 30.508 46.5816 31.2721C46.8388 32.1694 47.2046 33.032 47.6709 33.8407C47.9489 34.3146 48.2733 34.7596 48.6393 35.1692C49.0342 35.6052 49.4857 35.9864 49.9817 36.3026L50.1095 36.3862L50.0212 36.4187C50.4184 35.2575 50.7946 34.1682 51.1383 33.1672L51.1732 33.065L51.2359 33.1533C52.1091 34.419 52.8616 35.4967 53.3888 36.2677C53.6419 36.644 53.8533 36.9436 53.9949 37.1619L54.1506 37.3941C54.1719 37.4262 54.1898 37.4605 54.204 37.4963Z" fill="#263238"/>
<g opacity="0.3">
<path d="M61.4855 48.2238C61.235 50.8444 61.803 53.4781 63.1112 55.7625C64.4118 58.0246 66.3209 60.0429 68.6968 61.1251C68.7734 58.8189 68.6619 56.1016 68.7386 53.7954L61.4855 48.2238Z" fill="black"/>
</g>
<path d="M61.224 45.1884C61.224 45.1884 60.2068 45.4694 60.9686 47.5526C61.7303 49.6359 61.9858 49.5081 62.4944 51.4544C63.003 53.4006 63.5953 55.1703 64.4825 56.2804C65.3696 57.3906 68.6745 59.6248 68.6745 59.6248L71.638 56.8378C71.638 56.8378 71.1503 54.7476 71.2664 53.3402C71.3825 51.9328 71.6798 48.463 71.638 47.8615C71.5962 47.26 70.9598 45.8293 70.9598 45.8293V44.8446L69.4363 40.1579C69.4363 40.1579 68.5886 39.777 68.2936 41.131L67.785 39.6934C67.785 39.6934 66.9814 39.5657 66.7701 41.2169C66.5587 42.8682 66.9396 45.1535 66.9396 45.1535L66.5146 48.031L65.8806 49.9796L65.3302 50.0632C65.3302 50.0632 64.501 49.831 64.0482 48.2772C63.5953 46.7235 62.3667 44.8493 61.224 45.1884Z" fill="#FFBE9D"/>
<path d="M70.652 52.5598C70.652 52.5598 70.652 52.525 70.638 52.4553C70.6241 52.3856 70.6241 52.2718 70.6171 52.1441C70.6009 51.8608 70.58 51.4683 70.5544 50.9829C70.508 49.9726 70.4453 48.5652 70.3709 46.9232L70.3825 46.958C70.3067 46.8794 70.2107 46.8231 70.1051 46.7952C69.9994 46.7674 69.8881 46.7691 69.7834 46.8001C69.6697 46.8277 69.5627 46.8776 69.4686 46.947C69.3745 47.0164 69.2952 47.1038 69.2352 47.2042C68.9751 47.6199 68.9612 48.1634 68.8799 48.686C68.7197 49.8727 68.5664 51.0084 68.427 52.0326C68.3574 52.5482 68.283 53.0359 68.1832 53.4888C68.0891 53.9088 67.9657 54.3217 67.8139 54.7244C67.6838 55.0936 67.5677 55.4211 67.4957 55.73C67.4315 55.9843 67.3995 56.2457 67.4005 56.508C67.4087 56.7337 67.4478 56.9572 67.5166 57.1722C67.4888 57.1202 67.4655 57.0658 67.447 57.0097C67.3919 56.8486 67.3606 56.6804 67.354 56.5103C67.343 56.241 67.3688 55.9714 67.4307 55.7091C67.5121 55.3644 67.6137 55.0247 67.7349 54.6919C67.8785 54.2906 67.9949 53.8802 68.0833 53.4633C68.1785 53.015 68.2505 52.5343 68.3156 52.014C68.4503 50.9829 68.6012 49.8542 68.7591 48.6651C68.7963 48.4026 68.8242 48.1402 68.8706 47.8801C68.9087 47.6172 68.997 47.3641 69.1307 47.1346C69.1999 47.0218 69.2907 46.924 69.3979 46.8466C69.5052 46.7693 69.6267 46.714 69.7555 46.684C69.8807 46.6464 70.0139 46.6447 70.14 46.6792C70.2661 46.7137 70.3799 46.783 70.4685 46.8791L70.4801 46.8953V46.9139C70.5382 48.5559 70.5869 49.9633 70.6218 50.9759C70.6218 51.4659 70.6427 51.8584 70.652 52.1371C70.652 52.2649 70.652 52.3694 70.652 52.4483C70.6559 52.4854 70.6559 52.5228 70.652 52.5598Z" fill="#EB996E"/>
<path d="M69.0269 47.2182C68.9741 47.1356 68.932 47.0466 68.9015 46.9534C68.8045 46.7059 68.7215 46.4531 68.653 46.1963C68.5534 45.8151 68.4827 45.4269 68.4417 45.0351C68.413 44.8039 68.4083 44.5704 68.4277 44.3383C68.4493 44.0789 68.5373 43.8293 68.6832 43.6137C68.8135 43.4204 69.0048 43.2765 69.2267 43.205L69.2708 43.1933L69.294 43.2328C69.7237 43.9899 70.0976 44.6588 70.3577 45.1396L70.662 45.7086C70.7036 45.7753 70.7364 45.8471 70.7595 45.9222C70.7075 45.8632 70.6624 45.7986 70.6248 45.7295L70.2904 45.1791C70.0117 44.7146 69.6238 44.048 69.1918 43.2932L69.2592 43.3211C69.0649 43.386 68.8975 43.5134 68.7831 43.6834C68.6494 43.8826 68.5694 44.113 68.5508 44.3523C68.5276 44.5793 68.5276 44.8081 68.5508 45.0351C68.5858 45.4258 68.6471 45.8138 68.7343 46.1963C68.8086 46.5214 68.8899 46.7816 68.9433 46.9604C68.9797 47.0433 69.0077 47.1297 69.0269 47.2182Z" fill="#EB996E"/>
<path d="M68.3158 47.5991C68.2951 47.51 68.2858 47.4187 68.288 47.3273C68.288 47.1276 68.2694 46.8814 68.2578 46.5911C68.2392 45.9687 68.2183 45.1094 68.2067 44.1595C68.172 43.3474 68.1844 42.5339 68.2438 41.7232C68.2729 41.4771 68.3258 41.2345 68.4018 40.9986C68.4243 40.9096 68.4611 40.8249 68.5109 40.7478C68.4256 41.0711 68.3643 41.4002 68.3274 41.7325C68.2694 42.348 68.3274 43.2073 68.3274 44.1572C68.3274 45.1071 68.346 45.9664 68.3437 46.5888C68.3437 46.8814 68.3437 47.1276 68.3437 47.3273C68.3444 47.4187 68.335 47.5098 68.3158 47.5991Z" fill="#EB996E"/>
<path d="M65.8115 55.4048C65.7953 55.3909 65.9811 55.1726 66.2087 54.7755C66.3421 54.5438 66.4578 54.3023 66.5547 54.0532C66.6687 53.7467 66.7573 53.4313 66.8195 53.1102C66.8738 52.7879 66.901 52.4617 66.9008 52.1348C66.8972 51.8679 66.874 51.6016 66.8311 51.3382C66.7545 50.8853 66.6569 50.6159 66.6778 50.6089C66.7144 50.6657 66.7426 50.7275 66.7614 50.7924C66.827 50.9644 66.8783 51.1415 66.9147 51.3219C66.9716 51.5886 67.0042 51.8599 67.0123 52.1325C67.0326 52.8043 66.9116 53.4729 66.6569 54.095C66.5543 54.3472 66.4291 54.5898 66.283 54.8196C66.1862 54.9754 66.0767 55.123 65.9555 55.2608C65.8696 55.3584 65.8185 55.4095 65.8115 55.4048Z" fill="#EB996E"/>
<path d="M71.0125 53.9533L73.5835 54.8451C73.5835 54.8451 76.0407 53.5747 77.7338 54.8451C79.4268 56.1155 80.897 59.4622 80.4325 60.8162C80.4325 60.8162 79.2712 62.2608 78.3748 62.4721C77.4783 62.6835 74.0294 61.845 72.5918 61.5431C71.1542 61.2412 68.6738 59.6294 68.6738 59.6294L71.0125 53.9533Z" fill="#FFBE9D"/>
<path d="M71.3294 57.7366C71.3114 57.6605 71.302 57.5826 71.3016 57.5044C71.3016 57.3302 71.2807 57.1235 71.2667 56.8819C71.2389 56.357 71.204 55.6324 71.1924 54.8289C71.1808 54.0253 71.204 53.2984 71.2505 52.7735C71.2737 52.5111 71.3039 52.309 71.3294 52.1534C71.3351 52.0737 71.3532 51.9953 71.3829 51.9211C71.4014 51.9211 71.362 52.2463 71.3364 52.7712C71.3109 53.296 71.3016 54.0183 71.3132 54.8196C71.3248 55.6208 71.341 56.3129 71.3503 56.8703C71.3503 57.1328 71.3503 57.3464 71.3503 57.4927C71.3566 57.5746 71.3495 57.657 71.3294 57.7366Z" fill="#EB996E"/>
<path d="M79.8097 54.7383C79.5433 54.4616 79.2577 54.2039 78.9551 53.9672C78.2114 53.4108 77.3198 53.0869 76.3925 53.036C75.4651 52.9852 74.5434 53.2098 73.7434 53.6816C73.4188 53.8839 73.1085 54.1081 72.8145 54.3528C72.8758 54.2675 72.9467 54.1896 73.0258 54.1205C73.2348 53.9263 73.4628 53.7536 73.7063 53.6049C74.514 53.1018 75.4573 52.8602 76.4075 52.9129C77.3577 52.9657 78.2684 53.3104 79.0154 53.8999C79.2413 54.0736 79.4484 54.2706 79.6332 54.4875C79.7017 54.5639 79.7609 54.6481 79.8097 54.7383Z" fill="#263238"/>
<path d="M79.4778 52.5946C79.1457 52.3561 78.7863 52.158 78.4072 52.0047C77.4753 51.6739 76.4632 51.6439 75.5134 51.9188C74.9909 52.0654 74.4879 52.2744 74.0154 52.5412C73.6307 52.7623 73.2676 53.0189 72.9308 53.3076C72.6428 53.5538 72.4222 53.7721 72.2712 53.9185C72.1971 54.0031 72.1155 54.0808 72.0273 54.1507C72.0878 54.0569 72.1578 53.9698 72.2364 53.8906C72.437 53.6643 72.6502 53.4495 72.875 53.2473C73.2088 52.9458 73.5722 52.679 73.9596 52.4507C74.437 52.1717 74.9482 51.9555 75.4809 51.8073C76.454 51.5231 77.4935 51.5663 78.4397 51.9304C78.7223 52.0433 78.9886 52.1932 79.2316 52.3763C79.3176 52.439 79.3756 52.4994 79.4198 52.5366C79.4639 52.5737 79.4778 52.5923 79.4778 52.5946Z" fill="#263238"/>
<path d="M79.4982 50.7367C79.4982 50.7599 79.0337 50.6229 78.2951 50.523C77.8587 50.4645 77.4186 50.4366 76.9783 50.4394C76.4389 50.4454 75.9007 50.4935 75.3688 50.5834C74.838 50.681 74.3154 50.8192 73.8058 50.9968C73.3904 51.1443 72.986 51.3213 72.5958 51.5263C71.9292 51.8747 71.553 52.1581 71.5391 52.1372C71.618 52.0606 71.7043 51.9921 71.7969 51.9328C71.898 51.8531 72.0043 51.7802 72.115 51.7145C72.2428 51.6332 72.3868 51.538 72.554 51.4497C72.9443 51.2338 73.3504 51.0475 73.7686 50.8923C74.2819 50.705 74.8102 50.5621 75.3479 50.465C75.885 50.3741 76.4289 50.3282 76.9736 50.328C77.4194 50.3302 77.8643 50.3667 78.3044 50.4371C78.4925 50.4603 78.6597 50.5045 78.8061 50.5347C78.9331 50.5604 79.0587 50.5929 79.1823 50.6322C79.2904 50.6578 79.3961 50.6928 79.4982 50.7367Z" fill="#263238"/>
<path d="M59.7979 27.9951C59.8942 28.2113 59.9539 28.4421 59.9744 28.6779C60.0438 29.344 60.0109 30.0167 59.8769 30.6729C59.7954 31.1439 59.6845 31.6093 59.5448 32.0664C59.3617 32.5983 59.1365 33.1147 58.8713 33.6108C58.3162 34.6791 57.6195 35.8427 56.8112 37.0945L56.7183 37.2408V37.0666C56.7183 36.2445 56.7183 35.3829 56.7183 34.4887L56.8089 34.5328L54.6281 36.2724L54.6467 36.2445C54.1294 37.9398 53.8114 39.6895 53.6991 41.4584C53.4855 44.2849 53.6573 46.9882 53.7897 49.4407C53.9221 51.8933 53.9802 54.1066 54.0568 55.9646C54.1334 57.8225 54.1962 59.3228 54.2519 60.361C54.2844 60.8766 54.3076 61.276 54.3239 61.5547C54.3239 61.6871 54.3401 61.787 54.3448 61.8659C54.3494 61.9449 54.3448 61.9728 54.3448 61.9728C54.3448 61.9728 54.3448 61.9379 54.3285 61.8683C54.3123 61.7986 54.31 61.6894 54.296 61.557C54.2705 61.2853 54.238 60.8835 54.2031 60.3633C54.1334 59.3275 54.0522 57.8248 53.9709 55.9669C53.8896 54.1089 53.7897 51.9002 53.6782 49.4454C53.5668 46.9905 53.3647 44.2849 53.5784 41.4491C53.6958 39.6697 54.0224 37.9103 54.5515 36.2073V36.1911H54.5654L56.7393 34.4469L56.8298 34.3726V34.4887C56.8298 35.3829 56.8298 36.2445 56.8298 37.0666L56.7346 37.0365C58.3301 34.563 59.6284 32.4124 59.8281 30.6729C59.9661 30.0229 60.0083 29.3563 59.9535 28.6942C59.9346 28.5202 59.9027 28.3478 59.8583 28.1786C59.8119 28.0532 59.7979 27.9951 59.7979 27.9951Z" fill="#263238"/>
<path d="M55.6324 57.9526H55.5581C55.389 57.9635 55.2307 58.0397 55.1168 58.1651C55.0028 58.2906 54.9422 58.4554 54.9476 58.6248C54.953 58.7942 55.0241 58.9548 55.1459 59.0727C55.2676 59.1906 55.4304 59.2565 55.5999 59.2565C55.7693 59.2565 55.9322 59.1906 56.0539 59.0727C56.1756 58.9548 56.2467 58.7942 56.2522 58.6248C56.2576 58.4554 56.1969 58.2906 56.083 58.1651C55.9691 58.0397 55.8108 57.9635 55.6417 57.9526H55.6324Z" fill="white"/>
<path d="M55.632 49.0018H55.5577C55.3892 49.0127 55.2315 49.0886 55.118 49.2136C55.0045 49.3386 54.9441 49.5029 54.9496 49.6717C54.955 49.8404 55.0258 50.0004 55.1471 50.1179C55.2684 50.2354 55.4307 50.301 55.5995 50.301C55.7684 50.301 55.9306 50.2354 56.0519 50.1179C56.1732 50.0004 56.244 49.8404 56.2495 49.6717C56.2549 49.5029 56.1945 49.3386 56.081 49.2136C55.9675 49.0886 55.8098 49.0127 55.6413 49.0018H55.632Z" fill="white"/>
<path d="M55.5573 40.9939C55.7307 41.0053 55.9015 40.9474 56.0322 40.8328C56.1628 40.7183 56.2426 40.5565 56.254 40.3831C56.2654 40.2097 56.2075 40.0389 56.0929 39.9082C55.9784 39.7776 55.8166 39.6978 55.6432 39.6864H55.5573C55.3836 39.6864 55.217 39.7554 55.0942 39.8782C54.9713 40.001 54.9023 40.1676 54.9023 40.3413C54.9023 40.515 54.9713 40.6816 55.0942 40.8044C55.217 40.9272 55.3836 40.9962 55.5573 40.9962V40.9939Z" fill="white"/>
<path d="M45.5187 17.5068C44.7058 16.6034 43.8929 15.693 43.2914 14.634C42.6899 13.5749 42.3438 12.337 42.5389 11.1503C42.6551 10.4535 42.9523 9.78 43.0034 9.06003C43.0685 8.0846 42.6597 7.06503 43.0034 6.1523C43.5422 4.72166 45.4676 4.50103 46.6334 3.51399C47.5415 2.74525 47.9828 1.49808 48.9815 0.852437C49.8547 0.285756 50.9764 0.29969 52.0007 0.443683C53.0249 0.587676 54.0653 0.850115 55.0965 0.710767C55.8304 0.613223 56.5225 0.315947 57.2401 0.137117C57.9578 -0.0417125 58.7637 -0.0951294 59.4024 0.285755C60.041 0.66664 60.4033 1.56543 59.983 2.17624C61.1767 1.62582 62.6933 2.55713 63.0208 3.82984C63.3482 5.10255 62.6933 6.47977 61.6807 7.31354C60.6681 8.1473 59.3582 8.54445 58.0693 8.78831C54.4137 9.48505 50.4446 9.0879 47.293 7.10916" fill="#263238"/>
<path d="M58.3757 29.7996C58.1969 28.4062 58.0505 27.2612 58.0413 27.1172C58.0413 27.1172 62.6676 26.0767 62.4121 21.3993C62.289 19.1372 61.6573 14.5016 61.0349 10.3142C60.7151 8.14341 59.5889 6.17294 57.8809 4.79553C56.1729 3.41813 54.0086 2.73498 51.8194 2.88227L51.3549 2.91014C46.5125 3.52094 44.3224 7.97543 45.0656 12.8015L47.6807 28.9821C47.6807 28.9821 48.7955 32.5611 51.1807 33.1812L54.1999 37.4824L54.6969 35.6244L56.9404 33.6689C57.3703 33.1633 57.7419 32.611 58.0482 32.0222C58.3907 31.335 58.5054 30.5565 58.3757 29.7996Z" fill="#FFBE9D"/>
<path d="M58.0443 27.0521C58.0443 27.0521 55.1063 27.4888 51.834 25.726C51.834 25.726 53.5015 28.9937 58.1372 28.2621L58.0443 27.0521Z" fill="#EB996E"/>
<path d="M59.5338 14.3367C59.5468 14.5107 59.4915 14.683 59.3797 14.817C59.2678 14.9509 59.1082 15.0361 58.9346 15.0543C58.8501 15.0667 58.764 15.062 58.6813 15.0405C58.5986 15.019 58.5211 14.9812 58.4534 14.9292C58.3856 14.8772 58.3289 14.8122 58.2867 14.738C58.2445 14.6637 58.2176 14.5817 58.2077 14.4969C58.1922 14.3215 58.2467 14.147 58.3594 14.0117C58.4721 13.8764 58.6338 13.7911 58.8092 13.7746C58.8939 13.7626 58.9801 13.7677 59.0628 13.7896C59.1454 13.8116 59.2229 13.8499 59.2904 13.9023C59.358 13.9547 59.4144 14.0202 59.4562 14.0948C59.498 14.1694 59.5244 14.2517 59.5338 14.3367Z" fill="#263238"/>
<path d="M60.1864 12.6784C60.1098 12.7713 59.5779 12.4299 58.8603 12.481C58.1426 12.5321 57.6479 12.9246 57.555 12.8456C57.5156 12.8108 57.5899 12.6482 57.8082 12.4648C58.104 12.2283 58.4659 12.0895 58.844 12.0676C59.218 12.0405 59.5909 12.1341 59.9077 12.3347C60.1399 12.4833 60.2236 12.6366 60.1864 12.6784Z" fill="#263238"/>
<path d="M52.746 14.8221C52.7596 14.996 52.7045 15.1683 52.5924 15.3021C52.4804 15.4358 52.3204 15.5203 52.1468 15.5374C52.0624 15.5501 51.9763 15.5457 51.8937 15.5245C51.811 15.5033 51.7335 15.4657 51.6657 15.4139C51.5979 15.3621 51.5412 15.2972 51.4989 15.2231C51.4567 15.1489 51.4298 15.0671 51.4199 14.9823C51.4068 14.8086 51.4617 14.6367 51.5731 14.5027C51.6845 14.3688 51.8436 14.2835 52.0167 14.2647C52.1014 14.2523 52.1876 14.2569 52.2704 14.2784C52.3532 14.2999 52.4309 14.3377 52.4989 14.3896C52.5668 14.4416 52.6237 14.5066 52.6661 14.5809C52.7086 14.6551 52.7357 14.7371 52.746 14.8221Z" fill="#263238"/>
<path d="M53.1327 13.2846C53.0538 13.3775 52.5242 13.0361 51.8066 13.0872C51.0889 13.1383 50.585 13.5308 50.5014 13.4472C50.4596 13.4123 50.5339 13.2498 50.7522 13.0663C51.0491 12.8301 51.4116 12.6914 51.7903 12.6691C52.1636 12.6423 52.5356 12.7359 52.8517 12.9362C53.0839 13.0895 53.1699 13.2428 53.1327 13.2846Z" fill="#263238"/>
<path d="M56.0956 18.4382C56.0956 18.3963 56.5322 18.2895 57.2568 18.1478C57.4379 18.1177 57.6098 18.0689 57.633 17.9435C57.6353 17.7525 57.5794 17.5654 57.4728 17.407L56.8364 16.046C55.9516 14.1091 55.2966 12.5089 55.3756 12.4741C55.4546 12.4392 56.2349 13.9813 57.1221 15.9206L57.7352 17.2909C57.8651 17.5044 57.9161 17.7567 57.8792 18.0039C57.8567 18.0701 57.8196 18.1304 57.7705 18.1803C57.7214 18.2301 57.6617 18.2683 57.5959 18.2918C57.4961 18.3265 57.3923 18.3483 57.287 18.3569C56.5531 18.4451 56.1025 18.4776 56.0956 18.4382Z" fill="#263238"/>
<path d="M53.1311 10.4558C53.073 10.6579 52.3507 10.6114 51.5053 10.7694C50.66 10.9273 50.0027 11.2037 49.8796 11.0365C49.8239 10.9552 49.9307 10.7647 50.1931 10.5557C50.5447 10.3006 50.9494 10.1284 51.3769 10.052C51.8045 9.97555 52.2438 9.99691 52.6619 10.1144C52.9894 10.219 53.1566 10.3629 53.1311 10.4558Z" fill="#263238"/>
<path d="M59.7808 10.6161C59.667 10.788 59.1607 10.6533 58.5638 10.6834C57.9669 10.7136 57.4722 10.8669 57.3445 10.7043C57.2888 10.6254 57.3584 10.4558 57.5768 10.2863C57.8604 10.0822 58.1982 9.9667 58.5474 9.9543C58.8967 9.9419 59.2418 10.0332 59.5392 10.2166C59.7529 10.3699 59.8319 10.5232 59.7808 10.6161Z" fill="#263238"/>
<path d="M45.6917 16.2504C45.6104 16.2225 42.417 15.5165 42.7329 18.7053C43.0488 21.894 46.4999 20.8535 46.4999 20.763C46.4999 20.6724 45.6917 16.2504 45.6917 16.2504Z" fill="#FFBE9D"/>
<path d="M45.0878 19.7155C45.0716 19.7155 45.0367 19.7596 44.9461 19.8107C44.8203 19.881 44.6719 19.8993 44.5327 19.8618C44.182 19.7712 43.836 19.2649 43.7733 18.7006C43.7386 18.428 43.7648 18.1512 43.8499 17.89C43.8707 17.7881 43.9158 17.6927 43.9813 17.6118C44.0468 17.531 44.1308 17.4671 44.2262 17.4255C44.2886 17.4025 44.357 17.402 44.4198 17.424C44.4825 17.4461 44.5356 17.4893 44.5699 17.5463C44.621 17.6322 44.6071 17.6973 44.6233 17.6996C44.6396 17.7019 44.686 17.6415 44.6489 17.5115C44.6227 17.434 44.5711 17.3678 44.5025 17.3233C44.4553 17.2916 44.4023 17.2695 44.3465 17.2584C44.2907 17.2472 44.2332 17.2472 44.1774 17.2583C44.0493 17.2976 43.9334 17.369 43.8407 17.4658C43.748 17.5625 43.6816 17.6814 43.6479 17.8111C43.539 18.1006 43.5031 18.4125 43.5434 18.7191C43.627 19.3601 44.0079 19.9291 44.4886 20.0151C44.577 20.0319 44.668 20.0285 44.7549 20.0052C44.8417 19.9818 44.9222 19.9392 44.9903 19.8804C45.0901 19.7921 45.1064 19.7201 45.0878 19.7155Z" fill="#EB996E"/>
<path d="M60.7998 5.95955C60.5815 7.22994 58.0128 8.3935 55.8715 8.33079C53.9044 8.27273 52.9313 7.29729 51.503 6.60287C50.5972 6.16393 50.5972 6.16393 49.3686 6.37063C48.3769 6.53088 47.8613 7.70372 47.3039 8.53981C48.3653 10.8623 47.9357 13.5471 47.4851 16.0553C47.4657 16.3382 47.352 16.6064 47.1623 16.8171C46.8046 17.1329 46.2333 16.9448 45.871 16.622C45.3066 16.1041 45.0488 15.3377 44.8654 14.5945C44.4153 12.9041 44.3079 11.1409 44.5495 9.40841C44.7937 7.6675 45.543 6.0364 46.7048 4.71703C48.2241 3.11601 50.3058 2.16759 52.5109 2.07174C54.705 1.9931 56.8681 2.60742 58.6933 3.82753C59.5387 4.3826 60.319 5.06772 60.8068 5.95723" fill="#263238"/>
<path d="M56.5679 20.0453L54.9421 19.2882C54.853 19.2355 54.7506 19.2097 54.6472 19.2139C54.5328 19.2396 54.4324 19.3077 54.3662 19.4043C54.1756 19.6324 54.0567 19.9118 54.0245 20.2072C53.9923 20.5027 54.0481 20.8011 54.185 21.0649C54.3338 21.3219 54.5678 21.5187 54.8465 21.6214C55.1251 21.724 55.4309 21.726 55.7109 21.6269C56.2868 21.3947 56.5655 20.7188 56.612 20.0964L56.5679 20.0453Z" fill="#EB996E"/>
<path d="M55.7625 21.7477C55.7625 21.7616 55.6859 21.808 55.5303 21.8429C55.2974 21.8847 55.0578 21.8671 54.8335 21.7918C54.4906 21.6763 54.2032 21.4369 54.0276 21.1206C53.9165 20.9278 53.8499 20.7127 53.8326 20.4909C53.8154 20.2691 53.8479 20.0462 53.9278 19.8386C54.0095 19.6234 54.138 19.429 54.304 19.2696C54.3846 19.1934 54.4734 19.1264 54.5688 19.0699C54.6259 19.0358 54.6904 19.0159 54.7569 19.0118C54.8214 19.0092 54.8857 19.0211 54.945 19.0466C55.0317 19.0903 55.1162 19.1384 55.1981 19.1906L55.4188 19.3276L55.8159 19.5738C56.2967 19.8804 56.587 20.0848 56.5707 20.1126C56.5545 20.1405 56.234 19.9919 55.73 19.7225L55.3189 19.4902L55.0867 19.3625C55.0077 19.323 54.9241 19.2696 54.8544 19.2417C54.8258 19.228 54.7939 19.2225 54.7624 19.2258C54.7308 19.229 54.7008 19.241 54.6756 19.2603C54.5985 19.3089 54.5268 19.3658 54.4619 19.4298C54.3241 19.5671 54.2165 19.7316 54.1461 19.9129C54.0787 20.0888 54.05 20.2772 54.062 20.4651C54.0741 20.6531 54.1265 20.8363 54.2157 21.0021C54.3605 21.2801 54.5979 21.4987 54.8869 21.6199C55.0869 21.7004 55.3008 21.7407 55.5163 21.7384C55.6696 21.7453 55.7555 21.7314 55.7625 21.7477Z" fill="#263238"/>
<path d="M55.2476 14.418C55.2245 14.1458 55.1818 13.8757 55.1198 13.6097C55.0048 13.165 54.798 12.7493 54.5128 12.3893C54.2276 12.0292 53.8702 11.7328 53.4636 11.5191C53.057 11.3055 52.6101 11.1792 52.1518 11.1485C51.6935 11.1177 51.2339 11.1832 50.8024 11.3407C50.505 11.4474 50.2254 11.5985 49.9732 11.7889C49.7044 11.9814 49.469 12.2168 49.2765 12.4857C48.8626 13.0453 48.6392 13.723 48.6392 14.4191C48.6392 15.1152 48.8626 15.7929 49.2765 16.3526C49.469 16.6214 49.7044 16.8568 49.9732 17.0493C50.2254 17.2397 50.505 17.3908 50.8024 17.4975C51.2339 17.6535 51.6933 17.7179 52.1511 17.6865C52.609 17.6551 53.0552 17.5286 53.4615 17.3151C53.8677 17.1016 54.225 16.8058 54.5105 16.4465C54.796 16.0873 55.0036 15.6724 55.1198 15.2285C55.1815 14.9632 55.2242 14.6939 55.2476 14.4226C55.2502 14.4403 55.2502 14.4583 55.2476 14.476C55.2476 14.5178 55.2476 14.5712 55.2476 14.6339C55.2496 14.7203 55.2434 14.8066 55.229 14.8917C55.216 15.0091 55.1951 15.1255 55.1663 15.2401C55.0927 15.5563 54.9713 15.8594 54.8063 16.1389C54.4096 16.8169 53.7879 17.3345 53.0492 17.6018C52.3106 17.8691 51.5016 17.8692 50.7629 17.602C50.4551 17.492 50.1661 17.3353 49.9059 17.1376C49.6286 16.9389 49.3855 16.6965 49.1859 16.4199C48.7569 15.8402 48.5254 15.138 48.5254 14.4168C48.5254 13.6956 48.7569 12.9934 49.1859 12.4137C49.384 12.1366 49.6265 11.8941 49.9036 11.696C50.1638 11.4982 50.4528 11.3416 50.7606 11.2315C51.3297 11.0272 51.9432 10.979 52.5373 11.0922C53.0075 11.1821 53.4531 11.3717 53.8441 11.6481C54.235 11.9245 54.5623 12.2813 54.804 12.6947C54.969 12.9742 55.0904 13.2773 55.164 13.5935C55.1928 13.708 55.2137 13.8244 55.2267 13.9418C55.2411 14.027 55.2473 14.1133 55.2452 14.1996C55.2452 14.2623 55.2452 14.3158 55.2452 14.3576C55.249 14.3775 55.2498 14.3978 55.2476 14.418Z" fill="#263238"/>
<path d="M63.2014 14.1044C63.1787 13.8395 63.1376 13.5764 63.0783 13.3171C62.8922 12.6147 62.4749 11.9954 61.8939 11.559C61.498 11.2579 61.0364 11.055 60.5469 10.9668C59.9853 10.8637 59.4064 10.9126 58.87 11.1085C58.5815 11.2128 58.31 11.3592 58.0641 11.5428C57.8055 11.7321 57.5782 11.961 57.3906 12.2209C56.9892 12.7669 56.7727 13.4268 56.7727 14.1044C56.7727 14.7821 56.9892 15.442 57.3906 15.988C57.5776 16.2477 57.805 16.4759 58.0641 16.6638C58.3093 16.849 58.581 16.9962 58.87 17.1004C59.4066 17.2952 59.9852 17.3441 60.5469 17.2421C61.0364 17.1539 61.498 16.951 61.8939 16.6499C62.4749 16.2135 62.8922 15.5942 63.0783 14.8918C63.1376 14.6325 63.1787 14.3694 63.2014 14.1044C63.207 14.1732 63.207 14.2424 63.2014 14.3111C63.2023 14.3959 63.1961 14.4806 63.1828 14.5643C63.1705 14.6786 63.1503 14.7919 63.1225 14.9034C62.9745 15.5116 62.6551 16.0647 62.2023 16.4969C61.7495 16.9291 61.1822 17.2224 60.5678 17.342C59.9883 17.4513 59.3902 17.404 58.8352 17.2049C58.2214 16.9813 57.6868 16.5824 57.2977 16.0576C56.8798 15.4922 56.6543 14.8076 56.6543 14.1044C56.6543 13.4013 56.8798 12.7167 57.2977 12.1512C57.6868 11.6265 58.2214 11.2276 58.8352 11.004C59.3902 10.8049 59.9883 10.7575 60.5678 10.8669C61.1822 10.9865 61.7495 11.2797 62.2023 11.712C62.6551 12.1442 62.9745 12.6973 63.1225 13.3055C63.1503 13.417 63.1705 13.5303 63.1828 13.6446C63.1961 13.7283 63.2023 13.813 63.2014 13.8977C63.207 13.9665 63.207 14.0357 63.2014 14.1044Z" fill="#263238"/>
<path d="M56.7173 13.3705C56.7033 13.3821 56.6267 13.3194 56.485 13.2521C56.3023 13.1651 56.1021 13.1214 55.8998 13.1243C55.6979 13.1272 55.4997 13.1782 55.3215 13.273C55.1821 13.345 55.1078 13.4123 55.0892 13.3984C55.0706 13.3845 55.131 13.2962 55.2704 13.1987C55.4539 13.0737 55.67 13.0051 55.892 13.0014C56.114 12.9977 56.3323 13.059 56.5199 13.1778C56.6615 13.2707 56.7173 13.3612 56.7173 13.3705Z" fill="#263238"/>
<path d="M48.7867 13.9442C48.3272 14.3616 47.8416 14.7495 47.3329 15.1054C46.8463 15.4924 46.3359 15.8484 45.8047 16.1714C46.2638 15.7525 46.7502 15.3645 47.2609 15.0102C47.746 14.6224 48.2557 14.2663 48.7867 13.9442Z" fill="#263238"/>
<g opacity="0.3">
<path d="M46.034 29.0588C45.7112 32.2104 46.9096 35.5385 49.4388 37.4476C49.6362 37.5985 49.8847 37.7472 50.1192 37.6612C50.2757 37.5855 50.4006 37.4573 50.4723 37.2989C51.1806 36.0752 51.4463 34.645 51.2247 33.2485C50.8253 34.3029 50.4816 35.3388 50.0774 36.4396C47.8781 35.1019 46.4985 32.2592 46.034 29.0588Z" fill="black"/>
</g>
<path opacity="0.3" d="M54.5977 36.2259L56.4556 35.5478L56.7622 38.6854C56.7622 38.6854 58.7642 35.0368 59.5933 33.3739C60.4224 31.7111 59.9951 28.7708 59.9951 28.7708C59.9951 28.7708 60.29 31.3255 58.2857 34.5932L56.7715 37.055V34.4771L54.5977 36.2259Z" fill="black"/>
<g opacity="0.3">
<path d="M33.0285 52.172C32.1815 51.8122 31.251 51.6956 30.3414 51.8353C29.3721 51.9145 28.4448 52.2655 27.6659 52.8478C26.9134 53.454 26.4048 54.4109 26.5047 55.3724L26.5976 55.384C27.2456 53.6328 28.5322 52.3648 30.1928 52.2045C31.8533 52.0443 33.4721 52.7875 34.6055 54.0068C34.4824 53.0964 33.846 52.5599 33.0285 52.172Z" fill="black"/>
</g>
<g opacity="0.3">
<path d="M79.9297 53.9533C79.286 53.2927 78.4446 52.8597 77.5329 52.7201C76.7387 52.5872 75.9249 52.6345 75.1514 52.8584C74.378 53.0823 73.6648 53.4771 73.0645 54.0137L73.4175 53.7257C74.3156 53.1849 75.3466 52.905 76.3949 52.9175C77.447 52.9355 78.4559 53.3388 79.2306 54.0509C79.9273 54.7104 80.3431 55.6046 80.7402 56.4755C80.8045 56.0212 80.765 55.5582 80.6246 55.1213C80.4842 54.6845 80.2466 54.2851 79.9297 53.9533Z" fill="black"/>
</g>
<path d="M67.9688 39.3915C67.9876 39.3044 68.0157 39.2195 68.0524 39.1383C68.1244 38.9549 68.2126 38.7296 68.3148 38.4625C68.547 37.8935 68.849 37.1085 69.1741 36.2329C69.4993 35.3574 69.7803 34.5607 69.9823 33.9848L70.2146 33.2996C70.2395 33.2141 70.2738 33.1315 70.3168 33.0535C70.3095 33.1424 70.29 33.23 70.2587 33.3136C70.2146 33.4808 70.1449 33.7177 70.0543 34.0103C69.8732 34.5956 69.6038 35.4038 69.2786 36.2747C68.9535 37.1457 68.6306 37.9353 68.3845 38.495C68.2637 38.776 68.1522 39.0013 68.0849 39.1569C68.0559 39.2396 68.0169 39.3183 67.9688 39.3915Z" fill="#263238"/>
<path d="M38.6913 39.6191C38.6588 39.6191 38.4057 38.5205 38.127 37.1503C37.8483 35.78 37.6485 34.6769 37.6741 34.6583C37.6996 34.6397 37.9574 35.7568 38.2361 37.1271C38.5148 38.4973 38.7238 39.6121 38.6913 39.6191Z" fill="#263238"/>
<path d="M38.2524 53.4354C38.3267 53.4725 37.4023 46.1986 37.4023 46.1986C37.4023 46.1986 37.9853 40.6781 38.3128 40.4226V38.4741C38.3128 38.4741 39.2162 37.9283 39.4577 38.8108C39.4577 38.8108 40.259 38.1141 40.3867 39.77C40.5145 41.4259 40.5563 43.1167 40.5563 43.1167L42.3376 47.5712L42.6302 47.7198C42.6302 47.7198 43.0134 44.2361 43.2364 43.7159C43.4593 43.1956 43.6126 41.9531 44.4557 42.1412C45.2987 42.3294 45.3707 43.0261 45.2198 44.1641C45.0688 45.3021 44.8784 46.4866 44.9504 47.2158C45.0224 47.9451 45.3545 49.5685 45.2523 50.8551C45.1501 52.1418 44.4441 53.4981 43.7055 54.4503C42.967 55.4025 41.5526 57.3743 40.7862 57.9665C40.5377 58.1755 38.2524 53.4354 38.2524 53.4354Z" fill="#FFBE9D"/>
<path d="M39.1533 47.5154C39.1417 47.412 39.1417 47.3076 39.1533 47.2042C39.1673 46.972 39.1882 46.6979 39.2114 46.3588C39.2648 45.6458 39.3484 44.6611 39.4436 43.5719C39.4947 43.0307 39.5435 42.5152 39.5876 42.0414C39.6141 41.8231 39.6141 41.6024 39.5876 41.3841C39.5629 41.1972 39.4819 41.0222 39.3554 40.8825C39.2626 40.7824 39.1501 40.7024 39.0251 40.6477C38.9 40.593 38.765 40.5646 38.6285 40.5643C38.5263 40.5691 38.4246 40.5815 38.3242 40.6014C38.347 40.5855 38.3721 40.573 38.3985 40.5643C38.473 40.5364 38.5513 40.5199 38.6308 40.5155C38.7772 40.5072 38.9238 40.5304 39.0604 40.5837C39.1971 40.637 39.3206 40.7191 39.4227 40.8244C39.5632 40.9752 39.6533 41.1659 39.6805 41.3702C39.7097 41.5961 39.7097 41.8248 39.6805 42.0507C39.6387 42.5152 39.5923 43.0424 39.5458 43.5835C39.446 44.6704 39.3484 45.6528 39.2718 46.3705L39.1766 47.2135C39.1775 47.3146 39.1697 47.4156 39.1533 47.5154Z" fill="#EB996E"/>
<path d="M40.1094 44.5404C39.9797 44.7171 39.8735 44.9099 39.7936 45.114C39.6519 45.6283 39.5532 46.1534 39.4986 46.684C39.401 47.3064 39.3082 47.8684 39.2338 48.2749C39.2069 48.4965 39.1586 48.7151 39.0898 48.9275C39.0907 48.704 39.1109 48.481 39.1502 48.2609C39.2013 47.8522 39.2826 47.2878 39.3825 46.6654C39.4823 46.043 39.5474 45.474 39.7192 45.0838C39.7803 44.9309 39.8658 44.7889 39.9724 44.6634C40.049 44.5705 40.1048 44.5357 40.1094 44.5404Z" fill="#EB996E"/>
<path d="M39.457 38.7156C39.4894 38.7895 39.5105 38.8678 39.5197 38.9479C39.5522 39.0965 39.5917 39.3125 39.6359 39.5819C39.7241 40.1184 39.8217 40.8639 39.8844 41.693C39.9471 42.5222 39.9587 43.2746 39.9494 43.8181C39.9494 44.0898 39.9378 44.3105 39.9262 44.4614C39.9281 44.5398 39.9187 44.618 39.8983 44.6937C39.8701 44.4019 39.8585 44.1088 39.8635 43.8158C39.8519 43.2723 39.824 42.5245 39.7636 41.7C39.7032 40.8755 39.6196 40.13 39.5522 39.5912C39.5032 39.3015 39.4714 39.0091 39.457 38.7156Z" fill="#EB996E"/>
<path d="M44.5958 45.5344C44.5077 45.5912 44.407 45.6256 44.3025 45.6345C44.1981 45.6435 44.093 45.6266 43.9966 45.5855C43.6552 45.4833 43.4972 45.2208 43.5321 45.2092C43.692 45.3108 43.8607 45.3978 44.0361 45.4693C44.2205 45.5065 44.4077 45.5283 44.5958 45.5344Z" fill="#EB996E"/>
<path d="M38.3509 52.5296L33.6456 54.5084H30.8401C30.8401 54.5084 28.0671 55.3747 27.6397 57.9758C27.2124 60.577 27.152 61.9124 28.3713 62.2352C29.5906 62.558 33.0348 62.5929 34.7418 62.0262C36.4488 61.4595 40.9219 57.8458 40.9219 57.8458L41.3516 55.2353L38.3509 52.5296Z" fill="#FFBE9D"/>
<path d="M39.4549 55.4048C39.4549 55.4048 39.4014 55.3654 39.3202 55.2817C39.2081 55.1603 39.1064 55.0298 39.0159 54.8916C38.7213 54.4322 38.4996 53.93 38.3587 53.4029C38.213 52.8803 38.1158 52.3454 38.0683 51.805C38.037 51.5819 38.0308 51.356 38.0498 51.1315C38.1001 51.3493 38.1343 51.5706 38.152 51.7934C38.2236 52.3258 38.3315 52.8526 38.4748 53.3704C38.615 53.887 38.8211 54.3834 39.0879 54.8474C39.2993 55.1981 39.4711 55.3886 39.4549 55.4048Z" fill="#EB996E"/>
<path d="M41.5069 56.2293C41.6315 55.9038 41.7211 55.5659 41.774 55.2214C41.8794 54.3811 41.6527 53.5329 41.1423 52.8571C40.8566 52.4576 40.5338 52.1093 40.2621 51.7702C40.0146 51.4745 39.8012 51.152 39.6257 50.8087C39.5106 50.5744 39.4322 50.3237 39.3935 50.0655C39.3793 49.9716 39.3793 49.8761 39.3935 49.7822C39.4479 50.1259 39.5561 50.459 39.714 50.7692C39.8969 51.1007 40.1141 51.412 40.362 51.6982C40.6337 52.028 40.9588 52.3764 41.2515 52.7851C41.5361 53.1685 41.7364 53.6078 41.839 54.0741C41.9182 54.4563 41.9284 54.8495 41.8692 55.2353C41.8302 55.4927 41.7584 55.744 41.6556 55.9831C41.6184 56.0668 41.5836 56.1295 41.5604 56.1713C41.5371 56.2131 41.5093 56.2316 41.5069 56.2293Z" fill="#EB996E"/>
<path d="M34.2476 44.8957C33.8301 44.2187 33.4472 43.5211 33.1003 42.8055C32.4964 41.6442 32.0319 40.6781 32.0598 40.6618C32.4772 41.3388 32.8601 42.0364 33.2071 42.7521C33.5902 43.4484 33.9375 44.1639 34.2476 44.8957Z" fill="white"/>
<path d="M41.8555 36.421C42.0535 35.8256 42.2901 35.2438 42.5638 34.6792C42.8014 34.099 43.0752 33.5343 43.3836 32.9884C43.1844 33.5833 42.9478 34.1651 42.6753 34.7303C42.4383 35.3107 42.1645 35.8755 41.8555 36.421Z" fill="white"/>
<path d="M49.3168 41.9206C48.9315 41.5499 48.5744 41.1508 48.2485 40.7269C47.8933 40.3279 47.568 39.9033 47.2754 39.4565C47.661 39.8263 48.0174 40.2254 48.3414 40.6502C48.6977 41.0488 49.0238 41.4734 49.3168 41.9206Z" fill="white"/>
<path d="M47.6016 49.4849C47.8372 49.0603 48.1059 48.655 48.4051 48.2726C48.6746 47.8684 48.9767 47.487 49.3086 47.1322C49.0735 47.5572 48.8048 47.9626 48.505 48.3446C48.2371 48.7498 47.9348 49.1314 47.6016 49.4849Z" fill="white"/>
<path d="M45.2927 60.1705C45.1843 60.0268 45.0931 59.8709 45.021 59.706C44.8677 59.4088 44.6703 58.993 44.4706 58.5262C44.2708 58.0594 44.1106 57.6251 44.0061 57.3116C43.9366 57.1445 43.8867 56.9699 43.8574 56.7914C43.9531 56.9454 44.031 57.1098 44.0897 57.2814L44.589 58.4775C44.7818 58.9211 44.9536 59.3228 45.1046 59.6689C45.1858 59.8286 45.2489 59.9968 45.2927 60.1705Z" fill="white"/>
<path d="M51.8423 55.6278C51.3673 55.5964 50.8958 55.5257 50.4325 55.4165C49.9595 55.3464 49.4933 55.2361 49.0391 55.0867C49.9816 55.1882 50.9139 55.3693 51.826 55.6278H51.8423Z" fill="white"/>
<path d="M56.9512 45.6435C57.3673 45.1045 57.8156 44.5911 58.2936 44.106C58.743 43.5922 59.2222 43.1051 59.7288 42.6475C59.311 43.1866 58.862 43.7007 58.3841 44.1873C57.9348 44.6998 57.4563 45.186 56.9512 45.6435Z" fill="white"/>
<path d="M62.0602 58.9582C62.0347 58.9814 61.2845 58.1105 60.3834 57.019C59.4823 55.9274 58.774 55.0216 58.7995 55.0007C58.825 54.9798 59.5752 55.8484 60.4763 56.94C61.3774 58.0315 62.0811 58.9373 62.0602 58.9582Z" fill="white"/>
<path d="M30.2888 53.2844C30.3051 53.3169 29.6199 53.6653 28.8721 54.239C28.1243 54.8126 27.604 55.3793 27.5762 55.3537C27.6606 55.2067 27.7671 55.0736 27.892 54.9589C28.1702 54.6619 28.4732 54.3892 28.7978 54.1437C29.121 53.897 29.4644 53.6779 29.8243 53.4888C29.9684 53.3985 30.1249 53.3296 30.2888 53.2844Z" fill="white"/>
<path d="M32.2016 48.1472C32.054 48.4758 31.871 48.7873 31.6558 49.0761C31.4724 49.3872 31.2551 49.677 31.0078 49.9401C31.1558 49.6117 31.3388 49.3002 31.5536 49.0111C31.7364 48.6997 31.9538 48.4099 32.2016 48.1472Z" fill="white"/>
<path d="M36.5119 53.1915C36.14 52.6002 35.9811 51.8997 36.0613 51.2058C36.0962 51.2058 36.1078 51.6703 36.2355 52.2115C36.3633 52.7526 36.5444 53.1753 36.5119 53.1915Z" fill="white"/>
<path d="M37.1526 37.1851C36.8638 37.2859 36.5633 37.3491 36.2584 37.3732C35.9585 37.4362 35.6516 37.4589 35.3457 37.4406C35.6353 37.34 35.9366 37.2768 36.2422 37.2525C36.5415 37.1908 36.8475 37.1682 37.1526 37.1851Z" fill="white"/>
<path d="M40.3894 31.4417C39.8892 31.8118 39.3426 32.1147 38.7637 32.3428C39.0013 32.1412 39.2645 31.9718 39.5463 31.8388C39.8094 31.6713 40.0927 31.5378 40.3894 31.4417Z" fill="white"/>
<path d="M49.4962 33.8686C49.168 33.5349 48.8682 33.1744 48.5997 32.791C48.3017 32.4308 48.0345 32.0463 47.8008 31.6414C48.4292 32.3335 48.9964 33.0787 49.4962 33.8686Z" fill="white"/>
<path d="M61.0535 39.6423C60.4134 39.0114 59.9319 38.2378 59.6484 37.3848C59.6833 37.3709 59.9318 37.912 60.322 38.5321C60.7121 39.1522 61.0814 39.6191 61.0535 39.6423Z" fill="white"/>
<path d="M65.4687 41.0961C65.1885 41.9126 64.8307 42.7004 64.4004 43.4488C64.5242 43.0349 64.6851 42.633 64.8811 42.2481C65.0401 41.8463 65.2368 41.4606 65.4687 41.0961Z" fill="white"/>
<path d="M66.0852 35.074C65.663 34.664 65.2703 34.2248 64.91 33.7594C64.5186 33.3202 64.1578 32.8546 63.8301 32.366C64.6427 33.2161 65.3962 34.1209 66.0852 35.074Z" fill="white"/>
<path d="M59.344 30.1828C59.2704 29.8128 59.2354 29.4361 59.2395 29.0588C59.2045 28.6823 59.21 28.3031 59.2558 27.9277C59.3294 28.2978 59.3644 28.6745 59.3603 29.0518C59.3968 29.4283 59.3913 29.8076 59.344 30.1828Z" fill="white"/>
<path d="M64.8474 29.8786C64.3767 30.002 63.8966 30.0867 63.4121 30.1318C62.9335 30.2159 62.4488 30.2602 61.9629 30.2642C62.4336 30.1408 62.9136 30.0561 63.3982 30.011C63.8768 29.9268 64.3615 29.8826 64.8474 29.8786Z" fill="white"/>
<path d="M73.4934 36.2352C73.1709 35.706 72.8823 35.1568 72.6294 34.5909C72.3423 34.0418 72.0909 33.4747 71.877 32.8932C72.2008 33.4221 72.4902 33.9713 72.7432 34.5375C73.0294 35.0867 73.28 35.6538 73.4934 36.2352Z" fill="white"/>
<path d="M72.0449 41.7278C72.1421 40.8408 72.3178 39.9641 72.5698 39.1081C72.5417 39.5537 72.4741 39.9959 72.3677 40.4296C72.3 40.8713 72.1919 41.3058 72.0449 41.7278Z" fill="white"/>
<path d="M76.0497 46.0569C75.7789 45.4782 75.5461 44.8824 75.3529 44.2733C75.1227 43.6777 74.9311 43.068 74.7793 42.4478C75.0485 43.028 75.2812 43.6245 75.476 44.2338C75.7053 44.8289 75.8969 45.4378 76.0497 46.0569Z" fill="white"/>
<path d="M75.4907 48.5908C75.0761 48.5283 74.6777 48.3856 74.3179 48.1704C73.94 47.9889 73.6027 47.733 73.3262 47.4179C73.3494 47.39 73.7767 47.7431 74.3759 48.0636C74.9751 48.3841 75.5023 48.5559 75.4907 48.5908Z" fill="white"/>
<path d="M80.6403 54.3644C80.3276 53.8574 80.0846 53.3105 79.918 52.7386C80.2307 53.2457 80.4736 53.7925 80.6403 54.3644Z" fill="white"/>
<path d="M50.2639 62.4187C50.1649 62.0837 50.1041 61.7385 50.0827 61.3898C50.0239 61.0456 50.0037 60.6958 50.0224 60.347C50.1284 60.684 50.1931 61.0326 50.2151 61.3852C50.2707 61.7267 50.2871 62.0735 50.2639 62.4187Z" fill="white"/>
<path d="M66.041 62.0193C66.0517 61.6793 66.1023 61.3417 66.192 61.0136C66.2443 60.6775 66.3355 60.3486 66.4637 60.0335C66.453 60.3737 66.4016 60.7113 66.3104 61.0392C66.2595 61.3753 66.1691 61.7043 66.041 62.0193Z" fill="white"/>
</g>
<defs>
<clipPath id="clip0_29071_31519">
<rect x="0.359375" width="108.281" height="70" rx="2" fill="white"/>
</clipPath>
</defs>
</svg>
